<svg width="511" height="512" viewBox="0 0 511 512" fill="none" xmlns="http://www.w3.org/2000/svg">
<rect width="511" height="512"/>
<g clip-path="url(#clip0)">
<path d="M445.152 342.82H66.6445C53.6406 342.82 43.0977 353.363 43.0977 366.367V386.992C43.0977 392.109 47.25 396.262 52.3672 396.262H459.43C464.547 396.262 468.699 392.109 468.699 386.992V366.367C468.699 353.363 458.156 342.82 445.152 342.82V342.82Z" fill="#FC4E51"/>
<path d="M445.152 342.82H385.707C398.711 342.82 409.25 353.363 409.25 366.367V396.258H459.43C464.551 396.258 468.699 392.109 468.699 386.988V366.367C468.699 353.363 458.156 342.82 445.152 342.82V342.82Z" fill="#EA3942"/>
<path d="M445.152 234.973H66.6445C53.6406 234.973 43.0977 224.434 43.0977 211.43V181.535H468.699V211.43C468.699 224.434 458.156 234.973 445.152 234.973Z" fill="#FC4E51"/>
<path d="M409.25 181.535V211.43C409.25 224.434 398.711 234.973 385.707 234.973H445.152C458.156 234.973 468.699 224.434 468.699 211.43V181.535H409.25Z" fill="#EA3942"/>
<path d="M445.152 321.969H66.6445C53.6406 321.969 43.0977 311.426 43.0977 298.422V253.789H468.699V298.422C468.699 311.426 458.156 321.969 445.152 321.969Z" fill="#912C2C"/>
<path d="M409.25 253.789V298.422C409.25 311.426 398.711 321.969 385.707 321.969H445.152C458.156 321.969 468.699 311.426 468.699 298.422V253.789H409.25Z" fill="#7C1E1E"/>
<path d="M474.02 391.512H37.7773C27.1289 391.512 18.5 400.145 18.5 410.789C18.5 466.133 63.3672 511 118.711 511H393.086C448.43 511 493.297 466.133 493.297 410.789C493.297 400.145 484.668 391.512 474.02 391.512V391.512Z" fill="#EFA335"/>
<path d="M474.02 391.512H433.848V410.789C433.848 466.133 388.984 511 333.641 511H393.086C448.43 511 493.297 466.133 493.297 410.789C493.297 400.145 484.668 391.512 474.02 391.512V391.512Z" fill="#FD8F31"/>
<path d="M463.961 229.762C476.387 229.762 486.863 239.941 486.871 252.723C486.883 270.977 465.793 280.633 441.289 277.098C418.406 273.793 418.117 263.406 394.945 263.406C371.77 263.406 371.77 277.098 348.594 277.098C325.422 277.098 325.422 263.406 302.246 263.406C279.074 263.406 279.074 277.098 255.902 277.098C232.727 277.098 232.727 263.406 209.555 263.406C186.379 263.406 186.379 277.098 163.207 277.098C140.031 277.098 140.031 263.406 116.859 263.406C93.6836 263.406 93.3945 273.793 70.5117 277.098C46.0078 280.637 24.918 270.977 24.9297 252.723C24.9414 239.941 35.4141 229.762 47.8398 229.762H463.961Z" fill="#A0E557"/>
<path d="M469.656 311.176H42.6289C33.3593 311.176 25.3828 318.297 24.9453 327.559C24.4804 337.441 32.3593 345.605 42.1406 345.605H246.133C256.695 345.605 267.133 347.824 276.781 352.117L340.219 380.348C356.039 387.387 374.234 386.68 389.461 378.43L433.262 354.703C444.289 348.73 456.629 345.605 469.168 345.605C478.437 345.605 486.414 338.48 486.852 329.223C487.316 319.336 479.437 311.176 469.656 311.176V311.176Z" fill="#FCCF3F"/>
<path d="M255.898 -1C34.8672 -0.917969 18.5 144.895 18.5 165.543C18.5 176.188 27.1289 184.816 37.7773 184.816H474.02C484.668 184.816 493.297 176.188 493.297 165.543C493.297 144.895 476.93 -0.917969 255.898 -1Z" fill="#EFA335"/>
<path d="M493.281 164.414C493.281 164.391 493.281 164.367 493.281 164.344C493.27 163.949 493.254 163.527 493.234 163.074C493.234 163.039 493.23 163.004 493.23 162.973C493.207 162.516 493.18 162.031 493.148 161.523C493.148 161.488 493.145 161.457 493.141 161.422C493.105 160.895 493.066 160.344 493.016 159.758C493.016 159.738 493.012 159.719 493.012 159.699C492.805 157.25 492.465 154.316 491.934 150.98C485.137 108.145 447.062 -0.929688 255.898 -1C245.547 -0.996094 235.648 -0.671875 226.176 -0.058594C370.844 9.33984 415.332 86.7852 428.531 133.184C432.809 148.23 421.395 163.172 405.754 163.172H37.7773C29.6367 163.172 22.6875 158.117 19.8633 150.98C18.8008 157.672 18.5 162.754 18.5 165.543C18.5 176.188 27.1289 184.82 37.7773 184.82H474.02C484.668 184.82 493.297 176.188 493.297 165.543C493.297 165.199 493.293 164.82 493.281 164.414V164.414Z" fill="#FD8F31"/>
<path d="M486.648 249.598C485.098 238.324 475.352 229.762 463.961 229.762H427.203V273.375C430.902 274.891 435.324 276.234 441.289 277.098C464.344 280.426 484.375 272.066 486.648 255.863V249.598Z" fill="#93CC4A"/>
<path d="M486.648 325.633C485.328 317.438 478.223 311.176 469.656 311.176H427.203V357.988L433.262 354.703C444.289 348.734 456.629 345.605 469.168 345.605C477.801 345.605 485.309 339.422 486.648 331.094V325.633Z" fill="#EFC03C"/>
</g>
<defs>
<clipPath id="clip0">
<rect width="511" height="511.999" fill="white"/>
</clipPath>
</defs>
</svg>
