<svg width="512" height="524" viewBox="0 0 512 524" fill="none" xmlns="http://www.w3.org/2000/svg">
<rect width="511" height="512"/>
<path d="M460.176 320.22H52.0078C37.9844 320.22 26.6172 331.854 26.6172 346.206V368.969C26.6172 374.618 31.0938 379.196 36.6133 379.196H475.57C481.09 379.196 485.566 374.618 485.566 368.969V346.206C485.566 331.858 474.199 320.22 460.176 320.22V320.22Z" fill="#912C2C"/>
<path d="M460.176 320.22H425.973V379.196H475.57C481.09 379.196 485.566 374.614 485.566 368.965V346.206C485.566 331.854 474.199 320.22 460.176 320.22V320.22Z" fill="#7C1E1E"/>
<path d="M477.254 289.181C490.473 289.181 501.613 300.419 501.625 314.523C501.637 334.668 479.199 345.326 453.133 341.42C428.785 337.774 428.477 326.313 403.824 326.313C379.168 326.313 379.168 341.42 354.516 341.42C329.859 341.42 329.859 326.313 305.207 326.313C280.555 326.313 280.555 341.42 255.898 341.42C231.246 341.42 231.246 326.313 206.59 326.313C181.938 326.313 181.938 341.42 157.285 341.42C132.629 341.42 132.629 326.313 107.973 326.313C83.3203 326.313 83.0117 337.774 58.6641 341.42C32.5977 345.326 10.1602 334.668 10.1758 314.523C10.1836 300.419 21.3281 289.181 34.5469 289.181H477.254Z" fill="#A0E557"/>
<path d="M501.625 314.523C501.613 300.419 490.473 289.181 477.254 289.181H440.254V338.162C443.754 339.485 447.883 340.637 453.133 341.42C479.199 345.326 501.637 334.668 501.625 314.523V314.523Z" fill="#93CC4A"/>
<path d="M491.215 373.958H20.7852C9.30859 373.958 0 383.481 0 395.231C0 456.313 48.3828 505.826 108.062 505.826H403.938C463.617 505.826 512 456.313 512 395.235C512 383.481 502.691 373.958 491.215 373.958V373.958Z" fill="#EFA335"/>
<path d="M491.215 373.958H452.516V416.507C452.516 465.84 413.441 505.83 365.238 505.83H403.938C463.617 505.826 512 456.313 512 395.235C512 383.481 502.691 373.958 491.215 373.958V373.958Z" fill="#FD8F31"/>
<path d="M256 89.0391C17.6484 89.1315 0 250.854 0 273.755C0 285.563 9.30859 295.138 20.7852 295.138H491.215C502.691 295.138 512 285.563 512 273.755C512 250.854 494.352 89.1315 256 89.0391Z" fill="#EFA335"/>
<path d="M511.996 273.149C511.996 273.08 511.992 273.008 511.992 272.94C511.988 272.787 511.988 272.63 511.984 272.47C511.98 272.393 511.98 272.313 511.977 272.237C511.973 272.068 511.969 271.899 511.961 271.722C511.957 271.642 511.953 271.562 511.953 271.481C511.945 271.292 511.938 271.096 511.926 270.895C511.926 270.822 511.922 270.754 511.918 270.682C511.906 270.445 511.895 270.204 511.879 269.955C511.879 269.914 511.875 269.87 511.871 269.83C511.781 268.279 511.641 266.479 511.426 264.462C511.426 264.458 511.426 264.454 511.426 264.454C507.055 223.136 472.969 89.1234 256 89.0391C245.676 89.0431 235.773 89.3565 226.258 89.9431C370.656 98.8384 423.445 171.986 442.34 223.975C450.289 245.852 434.387 269.135 411.684 269.135H20.7852C12.2266 269.135 4.87891 263.811 1.69141 256.206C0.363281 264.322 0 270.469 0 273.755C0 285.563 9.30859 295.138 20.7852 295.138H491.215C502.691 295.138 512 285.563 512 273.755C512 273.562 511.996 273.362 511.996 273.149Z" fill="#FD8F31"/>
</svg>
