<svg width="512" height="525" viewBox="0 0 512 525" fill="none" xmlns="http://www.w3.org/2000/svg">
<rect x="1" width="511" height="512" />
<g clip-path="url(#clip0)">
<path d="M460.176 320.831H52.0078C37.9844 320.831 26.6172 332.487 26.6172 346.866V369.673C26.6172 375.333 31.0938 379.919 36.6133 379.919H475.57C481.09 379.919 485.566 375.333 485.566 369.673V346.866C485.566 332.491 474.199 320.831 460.176 320.831V320.831Z" fill="#912C2C"/>
<path d="M460.176 320.831H425.973V379.919H475.57C481.09 379.919 485.566 375.329 485.566 369.669V346.866C485.566 332.487 474.199 320.831 460.176 320.831V320.831Z" fill="#7C1E1E"/>
<path d="M477.254 289.733C490.473 289.733 501.613 300.992 501.625 315.123C501.637 335.307 479.199 345.985 453.133 342.072C428.785 338.419 428.477 326.935 403.824 326.935C379.168 326.935 379.168 342.072 354.516 342.072C329.859 342.072 329.859 326.935 305.207 326.935C280.555 326.935 280.555 342.072 255.898 342.072C231.246 342.072 231.246 326.935 206.59 326.935C181.938 326.935 181.938 342.072 157.285 342.072C132.629 342.072 132.629 326.935 107.973 326.935C83.3203 326.935 83.0117 338.419 58.6641 342.072C32.5977 345.985 10.1602 335.307 10.1758 315.123C10.1836 300.992 21.3281 289.733 34.5469 289.733H477.254Z" fill="#A0E557"/>
<path d="M501.625 315.123C501.613 300.992 490.473 289.733 477.254 289.733H440.254V338.807C443.754 340.133 447.883 341.287 453.133 342.072C479.199 345.985 501.637 335.307 501.625 315.123V315.123Z" fill="#93CC4A"/>
<path d="M491.215 374.672H20.7852C9.30859 374.672 0 384.213 0 395.985C0 457.184 48.3828 506.791 108.062 506.791H403.938C463.617 506.791 512 457.184 512 395.989C512 384.213 502.691 374.672 491.215 374.672V374.672Z" fill="#EFA335"/>
<path d="M491.215 374.672H452.516V417.302C452.516 466.729 413.441 506.795 365.238 506.795H403.938C463.617 506.791 512 457.184 512 395.989C512 384.213 502.691 374.672 491.215 374.672V374.672Z" fill="#FD8F31"/>
<path d="M460.086 262.6H51.9141C37.8945 262.6 26.5273 250.944 26.5273 236.569V213.762C26.5273 208.102 31 203.512 36.5195 203.512H475.48C481 203.512 485.473 208.102 485.473 213.762V236.569C485.473 250.944 474.105 262.6 460.086 262.6Z" fill="#FC4E51"/>
<path d="M475.48 203.516H426.066V246.815C426.066 255.535 419.176 262.6 410.672 262.6H460.086C474.105 262.6 485.473 250.944 485.473 236.569V213.762C485.473 208.102 481 203.516 475.48 203.516V203.516Z" fill="#EA3942"/>
<path d="M481.523 257.653H30.9531C20.7383 257.653 12.0586 266.225 12.25 276.699C12.4375 286.861 20.5234 295.036 30.4766 295.036H316.754C321.406 295.036 325.902 296.738 329.434 299.842L370.062 335.539C381.93 345.965 399.648 345.184 410.598 333.753L441.969 301.012C445.633 297.187 450.641 295.036 455.867 295.036H481.047C491.266 295.036 499.941 286.46 499.75 275.986C499.562 265.828 491.477 257.653 481.523 257.653V257.653Z" fill="#FCCF3F"/>
<path d="M256 17.4316C17.6484 17.5238 0 178.75 0 201.581C0 213.353 9.30859 222.898 20.7852 222.898H491.215C502.691 222.898 512 213.353 512 201.581C512 178.75 494.352 17.5238 256 17.4316Z" fill="#EFA335"/>
<path d="M511.996 200.977C511.996 200.908 511.992 200.836 511.992 200.768C511.988 200.616 511.988 200.46 511.984 200.3C511.98 200.224 511.98 200.143 511.977 200.067C511.973 199.899 511.969 199.731 511.961 199.555C511.957 199.475 511.953 199.394 511.953 199.314C511.945 199.126 511.938 198.93 511.926 198.73C511.926 198.657 511.922 198.589 511.918 198.517C511.906 198.281 511.895 198.041 511.879 197.792C511.879 197.752 511.875 197.708 511.871 197.668C511.781 196.122 511.641 194.328 511.426 192.317C511.426 192.313 511.426 192.309 511.426 192.309C507.055 151.117 472.969 17.5158 256 17.4316C245.676 17.4356 235.773 17.7481 226.258 18.3329C370.656 27.2009 423.445 100.124 442.34 151.954C450.289 173.764 434.387 196.975 411.684 196.975H20.7852C12.2266 196.975 4.87891 191.668 1.69141 184.086C0.363281 192.177 0 198.305 0 201.581C0 213.353 9.30859 222.898 20.7852 222.898H491.215C502.691 222.898 512 213.353 512 201.581C512 201.389 511.996 201.189 511.996 200.977Z" fill="#FD8F31"/>
<path d="M481.523 257.653H440.254V302.803L441.965 301.012C445.629 297.187 450.641 295.036 455.867 295.036H481.047C491.262 295.036 499.941 286.46 499.75 275.986C499.563 265.828 491.477 257.653 481.523 257.653V257.653Z" fill="#EFC03C"/>
</g>
<defs>
<clipPath id="clip0">
<rect width="512" height="525" fill="white"/>
</clipPath>
</defs>
</svg>
