<svg width="827" height="766" viewBox="0 0 827 766" fill="none" xmlns="http://www.w3.org/2000/svg">
<path d="M815 39.9999H702.141C693.811 39.9999 688.015 48.2789 690.865 56.1059L813.505 392.894C814.471 395.546 814.471 398.454 813.505 401.106L687.875 746.106C686.149 750.846 681.643 754 676.599 754H24.4301C16.0203 754 10.2191 745.574 13.2202 737.718L141.369 402.27C142.419 399.52 142.422 396.479 141.377 393.726L13.1776 56.2615C10.1944 48.4087 15.9951 39.9999 24.3954 39.9999H527" stroke="#0D4A4F" stroke-width="24"/>
<path d="M536.613 36.0762L502 0H487H468L511.39 41.4712L468.5 83H502.5L536.613 46.8673C538.047 45.4309 538.835 43.5132 538.831 41.4746C538.835 39.428 538.047 37.5114 536.613 36.0762Z" fill="#0D4A4F"/>
</svg>
