<?xml version="1.0" encoding="iso-8859-1"?>
<!-- Generator: Adobe Illustrator 18.0.0, SVG Export Plug-In . SVG Version: 6.00 Build 0)  -->
<!DOCTYPE svg PUBLIC "-//W3C//DTD SVG 1.1//EN" "http://www.w3.org/Graphics/SVG/1.1/DTD/svg11.dtd">
<svg version="1.1" id="Capa_1" xmlns="http://www.w3.org/2000/svg" xmlns:xlink="http://www.w3.org/1999/xlink" x="0px" y="0px"
	 viewBox="0 0 58.854 58.854" style="enable-background:new 0 0 58.854 58.854;" xml:space="preserve" fill="#fff" opacity=".06">
<path d="M46.553,20.452c-0.992-0.732-1.926-1.394-2.811-2.021c-3.506-2.481-6.047-4.286-8.355-7.729
	c-0.579-1.8-1.133-3.797-1.776-6.124L32.338,0l-3.482,1.665l0.158,0.767c0.01,0.049,0.265,1.326,0.509,3.371
	c-0.626,1.374-1.156,2.603-1.632,3.711c-0.766,1.784-1.395,3.245-2.109,4.552c-1.476,0.956-3.119,1.799-4.859,2.687
	c-2.195,1.121-4.464,2.28-6.371,3.69C7.106,25.579,2.551,32.964,2.938,39.268c-0.015,0.801,0.034,6.188,3.707,10.145
	c2.551,2.748,6.207,4.141,10.867,4.141c0.796,0,1.602-0.107,2.448-0.303c0.864,0.195,1.773,0.305,2.737,0.305
	c0.034,0,0.069-0.001,0.103-0.001c-0.027,0.122-0.035,0.249-0.013,0.38c0.082,0.489,0.505,0.835,0.985,0.835
	c0.055,0,0.11-0.004,0.166-0.014l3.405-0.569l-1.632,1.635c-0.391,0.391-0.39,1.024,0.001,1.414
	c0.195,0.195,0.451,0.292,0.707,0.292c0.256,0,0.513-0.098,0.708-0.293l2.259-2.263v2.882c0,0.552,0.448,1,1,1s1-0.448,1-1v-2.882
	l2.259,2.263c0.195,0.196,0.451,0.293,0.708,0.293c0.256,0,0.511-0.097,0.707-0.292c0.391-0.39,0.392-1.023,0.001-1.414
	l-1.636-1.639l3.377,0.677c0.066,0.013,0.132,0.02,0.197,0.02c0.467,0,0.884-0.328,0.979-0.804c0.03-0.151,0.018-0.298-0.018-0.438
	c0.85-0.048,1.696-0.235,2.521-0.555c1.029,0.29,2.064,0.453,3.085,0.47c0.079,0.001,0.157,0.002,0.235,0.002
	c3.241,0,5.929-1.108,7.992-3.294c3.693-3.914,4.069-9.965,4.103-10.955h0.003C56.128,35.736,55.68,26.756,46.553,20.452z
	 M33.534,11.468c0,0.001,0,0.001,0,0.002c0.004,0.013,0.008,0.025,0.013,0.038c0.087,0.268,0.176,0.535,0.265,0.796
	c0.01,0.029,0.021,0.058,0.031,0.087c0.141,0.408,0.286,0.809,0.434,1.202c0.068,0.181,0.137,0.361,0.208,0.54
	c0.059,0.149,0.119,0.299,0.179,0.447c0.096,0.235,0.196,0.469,0.298,0.701c0.067,0.152,0.135,0.305,0.204,0.455
	c0.104,0.228,0.211,0.455,0.322,0.682c0.071,0.144,0.143,0.288,0.217,0.431c0.087,0.169,0.176,0.339,0.267,0.507
	c0.081,0.15,0.16,0.3,0.244,0.449c0.148,0.263,0.302,0.526,0.462,0.788c0.103,0.17,0.213,0.34,0.322,0.509
	c0.085,0.132,0.17,0.265,0.259,0.398c0.114,0.172,0.231,0.344,0.351,0.515c0.099,0.142,0.204,0.285,0.307,0.428
	c0.17,0.234,0.345,0.468,0.526,0.703c0.156,0.202,0.313,0.404,0.479,0.608c0.107,0.132,0.22,0.265,0.331,0.398
	c0.17,0.203,0.345,0.407,0.524,0.612c0.1,0.114,0.199,0.227,0.301,0.341c0.288,0.321,0.585,0.644,0.9,0.972
	c0.45,0.44,0.868,0.886,1.262,1.336c0.069,0.079,0.129,0.158,0.196,0.237c0.331,0.389,0.649,0.779,0.94,1.173
	c0.035,0.047,0.067,0.094,0.101,0.142c4.095,5.635,4.271,11.739,2.828,16.281c-0.013,0.041-0.026,0.083-0.04,0.124
	c-0.109,0.336-0.228,0.662-0.354,0.979c-0.022,0.055-0.045,0.11-0.067,0.164c-0.112,0.274-0.232,0.539-0.355,0.798
	c-0.075,0.156-0.152,0.31-0.231,0.463c-0.044,0.084-0.087,0.169-0.132,0.252c-0.091,0.167-0.184,0.331-0.28,0.493
	c-0.039,0.067-0.078,0.133-0.118,0.199c-0.112,0.182-0.226,0.361-0.344,0.535c-0.023,0.034-0.046,0.069-0.07,0.103
	c-1.187,1.723-2.671,3.047-4.305,3.754c-0.021,0.009-0.037,0.026-0.057,0.036c-1.045,0.437-2.123,0.608-3.181,0.461
	c-0.095-0.013-0.186-0.018-0.271-0.018c-0.132,0-0.25,0.012-0.346,0.021c-0.049,0.005-0.099,0.012-0.148,0.012h-3.28
	c-1.441,0-2.869-0.471-4.153-1.289c-0.227-0.145-0.444-0.304-0.658-0.467c-0.092-0.071-0.185-0.141-0.275-0.215
	c-0.176-0.145-0.346-0.297-0.513-0.454c-0.138-0.131-0.272-0.268-0.403-0.408c-0.119-0.126-0.24-0.252-0.352-0.385
	c-0.214-0.253-0.418-0.517-0.61-0.794c-0.03-0.042-0.063-0.081-0.092-0.124c-0.228-0.339-0.437-0.697-0.629-1.068
	c-0.142-0.276-0.277-0.556-0.396-0.846c-0.005-0.013-0.009-0.026-0.014-0.039c-0.125-0.308-0.235-0.622-0.332-0.943
	c-0.01-0.034-0.02-0.068-0.03-0.102c-0.095-0.327-0.179-0.66-0.244-0.999c0-0.001,0-0.002-0.001-0.003
	c-0.079-0.411-0.139-0.866-0.171-1.354c-0.004-0.066-0.008-0.132-0.011-0.198c-0.008-0.159-0.013-0.32-0.013-0.486
	c0-0.183,0.002-0.367,0.011-0.551c0.004-0.086,0.011-0.174,0.017-0.262c0.013-0.189,0.03-0.379,0.053-0.569
	c0.006-0.048,0.011-0.096,0.017-0.145c0.254-1.914,0.987-3.851,2.187-5.714c0.004-0.005,0.006-0.011,0.01-0.016
	c0.173-0.269,0.357-0.536,0.549-0.801c0.346-0.476,0.665-0.97,0.97-1.471c0.047-0.077,0.095-0.152,0.141-0.23
	c0.29-0.49,0.56-0.99,0.814-1.499c0.038-0.077,0.076-0.155,0.114-0.232c0.26-0.535,0.503-1.077,0.726-1.629
	c0.001-0.003,0.002-0.006,0.004-0.009c3.43-8.496,2.637-18.743,1.979-23.561l-0.119-1.021l0.38,1.372
	C32.342,7.498,32.918,9.573,33.534,11.468z M8.194,48.14c-3.419-3.594-3.26-8.784-3.258-8.824c0.003-0.046,0.004-0.093,0.001-0.139
	C4.579,33.639,8.899,26.772,15.715,22.07c1.801-1.331,3.996-2.452,6.119-3.536c0.29-0.148,0.581-0.297,0.873-0.447
	c-0.79,0.776-1.708,1.541-2.811,2.356c-9.14,6.305-9.589,15.292-9.358,18.863h0.003c0.037,1.106,0.514,8.512,5.482,12.192
	C12.705,51.244,10.076,50.118,8.194,48.14z M19.607,51.078c-0.133-0.043-0.269-0.083-0.397-0.132
	c-0.237-0.091-0.467-0.192-0.692-0.303c-0.051-0.025-0.1-0.052-0.15-0.078c-0.733-0.382-1.405-0.869-2.009-1.47
	c-3.604-3.584-3.764-9.758-3.766-9.777l0.005-0.07l-0.004-0.07c-0.209-3.231,0.2-11.364,8.524-17.107
	c5.213-3.853,6.42-6.664,8.611-11.768c0.049-0.116,0.1-0.233,0.151-0.351c0.273,5.114,0.014,11.977-2.372,17.797
	c-0.025,0.061-0.049,0.123-0.075,0.184c-0.121,0.289-0.251,0.574-0.383,0.857c-0.074,0.158-0.15,0.316-0.228,0.472
	c-0.111,0.224-0.224,0.447-0.343,0.667c-0.123,0.227-0.252,0.451-0.383,0.673c-0.094,0.16-0.185,0.322-0.283,0.48
	c-0.241,0.385-0.491,0.765-0.759,1.133c-0.223,0.307-0.43,0.611-0.626,0.913c-0.017,0.026-0.032,0.053-0.048,0.079
	c-0.184,0.287-0.356,0.572-0.516,0.854c-0.009,0.016-0.017,0.033-0.026,0.049c-0.169,0.301-0.325,0.599-0.469,0.894
	c-0.006,0.013-0.012,0.026-0.018,0.038c-0.148,0.305-0.283,0.606-0.406,0.904c-0.007,0.017-0.014,0.035-0.021,0.052
	c-0.122,0.299-0.233,0.595-0.332,0.886c-0.008,0.025-0.017,0.049-0.025,0.074c-0.099,0.298-0.189,0.592-0.266,0.881
	c-0.006,0.022-0.013,0.044-0.019,0.067c-0.08,0.307-0.151,0.609-0.208,0.905c-0.019,0.098-0.032,0.197-0.049,0.295
	c-0.029,0.168-0.057,0.335-0.079,0.499c-0.025,0.181-0.044,0.361-0.061,0.542c-0.005,0.055-0.01,0.11-0.014,0.164
	c-0.131,1.556,0.011,3.097,0.432,4.587c0.001,0.003,0.002,0.006,0.003,0.009c0.085,0.301,0.182,0.6,0.29,0.897
	c0.029,0.08,0.059,0.159,0.09,0.238c0.081,0.21,0.168,0.419,0.261,0.626c0.059,0.132,0.119,0.262,0.182,0.391
	c0.033,0.068,0.061,0.138,0.095,0.205c0.058,0.115,0.123,0.224,0.185,0.336c0.052,0.096,0.103,0.193,0.158,0.287
	c0.153,0.263,0.312,0.52,0.481,0.767c0.034,0.049,0.071,0.096,0.106,0.145c0.149,0.212,0.303,0.418,0.463,0.618
	c0.056,0.069,0.113,0.137,0.17,0.205c0.165,0.198,0.335,0.389,0.511,0.575c0.036,0.038,0.071,0.077,0.108,0.114
	c0.228,0.234,0.461,0.461,0.703,0.673c-1.018,0.358-2.092,0.548-3.209,0.566C21.703,51.572,20.608,51.406,19.607,51.078z
	 M53.9,39.276c0,0.06-0.162,6.238-3.765,9.82c-1.684,1.674-3.863,2.492-6.539,2.458c-0.148-0.002-0.297-0.009-0.447-0.018
	c1.591-1.254,3.003-3.02,4.072-5.2c0.062-0.126,0.116-0.264,0.176-0.394c0.015-0.033,0.029-0.066,0.044-0.099
	c0.167-0.368,0.323-0.749,0.47-1.143c0.054-0.142,0.105-0.285,0.156-0.43c0.086-0.251,0.166-0.508,0.244-0.768
	c0.079-0.26,0.155-0.519,0.223-0.784c0.024-0.096,0.044-0.196,0.067-0.293c0.077-0.321,0.16-0.639,0.221-0.966
	c0.472-2.549,0.426-5.115-0.1-7.604c-0.049-0.24-0.115-0.481-0.174-0.722c-0.048-0.191-0.093-0.382-0.147-0.571
	c-0.091-0.33-0.195-0.661-0.305-0.992c-0.021-0.063-0.043-0.125-0.065-0.187c-0.388-1.128-0.892-2.258-1.521-3.38
	c-0.008-0.013-0.015-0.027-0.022-0.04c-0.203-0.361-0.418-0.72-0.648-1.079c-0.039-0.061-0.082-0.12-0.121-0.181
	c-0.319-0.486-0.662-0.968-1.033-1.448c-0.207-0.269-0.418-0.536-0.638-0.799c-0.138-0.163-0.278-0.326-0.422-0.488
	c-0.391-0.442-0.795-0.877-1.225-1.298c-0.303-0.315-0.588-0.625-0.865-0.933c-0.101-0.112-0.196-0.223-0.294-0.335
	c-0.169-0.192-0.334-0.384-0.493-0.574c-0.111-0.133-0.219-0.264-0.326-0.396c-0.138-0.17-0.271-0.34-0.402-0.509
	c-0.103-0.134-0.208-0.268-0.307-0.401c-0.143-0.191-0.278-0.382-0.412-0.573c-0.119-0.169-0.237-0.339-0.35-0.508
	c-0.141-0.211-0.28-0.421-0.412-0.632c-0.081-0.129-0.157-0.258-0.234-0.387c-0.103-0.172-0.205-0.344-0.303-0.517
	c-0.075-0.131-0.148-0.263-0.22-0.395c-0.031-0.056-0.059-0.113-0.089-0.169c1.479,1.307,3.091,2.448,4.893,3.724
	c0.879,0.622,1.807,1.278,2.791,2.006c0.009,0.006,0.018,0.013,0.026,0.019C53.701,27.812,54.11,35.945,53.9,39.276z"/>
<g>
</g>
<g>
</g>
<g>
</g>
<g>
</g>
<g>
</g>
<g>
</g>
<g>
</g>
<g>
</g>
<g>
</g>
<g>
</g>
<g>
</g>
<g>
</g>
<g>
</g>
<g>
</g>
<g>
</g>
</svg>
