<?xml version="1.0"?>
<svg xmlns="http://www.w3.org/2000/svg" xmlns:xlink="http://www.w3.org/1999/xlink" version="1.1" id="Capa_1" x="0px" y="0px" viewBox="0 0 59 59" style="enable-background:new 0 0 59 59;" xml:space="preserve" width="512px" height="512px" fill="#fff"><g><g>
	<path d="M40.455,42.443c-0.103-0.657-0.2-1.341-0.295-2.064c0.61-0.461,1.016-1.126,1.147-1.883   c0.136-0.789-0.043-1.585-0.505-2.239c-0.301-0.427-0.699-0.761-1.159-0.979c-0.045-0.635-0.084-1.271-0.115-1.906   c0.023-0.016,0.047-0.032,0.07-0.048c0.655-0.462,1.091-1.151,1.228-1.941c0.136-0.789-0.043-1.585-0.505-2.239   c-0.236-0.335-0.533-0.611-0.878-0.821c0.006-0.567,0.017-1.135,0.035-1.702c0.105-0.057,0.208-0.119,0.306-0.188   c0.655-0.462,1.091-1.151,1.227-1.941c0.137-0.789-0.043-1.585-0.504-2.238c-0.194-0.276-0.432-0.516-0.703-0.709   c0.058-0.618,0.122-1.235,0.193-1.852c1.002-0.496,1.674-1.533,1.674-2.69c0-0.839-0.355-1.628-0.958-2.188   c0.088-0.501,0.181-1.002,0.278-1.502c1.206-0.392,2.065-1.519,2.065-2.845c0-0.991-0.48-1.893-1.266-2.446   c-0.097-2.104-0.907-4.026-2.316-5.464C37.855,0.908,35.552,0,32.987,0c-2.224,0-4.454,0.936-6.636,2.782   C26.017,2.655,25.663,2.59,25.3,2.59c-1.654,0-3,1.346-3,3c0,0.469,0.11,0.925,0.318,1.338c-0.288,0.4-0.538,0.77-0.746,1.088   C20.136,7.827,18.561,9.241,18.561,11c0,0.744,0.272,1.443,0.753,1.983c-0.13,0.351-0.256,0.711-0.375,1.081   c-1.357,0.287-2.378,1.494-2.378,2.936c0,0.961,0.448,1.833,1.188,2.389c-0.087,0.63-0.162,1.281-0.224,1.948   c-0.107,0.057-0.211,0.121-0.311,0.19c-1.351,0.954-1.675,2.829-0.722,4.181c0.223,0.316,0.501,0.581,0.823,0.787   c0.002,0.607,0.014,1.221,0.034,1.836c-0.046,0.028-0.091,0.058-0.135,0.089c-1.351,0.954-1.675,2.829-0.722,4.182   c0.313,0.442,0.729,0.784,1.21,1.001c0.066,0.657,0.139,1.306,0.216,1.943c-0.646,0.462-1.075,1.146-1.21,1.93   c-0.137,0.789,0.043,1.585,0.504,2.239c0.372,0.527,0.894,0.91,1.493,1.108c0.093,0.528,0.187,1.039,0.28,1.532   c-0.071,0.061-0.139,0.124-0.203,0.19c-1.147,1.191-1.111,3.095,0.081,4.242c0.35,0.336,0.771,0.578,1.23,0.713   c0.285,1.168,0.502,1.953,0.548,2.09c0.001,0.004,0.002,0.008,0.004,0.012c-0.808,1.186-0.667,2.82,0.4,3.849   c0.474,0.457,1.082,0.738,1.73,0.812C24.8,57.449,27.515,59,31.061,59c5.083,0,9.538-3.784,10.362-8.803   c0.124-0.755,0.124-1.559-0.003-2.441c0.142-0.102,0.274-0.216,0.396-0.342c0.556-0.577,0.853-1.336,0.838-2.138   c-0.015-0.801-0.341-1.548-0.918-2.103C41.369,42.821,40.931,42.573,40.455,42.443z M40.374,46.027   c-0.102,0.105-0.234,0.188-0.394,0.243l-0.817,0.286l0.198,1.015c0.17,0.874,0.2,1.626,0.088,2.302   C38.782,53.937,35.175,57,31.061,57c-2.99,0-5.168-1.346-6.854-4.234l-0.327-0.561l-0.645,0.07   c-0.179,0.019-0.518,0.01-0.801-0.265c-0.397-0.382-0.41-1.017-0.074-1.369l0.588-0.535l-0.273-0.766   c-0.045-0.125-0.09-0.25-0.132-0.374c-0.026-0.083-0.285-0.998-0.657-2.575l-0.179-0.758l-0.778-0.013   c-0.257-0.004-0.498-0.102-0.677-0.274c-0.397-0.382-0.41-1.017-0.028-1.413c0.08-0.083,0.178-0.151,0.299-0.209l0.703-0.333   l-0.15-0.763c-0.172-0.877-0.347-1.819-0.516-2.819l-0.134-0.796l-0.806-0.037c-0.315-0.015-0.597-0.165-0.773-0.414   c-0.318-0.451-0.209-1.076,0.242-1.395c0.059-0.041,0.136-0.078,0.243-0.116l0.761-0.27l-0.104-0.801   c-0.135-1.047-0.257-2.127-0.359-3.229l-0.071-0.775l-0.769-0.121c-0.271-0.042-0.507-0.188-0.663-0.408   c-0.318-0.451-0.21-1.076,0.242-1.395c0.075-0.053,0.168-0.096,0.288-0.131l0.75-0.221l-0.033-0.78   c-0.043-1.021-0.063-2.046-0.057-3.046l0.004-0.726l-0.689-0.229c-0.146-0.048-0.351-0.151-0.503-0.366   c-0.318-0.451-0.21-1.076,0.24-1.394c0.098-0.069,0.212-0.12,0.339-0.15l0.703-0.172l0.057-0.721   c0.085-1.083,0.207-2.127,0.36-3.104l0.125-0.796l-0.75-0.291c-0.389-0.151-0.64-0.516-0.64-0.929c0-0.552,0.449-1,0.938-1.003   l0.931,0.066l0.225-0.77c0.23-0.788,0.49-1.535,0.773-2.222l0.321-0.78l-0.715-0.448c-0.296-0.186-0.473-0.501-0.473-0.844   c0-0.686,0.756-1.184,1.387-0.923l0.789,0.331l0.449-0.729c0.299-0.486,0.795-1.25,1.456-2.126l0.506-0.671l-0.574-0.614   C24.449,6.135,24.3,5.909,24.3,5.59c0-0.552,0.449-1,1-1c0.266,0,0.469,0.11,0.593,0.202l0.664,0.496l0.61-0.561   C29.14,2.918,31.098,2,32.987,2c2.024,0,3.82,0.694,5.057,1.956c1.166,1.188,1.788,2.835,1.753,4.637l-0.013,0.69l0.642,0.258   c0.382,0.152,0.629,0.516,0.629,0.925c0,0.533-0.42,0.969-0.958,0.992l-0.781,0.033l-0.156,0.767   c-0.191,0.94-0.365,1.882-0.524,2.826l-0.119,0.704l0.626,0.341C39.468,16.307,39.67,16.64,39.67,17   c0,0.472-0.334,0.884-0.795,0.979l-0.702,0.145l-0.088,0.712c-0.132,1.061-0.24,2.121-0.332,3.184l-0.065,0.759l0.714,0.265   c0.191,0.071,0.353,0.195,0.47,0.36c0.154,0.219,0.213,0.483,0.168,0.747c-0.045,0.263-0.19,0.493-0.408,0.646   c-0.105,0.074-0.225,0.127-0.354,0.156l-0.744,0.171l-0.031,0.763c-0.042,1.023-0.06,2.048-0.065,3.072l-0.003,0.751l0.72,0.213   c0.155,0.046,0.374,0.147,0.533,0.373c0.154,0.219,0.213,0.483,0.168,0.747c-0.045,0.263-0.19,0.493-0.407,0.646   c-0.066,0.046-0.15,0.086-0.264,0.124l-0.712,0.238l0.03,0.75c0.044,1.099,0.112,2.197,0.198,3.295l0.061,0.773l0.764,0.134   c0.263,0.046,0.491,0.19,0.645,0.407c0.154,0.219,0.213,0.483,0.168,0.747c-0.045,0.263-0.19,0.493-0.408,0.646   c-0.054,0.039-0.123,0.073-0.214,0.109l-0.718,0.286l0.095,0.767c0.159,1.282,0.326,2.439,0.509,3.539l0.145,0.864l0.875-0.03   c0.277,0.006,0.532,0.09,0.727,0.277c0.192,0.185,0.301,0.434,0.306,0.7C40.658,45.582,40.559,45.835,40.374,46.027z" data-original="#000000" class="active-path" data-old_color="#ffffff" />
	<path d="M31.42,10c0.552,0,1-0.447,1-1c0-1.31-1.065-2.375-2.375-2.375S27.67,7.69,27.67,9c0,0.553,0.448,1,1,1s1-0.447,1-1   c0-0.207,0.168-0.375,0.375-0.375S30.42,8.793,30.42,9C30.42,9.553,30.868,10,31.42,10z" data-original="#000000" class="active-path" data-old_color="#ffffff" />
	<path d="M33.936,13c-1.31,0-2.375,1.065-2.375,2.375c0,0.553,0.448,1,1,1s1-0.447,1-1c0-0.207,0.168-0.375,0.375-0.375   s0.375,0.168,0.375,0.375c0,0.553,0.448,1,1,1s1-0.447,1-1C36.311,14.065,35.245,13,33.936,13z" data-original="#000000" class="active-path" data-old_color="#ffffff" />
	<path d="M24.871,32.332c0,0.553,0.448,1,1,1s1-0.447,1-1c0-1.31-1.065-2.375-2.375-2.375s-2.375,1.065-2.375,2.375   c0,0.553,0.448,1,1,1s1-0.447,1-1c0-0.207,0.168-0.375,0.375-0.375S24.871,32.125,24.871,32.332z" data-original="#000000" class="active-path" data-old_color="#ffffff" />
	<path d="M33.186,48c-1.31,0-2.375,1.065-2.375,2.375c0,0.553,0.448,1,1,1c0.552,0,1-0.447,1-1c0-0.207,0.168-0.375,0.375-0.375   s0.375,0.168,0.375,0.375c0,0.553,0.448,1,1,1s1-0.447,1-1C35.561,49.065,34.495,48,33.186,48z" data-original="#000000" class="active-path" data-old_color="#ffffff" />
	<path d="M31.561,27c0.552,0,1-0.447,1-1c0-0.207,0.168-0.375,0.375-0.375s0.375,0.168,0.375,0.375c0,0.553,0.448,1,1,1s1-0.447,1-1   c0-1.31-1.065-2.375-2.375-2.375c-1.31,0-2.375,1.065-2.375,2.375C30.561,26.553,31.008,27,31.561,27z" data-original="#000000" class="active-path" data-old_color="#ffffff" />
	<path d="M26.871,41.626c-1.31,0-2.375,1.065-2.375,2.375c0,0.553,0.448,1,1,1s1-0.447,1-1c0-0.207,0.168-0.375,0.375-0.375   s0.375,0.168,0.375,0.375c0,0.553,0.448,1,1,1s1-0.447,1-1C29.246,42.691,28.18,41.626,26.871,41.626z" data-original="#000000" class="active-path" data-old_color="#ffffff" />
	<path d="M26.936,18c-1.31,0-2.375,1.065-2.375,2.375c0,0.553,0.448,1,1,1s1-0.447,1-1c0-0.207,0.168-0.375,0.375-0.375   s0.375,0.168,0.375,0.375c0,0.553,0.448,1,1,1s1-0.447,1-1C29.311,19.065,28.245,18,26.936,18z" data-original="#000000" class="active-path" data-old_color="#ffffff" />
	<path d="M33.186,33.625c-1.31,0-2.375,1.065-2.375,2.375c0,0.553,0.448,1,1,1c0.552,0,1-0.447,1-1c0-0.207,0.168-0.375,0.375-0.375   s0.375,0.168,0.375,0.375c0,0.553,0.448,1,1,1s1-0.447,1-1C35.561,34.69,34.495,33.625,33.186,33.625z" data-original="#000000" class="active-path" data-old_color="#ffffff" />
</g></g> </svg>
