<?xml version="1.0"?>
<svg xmlns="http://www.w3.org/2000/svg" xmlns:xlink="http://www.w3.org/1999/xlink" version="1.1" id="Capa_1" x="0px" y="0px" viewBox="0 0 59 59" style="enable-background:new 0 0 59 59;" xml:space="preserve" width="512px" height="512px"><g><g>
	<path d="M48.034,16.529c0.097-0.028,0.193-0.056,0.291-0.085c0.297-0.088,0.535-0.31,0.646-0.598   c0.059-0.153,0.073-0.314,0.055-0.473c-0.005-0.171-0.042-0.339-0.132-0.489c-1.857-3.068-5.131-5.108-9.743-6.081   c0.567-0.781,0.99-1.623,1.259-2.521c0.04-0.134,0.047-0.269,0.032-0.4c-0.012-0.396-0.25-0.762-0.641-0.907   c-3.667-1.365-5.9-0.792-7.122-0.081c-0.334-0.382-0.803-0.659-1.374-0.832l-0.269-3.147c-0.026-0.298-0.184-0.57-0.431-0.739   c-0.247-0.169-0.557-0.219-0.845-0.135l-5,1.456c-0.262,0.076-0.48,0.255-0.607,0.497c-0.126,0.241-0.148,0.523-0.062,0.781   l0.696,2.073c-1.239-0.688-3.451-1.207-7.036,0.127c-0.391,0.145-0.629,0.511-0.641,0.907c-0.015,0.131-0.008,0.266,0.032,0.4   c0.282,0.943,0.725,1.818,1.317,2.62c-4.564,0.969-7.617,2.948-9.297,6.021c-0.081,0.148-0.112,0.312-0.112,0.477   c-0.014,0.157,0.003,0.317,0.065,0.467c0.115,0.279,0.349,0.491,0.638,0.578c0.356,0.106,0.71,0.203,1.063,0.29   c-1.917,2.668-2.853,6.394-2.853,11.318C7.961,41.71,21.316,59,29.5,59s21.539-17.29,21.539-30.949   C51.038,23.002,50.053,19.211,48.034,16.529z M11.685,14.812c1.746-2.204,4.686-3.578,8.943-4.18   c0.386-0.055,0.705-0.329,0.817-0.702c0.032-0.108,0.041-0.218,0.036-0.327c0.013-0.297-0.102-0.591-0.331-0.794   c-0.741-0.656-1.31-1.396-1.706-2.207c3.743-1.081,4.932,0.482,4.972,0.536c0.233,0.36,0.671,0.533,1.087,0.426   c0.061-0.015,0.119-0.036,0.174-0.062l0.15,0.446l1.13,3.369c0.072,0.213,0.21,0.385,0.384,0.505   c0.005,0.003,0.008,0.009,0.013,0.012c0.018,0.012,0.04,0.013,0.059,0.024c0.081,0.047,0.166,0.082,0.257,0.105   c0.017,0.004,0.031,0.016,0.048,0.019c0.023,0.004,0.048-0.003,0.071-0.001C27.827,11.986,27.864,12,27.904,12   c0.068,0,0.137-0.007,0.205-0.021l2.937-0.614c0.495-0.104,0.835-0.561,0.792-1.064v0c0,0,0,0,0,0L31.58,7.283   c0.122,0.122,0.277,0.215,0.451,0.264c0.404,0.112,0.844-0.048,1.091-0.388c0.053-0.073,1.243-1.637,4.982-0.558   c-0.382,0.768-0.926,1.48-1.634,2.124c-0.225,0.204-0.336,0.496-0.321,0.791c-0.004,0.109,0.005,0.22,0.039,0.328   c0.114,0.371,0.433,0.642,0.817,0.695c4.345,0.608,7.413,2.019,9.331,4.29c-4.077,1.004-6.265,0.522-7.398-0.107   c-1.092-0.606-1.323-1.41-1.327-1.424c-0.109-0.479-0.538-0.809-1.041-0.776c-0.49,0.033-0.885,0.417-0.93,0.906   c-0.502,5.43-4.277,7.462-5.634,8.022c-1.357-0.56-5.132-2.592-5.634-8.022c-0.039-0.424-0.346-0.771-0.759-0.874   c-0.079-0.02-0.158-0.029-0.237-0.029c-0.335,0-0.657,0.17-0.845,0.459C22.421,13.15,19.906,16.826,11.685,14.812z M29.146,2.301   l0.228,2.668c0,0.001,0,0.001,0,0.002l0.396,4.618L28.57,9.839l-1.474-4.394l0-0.001l-0.778-2.321L29.146,2.301z M29.5,57   C22.426,57,9.961,40.264,9.961,28.051c0-5.023,1.029-8.591,3.118-10.916c5.034,0.828,8.027-0.416,9.621-1.569   c1.373,5.661,5.98,7.552,6.975,7.898c0.106,0.037,0.217,0.056,0.329,0.056c0.111,0,0.222-0.019,0.329-0.056   c0.971-0.338,5.385-2.146,6.872-7.499c0.193,0.152,0.409,0.301,0.651,0.442c1.872,1.092,4.542,1.276,7.933,0.584   c2.178,2.322,3.251,5.937,3.251,11.06C49.038,40.264,36.574,57,29.5,57z" data-original="#000000" class="active-path" data-old_color="#ffffff" fill="#ffffff"/>
	<path d="M17.499,21.672c0,0-1.516,5.294-1.516,5.805c0,0.511,0.199,0.992,0.561,1.354c0.361,0.362,0.842,0.561,1.353,0.561   c0.511,0,0.992-0.199,1.353-0.561c0.362-0.362,0.561-0.842,0.561-1.354c0-0.511-1.516-5.805-1.516-5.805   C18.173,21.281,17.62,21.281,17.499,21.672z" data-original="#000000" class="active-path" data-old_color="#ffffff" fill="#ffffff"/>
	<path d="M29.327,25.672c0,0-1.516,5.294-1.516,5.805c0,0.511,0.199,0.992,0.561,1.354c0.361,0.362,0.842,0.561,1.353,0.561   c0.511,0,0.992-0.199,1.353-0.561c0.362-0.362,0.561-0.842,0.561-1.354c0-0.511-1.516-5.805-1.516-5.805   C30.002,25.281,29.448,25.281,29.327,25.672z" data-original="#000000" class="active-path" data-old_color="#ffffff" fill="#ffffff"/>
	<path d="M41.295,21.66c-0.122-0.391-0.675-0.391-0.796,0c0,0-1.516,5.294-1.516,5.805c0,0.511,0.199,0.992,0.561,1.354   c0.361,0.362,0.842,0.561,1.353,0.561c0.511,0,0.992-0.199,1.353-0.561c0.362-0.362,0.561-0.842,0.561-1.354   C42.811,26.953,41.295,21.66,41.295,21.66z" data-original="#000000" class="active-path" data-old_color="#ffffff" fill="#ffffff"/>
	<path d="M22.327,34.684c0,0-1.516,5.294-1.516,5.805c0,0.511,0.199,0.992,0.561,1.354c0.361,0.362,0.842,0.561,1.353,0.561   c0.511,0,0.992-0.199,1.353-0.561c0.362-0.362,0.561-0.842,0.561-1.354c0-0.511-1.516-5.805-1.516-5.805   C23.002,34.293,22.448,34.293,22.327,34.684z" data-original="#000000" class="active-path" data-old_color="#ffffff" fill="#ffffff"/>
	<path d="M29.327,43.66c0,0-1.516,5.294-1.516,5.805c0,0.511,0.199,0.992,0.561,1.354c0.361,0.362,0.842,0.561,1.353,0.561   c0.511,0,0.992-0.199,1.353-0.561c0.362-0.362,0.561-0.842,0.561-1.354c0-0.511-1.516-5.805-1.516-5.805   C30.002,43.269,29.448,43.269,29.327,43.66z" data-original="#000000" class="active-path" data-old_color="#ffffff" fill="#ffffff"/>
	<path d="M36.327,34.672c0,0-1.516,5.294-1.516,5.805c0,0.511,0.199,0.992,0.561,1.354c0.361,0.362,0.842,0.561,1.353,0.561   c0.511,0,0.992-0.199,1.353-0.561c0.362-0.362,0.561-0.842,0.561-1.354c0-0.511-1.516-5.805-1.516-5.805   C37.002,34.281,36.448,34.281,36.327,34.672z" data-original="#000000" class="active-path" data-old_color="#ffffff" fill="#ffffff"/>
</g></g> </svg>
