<?xml version="1.0" encoding="iso-8859-1"?>
<!-- Generator: Adobe Illustrator 19.0.0, SVG Export Plug-In . SVG Version: 6.00 Build 0)  -->
<svg version="1.1" id="Layer_1" xmlns="http://www.w3.org/2000/svg" xmlns:xlink="http://www.w3.org/1999/xlink" x="0px" y="0px"
	 viewBox="0 0 512.003 512.003" style="enable-background:new 0 0 512.003 512.003;" xml:space="preserve" fill="#fff">
<g>
	<g>
		<path d="M455.61,234.318c-0.125-2.669-1.381-5.159-3.452-6.847c-2.072-1.687-4.764-2.41-7.405-1.992
			c-0.471,0.075-6.56,1.076-15.912,3.918c12.516-40.474,11.323-74.094,11.255-75.715c-0.111-2.71-1.39-5.239-3.506-6.935
			c-2.116-1.697-4.866-2.395-7.53-1.919c-0.577,0.103-8.542,1.576-20.199,6.051c6.801-50.773-27.654-95.666-29.308-97.785
			c-2.47-3.162-6.677-4.405-10.466-3.096c-0.699,0.24-4.498,1.654-10.112,5.35C327.435,19.101,291.98,0,256.005,0
			c-35.997,0-71.459,19.11-102.99,55.371c-5.743-3.799-9.567-5.193-10.09-5.373c-3.785-1.306-7.996-0.068-10.466,3.096
			c-1.654,2.119-36.112,47.016-29.308,97.79c-11.667-4.479-19.634-5.953-20.212-6.055c-2.663-0.476-5.415,0.223-7.53,1.919
			s-3.394,4.226-3.506,6.935c-0.068,1.621-1.262,35.239,11.259,75.715c-9.353-2.842-15.441-3.843-15.912-3.918
			c-2.644-0.424-5.334,0.304-7.405,1.992s-3.327,4.177-3.452,6.846c-0.063,1.347-1.382,33.43,11.846,72.354
			c12.282,36.142,39.932,85.142,101.912,113.323c11.413,5.19,23.178,9.278,35.144,12.297v70.317c0,5.188,4.203,9.391,9.391,9.391
			h82.639c5.188,0,9.391-4.203,9.391-9.391v-70.321c11.965-3.019,23.729-7.106,35.137-12.293
			c61.979-28.181,89.63-77.181,101.912-113.323C456.991,267.749,455.671,235.666,455.61,234.318z M265.397,19.331
			c20.894,2.408,49.039,13.57,79.089,47.988c-0.845,0.845-1.7,1.727-2.567,2.651c-13.011,13.887-23.925,32.046-32.61,54.206
			c-1.5-4.475-3.202-9.227-5.1-14.094c-11.25-28.826-24.29-48.413-38.813-58.41V19.331z M246.614,19.331v32.341
			c-14.528,9.997-27.571,29.585-38.824,58.411c-1.906,4.883-3.611,9.65-5.116,14.138c-11.001-27.956-24.072-45.736-35.187-56.862
			C197.541,32.909,225.705,21.739,246.614,19.331z M129.552,96.828c4.392-11.021,9.609-20.031,13.237-25.686
			c11.375,7.622,36.043,30.061,51.43,87.62c1.099,4.116,4.827,6.965,9.069,6.965c0.073,0,0.143-0.001,0.214-0.003
			c4.33-0.098,8.032-3.145,8.961-7.376c4.42-20.134,20.428-73.111,43.538-90.353c23.103,17.243,39.108,70.22,43.53,90.35
			c0.925,4.233,4.627,7.281,8.959,7.381c4.315,0.085,8.167-2.778,9.287-6.964c15.406-57.633,40.125-80.057,51.437-87.633
			c9.47,14.75,29.771,52.451,18.277,89.793c-3.567,2.001-7.233,4.225-10.953,6.714c-21.409,14.293-38.247,32.743-50.255,55.021
			c-3.138-7.344-7.173-15.911-12.093-24.642c-16.057-28.498-34.512-46.869-54.851-54.601c-2.15-0.816-4.524-0.816-6.674,0
			c-20.344,7.733-38.802,26.104-54.861,54.601c-4.92,8.731-8.954,17.295-12.092,24.635c-12.001-22.274-28.835-40.721-50.236-55.011
			c-3.72-2.489-7.389-4.713-10.956-6.714C118.581,141.69,120.26,120.147,129.552,96.828z M125.043,183.255
			c24.213,16.166,41.783,38.408,52.219,66.108c0.041,0.108,0.083,0.215,0.129,0.322c0.053,0.128,0.099,0.257,0.146,0.386
			l0.205,0.548c1.447,3.739,5.12,6.147,9.12,5.988c4.008-0.153,7.479-2.844,8.635-6.684l0.179-0.561
			c8.318-26.164,30.121-72.821,60.33-86.973c30.2,14.151,52.001,60.81,60.335,87.027l0.156,0.493
			c1.146,3.85,4.613,6.546,8.626,6.705c0.128,0.005,0.252,0.008,0.378,0.008c3.865,0,7.352-2.374,8.756-6.003l0.205-0.548
			c0.048-0.129,0.094-0.258,0.147-0.386c0.044-0.105,0.086-0.212,0.128-0.319c10.449-27.702,28.022-49.945,52.243-66.116
			c13.095-8.766,25.576-13.931,34.122-16.797c-0.799,15.069-3.879,42.502-15.124,71.584c-3.051,1.386-6.199,2.914-9.412,4.596
			c-27.538,14.424-49.387,34.854-64.119,59.758c-3.054-6.48-6.973-14.071-11.766-21.983c-17.96-29.647-38.709-48.613-61.669-56.375
			c-1.95-0.657-4.064-0.657-6.014,0c-22.961,7.762-43.709,26.729-61.67,56.375c-4.792,7.908-8.712,15.504-11.766,21.983
			c-14.731-24.904-36.582-45.334-64.118-59.758c-3.213-1.683-6.361-3.21-9.412-4.596c-11.211-28.985-14.304-56.476-15.119-71.579
			C99.467,169.326,111.945,174.491,125.043,183.255z M287.934,493.218h-63.858v-57.096c10.577,1.648,21.25,2.482,31.925,2.48
			c10.675,0,21.352-0.835,31.933-2.484V493.218z M425.762,301.269c-16.197,47.138-47.044,81.332-91.684,101.63
			c-49.617,22.564-106.533,22.563-156.153,0c-44.64-20.298-75.487-54.492-91.684-101.63c-7.684-22.359-10.096-42.542-10.822-54.558
			c22.559,6.511,73.469,26.863,96.242,81.786c1.496,3.612,5.096,5.941,8.981,5.79c3.907-0.129,7.326-2.662,8.583-6.363
			c0.061-0.179,6.184-18.014,18.162-37.784c10.26-16.935,26.865-38.489,48.616-47.205c43.2,17.26,66.537,84.303,66.771,84.988
			c1.257,3.701,4.677,6.234,8.583,6.363c3.897,0.153,7.485-2.177,8.981-5.788c22.685-54.71,73.662-75.179,96.24-81.754
			C435.851,258.77,433.437,278.932,425.762,301.269z"/>
	</g>
</g>
<g>
</g>
<g>
</g>
<g>
</g>
<g>
</g>
<g>
</g>
<g>
</g>
<g>
</g>
<g>
</g>
<g>
</g>
<g>
</g>
<g>
</g>
<g>
</g>
<g>
</g>
<g>
</g>
<g>
</g>
</svg>
