<?xml version="1.0"?>
<svg xmlns="http://www.w3.org/2000/svg" xmlns:xlink="http://www.w3.org/1999/xlink" version="1.1" id="Capa_1" x="0px" y="0px" viewBox="0 0 59.015 59.015" style="enable-background:new 0 0 59.015 59.015;" xml:space="preserve" width="512px" height="512px" class=""><g><g>
	<path d="M57.756,26.999c2.034-2.607,1.153-5.051,0.458-5.904c-1.52-2.286-3.618-3.695-6.236-4.188   c-0.207-0.039-0.418-0.052-0.627-0.078c0.27-0.227,0.529-0.455,0.773-0.685c1.757-1.663,2.6-3.44,2.505-5.282   c-0.146-2.819-2.484-4.646-2.584-4.723l-0.047-0.034c-4.119-2.797-8.743,0.588-8.938,0.734l-0.176,0.168   c-0.072,0.088-0.141,0.191-0.212,0.282c-0.452-2.319-1.705-4.163-3.73-5.479c-0.475-0.38-3.506-2.62-7.043-0.823   c-0.438,0.223-0.834,0.511-1.208,0.827c-1.036-0.293-2.188-0.381-3.33,0.023c-1.552,0.55-2.568,1.871-2.718,3.535   c-0.16,1.769,0.732,3.482,2.271,4.365c1.409,0.808,3.097,2.304,4.665,5.047c-0.933-0.064-1.835,0.035-2.687,0.342   C23.811,16.951,3.715,46.393,0.15,55.954c-0.3,0.806-0.144,1.649,0.409,2.203c0.367,0.367,0.862,0.56,1.39,0.56   c0.267,0,0.542-0.049,0.813-0.15c9.629-3.59,39.191-23.586,40.986-28.585c0.245-0.683,0.361-1.399,0.37-2.136   c2.742,1.343,4.192,2.65,4.948,3.688c1.102,1.512,2.879,2.446,4.651,2.446c0.019,0,0.038,0,0.057,0   c1.477-0.017,2.788-0.695,3.598-1.86c1.204-1.734,0.777-3.606,0.135-4.83C57.592,27.192,57.68,27.097,57.756,26.999z    M56.596,22.267c0.114,0.149,1.049,1.483-0.3,3.347c-0.042-0.05-0.086-0.095-0.129-0.144c-0.073-0.084-0.146-0.165-0.22-0.247   c-0.189-0.211-0.379-0.414-0.572-0.609c-0.059-0.06-0.118-0.12-0.177-0.178c-3.13-3.066-6.698-4.031-9.936-4.031   c-1.148,0-2.255,0.121-3.286,0.31c0.111-0.05,0.226-0.1,0.339-0.149c0.157-0.069,0.314-0.138,0.475-0.206   c0.173-0.073,0.348-0.144,0.526-0.214c0.148-0.059,0.3-0.116,0.451-0.173c0.278-0.104,0.56-0.205,0.847-0.301   c0.179-0.06,0.358-0.12,0.539-0.175c0.175-0.054,0.353-0.105,0.53-0.155c0.197-0.055,0.395-0.106,0.594-0.155   c0.195-0.048,0.391-0.095,0.588-0.137c0.276-0.059,0.553-0.111,0.831-0.155c0.15-0.024,0.3-0.044,0.45-0.063   c1.174-0.152,2.349-0.167,3.466,0.042C53.708,19.269,55.323,20.358,56.596,22.267z M44.349,8.377   c0.582-0.397,3.809-2.431,6.496-0.637c0.179,0.147,1.696,1.45,1.787,3.226c0.063,1.23-0.57,2.484-1.883,3.727   c-0.769,0.728-1.705,1.448-2.783,2.141c-0.133,0.017-0.265,0.044-0.398,0.064c-0.28,0.042-0.559,0.084-0.836,0.138   c-0.192,0.038-0.38,0.083-0.57,0.126c-0.219,0.05-0.437,0.099-0.653,0.156c-0.201,0.052-0.399,0.108-0.597,0.166   c-0.199,0.058-0.396,0.117-0.592,0.179c-0.203,0.065-0.404,0.13-0.603,0.199c-0.179,0.062-0.354,0.126-0.529,0.191   c-0.206,0.076-0.412,0.151-0.613,0.231c-0.136,0.054-0.267,0.11-0.401,0.165c-0.869,0.359-1.678,0.736-2.403,1.106   c-0.01,0.005-0.022,0.011-0.032,0.016c0.613-1.136,1.257-2.483,1.805-3.936c0.034-0.091,0.071-0.179,0.104-0.271   c0.094-0.259,0.18-0.523,0.267-0.788c0.047-0.144,0.097-0.287,0.141-0.433c0.077-0.251,0.144-0.504,0.212-0.759   c0.043-0.162,0.087-0.323,0.126-0.486c0.06-0.251,0.112-0.503,0.162-0.756c0.033-0.168,0.065-0.335,0.093-0.504   c0.042-0.251,0.076-0.502,0.105-0.753c0.01-0.088,0.028-0.175,0.037-0.263C43.306,9.775,43.818,9.037,44.349,8.377z M32.843,2.752   c2.549-1.269,4.77,0.552,4.86,0.627c0.035,0.03,0.071,0.057,0.109,0.082c1.609,1.033,2.56,2.422,2.906,4.245   c0.148,0.778,0.17,1.594,0.109,2.424l-0.007,0.09c-0.13,1.575-0.579,3.198-1.149,4.707c0.041-0.959-0.005-1.947-0.167-2.941   c-0.005-0.031-0.012-0.061-0.017-0.091c-0.037-0.215-0.078-0.43-0.126-0.646c-0.029-0.132-0.063-0.264-0.097-0.395   c-0.028-0.108-0.056-0.217-0.088-0.325c-0.051-0.179-0.106-0.357-0.166-0.535c-0.016-0.048-0.034-0.097-0.051-0.145   C38.469,8.45,37.693,7.08,36.54,5.8c-0.032-0.035-0.064-0.071-0.096-0.106c-0.165-0.179-0.334-0.356-0.514-0.53   c-0.087-0.085-0.18-0.169-0.271-0.253c-0.139-0.128-0.275-0.257-0.423-0.382c-0.269-0.231-0.55-0.459-0.849-0.682   c-0.002-0.002-0.009-0.008-0.012-0.01c-0.08-0.07-0.256-0.215-0.507-0.403c-0.002-0.001-0.003-0.003-0.005-0.004   c-0.256-0.191-0.589-0.42-0.985-0.655C32.865,2.766,32.855,2.759,32.843,2.752z M27.91,8.002c-0.864-0.495-1.364-1.457-1.275-2.45   c0.038-0.415,0.249-1.424,1.394-1.829c0.323-0.115,0.656-0.164,0.989-0.164c0.53,0,1.06,0.128,1.559,0.313   c0,0,0.002,0.001,0.003,0.001c0.013,0.005,0.025,0.011,0.038,0.016c0.172,0.065,0.341,0.135,0.503,0.212   c0.08,0.038,0.155,0.078,0.233,0.117c0.13,0.067,0.259,0.135,0.379,0.204c0.047,0.027,0.094,0.054,0.139,0.081   c0.536,0.323,0.949,0.643,1.152,0.808c0.039,0.033,0.063,0.054,0.068,0.057c0.023,0.021,0.047,0.04,0.072,0.059   c0.436,0.323,0.837,0.664,1.21,1.018c0.106,0.101,0.193,0.206,0.293,0.308c0.255,0.26,0.503,0.524,0.726,0.799   c0.098,0.121,0.182,0.244,0.272,0.366c0.204,0.276,0.398,0.558,0.571,0.849c0.068,0.114,0.133,0.229,0.195,0.344   c0.188,0.347,0.359,0.703,0.504,1.07c0.023,0.057,0.049,0.114,0.071,0.171c0.703,1.876,0.863,4.005,0.467,6.378   c-0.275,1.644-0.779,3.137-1.257,4.291c-0.169-0.608-0.348-1.182-0.53-1.739c-0.03-0.093-0.062-0.182-0.093-0.274   c-0.17-0.507-0.346-0.994-0.525-1.46c-0.031-0.079-0.06-0.159-0.091-0.238C32.825,11.865,30.084,9.248,27.91,8.002z M41.866,29.305   c-0.539,1.499-4.297,4.767-9.365,8.555c-0.085-0.035-0.169-0.074-0.266-0.085c-1.633-0.179-3.748-1.023-4.792-2.505   c-0.318-0.452-0.944-0.559-1.394-0.241c-0.452,0.318-0.56,0.942-0.241,1.394c1.109,1.572,2.916,2.526,4.562,3.004   c-3.18,2.305-6.722,4.729-10.247,7.024c-0.149-0.131-0.326-0.232-0.538-0.256c-1.025-0.112-2.349-0.635-2.994-1.549   c-0.318-0.451-0.941-0.56-1.394-0.24c-0.451,0.318-0.559,0.942-0.24,1.394c0.734,1.041,1.888,1.696,2.982,2.059   c-6.474,4.124-12.592,7.61-15.875,8.834c-0.022,0.008-0.042,0.014-0.057,0.02c0.004-0.017,0.01-0.037,0.018-0.059   c0.807-2.164,2.306-5.08,4.199-8.346c0.036,0.036,0.059,0.08,0.101,0.111c0.718,0.527,1.481,0.985,2.267,1.36   c0.139,0.066,0.286,0.098,0.431,0.098c0.373,0,0.731-0.21,0.903-0.569c0.238-0.499,0.027-1.096-0.471-1.333   c-0.674-0.322-1.329-0.715-1.947-1.168c-0.097-0.071-0.205-0.114-0.314-0.145c2.341-3.913,5.152-8.212,7.998-12.302   c0.381,0.991,1.01,1.993,1.946,2.654c0.175,0.124,0.376,0.183,0.576,0.183c0.314,0,0.623-0.147,0.818-0.423   c0.318-0.451,0.211-1.075-0.24-1.394c-0.915-0.646-1.437-1.969-1.549-2.995c-0.006-0.057-0.035-0.104-0.05-0.158   c2.214-3.111,4.395-6.021,6.341-8.453c0.477,1.648,1.432,3.461,3.007,4.572c0.175,0.124,0.376,0.183,0.576,0.183   c0.314,0,0.624-0.147,0.818-0.423c0.318-0.452,0.211-1.075-0.24-1.394c-1.482-1.046-2.326-3.161-2.505-4.792   c-0.005-0.043-0.028-0.078-0.038-0.119c2.251-2.678,4.035-4.473,4.92-4.791c0.49-0.176,0.998-0.264,1.529-0.264   c0.502,0,1.026,0.079,1.576,0.237c0.44,0.994,0.842,2.074,1.208,3.224c0.024,0.075,0.048,0.149,0.071,0.225   c0.151,0.486,0.294,0.988,0.432,1.499c0.031,0.115,0.063,0.224,0.094,0.341c0.158,0.607,0.309,1.228,0.448,1.868   c0.009,0.042,0.03,0.079,0.044,0.12c0.014,0.039,0.024,0.08,0.043,0.117c0.005,0.011,0.009,0.022,0.015,0.033   c0.017,0.031,0.041,0.055,0.061,0.083c0.005,0.007,0.01,0.014,0.016,0.021c0.023,0.031,0.042,0.065,0.068,0.093   c0.006,0.006,0.01,0.013,0.016,0.019l0,0c0,0,0.001,0,0.001,0c0.003,0.003,0.006,0.005,0.009,0.007   c0.028,0.028,0.062,0.049,0.094,0.074c0.007,0.006,0.014,0.011,0.021,0.017c0.026,0.02,0.049,0.044,0.077,0.061   c0.011,0.007,0.023,0.011,0.035,0.017c0.023,0.013,0.048,0.022,0.072,0.033c0.023,0.01,0.045,0.016,0.068,0.025   c0.031,0.011,0.058,0.029,0.09,0.037c0.575,0.146,1.134,0.297,1.68,0.452c0.124,0.035,0.239,0.071,0.36,0.106   c0.428,0.124,0.85,0.25,1.259,0.379c0.105,0.033,0.204,0.066,0.307,0.1c0.426,0.138,0.844,0.278,1.247,0.421   c0.07,0.025,0.139,0.049,0.208,0.074c0.463,0.167,0.913,0.336,1.344,0.509c0.001,0,0.002,0.001,0.003,0.001   C42.199,27.784,42.133,28.562,41.866,29.305z M55.729,30.977c-0.566,0.815-1.388,0.995-1.978,1.001c-0.012,0-0.024,0-0.036,0   c-1.143,0-2.302-0.62-3.034-1.624c-1.384-1.898-3.854-3.585-7.34-5.049c-0.006-0.003-0.01-0.009-0.017-0.012   c-0.039-0.016-0.081-0.031-0.12-0.047c-0.303-0.126-0.62-0.249-0.939-0.371c-0.276-0.106-0.556-0.211-0.843-0.315   c-0.292-0.105-0.586-0.21-0.891-0.313c-0.418-0.142-0.851-0.279-1.29-0.415c-0.165-0.051-0.315-0.105-0.483-0.155   c0.081-0.032,0.173-0.063,0.257-0.095c0.03-0.008,0.061-0.001,0.09-0.011c3.12-1.138,8.458-2.239,13.087,0.973   c0.239,0.167,0.474,0.359,0.709,0.55c0.113,0.091,0.228,0.169,0.34,0.266c0.71,0.617,1.399,1.35,2.056,2.213l0.127,0.169   c0.004,0.005,0.01,0.007,0.013,0.012C55.777,28.219,56.649,29.653,55.729,30.977z" data-original="#000000" class="active-path" data-old_color="#FFFFFD" fill="#FFFFFF"/>
	<path d="M40.378,28.941c-2.046-0.78-3.945-2.182-5.642-4.167c-0.359-0.42-0.99-0.469-1.41-0.11c-0.42,0.359-0.469,0.99-0.11,1.41   c1.917,2.242,4.087,3.836,6.45,4.737c0.117,0.044,0.237,0.066,0.356,0.066c0.403,0,0.782-0.246,0.935-0.645   C41.153,29.716,40.894,29.138,40.378,28.941z" data-original="#000000" class="active-path" data-old_color="#FFFFFD" fill="#FFFFFF"/>
</g></g> </svg>
