<?xml version="1.0"?>
<svg xmlns="http://www.w3.org/2000/svg" xmlns:xlink="http://www.w3.org/1999/xlink" version="1.1" id="Layer_1" x="0px" y="0px" viewBox="0 0 512 512" style="enable-background:new 0 0 512 512;" xml:space="preserve" width="512px" height="512px"><g><g>
	<g>
		<path d="M508.405,391.492c-8.006-19.598-26.862-30.895-47.988-28.762c-9.473,0.953-19.135,1.434-28.72,1.434    c-75.768,0-147.037-29.541-200.679-83.184c-53.643-53.643-83.184-124.912-83.182-200.68c0-9.579,0.483-19.24,1.436-28.718    c2.125-21.145-9.166-39.981-28.764-47.986c-19.491-7.961-40.616-2.451-53.824,14.036C23.683,71.306,0,138.817,0,207.73    c0,81.491,31.589,157.96,88.949,215.32C146.308,480.41,222.776,512,304.267,512c68.914,0,136.426-23.682,190.101-66.684    C510.856,432.108,516.365,410.98,508.405,391.492z M82.612,30.394c5.835-7.282,13.131-9.934,19.908-9.934    c3.682,0,7.21,0.784,10.268,2.032c8.772,3.584,17.628,12.571,16.173,27.051c-0.557,5.537-0.948,11.133-1.204,16.741L70.124,47.208    C74.066,41.488,78.221,35.876,82.612,30.394z M304.269,491.588c-76.04,0.001-147.383-29.466-200.887-82.971    C49.876,355.113,20.411,283.77,20.411,207.73c0-51.037,13.173-99.685,38.399-142.767l68.706,22.739    c1.861,78.45,33.323,151.963,89.07,207.711c57.498,57.498,133.891,89.163,215.112,89.161c6.804,0,13.64-0.249,20.435-0.699    l5.35,62.89C411.885,476.174,359.475,491.588,304.269,491.588z M481.606,429.388c-1.589,1.274-3.189,2.528-4.799,3.764    l-4.198-49.335c8.625,2.365,14.245,8.895,16.9,15.394C493.056,407.895,492.844,420.384,481.606,429.388z" data-original="#000000" class="active-path" data-old_color="#ffffff" fill="#ffffff"/>
	</g>
</g><g>
	<g>
		<path d="M397.139,441.503c-0.46-5.616-5.39-9.798-11.003-9.34c-7.727,0.63-15.599,0.95-23.393,0.95    c-76.039,0-147.381-29.467-200.887-82.973c-53.504-53.505-82.97-124.848-82.97-200.888c0-11.249,0.664-22.574,1.974-33.664    c0.661-5.597-3.341-10.671-8.937-11.332c-5.594-0.657-10.671,3.341-11.332,8.937c-1.404,11.88-2.116,24.012-2.116,36.059    c0,81.491,31.589,157.96,88.949,215.32s133.829,88.95,215.318,88.95c8.348,0,16.776-0.341,25.055-1.018    C393.415,452.046,397.596,447.12,397.139,441.503z" data-original="#000000" class="active-path" data-old_color="#ffffff" fill="#ffffff"/>
	</g>
</g></g> </svg>
