<?xml version="1.0" encoding="iso-8859-1"?>
<!-- Generator: Adobe Illustrator 18.0.0, SVG Export Plug-In . SVG Version: 6.00 Build 0)  -->
<!DOCTYPE svg PUBLIC "-//W3C//DTD SVG 1.1//EN" "http://www.w3.org/Graphics/SVG/1.1/DTD/svg11.dtd">
<svg xmlns="http://www.w3.org/2000/svg" xmlns:xlink="http://www.w3.org/1999/xlink" version="1.1" id="Capa_1" x="0px" y="0px" viewBox="0 0 59.613 59.613" style="enable-background:new 0 0 59.613 59.613;" xml:space="preserve" width="512px" height="512px">
<g opacity="0.06">
	<path d="M14.981,46.41c-2.825-0.632-5.213-2.771-6.082-5.45c-0.17-0.525-0.733-0.812-1.26-0.643   c-0.525,0.17-0.813,0.734-0.643,1.26c1.1,3.389,3.992,5.988,7.548,6.785c0.073,0.016,0.147,0.024,0.219,0.024   c0.458,0,0.871-0.316,0.975-0.782C15.859,47.065,15.52,46.531,14.981,46.41z" fill="#076a73"/>
	<path d="M40.84,53.754c-2.825-0.632-5.213-2.771-6.082-5.45c-0.17-0.525-0.734-0.812-1.26-0.643   c-0.525,0.17-0.813,0.734-0.643,1.26c1.1,3.389,3.992,5.988,7.548,6.785c0.073,0.016,0.147,0.024,0.219,0.024   c0.458,0,0.871-0.316,0.975-0.782C41.718,54.41,41.379,53.875,40.84,53.754z" fill="#076a73"/>
	<path d="M7.536,37.192c0.067,0.013,0.133,0.02,0.199,0.02c0.466,0,0.884-0.328,0.979-0.802c0.227-1.125,0.638-2.181,1.222-3.139   c0.288-0.472,0.139-1.087-0.333-1.375c-0.471-0.287-1.086-0.139-1.375,0.333c-0.707,1.158-1.203,2.431-1.476,3.785   C6.644,36.555,6.995,37.082,7.536,37.192z" fill="#076a73"/>
	<path d="M49.732,32.278c2.193-7.308-0.21-13.962-5.218-21.919c0.685,0.154,1.388,0.258,2.118,0.258   c0.762,0,1.544-0.085,2.334-0.257c2.706-0.59,5.162-2.161,6.737-4.31l0.591-0.807l-0.807-0.591   c-3.829-2.806-9.617-2.047-13.254,1.454c-0.757-1.684-2.039-3.159-3.768-4.269c-2.331-1.496-5.178-2.122-7.811-1.716l-0.988,0.152   l0.152,0.988c0.403,2.619,1.982,4.933,4.447,6.514c1.865,1.197,4.061,1.837,6.213,1.837c0.231,0,0.46-0.011,0.689-0.026   c-0.458,8.794-7.036,16.641-13.597,19.155c-2.384-3.136-5.872-5.128-9.763-5.128h-2c-7.168,0-13,6.729-13,15c0,7.72,6.28,14,14,14   c5.101,0,9.561-2.751,12.008-6.839c0.087,7.645,6.326,13.839,13.992,13.839c7.72,0,14-6.28,14-14   C56.807,39.806,53.926,34.77,49.732,32.278z M53.388,5.706c-2.637,2.776-6.968,3.689-10.073,2.137   C45.952,5.069,50.284,4.154,53.388,5.706z M32.044,2.002c1.842-0.049,3.734,0.487,5.341,1.519c1.631,1.047,2.775,2.474,3.301,4.09   c-1.82,0.06-3.733-0.487-5.341-1.518C33.714,5.046,32.57,3.619,32.044,2.002z M42.975,11.666c5.12,8.231,6.619,13.954,4.961,19.735   c-1.299-0.504-2.684-0.789-4.129-0.789h-2c-4.66,0-8.744,2.853-11.039,7.116c-0.136-2.68-0.876-5.172-2.077-7.294   C35.343,27.706,41.726,20.352,42.975,11.666z M16.807,50.613c-6.617,0-12-5.383-12-12c0-7.168,4.935-13,11-13h2   c3.001,0,5.722,1.43,7.708,3.741c-0.723,0.15-1.438,0.232-2.136,0.232c-0.552,0-1,0.448-1,1s0.448,1,1,1   c1.107,0,2.245-0.176,3.389-0.486c1.279,2.124,2.04,4.714,2.04,7.514C28.807,45.23,23.423,50.613,16.807,50.613z M42.807,57.613   c-6.617,0-12-5.383-12-12c0-7.168,4.935-13,11-13h2c1.22,0,2.391,0.246,3.488,0.681c-0.375,0.932-0.829,1.873-1.362,2.833   c-0.269,0.483-0.094,1.092,0.388,1.36c0.154,0.085,0.321,0.126,0.485,0.126c0.352,0,0.692-0.186,0.875-0.514   c0.548-0.987,0.99-1.952,1.376-2.907c3.423,2.206,5.75,6.498,5.75,11.421C54.807,52.23,49.423,57.613,42.807,57.613z" fill="#076a73"/>
	<path d="M24.807,32.613c-2.206,0-4-1.794-4-4c0-0.552-0.448-1-1-1s-1,0.448-1,1c0,3.309,2.691,6,6,6c0.552,0,1-0.448,1-1   S25.359,32.613,24.807,32.613z" fill="#076a73"/>
	<path d="M48.807,39.613c-2.206,0-4-1.794-4-4c0-0.552-0.448-1-1-1s-1,0.448-1,1c0,3.309,2.691,6,6,6c0.552,0,1-0.448,1-1   S49.359,39.613,48.807,39.613z" fill="#076a73"/>
</g>
</svg>
