<?xml version="1.0" encoding="iso-8859-1"?>
<!-- Generator: Adobe Illustrator 19.0.0, SVG Export Plug-In . SVG Version: 6.00 Build 0)  -->
<svg xmlns="http://www.w3.org/2000/svg" xmlns:xlink="http://www.w3.org/1999/xlink" version="1.1" id="Capa_1" x="0px" y="0px" viewBox="0 0 512.124 512.124" style="enable-background:new 0 0 512.124 512.124;" xml:space="preserve" width="512px" height="512px" opacity=".12">
<g transform="translate(-1 -1)">
	<g>
		<g>
			<path d="M494.604,106.116c33.567-33.566,14.117-70.758-0.858-85.733c-14.983-14.983-52.167-34.442-85.733-0.858     c-9.342,9.35-31.8,6.292-60.217,2.442C285.562,13.507,191.52,0.758,96.137,96.141S13.512,285.566,21.962,347.799     c3.858,28.425,6.9,50.875-2.442,60.217c-33.567,33.567-14.117,70.758,0.858,85.733c11.947,11.89,27.954,18.813,44.8,19.375     c15.606-0.3,30.404-6.994,40.933-18.517c9.342-9.342,31.8-6.292,60.217-2.442c62.234,8.458,156.283,21.2,251.658-74.175     c95.383-95.383,82.625-189.425,74.175-251.658C488.304,137.908,485.262,115.458,494.604,106.116z M475.254,168.624     c8.467,62.417,20.075,147.9-69.333,237.3c-89.4,89.4-174.892,77.8-237.3,69.333c-33.108-4.492-59.25-8.042-74.575,7.283     c-29.317,29.317-58.408,2.3-61.575-0.842c-3.183-3.217-30.192-32.308-0.883-61.617c15.325-15.325,11.775-41.475,7.283-74.575     c-8.467-62.417-20.075-147.9,69.333-237.3c61.075-61.075,120.317-75.017,171.633-75.017c21.993,0.385,43.934,2.284,65.667,5.683     c33.108,4.492,59.258,8.033,74.575-7.283c29.308-29.308,58.408-2.3,61.575,0.842c3.183,3.217,30.192,32.308,0.883,61.617     C467.212,109.374,470.762,135.524,475.254,168.624z" fill="#FFFFFF"/>
			<path d="M294.67,50.858L294.67,50.858c-4.325-0.217-8.683-0.35-13.1-0.375c-4.467,0.008-8.933,0.058-13.467,0.275     c-3.059,0.133-5.812,1.895-7.215,4.617c-1.403,2.722-1.24,5.987,0.427,8.555c1.666,2.569,4.581,4.048,7.639,3.877     c4.217-0.208,8.358-0.258,12.517-0.258c4.15,0.025,8.256,0.144,12.317,0.358c0.15,0.009,0.3,0.009,0.45,0.009     c4.625-0.006,8.403-3.695,8.521-8.318C302.875,54.975,299.289,51.099,294.67,50.858z" fill="#FFFFFF"/>
			<path d="M236.312,63.108c-0.554-2.196-1.96-4.08-3.907-5.236s-4.275-1.488-6.468-0.923c-4.892,1.242-9.808,2.7-14.592,4.325     c-4.892,1.658-9.867,3.575-14.8,5.708c-4.984,2.142-10.025,4.558-14.983,7.192c-5.117,2.717-10.208,5.683-15.117,8.817     c-5.125,3.258-10.258,6.817-15.25,10.558c-5.083,3.808-10.25,7.992-15.358,12.442c-5.158,4.492-10.35,9.35-15.425,14.425     c-5.075,5.075-9.933,10.267-14.425,15.425c-4.45,5.108-8.633,10.275-12.433,15.35c-3.75,5-7.308,10.133-10.558,15.242     c-3.142,4.925-6.108,10.017-8.825,15.133c-1.064,1.997-1.289,4.336-0.627,6.5c0.663,2.164,2.16,3.975,4.16,5.033     c1.227,0.659,2.599,1.002,3.992,1c3.16,0.005,6.063-1.74,7.542-4.533c2.508-4.717,5.25-9.408,8.15-13.967     c3.025-4.75,6.325-9.508,9.825-14.167c3.55-4.75,7.467-9.591,11.642-14.375c4.242-4.875,8.825-9.775,13.625-14.575     c4.8-4.8,9.7-9.383,14.575-13.625c4.783-4.175,9.625-8.092,14.383-11.65c4.65-3.492,9.408-6.792,14.175-9.825     c4.542-2.892,9.233-5.633,13.942-8.133c4.55-2.408,9.175-4.625,13.742-6.6c4.517-1.942,9.075-3.7,13.542-5.208     c4.367-1.492,8.85-2.817,13.317-3.958c2.193-0.558,4.075-1.965,5.23-3.911S236.873,65.3,236.312,63.108z" fill="#FFFFFF"/>
			<path d="M220.454,438.991c-3.425-3.15-8.692-3.15-12.117,0c-0.788,0.803-1.398,1.763-1.792,2.817     c-1.362,3.177-0.652,6.864,1.792,9.308c0.832,0.751,1.784,1.357,2.817,1.792c3.175,1.362,6.859,0.652,9.3-1.792     c0.752-0.831,1.358-1.783,1.792-2.817c0.911-2.068,0.911-4.424,0-6.492C221.853,440.754,221.242,439.794,220.454,438.991z" fill="#FFFFFF"/>
			<path d="M256.804,426.874c-0.782-0.796-1.71-1.432-2.733-1.875c-2.106-0.85-4.46-0.85-6.567,0     c-1.024,0.443-1.952,1.079-2.733,1.875c-0.794,0.783-1.43,1.711-1.875,2.733c-0.411,1.06-0.615,2.188-0.6,3.325     c-0.006,2.242,0.885,4.393,2.475,5.975c0.759,0.824,1.693,1.468,2.733,1.883c1.055,0.435,2.184,0.664,3.325,0.675     c2.26,0.011,4.423-0.915,5.975-2.558c1.629-1.561,2.553-3.719,2.558-5.975c-0.01-1.142-0.242-2.272-0.683-3.325     C258.264,428.569,257.624,427.635,256.804,426.874z" fill="#FFFFFF"/>
			<path d="M226.512,408.699c-0.791-0.823-1.753-1.462-2.817-1.875c-2.625-1.083-5.616-0.787-7.979,0.788     c-2.362,1.575-3.786,4.223-3.796,7.062c-0.022,2.27,0.87,4.453,2.475,6.058c1.605,1.605,3.788,2.497,6.058,2.475     c1.11,0.019,2.212-0.185,3.242-0.6c2.1-0.873,3.781-2.524,4.692-4.608c0.411-1.06,0.615-2.188,0.6-3.325     c-0.014-1.115-0.246-2.216-0.683-3.242C227.891,410.413,227.282,409.484,226.512,408.699z" fill="#FFFFFF"/>
			<path d="M190.07,420.816c-0.404-0.393-0.83-0.763-1.275-1.108c-0.517-0.25-0.942-0.508-1.542-0.767     c-0.499-0.181-1.012-0.323-1.533-0.425c-2.782-0.574-5.667,0.29-7.675,2.3c-0.825,0.758-1.469,1.692-1.883,2.733     c-0.429,1.028-0.661,2.128-0.683,3.242c0.008,2.282,0.933,4.465,2.567,6.059c0.779,0.795,1.704,1.432,2.725,1.875     c1.024,0.441,2.126,0.674,3.242,0.683c1.145-0.009,2.277-0.241,3.333-0.683c1.021-0.443,1.947-1.08,2.725-1.875     c0.796-0.78,1.435-1.705,1.883-2.725c0.416-1.061,0.618-2.194,0.592-3.333c0.018-1.109-0.183-2.211-0.592-3.242     C191.506,422.527,190.867,421.599,190.07,420.816z" fill="#FFFFFF"/>
			<path d="M248.012,398.291c1.04-0.412,1.974-1.053,2.733-1.875c1.635-1.575,2.558-3.747,2.558-6.017s-0.924-4.442-2.558-6.017     c-2.023-1.983-4.894-2.842-7.674-2.296s-5.112,2.428-6.234,5.029c-0.411,1.06-0.615,2.188-0.6,3.325     c-0.018,2.245,0.875,4.401,2.475,5.975c0.759,0.822,1.693,1.463,2.733,1.875c1.052,0.446,2.182,0.678,3.325,0.683     C245.885,398.961,246.986,398.728,248.012,398.291z" fill="#FFFFFF"/>
			<path d="M281.12,402.557l-1.275-1.025c-0.446-0.321-0.934-0.579-1.45-0.767c-0.514-0.248-1.061-0.42-1.625-0.508     c-1.093-0.258-2.232-0.258-3.325,0c-0.566,0.077-1.116,0.249-1.625,0.508c-0.525,0.168-1.016,0.427-1.45,0.767     c-2.154,1.401-3.554,3.706-3.802,6.264c-0.248,2.558,0.682,5.089,2.527,6.878c1.568,1.604,3.723,2.498,5.967,2.475     c2.835-0.033,5.472-1.455,7.057-3.805s1.915-5.329,0.884-7.969C282.542,404.334,281.905,403.382,281.12,402.557z" fill="#FFFFFF"/>
		</g>
	</g>
</g>
<g>
</g>
<g>
</g>
<g>
</g>
<g>
</g>
<g>
</g>
<g>
</g>
<g>
</g>
<g>
</g>
<g>
</g>
<g>
</g>
<g>
</g>
<g>
</g>
<g>
</g>
<g>
</g>
<g>
</g>
</svg>
