<?xml version="1.0" encoding="iso-8859-1"?>
<!-- Generator: Adobe Illustrator 18.0.0, SVG Export Plug-In . SVG Version: 6.00 Build 0)  -->
<!DOCTYPE svg PUBLIC "-//W3C//DTD SVG 1.1//EN" "http://www.w3.org/Graphics/SVG/1.1/DTD/svg11.dtd">
<svg xmlns="http://www.w3.org/2000/svg" xmlns:xlink="http://www.w3.org/1999/xlink" version="1.1" id="Capa_1" x="0px" y="0px" viewBox="0 0 58.745 58.745" style="enable-background:new 0 0 58.745 58.745;" xml:space="preserve" width="512px" height="512px" opacity=".36">
<g>
	<path d="M24.104,16.108c0.12,0.046,0.243,0.069,0.364,0.069c0.399,0,0.777-0.242,0.932-0.637c0.201-0.514-0.054-1.094-0.567-1.295   c-1.49-0.582-2.229-2.269-1.646-3.759c0.582-1.49,2.268-2.229,3.759-1.646c0.517,0.198,1.095-0.053,1.296-0.568   s-0.054-1.094-0.567-1.295c-2.522-0.983-5.366,0.265-6.351,2.782C20.339,12.276,21.587,15.125,24.104,16.108z" fill="#FFFFFF"/>
	<path d="M53.255,19.261c-0.506,0.222-0.736,0.812-0.515,1.317c0.312,0.71,0.327,1.499,0.045,2.22   c-0.282,0.722-0.828,1.291-1.538,1.602s-1.498,0.327-2.221,0.045c-0.722-0.282-1.291-0.829-1.602-1.539   c-0.221-0.505-0.808-0.735-1.317-0.515c-0.506,0.222-0.736,0.811-0.515,1.317c0.525,1.199,1.486,2.122,2.705,2.599   c0.579,0.226,1.183,0.339,1.786,0.339c0.668,0,1.335-0.139,1.966-0.415c1.199-0.525,2.122-1.486,2.599-2.706   s0.449-2.552-0.076-3.751C54.351,19.27,53.764,19.041,53.255,19.261z" fill="#FFFFFF"/>
	<path d="M39.287,16.484c-0.48,0.272-0.65,0.882-0.378,1.363c0.381,0.674,0.477,1.458,0.27,2.204   c-0.208,0.747-0.694,1.368-1.369,1.75s-1.459,0.476-2.204,0.27c-0.747-0.208-1.368-0.694-1.75-1.369   c-0.271-0.481-0.883-0.65-1.362-0.378c-0.48,0.272-0.65,0.882-0.378,1.363c0.9,1.593,2.564,2.489,4.275,2.489   c0.816,0,1.644-0.204,2.403-0.633c1.14-0.644,1.961-1.693,2.312-2.955s0.188-2.584-0.456-3.724   C40.378,16.382,39.767,16.212,39.287,16.484z" fill="#FFFFFF"/>
	<path d="M30.753,18.289c0.687,0.332,1.412,0.489,2.128,0.489c1.821,0,3.574-1.019,4.42-2.766c0.24-0.497,0.032-1.095-0.465-1.336   c-0.5-0.241-1.096-0.031-1.336,0.465c-0.697,1.441-2.436,2.043-3.876,1.348c-1.44-0.697-2.045-2.437-1.348-3.876   c0.24-0.497,0.032-1.095-0.465-1.336c-0.499-0.241-1.095-0.031-1.336,0.465C27.299,14.174,28.32,17.111,30.753,18.289z" fill="#FFFFFF"/>
	<path d="M23.317,23.979c0.629,0.275,1.295,0.413,1.962,0.413c0.604,0,1.21-0.113,1.789-0.34c1.22-0.478,2.18-1.401,2.703-2.601   c0.222-0.506-0.01-1.096-0.516-1.317c-0.51-0.221-1.096,0.012-1.316,0.516c-0.311,0.71-0.879,1.257-1.601,1.54   c-0.721,0.283-1.509,0.269-2.221-0.043c-1.466-0.641-2.137-2.355-1.497-3.821c0.222-0.506-0.01-1.096-0.516-1.317   c-0.511-0.22-1.096,0.012-1.316,0.516C19.707,20,20.842,22.896,23.317,23.979z" fill="#FFFFFF"/>
	<path d="M35.927,13.457c0.159,0.015,0.318,0.022,0.477,0.022c1.135,0,2.225-0.39,3.111-1.121c2.084-1.72,2.381-4.816,0.661-6.9   c-0.352-0.425-0.98-0.488-1.408-0.135c-0.426,0.352-0.486,0.982-0.135,1.408c1.019,1.234,0.843,3.067-0.392,4.085   c-0.597,0.493-1.342,0.728-2.124,0.65c-0.771-0.074-1.468-0.444-1.961-1.042c-0.352-0.425-0.98-0.488-1.408-0.135   c-0.426,0.352-0.486,0.982-0.135,1.408C33.446,12.707,34.623,13.332,35.927,13.457z" fill="#FFFFFF"/>
	<path d="M15.431,22.487c0.208-0.512-0.039-1.095-0.551-1.303c-0.51-0.206-1.095,0.038-1.303,0.551   c-0.601,1.482-2.294,2.2-3.78,1.598c-1.482-0.602-2.199-2.297-1.598-3.78c0.207-0.512-0.039-1.095-0.551-1.303   c-0.513-0.207-1.096,0.039-1.303,0.551c-1.016,2.505,0.195,5.369,2.699,6.385c0.602,0.244,1.224,0.359,1.837,0.359   C12.819,25.545,14.658,24.39,15.431,22.487z" fill="#FFFFFF"/>
	<path d="M57.277,19.629c0.592-1.844,0.106-3.888-1.312-5.282c-1.013-0.994-2.375-1.542-3.784-1.524   c-0.235-0.624-0.604-1.19-1.09-1.667c-1.283-1.26-3.119-1.622-4.741-1.129c0.003-0.088,0.022-0.173,0.022-0.261   c0-3.899-3.222-7.071-7.181-7.071c-0.751,0-1.486,0.114-2.196,0.341c-1.13-1.175-2.714-1.858-4.37-1.858   c-1.843,0-3.564,0.832-4.696,2.222c-0.938-0.463-1.968-0.704-3.028-0.704c-3.746,0-6.794,3.002-6.794,6.692   c0,0.013,0,0.026,0,0.039c-1.049,0.494-1.922,1.246-2.579,2.149c-1.884-0.701-4.035-0.303-5.524,1.099   c-1.868-0.586-3.946-0.116-5.362,1.275c-1.012,0.994-1.563,2.338-1.559,3.722c-0.632,0.23-1.206,0.591-1.69,1.066   C0.495,19.619,0,20.793,0,22.044s0.495,2.425,1.393,3.308c0.518,0.508,1.133,0.884,1.812,1.109c0.008,1.444,0.59,2.845,1.642,3.878   c1.045,1.027,2.431,1.589,3.87,1.606c0.077,0.963,0.497,1.887,1.207,2.584c0.809,0.794,1.871,1.192,2.935,1.192   c0.402,0,0.799-0.075,1.187-0.189c4.112,0.115,9.709,9.159,10.445,19.714c0.091,1.302,1.188,2.322,2.496,2.322h5   c1.276,0,2.349-0.958,2.493-2.229l0.076-0.702c1.37-12.692,4.224-19.208,8.482-19.403c0.836,0.451,1.755,0.701,2.683,0.701   c1.43,0,2.86-0.535,3.949-1.604c0.376-0.369,0.692-0.783,0.946-1.237c1.234-0.007,2.436-0.489,3.32-1.357   c0.977-0.959,1.468-2.276,1.382-3.603c0.697-0.258,1.331-0.66,1.867-1.186c1.007-0.989,1.561-2.305,1.561-3.707   C58.745,21.884,58.226,20.607,57.277,19.629z M19.475,11.027c0.45-0.152,0.73-0.6,0.672-1.071c-0.023-0.187-0.039-0.376-0.039-0.57   c0-2.587,2.15-4.692,4.794-4.692c0.991,0,1.944,0.297,2.759,0.859c0.231,0.16,0.521,0.214,0.794,0.151   c0.274-0.063,0.509-0.239,0.646-0.485c0.707-1.26,2.059-2.043,3.525-2.043c1.284,0,2.502,0.611,3.258,1.635   c0.277,0.376,0.777,0.509,1.204,0.323c0.67-0.292,1.378-0.44,2.104-0.44c2.856,0,5.181,2.275,5.181,5.071   c0,0.685-0.149,1.352-0.428,1.987c-0.001,0.003-0.003,0.004-0.004,0.007l-0.076,0.182c-0.002,0.003-0.003,0.007-0.004,0.01   c0,0,0,0,0,0.001l-0.002,0.004c-0.018,0.038-0.018,0.078-0.031,0.117c-0.028,0.084-0.061,0.167-0.067,0.253   c-0.001,0.021,0.007,0.04,0.007,0.061c0,0.104,0.006,0.209,0.038,0.307c0.01,0.032,0.034,0.057,0.047,0.088   c0.036,0.083,0.071,0.167,0.128,0.239c0.079,0.098,0.177,0.182,0.294,0.246c0.545,0.301,0.87,0.836,0.87,1.432   c0,0.599-0.345,1.152-0.898,1.446c-0.248,0.131-0.429,0.36-0.5,0.631c-0.07,0.271-0.024,0.559,0.127,0.794   c0.326,0.506,0.499,1.088,0.499,1.682c0,1.275-0.776,2.422-1.978,2.922c-0.499,0.208-0.742,0.775-0.549,1.281   c0.139,0.363,0.209,0.737,0.209,1.11c0,1.75-1.457,3.174-3.249,3.174c-0.184,0-0.366-0.02-0.548-0.052   c-0.038-0.006-0.075-0.015-0.112-0.022c-0.178-0.037-0.356-0.085-0.53-0.153l-0.001,0c-0.667-0.26-1.242-0.73-1.614-1.355   c-0.178-0.297-0.496-0.481-0.842-0.488c-0.372,0-0.671,0.167-0.857,0.458c-0.541,0.838-1.302,1.477-2.18,1.882   c-0.129,0.06-0.259,0.117-0.391,0.166c-0.065,0.024-0.133,0.043-0.199,0.064c-0.125,0.04-0.25,0.081-0.378,0.112   c-0.087,0.021-0.176,0.033-0.265,0.05c-0.112,0.021-0.223,0.046-0.336,0.059c-0.195,0.023-0.393,0.035-0.593,0.037   c-0.149,0.001-0.299-0.01-0.448-0.022c-0.048-0.004-0.097-0.004-0.145-0.009c-0.163-0.018-0.326-0.047-0.488-0.08   c-0.031-0.006-0.064-0.01-0.095-0.017c-0.176-0.04-0.35-0.09-0.522-0.148c-0.015-0.005-0.03-0.009-0.045-0.014   c-0.186-0.065-0.37-0.139-0.55-0.226l0,0c-0.774-0.369-1.457-0.921-1.969-1.628c-0.158-0.218-0.397-0.364-0.664-0.403   c-0.049-0.007-0.097-0.011-0.146-0.011c-0.218,0-0.432,0.071-0.607,0.206c-0.258,0.197-0.539,0.348-0.829,0.477   c-0.007,0.003-0.014,0.002-0.021,0.005c-0.262,0.115-0.526,0.2-0.791,0.259c-0.009,0.002-0.018,0.005-0.027,0.007   c-0.267,0.058-0.535,0.088-0.802,0.088c-2.218,0-4.021-1.764-4.021-3.933c0-0.83,0.266-1.627,0.769-2.306   c0.163-0.219,0.229-0.495,0.183-0.764c-0.045-0.269-0.199-0.507-0.425-0.66c-1.298-0.879-2.072-2.322-2.072-3.86   c0-0.228,0.021-0.452,0.054-0.673c0.008-0.057,0.021-0.113,0.031-0.169c0.032-0.168,0.072-0.334,0.122-0.497   c0.018-0.057,0.034-0.114,0.054-0.171c0.062-0.176,0.134-0.347,0.216-0.514c0.016-0.033,0.028-0.067,0.046-0.1   C17.319,12.275,18.273,11.433,19.475,11.027z M33.746,29.401c0.51-0.318,0.985-0.692,1.404-1.133   c0.421,0.404,0.916,0.718,1.445,0.963c0.029,0.036,0.057,0.071,0.096,0.11c0.165,0.162,0.343,0.309,0.532,0.44   c-1.237,1.441-2.343,3.133-3.257,4.773C34.027,32.631,33.913,30.88,33.746,29.401z M27.256,39.924   c-1.664-3.826-3.775-6.6-5.428-8.399c0.318-0.143,0.615-0.336,0.871-0.587c0.553-0.544,0.86-1.274,0.879-2.029   c0.228-0.124,0.457-0.288,0.686-0.456c0.142-0.063,0.286-0.122,0.423-0.196c0.495,0.52,1.066,0.959,1.686,1.308   C27.171,32.679,27.312,36.735,27.256,39.924z M11.324,33.103c-0.54-0.531-0.747-1.283-0.553-2.012   c0.089-0.337-0.003-0.697-0.244-0.949c-0.191-0.199-0.453-0.308-0.723-0.308c-0.071,0-0.144,0.008-0.215,0.023   c-1.222,0.268-2.468-0.085-3.343-0.944c-0.814-0.8-1.186-1.945-0.993-3.063c0.047-0.27-0.02-0.546-0.183-0.766   c-0.163-0.219-0.409-0.362-0.681-0.396c-0.613-0.075-1.165-0.339-1.596-0.763C2.282,23.421,2,22.753,2,22.044   c0-0.709,0.282-1.377,0.795-1.88c0.409-0.402,0.932-0.662,1.512-0.751c0.268-0.041,0.507-0.189,0.664-0.41   c0.156-0.221,0.217-0.496,0.166-0.762c-0.195-1.044,0.144-2.115,0.907-2.865c0.999-0.982,2.527-1.231,3.802-0.62   c0.415,0.199,0.921,0.086,1.213-0.277c0.082-0.103,0.168-0.204,0.266-0.3c0.868-0.854,2.119-1.146,3.264-0.817   c-0.01,0.029-0.013,0.06-0.022,0.089c-0.076,0.236-0.131,0.479-0.18,0.724c-0.018,0.088-0.044,0.174-0.058,0.263   c-0.052,0.334-0.083,0.674-0.083,1.019c0,1.882,0.806,3.661,2.192,4.92c-0.425,0.825-0.646,1.732-0.646,2.669   c0,0.202,0.011,0.401,0.031,0.598c0.007,0.069,0.021,0.136,0.031,0.205c0.017,0.126,0.033,0.253,0.059,0.377   c0.016,0.079,0.04,0.155,0.059,0.232c0.027,0.11,0.052,0.222,0.086,0.329c0.026,0.082,0.058,0.16,0.087,0.24   c0.036,0.1,0.07,0.201,0.111,0.298c0.035,0.082,0.076,0.159,0.114,0.239c0.044,0.092,0.086,0.185,0.135,0.274   c0.043,0.079,0.092,0.153,0.138,0.23c0.052,0.086,0.102,0.172,0.157,0.255c0.051,0.075,0.106,0.146,0.16,0.218   c0.059,0.079,0.116,0.159,0.179,0.236c0.058,0.071,0.121,0.137,0.183,0.205c0.065,0.072,0.129,0.145,0.198,0.214   c0.065,0.065,0.135,0.126,0.203,0.189c0.071,0.065,0.142,0.132,0.216,0.193c0.071,0.059,0.146,0.114,0.22,0.17   c0.077,0.058,0.153,0.117,0.233,0.172c0.077,0.053,0.157,0.101,0.237,0.15c0.082,0.051,0.164,0.102,0.249,0.149   c0.082,0.045,0.166,0.086,0.25,0.128c0.088,0.043,0.176,0.087,0.266,0.126c0.086,0.037,0.174,0.07,0.262,0.103   c0.093,0.035,0.186,0.071,0.281,0.101c0.09,0.029,0.182,0.054,0.274,0.079c0.097,0.026,0.193,0.052,0.291,0.074   c0.094,0.021,0.189,0.037,0.285,0.053c0.1,0.017,0.2,0.033,0.302,0.046c0.097,0.012,0.195,0.019,0.293,0.026   c0.064,0.004,0.126,0.014,0.19,0.017c-0.028,0.201-0.122,0.388-0.272,0.537c-0.262,0.257-0.651,0.348-1.016,0.24   c-0.266-0.078-0.551-0.043-0.788,0.096c-0.238,0.139-0.408,0.371-0.47,0.64c-0.044,0.193-0.115,0.376-0.21,0.546   c-0.097,0.174-0.217,0.333-0.361,0.473c-0.616,0.606-1.537,0.789-2.351,0.466c-0.493-0.197-1.055,0.029-1.277,0.511   c-0.107,0.233-0.254,0.442-0.434,0.619c-0.212,0.208-0.472,0.37-0.771,0.48c-0.004,0.001-0.006,0.005-0.01,0.006   C12.839,33.867,11.941,33.708,11.324,33.103z M32.566,54.423l-0.075,0.691c-0.03,0.259-0.247,0.454-0.506,0.454h-5   c-0.263,0-0.482-0.203-0.5-0.461c-0.668-9.582-5.297-18.711-10.194-21.025c0.077,0.012,0.154,0.014,0.231,0.021   c0.07,0.007,0.14,0.016,0.209,0.019c0.096,0.004,0.191,0.001,0.286-0.001c0.068-0.002,0.136,0,0.203-0.005   c0.095-0.007,0.189-0.022,0.283-0.035c0.067-0.009,0.134-0.015,0.201-0.028c0.093-0.018,0.184-0.043,0.276-0.067   c0.066-0.017,0.132-0.03,0.197-0.051c0.092-0.029,0.181-0.066,0.271-0.101c0.061-0.024,0.124-0.044,0.184-0.071   c0.098-0.044,0.191-0.096,0.286-0.147c0.049-0.027,0.1-0.049,0.148-0.077c0.117-0.069,0.228-0.148,0.339-0.229   c0.022-0.017,0.047-0.03,0.069-0.047c0.132-0.102,0.259-0.211,0.38-0.33c0.098-0.096,0.19-0.196,0.277-0.301   c1.956,2.089,5.285,6.392,6.885,12.787c0.117,0.472,0.56,0.787,1.043,0.755c0.485-0.036,0.874-0.415,0.922-0.899   c0.038-0.383,0.835-8.664-0.369-14.898c0.071,0.013,0.144,0.016,0.215,0.027c0.16,0.025,0.32,0.048,0.483,0.062   c0.109,0.009,0.218,0.012,0.327,0.017c0.096,0.004,0.19,0.015,0.286,0.015c0.056,0,0.11-0.007,0.165-0.008   c0.113-0.003,0.226-0.009,0.339-0.017c0.15-0.01,0.3-0.024,0.448-0.044c0.106-0.014,0.21-0.03,0.315-0.048   c0.162-0.029,0.323-0.063,0.482-0.103c0.052-0.013,0.106-0.019,0.158-0.034c0.274,2.906,0.281,6.793-0.807,10.663   c-0.146,0.517,0.144,1.057,0.655,1.222c0.511,0.167,1.061-0.103,1.246-0.606c0.024-0.065,2.205-5.944,5.367-9.92   c0.01,0.016,0.026,0.029,0.037,0.046c0.111,0.169,0.237,0.329,0.384,0.475c0.004,0.004,0.006,0.009,0.01,0.013   c0.133,0.13,0.278,0.245,0.43,0.347c0.005,0.003,0.009,0.008,0.014,0.012c0.077,0.051,0.161,0.085,0.242,0.129   c0.086,0.046,0.168,0.1,0.258,0.137c0.046,0.019,0.095,0.027,0.141,0.044c0.131,0.047,0.261,0.094,0.398,0.123   c0.185,0.039,0.373,0.061,0.563,0.065c0.108,0.205,0.229,0.402,0.362,0.59C34.554,35.994,33.081,49.648,32.566,54.423z    M55.783,25.521c-0.482,0.474-1.096,0.785-1.772,0.901c-0.281,0.048-0.528,0.214-0.68,0.457s-0.191,0.538-0.11,0.812   c0.273,0.931,0.01,1.934-0.687,2.619c-0.618,0.605-1.51,0.882-2.375,0.75c-0.458-0.073-0.914,0.186-1.086,0.623   c-0.181,0.463-0.451,0.873-0.806,1.22c-1.219,1.198-3.102,1.354-4.497,0.471c-0.001-0.001-0.002-0.002-0.003-0.003   c-0.229-0.146-0.424-0.299-0.597-0.469c-0.379-0.372-0.661-0.816-0.841-1.32c-0.042-0.116-0.106-0.215-0.181-0.305   c-0.021-0.025-0.047-0.044-0.07-0.067c-0.059-0.057-0.12-0.107-0.19-0.148c-0.034-0.02-0.068-0.036-0.104-0.051   c-0.069-0.03-0.139-0.051-0.214-0.065c-0.04-0.008-0.078-0.016-0.12-0.019c-0.021-0.001-0.042-0.01-0.063-0.01   c-0.087,0-0.175,0.011-0.262,0.035c-0.001,0-0.003,0-0.005,0c-0.042,0.012-0.085,0.012-0.127,0.018   c-0.269,0.04-0.534-0.022-0.748-0.174c-0.041-0.03-0.085-0.055-0.122-0.091c-0.07-0.068-0.125-0.147-0.17-0.231   c-0.011-0.021-0.017-0.045-0.027-0.067c-0.028-0.065-0.052-0.133-0.065-0.204c-0.027-0.147-0.024-0.301,0.023-0.455   c0.013-0.042,0.023-0.085,0.03-0.128c0.31-0.066,0.609-0.162,0.896-0.28c0.082-0.034,0.156-0.081,0.236-0.118   c0.209-0.098,0.414-0.202,0.607-0.325c0.099-0.063,0.188-0.136,0.282-0.205c0.161-0.119,0.317-0.241,0.463-0.376   c0.091-0.085,0.175-0.174,0.259-0.265c0.132-0.141,0.255-0.287,0.37-0.442c0.075-0.1,0.146-0.201,0.213-0.306   c0.105-0.165,0.197-0.337,0.283-0.514c0.053-0.109,0.109-0.215,0.154-0.328c0.08-0.199,0.139-0.405,0.194-0.615   c0.027-0.102,0.063-0.199,0.083-0.304c0.062-0.318,0.101-0.644,0.101-0.98c0-0.322-0.031-0.642-0.093-0.958   c1.487-0.941,2.41-2.569,2.41-4.354c0-0.661-0.129-1.311-0.377-1.92c0.543-0.51,0.918-1.17,1.072-1.893   c0.051-0.241,0.078-0.489,0.078-0.741c0-0.241-0.028-0.478-0.075-0.709c-0.015-0.075-0.043-0.144-0.063-0.218   c-0.042-0.154-0.086-0.307-0.147-0.454c-0.035-0.083-0.08-0.16-0.121-0.24c-0.066-0.129-0.133-0.256-0.214-0.376   c-0.054-0.08-0.115-0.154-0.175-0.23c-0.053-0.067-0.096-0.14-0.154-0.203c1.068-0.724,2.548-0.617,3.494,0.314   c0.407,0.399,0.669,0.907,0.759,1.468c0.042,0.266,0.189,0.503,0.409,0.659c0.219,0.155,0.494,0.215,0.756,0.168   c1.078-0.194,2.181,0.141,2.95,0.897c0.989,0.972,1.241,2.455,0.629,3.69c-0.213,0.428-0.093,0.946,0.286,1.237   c0.105,0.081,0.208,0.166,0.305,0.261c0.62,0.61,0.962,1.419,0.962,2.279C56.745,24.102,56.403,24.911,55.783,25.521z" fill="#FFFFFF"/>
</g>
<g>
</g>
<g>
</g>
<g>
</g>
<g>
</g>
<g>
</g>
<g>
</g>
<g>
</g>
<g>
</g>
<g>
</g>
<g>
</g>
<g>
</g>
<g>
</g>
<g>
</g>
<g>
</g>
<g>
</g>
</svg>
