<svg height="511pt" viewBox="-41 0 511 511.9906" width="511pt" xmlns="http://www.w3.org/2000/svg" fill="#fff" opacity=".36"><path d="m213.8125 511.992188c-15.46875 0-30.488281-5.71875-44.710938-17-22.765624 11.546874-43.59375 12.722656-61.972656 3.515624-44.191406-22.132812-53.570312-93.363281-53.945312-96.386718-7.089844-56.707032-7.902344-58.703125-28.695313-109.746094-3.78125-9.277344-8.199219-20.136719-13.421875-33.203125-8.789062-21.960937-12.339844-47.585937-9.738281-70.292969 5.914063-51.765625 50.03125-92.605468 102.601563-94.984375 17.773437-.792969 34.417968 4.144531 49.53125 14.742188 37.476562-21.507813 78.246093-18.898438 113.167968 7.058593 17.289063-15.453124 36.941406-22.78125 58.492188-21.800781 52.582031 2.378907 96.6875 43.210938 102.609375 94.984375 2.59375 22.707032-.957031 48.332032-9.738281 70.292969-5.222657 13.054687-9.648438 23.925781-13.421876 33.203125-20.792968 51.042969-21.605468 53.039062-28.695312 109.746094-.375 3.039062-9.828125 74.78125-54.378906 96.644531-18.703125 9.179687-39.917969 7.660156-63.101563-4.539063-13.71875 11.792969-28.683593 17.765626-44.582031 17.765626zm-43.652344-35.789063c2.046875 0 4.070313.734375 5.671875 2.160156 24.96875 22.21875 52.257813 21.953125 75.363281-.683593 2.753907-2.703126 6.988282-3.199219 10.316407-1.253907 20.101562 11.902344 37.765625 14.257813 52.46875 7.03125 30.179687-14.8125 42.6875-65.257812 44.964843-83.441406 7.375-58.953125 8.636719-62.058594 29.824219-114.066406 3.769531-9.257813 8.171875-20.085938 13.386719-33.097657 11.03125-27.585937 9.710938-52.5625 8.625-62.035156-4.972656-43.535156-42.125-77.859375-86.417969-79.867187-18.816406-.800781-36.007812 6.546875-51.058593 22-3.117188 3.191406-8.160157 3.4375-11.582032.585937-17.695312-14.769531-37.210937-22.574218-56.433594-22.574218-15.65625 0-32.167968 5.238281-47.742187 15.152343-3.078125 1.953125-7.054687 1.742188-9.90625-.527343-13.039063-10.410157-27.441406-15.351563-42.929687-14.636719-44.292969 2.007812-81.445313 36.34375-86.417969 79.867187-1.082031 9.457032-2.40625 34.4375 8.625 62.035156 5.207031 13.011719 9.617187 23.839844 13.390625 33.097657 21.1875 52.007812 22.449218 55.113281 29.820312 114.066406 2.261719 18.0625 14.675782 68.226563 44.652344 83.246094 14.386719 7.210937 31.605469 5.203125 51.171875-5.929688 1.296875-.761719 2.753906-1.128906 4.207031-1.128906zm0 0"/><path d="m307.699219 189.546875c-3.226563 0-6.304688-1.835937-7.75-4.949219-20.699219-44.738281-57.859375-73.648437-94.667969-73.648437-31.929688 0-65.667969 21.402343-88.042969 55.847656-2.566406 3.953125-7.847656 5.085937-11.800781 2.507813-3.949219-2.566407-5.078125-7.855469-2.507812-11.808594 25.496093-39.242188 64.710937-63.609375 102.359374-63.609375 44.097657 0 86.308594 32.011719 110.15625 83.542969 1.980469 4.273437.121094 9.351562-4.164062 11.324218-1.167969.542969-2.386719.792969-3.582031.792969zm0 0"/><path d="m121.597656 418.113281c-3.316406 0-6.484375-1.953125-7.855468-5.195312-15.597657-36.769531-28.5-82.898438-36.335938-129.914063-3.503906-21.039062-3.335938-42.132812.503906-62.699218.863282-4.621094 5.34375-7.601563 9.957032-6.824219 4.636718.871093 7.691406 5.324219 6.820312 9.957031-3.472656 18.601562-3.628906 37.699219-.445312 56.761719 7.621093 45.71875 20.128906 90.480469 35.207031 126.035156 1.84375 4.34375-.1875 9.351563-4.523438 11.195313-1.089843.46875-2.21875.683593-3.328125.683593zm0 0"/><path d="m213.8125 511.992188c-28.320312 0-54.394531-18.570313-77.519531-55.183594-2.515625-3.984375-1.332031-9.257813 2.660156-11.773438 3.996094-2.519531 9.257813-1.316406 11.769531 2.660156 19.792969 31.339844 41.015625 47.230469 63.097656 47.230469 36.367188 0 60.421876-43.40625 74.191407-79.816406 1.664062-4.410156 6.589843-6.621094 11-4.964844 4.414062 1.664063 6.628906 6.585938 4.964843 10.996094-22.492187 59.433594-53.667968 90.851563-90.164062 90.851563zm0 0"/><path d="m128.484375 221.875c-4.710937 0-8.53125-3.8125-8.53125-8.53125 0-42.261719 43.0625-85.328125 85.328125-85.328125 4.707031 0 8.53125 3.816406 8.53125 8.535156s-3.824219 8.53125-8.53125 8.53125c-32.535156 0-68.261719 35.726563-68.261719 68.261719 0 4.71875-3.824219 8.53125-8.535156 8.53125zm0 0"/><path d="m128.484375 264.539062c-4.710937 0-8.53125-3.8125-8.53125-8.53125v-11.09375c0-4.71875 3.820313-8.53125 8.53125-8.53125s8.535156 3.8125 8.535156 8.53125v11.09375c0 4.71875-3.824219 8.53125-8.535156 8.53125zm0 0"/><path d="m267.175781 135.515625c-1.9375 0-3.871093-.65625-5.46875-1.980469-17.695312-14.769531-37.210937-22.574218-56.4375-22.574218-15.65625 0-32.167969 5.238281-47.738281 15.152343-3.082031 1.953125-7.058594 1.742188-9.90625-.527343-6.835938-5.453126-14.214844-9.449219-21.957031-11.886719-.707031-.222657-1.371094-.53125-1.996094-.921875-1.089844-.691406-2.226563-1.347656-3.402344-1.964844-2.132812-1.109375-3.703125-3.0625-4.308593-5.398438-.617188-2.320312-.214844-4.796874 1.089843-6.820312 2.636719-4.058594 6.324219-7.269531 10.648438-9.273438 8.386719-3.875 39.515625-15.734374 57.136719-20.1875-1.355469-23.800781 6.664062-44.976562 24.367187-64.515624 2.585937-2.859376 6.308594-4.507813 10.199219-4.5312505l19.53125-.0507813c5.179687-.4023442 9.898437 2.8632818 12.253906 7.4999998 2.355469 4.648438 1.902344 10.136719-1.195312 14.351563-11.546876 15.691406-15.777344 31.765625-13.285157 50.460937 14.164063 5.480469 43.773438 19.710938 49.164063 22.65625 4.863281 2.660156 8.652344 6.800782 10.964844 11.96875 1.835937 4.105469.164062 8.9375-3.820313 11.035156-7.050781 3.703126-13.695313 8.71875-19.753906 14.941407-1.640625 1.695312-3.859375 2.566406-6.085938 2.566406zm-61.894531-41.628906c21.058594 0 42.132812 7.515625 61.375 21.816406 2.832031-2.507813 5.777344-4.8125 8.796875-6.929687-11.03125-5.65625-42.519531-20.265626-48.507813-21.800782-3.320312-.851562-5.8125-3.609375-6.324218-6.996094l-.546875-3.644531c-3.265625-21.613281.835937-41.058593 12.519531-59.214843l-11.683594.023437c-15.578125 17.636719-21.414062 36-18.359375 57.640625.324219 2.3125-.308593 4.65625-1.765625 6.492188-1.453125 1.835937-3.585937 2.988281-5.914062 3.199218-7.894532.71875-37.203125 10.972656-53 17.355469 3.976562 1.9375 7.84375 4.207031 11.582031 6.808594 16.84375-9.667969 34.652344-14.75 51.828125-14.75zm0 0"/></svg>