<svg width="400" height="92" fill="none" xmlns="http://www.w3.org/2000/svg"><path fill-rule="evenodd" clip-rule="evenodd" d="M44.167.167c0 .093-.469.166-1.072.166-.73 0-1.151.08-1.321.25-.15.15-.558.25-1.017.25-.528 0-.797.078-.863.25-.055.143-.304.25-.578.25-.318 0-.483.086-.483.25 0 .174-.174.25-.571.25-.314 0-.675.104-.801.23-.127.126-.469.282-.762.347-.294.064-.532.223-.532.353 0 .13-.113.237-.25.237a.25.25 0 0 0-.25.25c0 .167-.167.25-.5.25-.334 0-.5.083-.5.25 0 .167-.168.25-.506.25-.295 0-.545.104-.601.25-.052.138-.2.25-.328.25S33 4.612 33 4.75c0 .137-.113.25-.25.25a.25.25 0 0 0-.25.25.25.25 0 0 1-.25.25c-.138 0-.4.15-.583.333-.184.184-.411.334-.506.334-.094 0-.215.112-.267.25-.053.137-.201.25-.328.25-.128 0-.233.112-.233.25a.25.25 0 0 1-.25.25c-.137 0-.25.073-.25.162 0 .089-.337.5-.75.912-.412.413-.75.811-.75.884 0 .074-.15.263-.333.42-.183.157-.333.398-.333.537a.252.252 0 0 1-.25.251c-.138 0-.25.105-.25.233 0 .127-.113.275-.25.328-.138.052-.25.285-.25.517 0 .264-.094.422-.25.422-.138 0-.25.105-.25.233 0 .127-.113.275-.25.328a.408.408 0 0 0-.25.351c0 .14-.113.255-.25.255a.25.25 0 0 0-.25.25c0 .137-.115.25-.256.25a.412.412 0 0 0-.351.25c-.054.143-.303.25-.578.25-.317 0-.482.085-.482.25 0 .2-.251.25-1.255.25-.962 0-1.278.058-1.351.25-.069.18-.351.25-1 .25-.65 0-.931.07-1 .25-.053.138-.295.251-.537.252-.697.004-1.19.184-1.19.434 0 .145-.186.231-.5.231-.334 0-.5.083-.5.25 0 .174-.176.25-.584.25-.407 0-.583.075-.583.25 0 .166-.167.25-.5.25-.333 0-.5.083-.5.25 0 .166-.167.25-.5.25-.321 0-.5.084-.5.236 0 .131-.225.287-.5.347s-.5.179-.5.263c0 .085-.12.154-.266.154-.146 0-.304.15-.352.333-.048.183-.191.333-.318.333s-.231.113-.231.25c0 .157-.158.25-.422.25-.232 0-.465.113-.517.25-.053.138-.201.25-.328.25-.128 0-.233.113-.233.25 0 .138-.083.25-.186.25-.242 0-1.48 1.238-1.48 1.481 0 .102-.113.186-.25.186a.25.25 0 0 0-.25.25c0 .137-.113.25-.25.25a.25.25 0 0 0-.25.25c0 .137-.113.25-.25.25a.25.25 0 0 0-.25.25c0 .137-.077.25-.171.25-.093 0-.26.206-.371.458-.111.252-.297.519-.413.592a.495.495 0 0 0-.212.375c0 .133-.096.242-.213.242-.117 0-.36.336-.541.748-.181.412-.423.749-.538.75-.12.001-.208.214-.208.502 0 .333-.083.5-.25.5-.175 0-.25.176-.25.583 0 .472-.063.583-.333.583-.26 0-.334.111-.334.5 0 .334-.083.5-.25.5-.164 0-.25.165-.25.483 0 .274-.107.523-.25.578-.17.065-.25.331-.25.833s-.08.768-.25.833c-.18.07-.25.353-.25 1.023 0 .671-.069.954-.25 1.023-.199.077-.25.433-.25 1.745 0 .988-.066 1.649-.166 1.649-.104 0-.167 1-.167 2.667 0 1.666.063 2.666.167 2.666.1 0 .166.661.166 1.649 0 1.312.051 1.669.25 1.745.181.069.25.353.25 1.023 0 .67.07.954.25 1.023.17.065.25.331.25.828 0 .54.066.732.25.732.181 0 .25.186.25.672 0 .444.085.705.25.768.145.056.25.305.25.594 0 .357.094.522.334.585.236.061.333.227.333.567 0 .316.086.481.25.481.167 0 .25.167.25.5 0 .333.083.5.25.5.139 0 .25.148.25.333 0 .186.111.334.25.334.156 0 .25.158.25.422 0 .232.113.465.25.517.138.053.25.201.25.328 0 .128.112.233.25.233a.25.25 0 0 1 .25.248c0 .137.15.343.333.457.184.115.334.305.334.424 0 .118.225.435.5.704.275.269.5.566.5.661 0 .095.112.172.25.172.137 0 .25.113.25.25 0 .138.112.25.25.25.137 0 .25.113.25.25 0 .138.115.25.255.25s.298.113.351.25c.053.138.2.25.328.25s.232.107.232.237.225.286.5.347c.275.06.5.216.5.346 0 .13.071.237.157.237.086 0 .402.225.704.5.301.275.718.5.926.5.227 0 .38.101.38.25 0 .137.142.25.316.25.173 0 .358.112.411.25.053.137.211.25.351.25.14 0 .405.15.589.333.183.184.483.334.666.334.184 0 .334.073.334.163 0 .09.206.214.458.275.252.061.606.213.787.337.181.123.462.225.625.225.163 0 .296.073.296.163 0 .09.188.211.417.268l.417.105.002 10.357c.002 10.517.025 11.107.434 11.107.127 0 .23.15.23.333 0 .192.111.333.262.333.144 0 .375.113.512.25.138.138.462.25.72.25.265 0 .513.11.567.25.073.192.389.25 1.351.25 1.004 0 1.255.05 1.255.25 0 .205.285.25 1.566.25 1.237 0 1.585.053 1.661.25.08.208.537.25 2.684.25 1.615 0 2.589.063 2.589.167 0 .11 5.611.167 16.5.167S65 91.61 65 91.5c0-.105 1.132-.167 3.063-.167 2.519 0 3.1-.044 3.27-.25.156-.188.576-.25 1.693-.25 1.166 0 1.505-.053 1.58-.25.076-.196.415-.25 1.584-.25 1.168 0 1.508-.053 1.583-.25.063-.165.325-.25.771-.25.571 0 .772-.103 1.315-.673l.641-.674V67.167h.422c.232 0 .465-.113.518-.25.053-.14.301-.25.56-.25.259 0 .507-.111.56-.25.053-.138.288-.25.523-.25.235 0 .471-.113.523-.25.053-.138.283-.25.511-.25.274 0 .444-.113.501-.334.061-.232.228-.333.55-.333.258 0 .506-.111.559-.25.053-.138.202-.25.331-.25s.328-.113.442-.25a.77.77 0 0 1 .52-.25c.173 0 .313-.113.313-.25a.25.25 0 0 1 .25-.25.25.25 0 0 0 .25-.25c0-.148.153-.25.376-.25.217 0 .603-.247.912-.583.294-.321.613-.584.707-.584.095 0 .172-.112.172-.25a.25.25 0 0 1 .25-.25.25.25 0 0 0 .25-.25.25.25 0 0 1 .25-.25.25.25 0 0 0 .25-.25.25.25 0 0 1 .25-.25.25.25 0 0 0 .25-.25c0-.137.094-.251.208-.253.254-.003.959-.722.959-.978 0-.102.112-.185.25-.185.137 0 .25-.081.25-.179 0-.098.112-.291.25-.428a.946.946 0 0 0 .25-.572c0-.177.112-.321.25-.321.137 0 .25-.105.25-.233 0-.127.112-.275.25-.328.146-.056.25-.305.25-.601 0-.369.078-.506.291-.507.179-.001.42-.275.623-.708.182-.389.425-.767.541-.84.116-.073.211-.346.211-.607 0-.268.109-.516.25-.57.165-.063.25-.324.25-.768 0-.486.069-.672.25-.672.175 0 .25-.176.25-.583s.076-.583.25-.583c.194 0 .25-.22.25-.981 0-.84.048-.993.334-1.068.293-.076.333-.227.333-1.249 0-.829.072-1.221.25-1.369.353-.293.372-7.584.021-8.088-.126-.181-.261-.842-.301-1.47-.053-.849-.144-1.183-.354-1.3-.2-.112-.283-.376-.283-.9 0-.548-.065-.742-.25-.742s-.25-.195-.25-.755c0-.518-.078-.786-.25-.851-.142-.055-.25-.304-.25-.578 0-.318-.085-.483-.25-.483-.173 0-.25-.174-.25-.571 0-.314-.112-.684-.25-.822-.137-.137-.25-.321-.25-.408 0-.087-.112-.251-.25-.365a.795.795 0 0 1-.25-.536.445.445 0 0 0-.333-.416c-.236-.062-.333-.227-.333-.568 0-.299-.088-.48-.232-.48-.128 0-.279-.188-.337-.417-.057-.229-.178-.417-.268-.417-.09 0-.163-.152-.163-.338 0-.186-.113-.382-.25-.435-.138-.052-.25-.2-.25-.328s-.113-.232-.25-.232a.25.25 0 0 1-.25-.25c0-.137-.107-.25-.237-.25s-.286-.225-.347-.5c-.06-.275-.177-.5-.26-.5-.083 0-.405-.244-.716-.542-1.005-.963-1.802-1.625-1.956-1.625-.083 0-.151-.112-.151-.25 0-.139-.148-.25-.333-.25-.186 0-.334-.111-.334-.25 0-.138-.148-.25-.332-.25-.182 0-.425-.15-.54-.333-.114-.183-.294-.333-.4-.333-.106 0-.235-.113-.288-.25-.053-.138-.24-.25-.417-.25-.176 0-.364-.113-.416-.25-.053-.138-.23-.253-.393-.256-.163-.003-.443-.115-.621-.25-.177-.134-.451-.244-.607-.244a.432.432 0 0 1-.379-.25c-.053-.138-.278-.25-.5-.25-.223 0-.448-.113-.5-.25-.064-.165-.325-.25-.768-.25-.461 0-.672-.073-.672-.231 0-.242-.489-.43-1.13-.434-.209-.001-.424-.115-.476-.252-.071-.183-.359-.25-1.078-.25-.762 0-.983-.056-.983-.25 0-.196-.229-.25-1.065-.25-.794 0-1.09-.064-1.162-.25-.063-.165-.324-.25-.767-.25-.487 0-.672-.069-.672-.25a.25.25 0 0 0-.25-.25.25.25 0 0 1-.25-.25.25.25 0 0 0-.25-.25.25.25 0 0 1-.25-.25c0-.138-.15-.4-.334-.583-.183-.184-.333-.446-.333-.584a.251.251 0 0 0-.25-.25.25.25 0 0 1-.25-.25.251.251 0 0 0-.25-.25c-.167 0-.25-.166-.25-.5 0-.333-.083-.5-.25-.5a.25.25 0 0 1-.25-.25.251.251 0 0 0-.25-.25c-.138 0-.25-.083-.25-.185 0-.256-.704-.975-.958-.978-.115-.002-.209-.116-.209-.253a.25.25 0 0 0-.25-.25.251.251 0 0 1-.25-.25.25.25 0 0 0-.25-.25.251.251 0 0 1-.25-.25.25.25 0 0 0-.25-.25.251.251 0 0 1-.25-.25.245.245 0 0 0-.238-.25c-.132 0-.287-.15-.345-.334-.058-.183-.213-.333-.345-.333-.131 0-.238-.079-.238-.175 0-.097-.225-.254-.5-.35-.275-.096-.5-.242-.5-.325 0-.082-.113-.15-.25-.15a.25.25 0 0 1-.25-.25c0-.167-.167-.25-.5-.25-.334 0-.5-.083-.5-.25 0-.138-.105-.25-.233-.25-.127 0-.275-.112-.328-.25-.055-.143-.303-.25-.581-.25-.346 0-.511-.096-.573-.333-.058-.221-.228-.334-.502-.334-.228 0-.458-.112-.51-.25-.056-.146-.306-.25-.601-.25-.338 0-.506-.082-.506-.25 0-.184-.192-.25-.732-.25-.497 0-.763-.08-.828-.25-.063-.165-.325-.25-.773-.25s-.71-.084-.773-.25c-.072-.188-.377-.25-1.245-.25-.655 0-1.149-.071-1.149-.166C54.833.059 52.944 0 49.5 0s-5.333.059-5.333.167zM53.06 5.75c.071.183.359.25 1.082.25.846 0 .998.047 1.073.333.061.233.23.335.561.339.261.003.62.115.798.25.177.135.534.245.791.245.305 0 .468.087.468.25 0 .166.167.25.5.25.334 0 .5.083.5.25 0 .174.176.25.584.25.407 0 .583.075.583.25 0 .137.104.25.232.25s.276.112.328.25c.053.137.286.25.518.25.264 0 .422.093.422.25 0 .137.078.25.172.25.095 0 .39.222.655.494.266.271.676.542.911.601.236.059.429.212.429.339 0 .128.112.232.25.232.137 0 .25.113.25.25 0 .138.112.25.25.25.137 0 .25.113.25.25 0 .138.104.25.232.25.127 0 .274.169.327.375.052.207.323.624.601.927.279.304.506.623.506.709 0 .086.113.156.25.156.157 0 .25.158.25.422 0 .232.113.465.25.518.138.052.25.2.25.328s.113.232.25.232c.175 0 .25.176.25.583 0 .408.076.584.25.584.157 0 .25.158.25.422 0 .232.113.465.25.517.138.053.251.257.253.453.004.62.195 1.108.433 1.108.162 0 .231.22.231.732 0 .497.08.763.25.828.183.07.25.359.25 1.083s.067 1.013.25 1.084c.204.078.25.481.25 2.184 0 1.745.041 2.089.25 2.089.167 0 .25.166.25.5 0 .316.085.5.232.5.128 0 .276.112.328.25.142.368 3.905.368 4.046 0 .053-.138.199-.25.325-.25s.28-.207.341-.459c.062-.252.195-.511.295-.577.309-.2.346-3.194.044-3.496-.18-.18-.268-.695-.307-1.778l-.054-1.524h.554c.304 0 .666.113.803.25.138.138.499.25.804.25.338 0 .591.098.649.25.053.138.277.25.498.25.221 0 .495.113.609.25.114.138.35.25.525.25.175 0 .362.113.414.25.054.139.301.25.559.25.323 0 .489.101.55.334a.444.444 0 0 0 .441.333c.195 0 .398.113.45.25.053.137.201.25.328.25.128 0 .233.113.233.25s.115.25.255.25.298.113.351.25c.053.137.2.25.328.25s.232.113.232.25.105.25.233.25c.127 0 .275.113.328.25.052.137.192.25.311.25.118 0 .308.15.423.333.114.184.32.334.457.334.136 0 .248.14.248.313 0 .172.113.406.25.52.138.114.25.311.25.437s.113.23.25.23a.25.25 0 0 1 .25.25c0 .139.148.25.334.25.185 0 .333.111.333.25 0 .137.112.25.25.25.175 0 .25.176.25.583s.075.583.25.583c.167 0 .25.167.25.5 0 .334.083.5.25.5.156 0 .25.158.25.422 0 .232.112.465.25.518.138.053.25.233.25.4s.112.416.25.553c.138.138.25.45.25.694 0 .304.105.472.333.532.275.071.334.227.334.88 0 .502.092.87.25 1.001.189.158.25.585.25 1.771 0 1.278.045 1.563.25 1.563.198 0 .25.238.25 1.149 0 .867-.062 1.172-.25 1.244-.201.077-.25.445-.25 1.851 0 1.45-.044 1.756-.25 1.756-.188 0-.25.201-.25.807 0 .596-.088.887-.334 1.109a1.17 1.17 0 0 0-.333.758c0 .252-.112.5-.25.553-.157.06-.25.315-.25.689 0 .374-.093.63-.25.69-.138.053-.25.229-.25.391a.757.757 0 0 1-.25.503.77.77 0 0 0-.25.52c0 .172-.112.313-.25.313-.167 0-.25.167-.25.5 0 .333-.083.5-.25.5a.25.25 0 0 0-.25.25.25.25 0 0 1-.25.25.25.25 0 0 0-.25.25c0 .138-.15.4-.333.583-.184.184-.334.446-.334.584a.25.25 0 0 1-.25.25.25.25 0 0 0-.25.25.25.25 0 0 1-.25.25.25.25 0 0 0-.25.25.25.25 0 0 1-.25.25.25.25 0 0 0-.25.25.25.25 0 0 1-.25.25.25.25 0 0 0-.25.25c0 .137-.115.25-.255.25a.41.41 0 0 0-.351.25c-.053.137-.158.25-.233.25-.273 0-1.313.755-1.32.958-.004.115-.12.208-.257.208a.25.25 0 0 0-.25.25c0 .168-.168.25-.506.25-.295 0-.545.104-.601.25-.052.138-.277.25-.5.25-.222 0-.447.113-.5.25-.052.138-.277.25-.5.25-.222 0-.447.113-.5.25-.053.139-.301.25-.557.25-.254 0-.556.113-.67.25-.114.138-.467.25-.786.25-.438 0-.599.081-.665.334-.076.289-.228.333-1.151.333-.835 0-1.064.054-1.064.25 0 .137-.113.25-.25.25-.22 0-.25 1.278-.25 10.5v10.5h-2.399c-1.979 0-2.416-.044-2.495-.25-.081-.212-.677-.25-3.946-.25-3.201 0-3.893-.042-4.101-.25-.378-.378-23.746-.378-24.059 0-.174.209-.833.25-4 .25-3.168 0-3.827.041-4 .25-.168.202-.687.25-2.687.25H24V62h-1.016c-.875 0-1.027-.046-1.102-.333-.071-.27-.228-.334-.818-.334-.538 0-.731-.065-.731-.25 0-.173-.174-.25-.565-.25-.349 0-.602-.095-.662-.25-.052-.137-.242-.25-.421-.25-.39 0-1.382-.5-1.568-.791-.074-.115-.309-.209-.524-.209-.215 0-.434-.112-.487-.25-.052-.137-.23-.25-.394-.25s-.392-.15-.507-.333c-.114-.183-.282-.333-.373-.333-.215 0-.832-.618-.832-.834 0-.091-.104-.166-.232-.166s-.276-.113-.328-.25a.41.41 0 0 0-.351-.25c-.141 0-.256-.077-.256-.171 0-.094-.189-.243-.419-.33a1.147 1.147 0 0 1-.58-.58c-.087-.23-.236-.419-.33-.419-.094 0-.171-.105-.171-.233 0-.127-.112-.275-.25-.328a.41.41 0 0 1-.25-.351.253.253 0 0 0-.25-.255.251.251 0 0 1-.25-.25.25.25 0 0 0-.25-.25.251.251 0 0 1-.25-.25c0-.138-.15-.4-.333-.583-.183-.184-.333-.409-.333-.5 0-.092-.113-.167-.25-.167-.168 0-.25-.167-.25-.505 0-.296-.104-.545-.25-.601-.138-.053-.25-.278-.25-.5 0-.223-.113-.448-.25-.5-.143-.055-.25-.304-.25-.578 0-.318-.086-.483-.25-.483-.186 0-.25-.195-.25-.755 0-.517-.079-.785-.25-.851-.17-.065-.25-.331-.25-.828 0-.51-.102-.834-.334-1.066-.514-.514-.514-7.617 0-8.083.255-.23.334-.513.334-1.198 0-.642.07-.923.25-.992.144-.055.25-.304.25-.59 0-.271.112-.606.25-.744.137-.137.25-.507.25-.821 0-.397.076-.572.25-.572.166 0 .25-.166.25-.5 0-.333.083-.5.25-.5.166 0 .25-.166.25-.5 0-.333.083-.5.25-.5.137 0 .25-.104.25-.232s.106-.273.235-.322c.229-.088.645-.724.863-1.321.059-.16.211-.291.338-.291.127 0 .23-.078.23-.173 0-.094.225-.392.5-.661.275-.268.5-.566.5-.661 0-.094.113-.172.25-.172a.25.25 0 0 0 .25-.25c0-.137.105-.25.233-.25.127 0 .275-.113.328-.25a.41.41 0 0 1 .351-.25c.14 0 .255-.113.255-.25a.25.25 0 0 1 .25-.25c.137 0 .25-.113.25-.25a.25.25 0 0 1 .25-.25c.137 0 .25-.104.25-.232 0-.127.187-.279.417-.336.229-.058.416-.179.416-.269 0-.089.157-.163.349-.163a.443.443 0 0 0 .436-.333c.062-.236.228-.334.568-.334.316 0 .481-.085.481-.25 0-.166.166-.25.5-.25.333 0 .5-.083.5-.25 0-.164.164-.25.482-.25.275 0 .523-.107.578-.25.055-.144.304-.25.589-.25.272 0 .606-.112.744-.25.141-.141.548-.25.933-.25.454 0 .716-.084.78-.25.075-.195.41-.25 1.536-.251.952 0 1.603-.085 1.918-.25.647-.337 3.065-.333 3.513.007.215.162.727.244 1.524.244.913 0 1.223.06 1.296.25.064.166.325.25.773.25s.71.085.773.25c.071.183.359.25 1.078.25.762 0 .983.056.983.25 0 .181.185.25.672.25.443 0 .704-.085.767-.25.063-.163.323-.25.749-.25.552 0 .683-.07.853-.458.111-.252.297-.518.413-.592.269-.168.303-3.116.037-3.116-.096 0-.254-.225-.35-.5-.137-.395-.272-.5-.638-.5-.324 0-.491-.101-.552-.334-.068-.263-.227-.333-.751-.333-.437 0-.698-.086-.761-.25-.065-.17-.332-.25-.837-.25-.412 0-.77-.085-.805-.192-.036-.107-.576-.237-1.209-.292-.99-.086-1.839-.516-1.019-.516.145 0 .264-.113.264-.25 0-.138.077-.25.172-.25.094 0 .22-.126.279-.279.136-.356.665-.888.882-.888.092 0 .167-.112.167-.25a.25.25 0 0 1 .25-.25.25.25 0 0 0 .25-.25.25.25 0 0 1 .25-.25.25.25 0 0 0 .25-.25c0-.137.094-.251.208-.253.254-.003.959-.722.959-.978 0-.102.103-.185.229-.185.127 0 .323-.113.437-.25a.772.772 0 0 1 .521-.25c.172 0 .313-.113.313-.25 0-.157.158-.25.422-.25.232 0 .465-.113.517-.25.053-.138.238-.25.412-.25.173 0 .315-.113.315-.25 0-.167.167-.25.5-.25.334 0 .5-.084.5-.25 0-.18.184-.25.655-.25.36 0 .767-.113.905-.25.137-.138.386-.251.553-.253.571-.004 1.054-.203 1.054-.433 0-.171.26-.231 1-.231.778 0 1-.056 1-.25 0-.215.526-.25 3.732-.25 3.164 0 3.747.038 3.828.25zm189.273 9.5c-.114.137-.404.251-.645.252-.695.004-1.188.184-1.188.434 0 .146-.186.231-.505.231-.296 0-.545.104-.601.25-.053.137-.278.25-.5.25-.223 0-.448.112-.5.25-.053.137-.201.25-.328.25-.128 0-.233.112-.233.25 0 .137-.115.25-.255.25a.41.41 0 0 0-.351.25c-.053.137-.2.25-.328.25a.232.232 0 0 0-.232.232c0 .128-.113.275-.25.328a.41.41 0 0 0-.25.351c0 .14-.113.255-.25.255-.138 0-.25.105-.25.233 0 .127-.113.275-.25.328-.138.052-.25.285-.25.517 0 .264-.094.422-.25.422-.162 0-.25.163-.25.46 0 .28-.131.542-.334.668a.797.797 0 0 0-.333.606c0 .218-.113.441-.25.493-.18.069-.25.35-.25 1s-.07.931-.25 1c-.217.084-.25 1.121-.25 7.935v7.838h-2.516c-1.868 0-2.63.062-2.958.239a4.08 4.08 0 0 1-.901.337l-.458.097.003 2.456c.003 3.371-.194 3.205 3.812 3.205H233v14.166c0 11.86.037 14.167.228 14.167.125 0 .418.15.651.333 1.028.809 5.454.325 5.454-.597 0-.11.113-.244.25-.296.22-.084.25-1.788.25-13.935V47.167h5.25c4.556 0 5.25-.033 5.25-.25 0-.138.115-.25.256-.25.14 0 .303-.132.362-.292.06-.16.188-.345.287-.41.302-.201.341-3.267.046-3.6a1.518 1.518 0 0 1-.31-.615c-.041-.225-.216-.351-.543-.389-.265-.03-.588-.161-.718-.291-.194-.193-1.117-.237-5.058-.237h-4.822v-7.149c0-6.2.033-7.161.25-7.244.165-.064.25-.325.25-.768 0-.486.069-.672.25-.672.167 0 .25-.167.25-.5 0-.294.088-.5.212-.5.117 0 .354-.262.527-.583.172-.321.417-.584.543-.584.126 0 .272-.112.325-.25.052-.137.2-.25.328-.25s.232-.112.232-.25c0-.166.167-.25.5-.25.32 0 .5-.085.5-.235 0-.273 1.298-.382 3.486-.294 1.029.042 1.347.111 1.347.292 0 .151.176.237.483.237.274 0 .523.108.578.25.056.146.305.25.601.25.338 0 .505.083.505.25 0 .138.112.25.25.25.137 0 .25.077.25.171 0 .093.206.261.458.373.252.111.536.301.63.422.285.365 2.247.2 2.478-.209.101-.179.278-.428.392-.553.115-.125.209-.335.209-.466s.112-.238.25-.238c.166 0 .25-.166.25-.5 0-.333.083-.5.25-.5.201 0 .25-.259.25-1.333 0-1.074-.049-1.333-.25-1.333a.25.25 0 0 1-.25-.25.25.25 0 0 0-.25-.25.25.25 0 0 1-.25-.25.25.25 0 0 0-.25-.25.25.25 0 0 1-.25-.25c0-.138-.141-.25-.313-.25a.777.777 0 0 1-.521-.25.77.77 0 0 0-.52-.25c-.172 0-.313-.113-.313-.25 0-.167-.167-.25-.5-.25-.315 0-.5-.086-.5-.231 0-.242-.489-.43-1.13-.434-.209-.001-.424-.115-.476-.252-.082-.213-.709-.25-4.225-.25-3.466 0-4.161.04-4.336.25zm-88 .371a.88.88 0 0 0-.383.32.491.491 0 0 1-.375.226c-.21 0-.242 3.858-.242 29.663v29.664l.41.103c.226.056.497.208.604.336.293.353 4.457.338 4.593-.016.052-.138.202-.25.333-.25s.287-.132.348-.292c.061-.16.208-.391.328-.512.175-.177.218-2.508.218-11.875 0-10.249.03-11.655.25-11.655a.25.25 0 0 0 .25-.25.25.25 0 0 1 .25-.25.25.25 0 0 0 .25-.25.25.25 0 0 1 .25-.25.25.25 0 0 0 .25-.25c0-.167.167-.25.505-.25.295 0 .545-.104.601-.25.053-.137.2-.25.328-.25s.232-.15.232-.333c0-.259.111-.333.5-.333.334 0 .5-.084.5-.25 0-.174.175-.25.572-.25.314 0 .684-.113.821-.25.138-.138.466-.25.73-.25.264 0 .626-.11.804-.245.477-.361 5.487-.366 5.847-.005.138.137.387.25.554.25.167 0 .347.112.399.25.053.137.286.25.518.25.264 0 .422.093.422.25 0 .137.112.25.25.25.137 0 .25.115.25.255s.112.298.25.351c.137.053.25.191.25.308 0 .116.112.305.25.419.137.114.25.348.25.52 0 .173.112.313.25.313.18 0 .25.185.25.666 0 .484.09.721.333.873.328.205.334.389.334 11.148 0 9.52.032 10.966.25 11.147.137.114.25.334.25.489 0 .891 4.742 1.571 5.529.793a1.77 1.77 0 0 1 .512-.328c.186-.071.292-.287.292-.598 0-.279.107-.528.25-.583.218-.084.25-1.332.25-9.831 0-8.45-.033-9.762-.25-9.942-.194-.161-.25-.611-.25-2.007 0-1.936-.073-2.327-.434-2.327-.173 0-.233-.256-.233-1 0-.777-.055-1-.25-1-.174 0-.25-.176-.25-.583s-.075-.583-.25-.583c-.166 0-.25-.167-.25-.5 0-.334-.083-.5-.25-.5-.156 0-.25-.158-.25-.422 0-.232-.112-.465-.25-.518-.137-.053-.251-.182-.253-.286-.003-.241-.732-.941-.978-.941-.102 0-.185-.113-.185-.25a.25.25 0 0 0-.25-.25.25.25 0 0 1-.25-.25.25.25 0 0 0-.25-.25.25.25 0 0 1-.25-.25.254.254 0 0 0-.257-.25c-.142 0-.418-.15-.615-.333-.197-.184-.456-.334-.576-.334-.121 0-.219-.074-.219-.164 0-.091-.306-.214-.681-.274-.374-.06-.72-.211-.768-.335-.056-.147-.366-.227-.884-.227-.556 0-.827-.076-.894-.25-.143-.372-6.964-.372-7.273 0-.137.166-.51.25-1.104.25-.647 0-.896.064-.896.228 0 .142-.263.264-.691.321-.38.051-.736.164-.791.251-.056.087-.345.211-.643.276-.302.065-.542.222-.542.354 0 .142-.168.237-.422.237-.232 0-.465.112-.517.25-.053.137-.238.25-.412.25-.173 0-.315.104-.315.231 0 .129-.22.263-.5.305l-.5.073V30.216c0-11.751-.031-13.405-.25-13.489-.138-.053-.25-.2-.25-.328s-.095-.232-.21-.232c-.116 0-.304-.15-.418-.334-.208-.332-3.944-.5-4.706-.212zm107.334.212c-.184.184-.409.334-.5.334-.092 0-.169.243-.172.541-.003.298-.116.688-.25.866-.375.495-.37 56.11.005 56.486.137.137.25.519.25.849 0 .479.08.63.4.752.221.083.45.231.51.329.152.245 9.028.245 9.18 0 .06-.098.289-.246.51-.329l.4-.153v-9.653c0-8.426.032-9.665.25-9.749.157-.06.25-.315.25-.683 0-.406.102-.651.333-.795.184-.115.334-.34.334-.501 0-.162.07-.294.155-.294.086 0 .208-.165.272-.368.064-.202.332-.556.595-.787.263-.23.478-.515.478-.632 0-.117.112-.213.25-.213a.25.25 0 0 0 .25-.25c0-.167.167-.25.505-.25.295 0 .545-.104.601-.25.063-.163.322-.25.75-.25s.687-.086.75-.25c.074-.193.396-.25 1.411-.25 1.059 0 1.316.049 1.316.25 0 .189.204.25.833.25.63 0 .834.061.834.25 0 .138.076.25.169.25.22 0 1.831 1.62 1.831 1.841 0 .093.112.213.25.266.142.054.25.303.25.578 0 .371.076.482.333.482.33 0 .333.111.333 10 0 8.778.031 10 .25 10 .165 0 .25.165.25.486 0 1.055.562 1.181 5.3 1.181 3.213 0 4.227-.051 4.397-.218.121-.12.351-.267.512-.328a.5.5 0 0 0 .291-.437c0-.18.113-.439.25-.577.362-.362.378-18.183.017-18.699-.152-.217-.253-.935-.292-2.065-.04-1.194-.123-1.754-.266-1.801-.128-.043-.209-.378-.209-.869 0-.507-.091-.875-.25-1.006-.137-.114-.25-.431-.25-.703 0-.355-.094-.52-.333-.582-.25-.066-.333-.228-.333-.651 0-.391-.077-.564-.25-.564-.167 0-.25-.167-.25-.5 0-.334-.084-.5-.25-.5a.25.25 0 0 1-.25-.25.25.25 0 0 0-.25-.25c-.138 0-.25-.131-.25-.29 0-.333-2.099-2.377-2.44-2.377-.125 0-.227-.113-.227-.25 0-.138-.104-.25-.232-.25s-.276-.113-.328-.25c-.053-.138-.286-.25-.518-.25-.25 0-.422-.095-.422-.233 0-.288-1.201-.934-1.737-.934-.217 0-.437-.112-.49-.25-.064-.167-.333-.251-.809-.255-.393-.003-.86-.115-1.038-.25-.486-.368-7.593-.363-7.593.005 0 .194-.22.25-.982.25-.719 0-1.008.067-1.078.25-.053.138-.286.25-.518.25-.233 0-.703.15-1.045.334-.342.183-.717.333-.833.333-.115 0-.21.112-.21.25 0 .139-.148.25-.334.25-.33 0-.333-.111-.333-13.167 0-8.666-.057-13.166-.167-13.166-.091 0-.316-.15-.5-.334-.317-.317-.555-.333-4.833-.333-4.278 0-4.516.016-4.833.333zm-131.44 24.75c-.067.174-.338.25-.894.25-.555 0-.826.076-.893.25-.061.158-.316.25-.69.25-.374 0-.629.093-.69.25-.052.138-.275.25-.493.25a.795.795 0 0 0-.606.334c-.126.202-.388.333-.668.333-.282 0-.46.09-.46.232 0 .127-.187.279-.416.336-.229.058-.417.179-.417.269 0 .089-.15.163-.333.163-.186 0-.334.111-.334.25 0 .137-.115.25-.255.25a.41.41 0 0 0-.351.25c-.053.137-.2.25-.328.25s-.232.112-.232.25c0 .137-.113.25-.25.25-.139 0-.25.148-.25.333 0 .186-.111.334-.25.334a.25.25 0 0 0-.25.25c0 .137-.113.25-.25.25a.25.25 0 0 0-.25.25c0 .137-.113.25-.25.25a.25.25 0 0 0-.25.25c0 .137-.099.25-.219.25-.299 0-.948.908-.948 1.326 0 .191-.109.34-.25.34-.167 0-.25.167-.25.5 0 .334-.083.5-.25.5-.138 0-.25.104-.25.23s-.112.323-.25.437c-.138.114-.252.367-.255.562-.003.195-.116.5-.25.678a1.378 1.378 0 0 0-.245.709c0 .211-.15.534-.333.718-.265.265-.334.555-.334 1.416 0 .852-.053 1.084-.25 1.084-.356 0-.376 5.91-.02 6.116.148.086.256.543.301 1.275.052.85.143 1.183.353 1.3.181.101.283.366.283.734 0 .4.076.575.25.575.167 0 .25.166.25.5 0 .333.083.5.25.5.167 0 .25.166.25.5 0 .333.083.5.25.5.167 0 .25.166.25.5 0 .333.083.5.25.5.139 0 .25.148.25.335 0 .184.15.463.333.62.184.157.334.381.334.498 0 .118.112.213.25.213.137 0 .25.113.25.25 0 .138.112.25.25.25.137 0 .25.113.25.25 0 .138.112.25.25.25.137 0 .25.113.25.25 0 .138.112.25.25.25.137 0 .251.094.253.209.003.215.706.958.907.958.062 0 .226.112.363.25.138.137.395.25.572.25.177 0 .321.112.321.25 0 .137.105.25.233.25.127 0 .275.112.328.25.052.137.277.25.5.25.222 0 .447.112.5.25.055.143.303.25.581.25.346 0 .511.096.573.333.067.256.228.334.692.334.383 0 .639.091.7.25.067.175.34.25.911.25.614 0 .816.062.816.25 0 .356 8.186.377 8.482.021.104-.126.542-.268.973-.317.431-.048.811-.171.845-.271.033-.101.198-.183.367-.183.483 0 .833-.183.833-.435 0-.147.183-.232.5-.232.333 0 .5-.083.5-.25a.25.25 0 0 1 .25-.25c.137 0 .25-.113.25-.25 0-.167.167-.25.505-.25.295 0 .545-.104.601-.25.053-.138.2-.25.328-.25s.232-.113.232-.25a.25.25 0 0 1 .25-.25.25.25 0 0 0 .25-.25.25.25 0 0 1 .25-.25c.139 0 .25-.148.25-.333 0-.186.111-.334.25-.334a.25.25 0 0 0 .25-.25c0-.139.148-.25.334-.25.185 0 .333-.111.333-.25a.25.25 0 0 1 .25-.25c.137 0 .25-.118.25-.262 0-.144.112-.374.25-.511a.946.946 0 0 0 .25-.572c0-.177.112-.321.25-.321.189 0 .25-.205.25-.839 0-.592-.074-.867-.25-.934-.138-.053-.25-.238-.25-.412 0-.173-.113-.315-.25-.315a.25.25 0 0 1-.25-.25c0-.138-.142-.25-.316-.25-.173 0-.358-.113-.411-.25-.053-.138-.286-.25-.518-.25-.264 0-.422-.094-.422-.25 0-.195-.222-.25-1-.25-.777 0-1 .055-1 .25 0 .144-.151.25-.358.25-.197 0-.598.243-.892.541-.293.298-.845.818-1.225 1.155-.38.337-.691.693-.691.791 0 .099-.113.179-.25.179a.25.25 0 0 0-.25.25c0 .167-.167.25-.5.25-.334 0-.5.084-.5.25 0 .175-.176.25-.584.25-.407 0-.583.076-.583.25 0 .192-.214.25-.922.25-.666 0-.948.07-1.018.25-.074.194-.397.25-1.423.25-.958 0-1.397-.069-1.577-.25-.155-.155-.565-.25-1.077-.25-.581 0-.855-.074-.923-.25-.053-.139-.301-.25-.56-.25-.259 0-.507-.11-.56-.25-.053-.137-.286-.25-.518-.25-.264 0-.422-.093-.422-.25 0-.164-.165-.25-.481-.25-.34 0-.506-.097-.567-.333-.048-.183-.207-.333-.353-.333s-.266-.113-.266-.25a.25.25 0 0 0-.25-.25.251.251 0 0 1-.25-.25c0-.138-.104-.25-.232-.25-.127 0-.279-.188-.336-.417-.058-.229-.178-.417-.268-.417-.09 0-.164-.15-.164-.333 0-.185-.111-.333-.25-.333-.154 0-.25-.157-.25-.407 0-.224-.076-.454-.169-.512-.093-.057-.277-.361-.408-.676-.131-.315-.318-.572-.414-.572-.097 0-.175-.338-.175-.755 0-.518-.079-.786-.25-.851-.209-.081-.25-.572-.25-2.995 0-2.466.037-2.899.25-2.899.184 0 .25-.192.25-.731 0-.59.064-.747.333-.817.227-.06.333-.228.333-.525 0-.241.113-.481.25-.533.143-.055.25-.304.25-.578 0-.318.086-.483.25-.483a.25.25 0 0 0 .25-.25c0-.137.113-.25.25-.25.138 0 .25-.072.25-.161 0-.154 1.104-1.339 1.247-1.339.163 0 .92-.804.92-.977 0-.104.225-.189.5-.189.333 0 .5-.084.5-.25 0-.138.145-.25.321-.25a.946.946 0 0 0 .572-.25c.137-.138.509-.25.825-.25.316 0 .668-.113.782-.25.167-.201.677-.25 2.604-.25 2.019 0 2.396.039 2.396.25 0 .185.194.25.75.25s.75.064.75.25c0 .139.148.25.333.25.186 0 .334.111.334.25 0 .166.166.25.5.25.29 0 .5.087.5.209 0 .189.508.691 1.65 1.629.22.18.502.328.625.328.124 0 .225.113.225.25 0 .197.231.25 1.083.25.814 0 1.083-.057 1.083-.232 0-.127.175-.275.388-.329.214-.053.593-.287.842-.518.25-.231.496-.421.547-.421.051 0 .271-.168.489-.375.494-.468.624-3.291.151-3.291a.25.25 0 0 1-.25-.25c0-.139-.148-.25-.333-.25-.223 0-.334-.111-.334-.334 0-.185-.111-.333-.25-.333a.251.251 0 0 1-.25-.25.25.25 0 0 0-.25-.25.251.251 0 0 1-.25-.25.25.25 0 0 0-.25-.25.251.251 0 0 1-.25-.25c0-.138-.104-.25-.232-.25s-.275-.113-.328-.25c-.053-.138-.239-.25-.414-.25a.782.782 0 0 1-.526-.25c-.114-.138-.31-.25-.437-.25-.126 0-.229-.111-.229-.247s-.206-.298-.457-.361-.557-.215-.679-.337c-.122-.122-.436-.222-.698-.222-.262 0-.588-.112-.726-.25s-.545-.25-.911-.25c-.433 0-.693-.086-.756-.25-.082-.212-.668-.25-3.857-.25s-3.775.038-3.856.25zm73.513-.005c-.178.135-.638.247-1.023.25-.406.003-.757.1-.834.23-.073.124-.427.271-.786.327-.359.057-.697.164-.75.237-.053.074-.303.225-.555.336-.252.111-.459.278-.459.372 0 .093-.15.17-.333.17-.185 0-.333.111-.333.25 0 .167-.167.25-.5.25-.334 0-.5.083-.5.25 0 .137-.113.25-.25.25a.25.25 0 0 0-.25.25c0 .137-.113.25-.25.25a.25.25 0 0 0-.25.25c0 .137-.132.251-.292.253-.452.004-1.875 1.365-1.875 1.794 0 .217-.103.37-.25.37a.25.25 0 0 0-.25.25c0 .137-.113.25-.25.25-.139 0-.25.148-.25.333 0 .183-.077.333-.17.333-.094 0-.261.207-.372.459-.11.252-.296.518-.413.591-.116.074-.212.285-.212.471a.955.955 0 0 1-.25.586c-.137.138-.25.5-.25.804 0 .338-.097.591-.25.65-.171.065-.25.333-.25.851 0 .56-.064.755-.25.755-.204 0-.25.287-.25 1.583 0 1.297-.045 1.584-.25 1.584-.21 0-.25.37-.25 2.333s.04 2.333.25 2.333c.205 0 .25.287.25 1.584 0 1.296.046 1.583.25 1.583.189 0 .25.202.25.821 0 .508.096.917.25 1.072.138.137.25.445.25.684 0 .238.113.477.25.529.143.055.25.304.25.578 0 .318.086.483.25.483.156 0 .25.157.25.415a.79.79 0 0 0 .334.623c.183.115.333.303.333.418 0 .116.112.21.25.21.167 0 .25.167.25.5 0 .334.083.5.25.5.137 0 .25.113.25.25 0 .138.112.25.25.25.137 0 .25.113.25.25 0 .138.112.25.25.25.137 0 .251.094.253.209.003.254.723.958.979.958.101 0 .185.112.185.25 0 .137.103.25.229.25.127 0 .323.112.437.25.114.137.349.25.521.25.172 0 .313.112.313.25 0 .167.166.25.5.25.333 0 .5.083.5.25 0 .175.176.25.583.25.472 0 .583.063.583.333 0 .257.111.334.483.334.274 0 .523.107.578.25.064.167.332.251.809.255.393.003.859.115 1.037.25.488.369 9.391.364 9.533-.005.067-.175.339-.25.9-.25.492 0 .9-.097 1.053-.25.138-.138.488-.25.778-.25.387 0 .55-.089.614-.334.065-.247.228-.333.631-.333.299 0 .637-.113.751-.25.114-.138.388-.25.609-.25.221 0 .445-.113.497-.25.053-.138.23-.25.394-.25s.341-.113.394-.25c.052-.138.285-.25.517-.25.264 0 .422-.094.422-.25a.25.25 0 0 1 .25-.25.25.25 0 0 0 .25-.25.25.25 0 0 1 .25-.25c.138 0 .25-.142.25-.316 0-.173.113-.358.25-.411a.414.414 0 0 0 .25-.356.414.414 0 0 0-.25-.357c-.154-.059-.25-.312-.25-.661 0-.392-.077-.566-.25-.566a.25.25 0 0 1-.25-.25.25.25 0 0 0-.25-.25c-.166 0-.25-.166-.25-.5 0-.333-.083-.5-.25-.5-.137 0-.251-.093-.253-.208-.01-.763-1.803-1.294-2.39-.708-.137.137-.367.25-.511.25-.144 0-.412.15-.596.333-.183.183-.4.333-.482.333-.082 0-.192.113-.245.25-.056.146-.305.25-.601.25-.338 0-.505.083-.505.25 0 .181-.186.25-.672.25-.443 0-.704.085-.768.25-.065.17-.331.25-.833.25s-.768.08-.833.25c-.08.208-.542.25-2.727.25-2.185 0-2.648-.042-2.727-.25-.063-.163-.323-.25-.75-.25-.428 0-.688-.086-.75-.25-.053-.137-.278-.25-.5-.25-.223 0-.448-.112-.5-.25-.056-.146-.306-.25-.601-.25-.338 0-.506-.082-.506-.25a.25.25 0 0 0-.25-.25c-.137 0-.25-.083-.25-.184 0-.241-1.741-1.982-1.982-1.982-.101 0-.184-.113-.184-.25a.25.25 0 0 0-.25-.25c-.168 0-.25-.168-.25-.506 0-.295-.104-.545-.25-.601-.138-.052-.25-.228-.25-.391a.754.754 0 0 0-.25-.502c-.138-.114-.25-.424-.25-.687 0-.316-.086-.48-.25-.48-.197 0-.25-.231-.25-1.083v-1.084h12.666c11.148 0 12.667-.03 12.667-.25a.25.25 0 0 1 .25-.25c.215 0 .25-.546.25-3.916 0-3.371-.035-3.917-.25-3.917-.188 0-.25-.202-.25-.816 0-.533-.078-.845-.226-.902-.125-.048-.276-.393-.336-.768-.071-.443-.195-.681-.357-.681-.154 0-.248-.159-.248-.422 0-.232-.112-.465-.25-.517-.137-.053-.25-.238-.25-.412 0-.173-.112-.315-.25-.315-.156 0-.25-.158-.25-.422 0-.232-.112-.465-.25-.518-.137-.053-.25-.2-.25-.328s-.112-.232-.25-.232c-.137 0-.251-.094-.253-.209-.003-.254-.722-.958-.978-.958-.102 0-.185-.113-.185-.25a.25.25 0 0 0-.25-.25.25.25 0 0 1-.25-.25c0-.138-.105-.25-.233-.25-.127 0-.275-.113-.328-.25-.052-.138-.285-.25-.517-.25-.264 0-.422-.094-.422-.25 0-.175-.176-.25-.584-.25-.472 0-.583-.063-.583-.333 0-.218-.111-.334-.321-.334a.94.94 0 0 1-.572-.25c-.137-.137-.435-.25-.661-.25-.226 0-.454-.112-.506-.25-.07-.18-.353-.25-1.023-.25-.671 0-.954-.069-1.023-.25-.141-.367-7.169-.372-7.654-.005zm111.093.005c0 .195-.221.25-.991.25-.655 0-1.037.077-1.125.225-.074.124-.428.271-.787.327-.359.057-.697.164-.75.237-.053.074-.303.225-.555.336-.252.111-.458.278-.458.372 0 .093-.15.17-.334.17-.185 0-.333.111-.333.25 0 .167-.167.25-.5.25-.333 0-.5.083-.5.25 0 .137-.113.25-.25.25a.244.244 0 0 0-.25.237c0 .13-.225.286-.5.346-.275.061-.5.179-.5.264 0 .084-.094.154-.208.156-.254.003-.959.723-.959.979 0 .101-.112.185-.25.185a.25.25 0 0 0-.25.25.25.25 0 0 1-.25.25c-.137 0-.25.104-.25.232s-.112.275-.25.328c-.137.053-.25.286-.25.518 0 .268-.093.422-.255.422-.14 0-.303.131-.362.291a.952.952 0 0 1-.328.425c-.122.074-.221.317-.221.542 0 .252-.096.408-.25.408-.167 0-.25.167-.25.5 0 .334-.084.5-.25.5-.173 0-.25.174-.25.563 0 .31-.113.657-.25.771-.16.132-.25.501-.25 1.02 0 .612-.062.813-.25.813-.202 0-.25.259-.25 1.333 0 1.024-.054 1.334-.231 1.334-.335 0-.431.54-.434 2.444-.002 1.832.074 2.222.432 2.222.182 0 .233.33.233 1.506 0 1.184.053 1.525.25 1.601.168.064.25.329.25.81 0 .481.081.746.25.81.146.056.25.306.25.601 0 .338.082.506.25.506.166 0 .25.166.25.5 0 .333.083.5.25.5.166 0 .25.166.25.5 0 .333.083.5.25.5a.25.25 0 0 1 .25.25c0 .137.15.4.333.583.183.183.333.446.333.583 0 .138.113.25.25.25a.25.25 0 0 1 .25.25c0 .138.113.25.25.25a.25.25 0 0 1 .25.25c0 .138.113.25.25.25a.25.25 0 0 1 .25.25c0 .138.113.25.25.25.138 0 .252.094.253.209.004.254.723.958.979.958.102 0 .185.112.185.25 0 .139.148.25.333.25.184 0 .334.074.334.163 0 .09.187.211.416.269.23.057.417.209.417.336 0 .147.184.232.5.232.333 0 .5.083.5.25 0 .173.174.25.564.25.424 0 .585.083.651.333.06.228.227.334.531.334.245 0 .557.112.694.25.155.154.564.25 1.072.25.619 0 .821.061.821.25 0 .216.621.25 4.589.25 3.925 0 4.602-.036 4.684-.25.067-.174.339-.25.894-.25.555 0 .827-.076.894-.25.06-.159.316-.25.7-.25.464 0 .624-.078.691-.334.066-.25.227-.333.651-.333.39 0 .564-.077.564-.25 0-.167.167-.25.5-.25.333 0 .5-.083.5-.25 0-.156.158-.25.422-.25.232 0 .465-.113.518-.25.052-.138.202-.25.333-.25s.281-.113.333-.25c.053-.138.201-.25.328-.25.128 0 .233-.113.233-.25 0-.138.116-.25.259-.25.91 0 1.669-2.215.991-2.893-.138-.137-.25-.368-.25-.512a.257.257 0 0 0-.25-.262.25.25 0 0 1-.25-.25.251.251 0 0 0-.25-.25c-.138 0-.252-.093-.253-.208-.004-.254-.723-.958-.979-.958-.102 0-.185-.113-.185-.25a.25.25 0 0 0-.25-.25c-.153 0-.25-.156-.25-.399 0-.22-.113-.442-.25-.495a.41.41 0 0 1-.25-.351c0-.14-.075-.255-.167-.255-.091 0-.316-.15-.5-.334-.252-.252-.555-.333-1.248-.333-.735 0-.957.066-1.124.333-.126.203-.388.334-.668.334-.297 0-.46.088-.46.25 0 .156-.158.25-.422.25-.232 0-.465.112-.517.25-.055.143-.304.25-.584.25-.279 0-.528.106-.583.25-.064.167-.328.25-.796.25-.385 0-.846.11-1.024.244-.465.352-3 .356-3.134.006-.063-.164-.322-.25-.75-.25s-.687-.087-.75-.25c-.053-.138-.286-.25-.518-.25-.264 0-.422-.094-.422-.25 0-.138-.142-.25-.315-.25-.174 0-.359-.113-.412-.25-.052-.138-.285-.25-.517-.25-.311 0-.422-.088-.422-.334 0-.185-.111-.333-.25-.333-.153 0-.25-.155-.25-.399 0-.219-.113-.442-.25-.495a.408.408 0 0 1-.25-.351.254.254 0 0 0-.25-.255c-.163 0-.25-.163-.25-.468 0-.258-.11-.614-.245-.792-.722-.955-1.29-.907 10.736-.907 9.262 0 11.013-.037 11.125-.234.074-.128.321-.26.55-.291.365-.051.424-.152.47-.808.031-.429.155-.807.292-.883.355-.199.344-3.988-.012-4.284-.181-.15-.25-.548-.25-1.442 0-.944-.059-1.257-.25-1.331-.14-.054-.25-.301-.25-.564 0-.525-.764-2.163-1.008-2.163-.087 0-.158-.142-.158-.315 0-.174-.113-.359-.25-.412-.138-.052-.25-.285-.25-.517 0-.249-.095-.422-.231-.422-.127 0-.279-.132-.337-.292-.208-.567-.619-1.208-.775-1.208a.158.158 0 0 1-.157-.158c0-.23-.755-1.009-.978-1.009-.104 0-.189-.079-.189-.175 0-.097-.225-.254-.5-.35-.275-.096-.5-.242-.5-.325 0-.082-.113-.15-.25-.15a.25.25 0 0 1-.25-.25c0-.138-.104-.25-.232-.25s-.276-.113-.328-.25c-.056-.146-.306-.25-.601-.25-.336 0-.506-.083-.506-.247 0-.136-.205-.298-.456-.361-.252-.063-.557-.215-.679-.337-.122-.122-.471-.222-.775-.222-.339 0-.591-.097-.65-.25-.065-.17-.332-.25-.833-.25-.502 0-.768-.08-.834-.25-.081-.212-.676-.25-3.934-.25-3.301 0-3.839.035-3.839.25zm39.5 0c-.117.142-.48.25-.836.25-.404 0-.662.089-.724.25-.053.138-.246.25-.429.25-.488 0-1.677.662-1.677.934 0 .148-.183.233-.5.233-.334 0-.5.083-.5.25 0 .137-.113.25-.25.25a.25.25 0 0 0-.25.25c0 .137-.087.25-.192.25-.105 0-.461.279-.791.62l-.601.62-.051-.62c-.034-.405-.136-.62-.292-.62-.169 0-.24-.198-.24-.672 0-.422-.087-.705-.234-.761-.128-.05-.271-.235-.317-.412-.06-.227-.231-.322-.582-.322-.289 0-.538-.105-.594-.25-.138-.358-3.726-.363-4.199-.005-.178.135-.444.247-.59.25-.852.017-.817-.715-.817 17.38v16.766l.5.109c.275.061.5.217.5.347 0 .35 8.632.354 8.766.003.05-.128.235-.271.412-.318.177-.046.322-.203.322-.349 0-.146.112-.266.25-.266.219 0 .25-1.313.25-10.816 0-9.46.031-10.827.25-10.911.137-.053.25-.248.25-.434 0-.19.109-.339.25-.339.139 0 .25-.148.25-.333 0-.246.111-.334.422-.334.232 0 .465-.112.517-.25.053-.137.238-.25.412-.25.173 0 .315-.112.315-.25 0-.181.186-.25.672-.25.444 0 .705-.085.768-.25.071-.185.366-.25 1.141-.25.726 0 1.109.077 1.253.25.158.192.593.25 1.853.25 1.353 0 1.647-.044 1.647-.25a.25.25 0 0 1 .25-.25c.166 0 .25-.166.25-.5 0-.333.083-.5.25-.5.139 0 .25-.148.25-.333 0-.183.106-.333.236-.333.131 0 .285-.219.344-.486.059-.268.215-.528.347-.579.131-.05.239-.281.239-.513 0-.264.094-.422.25-.422.175 0 .25-.176.25-.584 0-.407.076-.583.25-.583.138 0 .25-.104.25-.232s.113-.276.25-.328c.907-.348.004-3.607-.999-3.607-.118 0-.258-.112-.311-.25-.065-.17-.332-.25-.833-.25-.502 0-.768-.08-.834-.25-.08-.21-.609-.25-3.33-.25-2.672 0-3.271.044-3.443.25zm23.894 0c-.067.174-.338.25-.891.25-.504 0-.871.092-1.003.25-.114.138-.425.25-.692.25-.277 0-.526.107-.581.25-.052.138-.275.25-.493.25a.795.795 0 0 0-.606.334.78.78 0 0 1-.59.333c-.21 0-.425.112-.477.25-.053.137-.229.25-.391.25a.75.75 0 0 0-.503.25c-.114.137-.311.25-.437.25s-.23.112-.23.25c0 .137-.097.25-.216.25s-.4.222-.625.493c-.225.271-.462.496-.528.5-.27.016-1.297 1.11-1.297 1.381 0 .161-.113.293-.25.293a.25.25 0 0 0-.25.25c0 .137-.092.25-.203.25-.324 0-.964.847-.964 1.276 0 .236-.099.39-.25.39-.137 0-.25.105-.25.233 0 .127-.113.275-.25.328-.137.052-.25.277-.25.5 0 .222-.113.447-.25.5-.137.052-.252.304-.255.559-.003.255-.116.609-.25.787-.135.178-.245.531-.245.784 0 .259-.123.528-.283.618-.21.117-.301.451-.354 1.3-.039.628-.156 1.195-.259 1.26-.313.198-.352 4.655-.046 5.33.137.303.279 1.028.316 1.611.048.77.143 1.103.346 1.217.189.106.28.372.28.82 0 .436.086.697.25.76.143.055.25.304.25.583 0 .28.107.528.25.583.143.055.25.304.25.578 0 .273.091.485.208.487.115.002.353.321.53.708.363.796.91 1.447 1.22 1.451.115.002.209.193.209.425 0 .232.112.465.25.518.137.053.25.2.25.328s.112.232.25.232c.137 0 .25.113.25.25 0 .138.112.25.25.25.137 0 .418.154.625.341l.639.584c.145.133.351.242.458.242.107 0 .194.112.194.25 0 .137.113.25.25.25a.25.25 0 0 1 .25.25c0 .167.167.25.5.25.334 0 .5.083.5.25 0 .167.167.25.5.25.334 0 .5.083.5.25 0 .137.113.25.25.25.138 0 .4.15.584.333.183.184.55.334.815.334.275 0 .524.107.578.25.066.17.332.25.834.25.501 0 .768.08.833.25.141.368 8.047.373 8.533.005.178-.135.644-.247 1.037-.25.477-.004.745-.088.809-.255.053-.138.283-.25.511-.25.274 0 .444-.113.501-.334.062-.236.228-.333.568-.333.316 0 .481-.086.481-.25 0-.175.176-.25.583-.25s.583-.075.583-.25c0-.156.158-.25.422-.25.232 0 .465-.113.518-.25.053-.138.2-.25.328-.25s.232-.113.232-.25a.25.25 0 0 1 .25-.25c.138 0 .25-.104.25-.231 0-.126.15-.269.334-.317.183-.048.333-.207.333-.353 0-.165.143-.266.38-.266.413 0 .882-.457 1.125-1.095.084-.223.23-.405.324-.405s.171-.112.171-.25c0-.137.113-.25.25-.25s.25-.094.25-.21c0-.115.15-.303.333-.418a.79.79 0 0 0 .334-.623c0-.258.094-.415.25-.415.137 0 .25-.105.25-.233 0-.127.112-.275.25-.328.137-.052.25-.291.25-.529 0-.239.112-.547.25-.684.137-.138.25-.507.25-.822 0-.396.076-.571.25-.571.185 0 .25-.194.25-.75s.064-.75.25-.75c.201 0 .25-.259.25-1.333 0-.778.069-1.334.166-1.334.104 0 .167-.889.167-2.333 0-1.444-.063-2.333-.167-2.333-.097 0-.166-.556-.166-1.334 0-1.074-.049-1.333-.25-1.333-.186 0-.25-.194-.25-.75s-.065-.75-.25-.75c-.173 0-.25-.174-.25-.566 0-.348-.096-.602-.25-.661-.138-.053-.25-.277-.25-.497 0-.221-.113-.495-.25-.609a.772.772 0 0 1-.25-.521c0-.172-.113-.313-.25-.313-.139 0-.25-.148-.25-.333 0-.183-.15-.483-.334-.667-.183-.183-.333-.408-.333-.5 0-.091-.113-.166-.25-.166a.251.251 0 0 1-.25-.25.25.25 0 0 0-.25-.25.251.251 0 0 1-.25-.25.25.25 0 0 0-.25-.25.251.251 0 0 1-.25-.25.25.25 0 0 0-.25-.25c-.137 0-.251-.094-.253-.209-.003-.254-.723-.958-.979-.958-.101 0-.185-.113-.185-.25a.25.25 0 0 0-.25-.25.251.251 0 0 1-.25-.25c0-.167-.166-.25-.5-.25-.333 0-.5-.083-.5-.25 0-.139-.148-.25-.333-.25-.185 0-.333-.111-.333-.25 0-.167-.167-.25-.5-.25-.337 0-.5-.083-.5-.254 0-.148-.205-.295-.49-.352-.269-.054-.529-.202-.578-.329-.055-.143-.338-.232-.743-.232-.427 0-.687-.086-.75-.25-.065-.17-.331-.25-.833-.25s-.768-.08-.833-.25c-.082-.212-.668-.25-3.857-.25s-3.775.038-3.856.25zm-330.56 6.334a.782.782 0 0 1-.525.25c-.217 0-.348.153-.415.489-.054.269-.202.529-.329.578-.353.136-.346 26.266.008 26.266.134 0 .262.194.291.442.029.242.2.524.379.625.18.1.429.277.554.391.349.32 3.018.285 3.143-.041.053-.138.203-.25.333-.25.131 0 .286-.132.345-.292a.957.957 0 0 1 .328-.425c.353-.213.324-26.823-.029-27.117-.138-.114-.25-.31-.25-.437 0-.126-.15-.229-.333-.229-.186 0-.334-.111-.334-.25 0-.204-.275-.25-1.479-.25-1.112 0-1.531.062-1.687.25zm162.666 0c0 .164.165.25.483.25.274 0 .523.107.578.25.056.146.305.25.601.25.338 0 .505.082.505.25 0 .137.112.25.25.25a.25.25 0 0 1 .25.25c0 .137.079.25.175.25.184 0 .54.357 1.48 1.482.314.376.67.684.791.684.134 0 .221.197.221.5 0 .334.083.5.25.5.184 0 .25.193.25.733 0 .497.08.762.25.828.146.056.25.305.25.601v.505h-19V54c0-.333.083-.5.25-.5.167 0 .25-.167.25-.505 0-.296.104-.545.25-.601.142-.055.25-.304.25-.578 0-.318.085-.483.25-.483.137 0 .25-.103.25-.229 0-.127.112-.323.25-.437a.777.777 0 0 0 .25-.521c0-.202.118-.313.333-.313.183 0 .333-.104.333-.232s.113-.275.25-.328a.41.41 0 0 0 .25-.351c0-.162.154-.255.422-.255.232 0 .465-.113.518-.25.053-.138.2-.25.328-.25s.232-.113.232-.25c0-.168.168-.25.506-.25.295 0 .545-.104.601-.25.062-.164.322-.25.75-.25.427 0 .687-.087.75-.25.079-.208.544-.25 2.744-.25 2.244 0 2.649.038 2.649.25zm110.334 2.666c0 .138.14.25.313.25.172 0 .406.113.52.25.114.138.311.25.437.25s.23.113.23.25c0 .138.112.25.25.25.137 0 .25.113.25.25 0 .139.148.25.333.25.26 0 .333.111.333.506 0 .295.104.545.25.601.162.062.25.32.25.731 0 .352.093.672.209.719.114.046-2.418.09-5.627.097l-5.834.013.06-.75c.04-.503.136-.75.292-.75.129 0 .234-.15.234-.333 0-.186.111-.334.25-.334.137 0 .25-.086.25-.191 0-.238.98-1.203 1.375-1.353.16-.062.291-.189.291-.284 0-.094.19-.172.422-.172.232 0 .465-.112.518-.25.078-.204.489-.25 2.245-.25 1.799 0 2.149.041 2.149.25zm62.727 1c.065.172.333.25.851.25.56 0 .755.065.755.25 0 .157.158.25.422.25.232 0 .465.113.518.25.052.138.2.25.328.25s.232.115.232.256c0 .14.126.303.279.362.356.136.888.665.888.882 0 .092.112.167.25.167a.25.25 0 0 1 .25.25c0 .137.112.25.25.25.166 0 .25.167.25.5 0 .333.083.5.25.5.185 0 .25.195.25.755 0 .518.078.786.25.851.201.077.25.45.25 1.894s-.049 1.817-.25 1.894c-.172.065-.25.333-.25.851 0 .56-.065.755-.25.755-.167 0-.25.167-.25.5 0 .333-.084.5-.25.5a.25.25 0 0 0-.25.25c0 .137-.113.25-.25.25-.138 0-.25.072-.25.16 0 .204-1.309 1.507-1.514 1.507-.084 0-.153.112-.153.25 0 .166-.167.25-.5.25-.333 0-.5.083-.5.25 0 .165-.165.25-.488.25-.269 0-.601.112-.738.25-.189.189-.659.25-1.929.25-1.381 0-1.678-.045-1.678-.25 0-.173-.174-.25-.566-.25-.349 0-.602-.096-.661-.25-.053-.138-.251-.25-.44-.25s-.387-.113-.44-.25c-.052-.138-.2-.25-.328-.25s-.232-.073-.232-.163c0-.089-.225-.278-.5-.421-.303-.157-.5-.39-.5-.593 0-.183-.113-.377-.25-.43-.137-.052-.25-.2-.25-.328s-.113-.232-.25-.232c-.156 0-.25-.158-.25-.422 0-.232-.113-.465-.25-.518-.143-.054-.25-.303-.25-.578 0-.265-.15-.632-.333-.815-.449-.449-.509-3.886-.072-4.13.145-.081.304-.46.356-.842.058-.432.179-.695.321-.695.142 0 .228-.188.228-.5 0-.333.083-.5.25-.5.137 0 .25-.104.25-.232s.113-.276.25-.328a.412.412 0 0 0 .25-.351c0-.141.074-.256.165-.256.253 0 .835-.548.835-.787 0-.117.15-.213.333-.213.186 0 .334-.111.334-.25 0-.166.166-.25.5-.25.333 0 .5-.083.5-.25 0-.185.194-.25.75-.25.555 0 .75-.064.75-.25 0-.201.257-.25 1.315-.25 1.016 0 1.338.057 1.412.25zM31.5 59.083c0 .139-.148.25-.333.25-.186 0-.334.111-.334.25a.25.25 0 0 1-.25.25c-.218 0-.25 1.017-.25 8.154v8.154l.513.513c.352.352.675.513 1.029.513.283 0 .653.124.82.275.284.257.326.257.61 0 .182-.164.587-.275 1.005-.275.469 0 .732-.083.796-.25.053-.138.201-.25.328-.25a.233.233 0 0 0 .233-.23c0-.126.112-.323.25-.437.361-.3.379-15.461.018-15.599-.127-.049-.275-.309-.329-.578-.082-.412-.177-.49-.602-.49-.337 0-.504-.083-.504-.25 0-.203-.278-.25-1.5-.25s-1.5.047-1.5.25zm32.667 0a.25.25 0 0 1-.25.25.25.25 0 0 0-.25.25.25.25 0 0 1-.25.25c-.219 0-.25 1.03-.25 8.269v8.268l.375.395c.275.291.557.397 1.065.399.458.002.723.087.787.253.052.137.213.25.356.25a.414.414 0 0 0 .356-.25c.066-.17.332-.25.834-.25.501 0 .768-.08.833-.25.053-.138.2-.25.328-.25s.232-.142.232-.316c0-.173.113-.359.25-.411.362-.139.38-15.401.019-15.539-.127-.049-.275-.309-.329-.578-.076-.38-.189-.49-.501-.49-.222 0-.446-.112-.499-.25-.075-.196-.417-.25-1.601-.25-1.227 0-1.505.047-1.505.25z" fill="#ffffff"/></svg>