<svg xmlns="http://www.w3.org/2000/svg" width="800" height="453" viewBox="0 0 745 422"><path d="M244.338 28.067c-49.438 5.96-95.905 19.32-137.748 43.917-28.34 18.62-52.392 47.768-52.058 84.302-1.987 36.534 20.095 67.1 48.77 86.06 98.86 57.614 226.357 59.196 344.995 48.665l12.36-1.1s181.72-13.292 197.876-114.312c6.593-40.753-12.465-75.933-44.164-97.664-21.43-14.434-37.887-21.08-37.887-21.08-98.542-37.923-210.816-41.37-319.573-30.134l-12.57 1.336z" fill="#fff" stroke="#672c06" stroke-width="6.698"/><g fill="#ed8d46"><path d="M33.6 320.987c.545-1.793 1.565-2.567 3.903-2.567 5.046 0 18.355 3.797 20.043 4.8 2.567 1.582 3.235 3.147 4.36 13.098 2.46 23.823 8.72 56.506 8.72 58.07 0 3.235-4.817 4.36-8.5 4.36-4.8 0-6.364-.65-7.032-1.793-.563-.88-3.48-11.516-3.815-13.643-2.233.563-4.466 0-6.364 0-2.795 0-7.964.563-8.07 1.02-1.336 5.116-2.7 16.772-3.358 18.566-.2.668-2.233 1.002-4.36 1.002-4.466 0-11.4-4.13-11.4-6.593 0-12.412 11.305-60.76 15.893-76.32zm9.177 47.33c1.336 0 5.028-.2 5.028-1.108 0-1.916-2.25-17.476-2.25-20.605 0-4.13-.44-4.694-1.108-4.694s-1.02 1.02-1.565 6.488c-.563 7.384-3.13 17.8-3.13 18.917 0 .792 1.125 1.002 3.024 1.002m31.218-16.422l-.176-12.535c0-1.653 1.494-3.306 2.97-3.306 2.954 0 4.343.352 6.786 1.407 2.602 1.125 4.448 1.8 4.448 2.848 0 .633-.28 2.004-.28 3.06l.193 19.234-.106 19.163c0 .95.8 1.213 2.62 1.477 4.184.615 6.523.95 9.916 2.778 1.406.773 1.758 7.753 1.758 8.37 0 .598-.44 1.125-1.758 1.213-7.384.5-17.933 4.36-18.882 4.36-.86 0-7.402-4.272-7.577-7.244l-.422-19.585c0-6.364.5-14.188.5-21.238m31.7-.002l-.176-12.535c0-1.653 1.477-3.306 2.954-3.306 2.97 0 4.36.352 6.786 1.407 2.62 1.125 4.448 1.8 4.448 2.848 0 .633-.264 2.004-.264 3.06l.176 19.234-.088 19.163c0 .95.8 1.213 2.62 1.477 4.167.615 6.523.95 9.916 2.778 1.4.773 1.74 7.753 1.74 8.37 0 .598-.422 1.125-1.74 1.213-7.402.5-17.933 4.36-18.9 4.36-.86 0-7.384-4.272-7.56-7.244-.264-6.874-.44-13.133-.44-19.585 0-6.364.527-14.188.527-21.238m72.875-30.9c.563-1.793 1.582-2.567 3.92-2.567 5.046 0 18.355 3.797 20.025 4.8 2.584 1.582 3.252 3.147 4.378 13.098 2.46 23.823 8.72 56.506 8.72 58.07 0 3.235-4.817 4.36-8.5 4.36-4.8 0-6.364-.65-7.05-1.793-.563-.88-3.463-11.516-3.798-13.643-2.25.563-4.483 0-6.382 0-2.795 0-7.947.563-8.052 1.02-1.354 5.116-2.7 16.772-3.358 18.566-.23.668-2.25 1.002-4.36 1.002-4.483 0-11.4-4.13-11.4-6.593 0-12.412 11.287-60.76 15.876-76.32zm9.177 47.33c1.336 0 5.028-.2 5.028-1.108 0-1.916-2.233-17.476-2.233-20.605 0-4.13-.44-4.694-1.108-4.694-.686 0-1.02 1.02-1.582 6.488-.545 7.384-3.13 17.8-3.13 18.917 0 .792 1.125 1.002 3.024 1.002m77.18-.427c0 15.067-.352 24.385-.615 29.87-.088 1.547-.352 2.18-4 2.18-2.092 0-8.615-1.143-8.615-3.147 0-7.93 1.582-32.543 1.582-35.075 0-1.406-.088-2.443-.44-2.443-.527 0-.8 1.318-1.055 2.795-1.653 9.652-4 20.095-4.782 22.1-.527 1.477-1.828 9.494-2.7 9.494-2.268 0-6.2-.704-7.138-1.74-.967-.967-4.448-18.548-5.327-25.774-.422-3.745-.774-4.255-1.3-4.255-.352 0-.686.598-.686 2.18 0 .95 1.055 8.86 1.055 34.37 0 1.143-.457 1.495-2.373 1.495s-7.032-1.758-8.685-3.06c-.88-.703-.967-1.565-1.143-3.48-.264-2.954-.352-6.1-.352-18.285 0-17.67.703-23.418.703-31.066 0-2.883 2.444-4.7 5.837-4.7 2.954 0 10.795 2.004 11.92 2.443.967.352 1.3 8.017 2.62 12.975 1.3 4.958 1.037 9.494 1.9 9.494 1.055 0 2.092-9.16 2.97-12.8 1.037-4.52 3.305-11.92 3.305-13.063 0-2.18.5-2.356 2.004-2.356 1.653 0 8.263 1.407 11.305 2.883 3.48 1.74 4 2.004 4 4.52v24.456m22.918-5.573c8.175 0 9.3.37 10.62 2.356 1.653 2.53 1.916 2.865 1.916 7.05 0 1.917-.264 2.18-2.092 2.532l-12.623 2.004c-.703.088-.967.44-.967 1.125l.088 6.54c0 .862.264.95 1.055.95 1.213 0 3.92-.282 8.44-.282 2.444 0 2.707.282 5.046 3.235 2.18 2.708 2.532 3.833 2.532 7.577 0 .686-.527.95-4.448 1.4-6.26.703-16.878 3.147-18.18 3.147-1.23 0-3.48-1.583-5.397-3.06-1.23-.967-2.708-3.57-2.795-6.698l-.176-11.146c0-15.05 1.213-31.506 1.213-37.87 0-2.602.44-3.042 1.32-3.042l14.962-.176c5.66 0 10.53.264 12.026 3.57 1.213 2.883 1.74 4.536 1.74 7.753 0 .8-.176 1.055-.88 1.125-4.167.528-13.397 1.477-14.786 1.477-.88 0-1.143.176-1.23 1.143-.264 2.954-.44 6.26-.44 8 0 1.055.44 1.3 1.582 1.3h1.477M308.2 351.12l.28-9.758c0-2.18 4.94-2.954 6.786-3.657 1.477-.527 6.523-1.653 9.652-1.653 3.745 0 13.326 1.32 15.753 6.435.967 2.092 6.2 6.98 6.2 13.766 0 9.143-10.97 16.544-10.97 18.1 0 1.8 4.43 7.648 6.6 11.13 2.883 4.536 3.92 6.716 3.92 8.703 0 1.582-3.042 5.767-4.343 5.767-2.532 0-8.808-5.942-12.623-10.62-3.5-4.184-6.628-8.632-7.314-8.632-.44 0-.527.264-.527 1.477 0 1.143.176 2.708.176 5.3 0 1.477-.176 4.52-.176 9.67 0 2.004-.88 2.795-2.954 2.795-1.828 0-4.096-.8-6.716-1.934-1.4-.615-3.745-1.125-3.745-4.958V351.1zm20.64-2.866c-1.213 0-2.514.246-3.745.246-2.18 0-2.514 1.582-2.602 3.393l-.352 14.206c0 .598.088.86.44.86.774 0 11.217-8.175 11.217-14.452 0-3.217-2.356-4.254-4.958-4.254m26.4 50.302c-1.916-.703-2.778-1.143-2.778-1.74l-.352-26.02c0-6.365.44-19.076.44-23.418 0-6.347-.44-7.226-.44-8.28 0-2.004 1.4-3.042 4.782-3.042 1.653 0 3.92.704 6.628 1.653 2.514.967 3.55 1.4 3.55 2.356 0 1.828-.246 2.954-.246 4.8l-.088 18.003.176 20.992-.176 14.522c0 .95-3.833 1.583-6.276 1.583-3.305 0-4.43-1.143-5.222-1.407m23.174-51.18c5.397-10.53 6.083-11.322 11.13-11.322 6.276 0 10.97 1.32 12.8 2.97 1.3 1.125 3.745 5.397 4.272 7.824a53.25 53.25 0 0 1 1.3 12.184c0 1.917-.088 4.712-.95 5.15-1.32.686-4.272.862-5.063.862-3.393 0-4.343-.704-5.73-4-.8-1.652-1.143-3.833-1.477-8.44-.105-1.74-.352-2.602-1.4-2.602-1.407 0-2.97 5.75-4.712 11.744-1.74 5.907-2.7 12.43-2.7 14.1 0 7.138 1.9 11.4 4.606 11.4 5.134 0 9.406-9.406 9.564-10.46.44-1.987.8-2.62 2.97-2.62 1.828 0 3.393 1.055 5.046 2.004 1.916 1.055 2.866 2.268 2.866 4.096 0 4.184-2.356 9.072-3.903 12.113-2.092 4-6.628 7.578-14.206 7.578-12.447 0-20.886-11.586-20.886-27.27 0-8.35 4.096-20.798 6.452-25.317m45.97-9.302c.44-1.4 1.23-2.004 3.06-2.004 3.903 0 14.276 2.97 15.577 3.763 2.004 1.213 2.514 2.426 3.393 10.18 1.916 18.53 6.786 43.936 6.786 45.148 0 2.55-3.745 3.4-6.628 3.4-3.727 0-4.958-.527-5.468-1.4-.44-.703-2.707-8.966-2.954-10.62-1.758.44-3.5 0-4.975 0-2.18 0-6.17.44-6.26.773-1.055 4-2.092 13.063-2.62 14.452-.176.527-1.74.8-3.393.8-3.48 0-8.88-3.235-8.88-5.15 0-9.652 8.8-47.258 12.36-59.354zm7.138 36.815c1.055 0 3.92-.158 3.92-.86 0-1.477-1.74-13.6-1.74-16.017 0-3.217-.352-3.657-.88-3.657-.5 0-.773.773-1.213 5.046-.44 5.75-2.426 13.836-2.426 14.698 0 .633.86.8 2.338.8M457.2 398.38c-.352-8.8-.44-19.832-.44-23.506 0-7.648.686-20.183.686-28.288 0-.598-.158-1.477-.158-2.092 0-3.042 1.74-4.43 3.55-4.43 5.222 0 6.2 1.213 9.23 2.092 2.092.616 3.393 2.075 3.587 5.556.07 2.004 6.17 20.64 6.786 20.64.246 0 .334-.334.334-2.866 0-2.62-.334-7.314-.334-25.932 0-2.954.686-3.5 6.786-3.5 3.217 0 6.435 1.32 6.435 2.883l-.44 55.258c0 .88.264 1.846.264 2.532 0 1.477-.95 2.18-3.745 2.18-4.096 0-7.314-.528-8.527-2.62-7.93-13.75-11.48-24.28-11.832-24.28-.264 0-.44.088-.44.8 0 1.917.527 12.536.527 23.5 0 3.323-1.494 5.397-5.3 5.397-1.143 0-6.874-.95-6.962-3.306m92.55-5.115c0 6.382-1.336 7.296-5.82 7.296-2.46 0-8.28-2.584-9.5-2.936-1.46-.316-2.022-2.1-2.022-4.36 0-9.16-.545-19.234-.545-31.787l.334-30.873c0-1.898-.228-3.692-.228-5.6 0-1.793.8-2.918 2.7-3.13 8.263-.668 18.583-1.002 24.965-1.002 3.446 0 5.116.334 6.03 1.336 3.464 3.92 4.677 7.28 4.677 12.307 0 2.795-1.213 3.13-6.136 3.586-4.026.334-12.307.773-13.432 1.336-.545.23-.897.773-.897 11.744 0 1.248.123 1.564 1.125 1.564 1.23 0 3.464-.316 4.923-.316 2.127 0 6.84.545 9.406 1.336 1.442.457 4.255 6.276 4.255 10.074 0 3.358-.457 3.797-3.815 4.466-6.26 1.107-12.518 1.898-14.3 2.02-1.02 0-1.688.44-1.688 1.565v21.36m26.534-44.416c2.795-6.083 6.013-12.8 11.674-12.8 1.213 0 5.573 1.125 10.02 2.62 4.343 1.477 6.083 3.06 9.652 8.35 3.833 5.573 4.958 14.715 4.958 20.376 0 10.268-2.795 18.62-7.314 25.668-2.883 4.448-6.804 6.892-9.564 6.892-1.758 0-2.883-.264-3.92-.633-1.143-.334-2.092-.422-3.657-.422-5.134 0-8.35-3.042-11.322-7.578-2.954-4.536-5.398-10.795-5.398-19.146 0-9.318 2.356-18.02 4.87-23.33zm14.364 38.556c4.624 0 7.33-15.226 7.33-23.665 0-4.712-1.846-14.803-5.15-14.803-1.477 0-6.786 14.118-6.786 23.682 0 11.744 2.532 14.786 4.606 14.786m29.096-38.556c2.795-6.083 5.995-12.8 11.656-12.8 1.23 0 5.6 1.125 10.02 2.62 4.342 1.477 6.1 3.06 9.652 8.35 3.833 5.573 4.975 14.715 4.975 20.376 0 10.268-2.795 18.62-7.314 25.668-2.883 4.448-6.804 6.892-9.582 6.892-1.74 0-2.866-.264-3.92-.633-1.125-.334-2.092-.422-3.657-.422-5.116 0-8.35-3.042-11.305-7.578-2.97-4.536-5.397-10.795-5.397-19.146 0-9.318 2.356-18.02 4.87-23.33zm14.364 38.556c4.606 0 7.314-15.226 7.314-23.665 0-4.712-1.828-14.803-5.134-14.803-1.477 0-6.786 14.118-6.786 23.682 0 11.744 2.514 14.786 4.606 14.786m34.653 10.37c-3.217-.264-7.033-.703-7.033-4.448 0-8.087-.545-16.8-.545-21.854 0-11.92.37-23.682 1.407-31.417.264-2.356 2.092-2.97 4.782-2.97 9.494 0 20.974 3.5 25.95 13.766 2.163 4.624 3.815 10.707 3.815 15.577 0 11.4-4.272 18.373-12.096 26.9-3.92 4.272-7.648 6.628-9.054 6.628-1.723 0-5.573-2.1-7.226-2.18zm12.272-41c-1.723-2.708-3.13-4.36-4.518-4.36-.8 0-1.037.352-1.037 1.32 0 1.213.158 2.514.158 4.5 0 2.022-.774 18.302-.774 25.334 1.653-1.213 2.883-3.903 4.87-7.56 1.934-3.57 2.97-8.28 2.97-12.36 0-3.235-.967-5.837-1.67-6.874m38.222-20.252l3.604-9.406h3.48v12.8H724.1v-10.426h-.07l-4.008 10.426h-1.53l-4.008-10.426h-.053v10.426h-2.286v-12.8h3.5l3.64 9.406zm-9.37-7.56h-3.938v10.953h-2.268v-10.95h-3.956v-1.846h10.162v1.846"/></g><path d="M626.41 272.955c0-6.786 5.134-11.867 11.69-11.867 6.47 0 11.55 5.08 11.55 11.867 0 6.856-5.08 11.92-11.55 11.92-6.558 0-11.69-5.063-11.69-11.92zm11.69 14.276c7.788 0 14.417-6.013 14.417-14.276 0-8.228-6.628-14.223-14.417-14.223-7.894 0-14.557 5.995-14.557 14.223 0 8.263 6.663 14.276 14.557 14.276zm-3.024-13.15h2.883l4.343 7.138h2.778l-4.66-7.244c2.41-.3 4.272-1.582 4.272-4.553 0-3.252-1.934-4.694-5.837-4.694h-6.276v16.49h2.497v-7.138zm0-2.11v-5.116h3.393c1.758 0 3.604.37 3.604 2.41 0 2.55-1.9 2.708-4.008 2.708h-2.99" fill="#672c06"/><path d="M546.47 124.57l32.79-42.423h-62.06c-3.674 2.99-2.39 7.718-1.582 12.693-36.57-24.86-93.866-41-158.195-41-32.138 0-62.5 3.99-89.4 11.076l-5.468-22.82c102.586-9.95 208.513-6.9 301.464 26.653 0 0 15.542 5.9 35.76 18.653 29.906 19.234 47.873 50.37 41.65 86.43-15.225 89.4-186.677 101.162-186.677 101.162l-5.468-22.258c64.206-17.528 108.07-52.85 108.07-93.567 0-12.113-3.745-23.77-10.883-34.6" fill="#ad6006"/><path d="M268.037 189.69h-39.663c-7.77 13.36-29.536 24.842-20.2 41.948H161.53c38.872-41.034 74.614-87.343 109.443-131.49 4.026-6.206-7.472-6.663-1.565-10.707h54.414l-7.472 69.48c-7.77 3.71-16.8 9.318-20.834 18.02-1.864 5.292-2.795 13.66.932 18.636 3.112 5.608 9.336 8.404 14.926 10.285-1.248 9.318.932 18.62 6.523 25.774H247.96c2.795-7.77 15.542-8.37 17.09-18.32l2.99-23.63" fill="#672c06"/><path d="M250.14 164.814c6.224-9.635 15.542-20.2 22.996-30.468l-2.795 30.468h-20.2" fill="#fff"/><path d="M449.404 237.248c-11.2-1.864-25.405-10.02-27.673-20.2s4.36-37.307 6.523-55.96l-57.19 74.615c-11.2-.932-24.297-9.6-27.655-17.722-3.393-8.123-2.004-10.39-1.178-15.665 9.634-3.745 29.976-14.258 21.36-33.422 17.37-5.045 7.507-23.207.65-20.587 4.712-3.305 1.688-15.172-10.62-15.946.246-1.564 5.433-19.78 5.204-25.932-.28-7.278-6.347-11.62-2.83-16.983h49.262l-17.09 89.05c17.388-19.568 33.562-44.445 49.104-67.143 5.75-9.582 1.565-16.315 0-21.906h51.6c-17.722 25.81-14.926 60.462-22.38 90.297 19.27-21.45 38.24-47.557 55.03-72.118 4.66-5.608-2.497-14.135 2.48-18.18h39.206L449.404 237.248" fill="#672c06"/><g fill="#ed8d46"><path d="M367.388 156.234c-4.852-8.597-17.775 1.44-14.153 4.15 1.53 1.143 1.9.74 3.217-.176 1.88-1.318 2.497-4.08 2.497-4.08 6.2-2.567 8.914 2.708 2.338 6.33-3.7 2.04-7.05 1.793-10.215 1.442-10.373-1.125-15.243.8-21.888 5.925-3.604 3.305-6.874 8.72-4.22 12.36 2.7 3.64 8.456 2.725 12.377 2.1 4.782-2.233 6.663-6.382 4.6-8.632-2.075-2.268-9.986-2.075-13.942.37-.035-3.85 3.428-6.03 7.35-7.156 4.817-.914 12.553-1.16 15.577 4.554 1.793 6.646-4.66 12.22-8.755 14.487-5.116 2.4-12.36 4.22-18.1 1.512-4.518-1.512-7.84-7.244-6.33-11.762 2.9-10.7 14.962-20.675 27.022-17.1 0 0-6.98-2.268-7.736-6.4-.738-6.98 3.64-8.8 7.56-11.2 3.305-.615 9.037-2.4 11.463 1.512 1.16 2.708-1.494 2.883-1.494 2.883-2.444-2.83-5.52-1.688-7.35-.932-3.762 1.512-5.274 5.08-2.62 6.787 1.916 1.248 5.73 1.213 5.73 1.213 22.715-8.193-2.356-29.853-21.133-7.84-3.006 3.92-3.006 9.652-2.708 13.872-21.3 6.47-33.8 24.754-20.5 35.286 10.848 6.944 26.83 4.817 37.694 0 7.243-3.92 15.384-10.848 15.98-19.603-.053-.053-.088-.123-.158-.176 0-4.3-2.303-7.138-4.08-8.685l-.492-.668c7.753 1.583 15.524-4.94 12.465-10.4M214.73 232.905c.475 2.04 1.354 4.13 2.514 6.294H142.77c11.182-11.832 22.152-23.805 32.982-36.2-11.7-13.396-18.267-28.13-18.267-43.83 0-38.872 39.962-72.82 99.404-91.07l-6.224-24.825c-46.625 5.274-90.455 17.1-129.942 38.854C94 98.603 71.304 124.394 71.62 156.744c-1.864 32.314 18.97 59.372 46 76.162 93.25 50.968 213.558 52.374 325.462 43.056l-4.15-20.605c-24.895 5.872-52.48 9.125-81.524 9.125-55.926 0-106.4-12.078-142.7-31.576"/></g></svg>