<svg xmlns="http://www.w3.org/2000/svg" width="800" height="370" viewBox="0 0 716 331"><defs><clipPath id="A"><path d="M99.375 135.453h161.62V61.367H99.375v74.086zm0 0"/></clipPath><clipPath ><path d="M154.355 61.633c-.262 1.105-1.25 3.527-4.53 6.22-3.62 2.977-6.25 3.5-6.25 3.5.824.45 2.277 1.074 3.97.9 1.73-.172 3.727-.72 5.223-3.043.992-1.543 1.45-3.82 1.594-4.758l.293-2.32c.004-.285-.113-.46-.28-.508h-.016zm0 0"/></clipPath><clipPath id="C"><path d="M148.867 56.094L138.184 67.27l11.184 10.695 10.688-11.176-11.187-10.695zm0 0"/></clipPath><clipPath id="D"><path d="M99.375 135.453h161.62V61.367H99.375v74.086zm0 0"/></clipPath><linearGradient id="E" x1="-.004" y1="0" x2=".676" y2="0" gradientUnits="userSpaceOnUse" gradientTransform="matrix(-15.675164,16.395721,16.39574,15.675164,154.37065,61.524124)"><stop offset=".008" stop-color="#ddeb50"/><stop offset=".016" stop-color="#ddeb50"/><stop offset=".023" stop-color="#dcea50"/><stop offset=".031" stop-color="#dbe94f"/><stop offset=".039" stop-color="#dae84f"/><stop offset=".047" stop-color="#d8e74f"/><stop offset=".055" stop-color="#d7e74e"/><stop offset=".063" stop-color="#d6e64e"/><stop offset=".07" stop-color="#d5e54e"/><stop offset=".078" stop-color="#d4e44d"/><stop offset=".086" stop-color="#d3e34d"/><stop offset=".094" stop-color="#d2e24d"/><stop offset=".102" stop-color="#d1e14d"/><stop offset=".109" stop-color="#d0e14c"/><stop offset=".117" stop-color="#cfe04c"/><stop offset=".125" stop-color="#cedf4c"/><stop offset=".133" stop-color="#cdde4b"/><stop offset=".141" stop-color="#ccdd4b"/><stop offset=".148" stop-color="#cbdc4b"/><stop offset=".156" stop-color="#cadc4b"/><stop offset=".164" stop-color="#c9db4a"/><stop offset=".172" stop-color="#c8da4a"/><stop offset=".18" stop-color="#c7d94a"/><stop offset=".188" stop-color="#c6d849"/><stop offset=".195" stop-color="#c5d749"/><stop offset=".203" stop-color="#c4d749"/><stop offset=".211" stop-color="#c4d649"/><stop offset=".219" stop-color="#c3d548"/><stop offset=".227" stop-color="#c2d448"/><stop offset=".234" stop-color="#c1d348"/><stop offset=".242" stop-color="#c0d348"/><stop offset=".25" stop-color="#bfd247"/><stop offset=".258" stop-color="#bed147"/><stop offset=".266" stop-color="#bdd047"/><stop offset=".273" stop-color="#bccf47"/><stop offset=".281" stop-color="#bbcf46"/><stop offset=".289" stop-color="#bace46"/><stop offset=".297" stop-color="#b9cd46"/><stop offset=".305" stop-color="#b8cc46"/><stop offset=".313" stop-color="#b7cb45"/><stop offset=".32" stop-color="#b6cb45"/><stop offset=".328" stop-color="#b5ca45"/><stop offset=".336" stop-color="#b4c945"/><stop offset=".344" stop-color="#b3c844"/><stop offset=".352" stop-color="#b2c844"/><stop offset=".359" stop-color="#b1c744"/><stop offset=".367" stop-color="#b1c644"/><stop offset=".375" stop-color="#b0c543"/><stop offset=".383" stop-color="#afc443"/><stop offset=".391" stop-color="#aec443"/><stop offset=".398" stop-color="#adc343"/><stop offset=".406" stop-color="#acc242"/><stop offset=".414" stop-color="#abc142"/><stop offset=".422" stop-color="#aac142"/><stop offset=".43" stop-color="#a9c042"/><stop offset=".438" stop-color="#a8bf41"/><stop offset=".445" stop-color="#a7be41"/><stop offset=".453" stop-color="#a6be41"/><stop offset=".461" stop-color="#a6bd41"/><stop offset=".469" stop-color="#a5bc41"/><stop offset=".477" stop-color="#a4bc40"/><stop offset=".484" stop-color="#a3bb40"/><stop offset=".492" stop-color="#a2ba40"/><stop offset=".5" stop-color="#a1b940"/><stop offset=".508" stop-color="#a0b93f"/><stop offset=".516" stop-color="#9fb83f"/><stop offset=".523" stop-color="#9eb73f"/><stop offset=".531" stop-color="#9eb73f"/><stop offset=".539" stop-color="#9db63f"/><stop offset=".547" stop-color="#9cb53e"/><stop offset=".555" stop-color="#9bb43e"/><stop offset=".563" stop-color="#9ab43e"/><stop offset=".57" stop-color="#99b33e"/><stop offset=".578" stop-color="#98b23e"/><stop offset=".586" stop-color="#97b23d"/><stop offset=".594" stop-color="#97b13d"/><stop offset=".602" stop-color="#96b03d"/><stop offset=".609" stop-color="#95b03d"/><stop offset=".617" stop-color="#94af3c"/><stop offset=".625" stop-color="#93ae3c"/><stop offset=".633" stop-color="#92ad3c"/><stop offset=".641" stop-color="#92ad3c"/><stop offset=".648" stop-color="#91ac3c"/><stop offset=".656" stop-color="#90ab3b"/><stop offset=".664" stop-color="#8fab3b"/><stop offset=".672" stop-color="#8eaa3b"/><stop offset=".68" stop-color="#8da93b"/><stop offset=".688" stop-color="#8ca93b"/><stop offset=".695" stop-color="#8ca83b"/><stop offset=".703" stop-color="#8ba73a"/><stop offset=".711" stop-color="#8aa73a"/><stop offset=".719" stop-color="#89a63a"/><stop offset=".727" stop-color="#88a53a"/><stop offset=".734" stop-color="#88a53a"/><stop offset=".742" stop-color="#87a439"/><stop offset=".75" stop-color="#86a439"/><stop offset=".758" stop-color="#85a339"/><stop offset=".766" stop-color="#84a239"/><stop offset=".773" stop-color="#83a239"/><stop offset=".781" stop-color="#83a138"/><stop offset=".789" stop-color="#82a038"/><stop offset=".797" stop-color="#81a038"/><stop offset=".805" stop-color="#809f38"/><stop offset=".813" stop-color="#7f9e38"/><stop offset=".82" stop-color="#7f9e38"/><stop offset=".828" stop-color="#7e9d37"/><stop offset=".836" stop-color="#7d9d37"/><stop offset=".844" stop-color="#7c9c37"/><stop offset=".852" stop-color="#7c9b37"/><stop offset=".859" stop-color="#7b9b37"/><stop offset=".867" stop-color="#7a9a37"/><stop offset=".875" stop-color="#799a36"/><stop offset=".883" stop-color="#789936"/><stop offset=".891" stop-color="#789836"/><stop offset=".898" stop-color="#779836"/><stop offset=".906" stop-color="#769736"/><stop offset=".914" stop-color="#759636"/><stop offset=".922" stop-color="#759635"/><stop offset=".93" stop-color="#749535"/><stop offset=".938" stop-color="#739535"/><stop offset=".945" stop-color="#729435"/><stop offset=".953" stop-color="#719435"/><stop offset=".961" stop-color="#719335"/><stop offset=".969" stop-color="#709234"/><stop offset=".977" stop-color="#6f9234"/><stop offset=".984" stop-color="#6e9134"/><stop offset=".992" stop-color="#6e9134"/><stop offset="1" stop-color="#6d9034"/></linearGradient></defs><g transform="translate(-24.298 -397.076)"><g transform="matrix(3.507768 0 0 3.507768 -941.280029 -596.656555)"><g transform="matrix(1.25,0,0,1.25,152.05987,207.31251)"><g clip-path="url(#D)"><g fill="#3f702b"><path d="M180.492 111.8c2.617 0 3.457 1.973 3.96 4.117a64.92 64.92 0 0 1-7.81 1.973c.027-.93.324-6.1 3.848-6.1m-5.078.613c-1.828 1.828-2.8 4.383-2.8 7.375 0 5.137 3.633 8.727 8.832 8.727 3.953 0 6.47-1.973 6.578-2.062l.043-.03-.02-.055c-.102-.254-.66-1.52-1.578-1.227a7.1 7.1 0 0 1-3.19.742c-4.402 0-6.05-3.602-6.348-5.78 2.852-.672 7.086-1.8 11.266-3.855 0 .004.086-.04.086-.04l.238-.117-.082-.355c-.3-1.18-.703-2.54-1.656-3.687-1.195-1.453-2.953-2.187-5.223-2.187a8.74 8.74 0 0 0-6.145 2.555m41.32-.607c2.6 0 3.453 1.973 3.953 4.117a65.35 65.35 0 0 1-7.805 1.973c.023-.93.32-6.1 3.852-6.1m-5.086.613c-1.828 1.828-2.797 4.383-2.797 7.375 0 5.137 3.63 8.727 8.828 8.727 3.96 0 6.47-1.973 6.578-2.062l.043-.03-.02-.055c-.102-.254-.656-1.516-1.57-1.227a7.14 7.14 0 0 1-3.199.742c-4.398 0-6.05-3.602-6.344-5.78 2.848-.672 7.086-1.8 11.266-3.855-.004.004.1-.04.1-.04l.238-.117-.1-.355c-.28-1.18-.703-2.54-1.648-3.687-1.203-1.453-2.96-2.187-5.23-2.187-2.28 0-4.52.93-6.145 2.555m21.728-.607c2.617 0 3.457 1.973 3.96 4.117a65.63 65.63 0 0 1-7.8 1.973c.023-.93.316-6.1 3.848-6.1m-5.086.613c-1.828 1.828-2.797 4.383-2.797 7.375 0 5.137 3.633 8.727 8.836 8.727 3.957 0 6.47-1.973 6.57-2.062l.043-.03-.02-.055c-.102-.254-.652-1.516-1.57-1.227a7.14 7.14 0 0 1-3.199.742c-4.395 0-6.05-3.602-6.344-5.78 2.852-.672 7.086-1.8 11.266-3.855-.004.004.1-.04.1-.04l.238-.117-.082-.355c-.3-1.18-.7-2.54-1.656-3.687-1.195-1.453-2.96-2.187-5.23-2.187-2.28 0-4.52.93-6.145 2.555m-30.7-.555c4.598 0 5.094 4.836 5.094 6.922 0 2.75-.664 7.355-5.094 7.355a5.59 5.59 0 0 1-3.437-1.254v-11.77a5.62 5.62 0 0 1 3.438-1.254m-9.535-9.844v1.008c0 1.04.7 1.133 1.113 1.195.477.066.793.117.793 1.2v23.062h1.23l2.016-1.746c1.586 1.078 3.648 1.746 5.4 1.746 5.2 0 8.813-3.95 8.813-9.6 0-5.523-3.52-9.383-8.562-9.383a9.82 9.82 0 0 0-4.695 1.19v-8.844l-6.098.168zm-56.116 9.173v-1.305l-5.77.164v1.086c0 .902.645 1.03 1.03 1.117l.148.027c.258.066.578.148.578 1.184v18.578c0 1.1-.32 1.13-.805 1.2-.426.06-1.133.152-1.133 1.215v1.016h8.25v-1.016c0-1.113-.773-1.176-1.23-1.2-.535-.04-.895-.066-.895-1.195v-4.828l.012-2.297-.012-11.8a5.59 5.59 0 0 1 3.438-1.254c4.594 0 5.094 4.844 5.094 6.922 0 2.75-.66 7.355-5.094 7.355a5.26 5.26 0 0 1-1.477-.227c-.023-.004-.22-.066-.22-.066-.316-.086-.555-.05-.727.105-.352.332-.28 1.13-.164 1.746l.008.027.03.012c1.06.44 2.18.688 3.535.758 2.422 0 4.54-.836 6.133-2.43 1.742-1.742 2.703-4.293 2.703-7.172 0-5.53-3.52-9.4-8.562-9.4-2.297 0-3.805.9-4.875 1.688m19.318 0v-1.305l-5.77.164v1.086c0 .902.648 1.03 1.03 1.117l.152.027c.254.066.578.148.578 1.184v18.578c0 1.1-.324 1.13-.8 1.2-.422.06-1.137.152-1.137 1.215v1.016h8.254v-1.016c0-1.113-.773-1.176-1.23-1.2-.54-.04-.9-.066-.9-1.195v-4.828l.004-2.297-.004-11.8a5.58 5.58 0 0 1 3.438-1.254c4.598 0 5.094 4.844 5.094 6.922 0 2.75-.664 7.355-5.094 7.355a5.26 5.26 0 0 1-1.48-.227l-.04-.012-.172-.055c-.32-.086-.562-.05-.73.105-.355.332-.285 1.13-.164 1.738l.004.035.03.012c1.063.44 2.188.688 3.54.758 2.422 0 4.54-.836 6.125-2.43 1.75-1.742 2.707-4.293 2.707-7.172 0-5.53-3.52-9.4-8.56-9.4-2.3 0-3.8.9-4.88 1.688m92.27 4.133c0 3.477 3.05 4.48 5.754 5.37 2.3.762 4.492 1.48 4.492 3.598 0 2.16-2.477 2.945-4.14 2.945-1.707 0-2.535-.4-2.535-1.254 0-.137.047-.297.1-.46.05-.176.102-.352.102-.516 0-1.168-1.344-1.8-2.316-1.8-1.133 0-2.3.78-2.3 2.1 0 2.8 4.77 3.703 7.078 3.703 3.797 0 7.828-2.113 7.828-6.03 0-3.598-3.2-4.637-6.016-5.56-2.375-.773-4.418-1.437-4.418-3.37 0-1.652 1.926-2.53 3.32-2.53.555 0 1.848.082 1.848.88l-.07.8c0 1.137 1.133 1.746 2.195 1.746 1.113 0 2.238-.664 2.238-1.934 0-2.574-3.672-3.25-5.613-3.25-3.13 0-7.527 1.727-7.527 5.574m-72.7 8.976c0 3.04 2.2 1 2.2 2.9v1.324h-8.68v-1.324c0-1.953 2.305.172 2.305-2.9v-18.156c0-3.078-2.305-.953-2.305-2.906v-1.324l6.47-.176v22.563zm0 0"/><path d="M240.672 106.543a1.53 1.53 0 0 0 1.512 1.508l.316-.035c0 .77-.27 1.703-.96 2.512l-.113.137.56.555.133-.133c1.262-1.262 1.898-2.547 1.898-3.816 0-1.1-.555-2.254-1.77-2.254-.883 0-1.574.672-1.574 1.527m-128.54-2.692l.04.1 4.07 11.72h-8.273l4.164-11.828m.152-7.797v-.004l-.207.145c.008 0-.195.133-.195.133-.824.54-1.63 1.125-1.63 1.832 0 .4.207.973.34 1.34l.05.145c-.02.05-7.793 22.06-7.793 22.06-1.035 2.9-1.922 3.22-2.508 3.418-.43.152-.97.332-.97 1.477v1.3h7.793v-1.3c0-1.2-.56-1.473-1.13-1.633-.516-.14-.758-.207-.758-.906 0-.63.414-1.812.633-2.44l.023-.062s0-.008.668-2.016l.234-.695h10.543c.03.078.738 2.012.738 2.012 3.793 8.613 12.016 7.4 12.105 7.402l.05-.012-.105-3.2c-5.445 0-6.47-3.637-9.465-11.832l-2.43-6.703-3.668-10.23c-.06-.168-.383-.992-.84-1.027-.195-.012-.37.016-1.484.813"/></g><path d="M156.313 79.512c-.82-1.758-2.293-3.266-4.5-3.66-1.328-.242-2.258-.145-4.61.43-1.687.402-3.102.344-4.82-.1-3.914-.988-5.39-3.148-9.734-2.34-2.672.504-4.578 2.563-5.832 5.898-1.078 2.86-1.484 8.73 1.93 15.074 1.62 3.023 4.324 4.547 7.9 4.574 3.406-.098 4.238-.742 6.22-.867 1.78-.113 3.273.984 5.836.648 2.063-.203 4.555-2.21 5.984-4.29 3.762-5.44 3.5-11.336 1.617-15.38" fill="#fff"/><path d="M150.45 104.266c-2.6.703-4.297-.12-6.152.012-2.05.145-2.816.926-6.36 1.04-3.715-.035-6.523-2.223-8.203-5.7-3.54-7.316-2.75-13.645-1.957-17.023 1.168-4.957 3.73-7.47 8.355-6.637 2.695.484 4.97 2.207 8.094 2.598 1.55.195 3.22-.156 5.18-.63 1.5-.367 2.86-.4 4.203-.098 2.137.5 3.56 1.39 4.656 3.758 2.125 4.578 2.063 10.7-2.11 17.48-1.473 2.402-3.523 4.605-5.707 5.2" fill="#b01738"/><path d="M143.574 71.352s-.098-1.992 1.113-4.22 3.9-3.703 5.68-4.016 2.86-.5 3.453-1.2c.46-.555.848-.336.832.223-.008.38-.152 1.38-.293 2.32s-.602 3.215-1.594 4.758c-1.496 2.32-3.492 2.87-5.223 3.043-1.69.164-3.145-.465-3.97-.9" fill="#dceb4f"/></g><g clip-path="url(#C)"><path d="M148.867 56.094l11.188 10.695-10.687 11.176-11.184-10.695 10.684-11.176zm0 0" fill="url(#E)"/></g><g clip-path="url(#A)"><path d="M148.906 99.53c-2.56.332-4.055-.762-5.836-.648-1.98.125-2.805.766-6.22.863-3.586-.023-6.29-1.55-7.9-4.57-3.414-6.348-3.004-12.215-1.93-15.074 1.262-3.34 3.16-5.395 5.832-5.898 4.344-.812 5.82 1.348 9.734 2.34 1.72.43 3.14.488 4.82.082 2.352-.57 3.28-.664 4.61-.43 2.207.398 3.68 1.906 4.5 3.664 1.887 4.047 2.145 9.94-1.617 15.38-1.43 2.074-3.922 4.1-5.984 4.293m9.406-20.344c-1.352-3.21-3.527-5.11-6.395-5.547-1.887-.285-2.992.418-4.88.656-1.258.156-2.406.14-3.578-.273-2.977-1.055-5.29-3.156-8.383-3.586-3.902-.535-7.168 2.566-8.492 4.57-3.113 4.742-3.078 13.89.352 21.21 0 0 .773 1.477 1.22 2.184 1.355 2.19 3.7 4.68 8.37 4.9 3.418-.102 5.234-1.133 6.598-1.28 1.32-.137 3.078.816 5.863.37 3.496-.56 7.5-6.45 7.5-6.45 2.945-4.45 4.352-10.75 1.824-16.766" fill="#ee2623"/><path d="M136.523 79.2s-3.602 1.316-4.848 5.613c-1.29 4.445-2.922-4.555 4.848-5.613" fill="#fff"/><path d="M258.145 110.762c.078-.176.19-.328.328-.453s.293-.223.473-.29a1.61 1.61 0 0 1 .563-.102 1.65 1.65 0 0 1 .566.102 1.54 1.54 0 0 1 .473.289c.137.125.242.277.328.453a1.49 1.49 0 0 1 .121.602c0 .22-.043.418-.12.594-.086.184-.19.332-.328.46a1.55 1.55 0 0 1-.473.293c-.184.063-.37.098-.566.098s-.383-.035-.562-.098c-.18-.07-.336-.168-.473-.293s-.25-.277-.328-.46c-.082-.176-.12-.375-.12-.594s.04-.422.12-.602m.355 1.055c.06.14.137.262.234.363a1.04 1.04 0 0 0 .348.238c.133.06.273.086.426.086a1.02 1.02 0 0 0 .422-.086 1.08 1.08 0 0 0 .348-.238c.098-.102.176-.223.234-.363a1.16 1.16 0 0 0 .09-.453c0-.168-.03-.316-.1-.46-.06-.137-.137-.254-.234-.355a1.07 1.07 0 0 0-.348-.234 1.02 1.02 0 0 0-.422-.086c-.152 0-.293.027-.426.086a1.03 1.03 0 0 0-.348.234c-.098.102-.176.22-.234.355-.06.145-.082.293-.082.46 0 .16.023.316.082.453m1.04-1.27c.207 0 .363.04.477.11.105.07.164.195.164.367a.66.66 0 0 1-.031.195.46.46 0 0 1-.094.129c-.04.035-.086.063-.137.078s-.11.027-.168.035l.438.707h-.34l-.395-.69h-.2v.69h-.324v-1.62h.61zm0 .68a.62.62 0 0 0 .227-.039c.06-.023.094-.1.094-.187 0-.043-.016-.078-.035-.102-.02-.03-.043-.047-.078-.062a.47.47 0 0 0-.105-.031c-.04-.004-.078-.004-.117-.004h-.27v.426h.285zm0 0" fill="#3f702b"/></g></g></g></g></svg>