<svg xmlns="http://www.w3.org/2000/svg" viewBox="0 0 159.08 79.83" width="800" height="400"><style><![CDATA[.B{fill:#fff}.C{fill:#9fa1a3}]]></style><path d="M39.87 75.8a35.88 35.88 0 1 1 35.92-35.92 35.92 35.92 0 0 1-35.92 35.92" fill="#ffd200"/><path d="M39.87 75.8a35.88 35.88 0 1 1 35.92-35.92A35.92 35.92 0 0 1 39.87 75.8m0-75.8a39.91 39.91 0 1 0 40 39.87A39.91 39.91 0 0 0 39.87 0m25.37 45.48c1.72-2.62 1.92-7.7 1.53-9.4-.07 0-5.05-2.73-16.45-6.55a7.88 7.88 0 0 0 2.25-1.66 17.87 17.87 0 0 0-5.19-3.1c2.5-1.6 6.86-6.3 7.72-7.26a21.81 21.81 0 0 0-7.06-1.58c2-1.58 5.83-4.13 7.4-4.56a13.91 13.91 0 0 0-5.79-1.23c-5.35-.13-8.2 1.06-12.13 3.07l1.74-4.68a25.3 25.3 0 0 0-4.06 2.48c-2.47 1.9-4.77 3.5-6.64 5.93a4.72 4.72 0 0 0-.78 4.28 22 22 0 0 1 1 3c.38 1.9.16 2 0 2a6.37 6.37 0 0 0-3.62 2.49 14.21 14.21 0 0 0-2.3 4.99 13.38 13.38 0 0 0-4.9-.82c-5.14 0-7 3.5-7.37 4.44-1.45 4 .73 9.4.73 9.4a28.1 28.1 0 0 0 1.06 6.25c.3.9 1.82 1.05 2.8 1.12 2.55.1 2.34 3.6 1.66 5.46a4.59 4.59 0 0 0 3.74-4 7 7 0 0 1 2 1.86 4.51 4.51 0 0 0 .92-4c2.52 3 3 8.56 3.08 8.55a14.51 14.51 0 0 0 1.69-1.78s-.42 3-1.1 3.1l-1.48.25-2.3 2.9h6.7a28.21 28.21 0 0 1 1.47-6.2 15.26 15.26 0 0 0 1.8 1.64 17.67 17.67 0 0 1 1.75-6.15 16.65 16.65 0 0 0 1.45 2.08c4.93-1 16-7.92 16.07-8 .26.34 3.1 4.6 7 6-.9 2.82-5.72 7.38-6.2 7.5l-1.4.26-2.18 2.8h7c.55-3.4 6.3-7.5 7.8-10.5a1.11 1.11 0 0 0-.06-1.16 4.49 4.49 0 0 1-1.06-3.62 11.89 11.89 0 0 1 1.7-5.64"/><path class="B" d="M15.6 44.55a2.42 2.42 0 0 0-2.14 1.32v.5l2.4-.85.4-.84a1.3 1.3 0 0 0-.7-.14"/><path class="C" d="M36.3 53.2a15.11 15.11 0 0 0 1.32 1.89c4.48-.92 12.52-6 12.63-6.05zm5.57-27.96l-2.92 1.93a37.35 37.35 0 0 1 9.35 1.05 13.83 13.83 0 0 0-6.43-3"/><path class="B" d="M50.33 18.68c-7.2.34-10.24 2.3-10.24 2.3l2.17-2.62a27.52 27.52 0 0 1 7.13-6.32c-13.16 5.28-15.87 9.1-15.87 9.1l.7-3.25c.08-.58.87-3.37 1-4.06-4.33 3.53-5.5 5.8-5 7.5.34 1.16 1.6 3.77 1.64 5.55 0 2.06-.67 3.88-1.27 6.23 0 0 7.6 2.47 11.7 1.48 0 0-1.8-1.42-1.83-2.22a19.72 19.72 0 0 0 7.88-4.21 37.35 37.35 0 0 0-9.35-1.05l2.9-1.86c2.85-2.17 6.14-3.65 8.42-6.56"/><path class="C" d="M34.22 17.87a43.17 43.17 0 0 1 11.81-5.2 20.23 20.23 0 0 1 3.34-.63c-13.16 5.28-15.87 9.1-15.87 9.1zm8.04.48a29.51 29.51 0 0 1 8.07.33c-7.2.34-10.24 2.3-10.24 2.3l2.18-2.63"/><path class="B" d="M16.94 41.56c1.4-.58 2.6-2.73 3-4.78a14.64 14.64 0 0 0-.25-2.5c0 .23-.68 5.62-4.7 5.78-.94 0-1.3.2-1.44 1.3a1.6 1.6 0 0 0 0 .41 5.28 5.28 0 0 0 3.36-.22"/><path class="C" d="M14.6 43.06s3.37.46 4.48-1.7a10.36 10.36 0 0 0 .88-4.59c-.4 2-1.62 4.2-3 4.78a5.29 5.29 0 0 1-3.36.22 1.51 1.51 0 0 0 1 1.28"/><path d="M88.08 25.2v-9.83l-1.54-2.64h6.7a5.49 5.49 0 0 1 2.91.51 2.92 2.92 0 0 1 1.24 2.62 2.56 2.56 0 0 1-2 2.79c1.6.2 2.15 1.48 2.15 2.94a3.53 3.53 0 0 1-1 2.81 4.67 4.67 0 0 1-3.11.74zm3.9-7.6h.26c.86 0 1.3-.2 1.3-1.12s-.48-1.12-1.3-1.12h-.26zm0 4.94h.33c.95 0 1.28-.38 1.28-1.37s-.33-1.32-1.28-1.32h-.33zm52.38-3.38v2c0 .8 0 1.38-1 1.38h-.38v-9.8h-4.66l.77 2.64v9.83h8.66v-6.05zm13.74 2.44c0 3.08-1.9 3.86-4.64 3.86s-4.6-.77-4.6-3.86v-5.25c0-3.08 1.9-3.86 4.64-3.86s4.64.77 4.64 3.86zm-5.4 0c0 .1 0 1 .76 1s.76-.9.76-1v-5.46a.68.68 0 0 0-.76-.76c-.8 0-.76.87-.76 1zm-24.83-4.57v-4.3h-9.35l.78 2.64v9.82h3.9v-4.7h2.47v-2.74h-2.47V15.4c.74-.06 1.06.07 1.2.35a3 3 0 0 1 .12 1.29zm-10.07 0v-4.3h-9.35l.77 2.64v9.82h3.9v-4.7h2.47v-2.74h-2.47V15.4c.74-.06 1.06.07 1.2.35a3 3 0 0 1 .12 1.29zm-13.93-4.3v8.93a.78.78 0 1 1-1.54 0v-8.93H97.7l.77 2.64v5.84a3.92 3.92 0 0 0 1.19 3.3 6.9 6.9 0 0 0 6.93 0 3.93 3.93 0 0 0 1.19-3.3v-8.48zm32.1.01h-7.34l.78 2.64-1.7 9.83h3.56l.44-2.65h2.4l.48 2.65h3.56zm-3.72 6.78l.64-4.13h.06l.64 4.13zm2.03 18.35v3.5c0 1.36 0 2.4-1.7 2.4h-.66v-17h-8.06l1.34 4.58v17h15V37.87zM116.2 31.3l-1.34-4.58h8.06V48.3h-6.72v-17zm34.45-4.58c1.84 0 4 0 5.5 1.2 1.76 1.4 1.94 3.35 1.94 5.4v8.08c0 2.12-.1 3.75-1.74 5.3s-3.47 1.6-5.47 1.6h-8.66v-17l-1.34-4.58zm-1.74 17h.53c1.46 0 1.9-.53 1.9-2.1v-8.1c0-1.56-.45-2.2-1.9-2.2h-.57zm-41.96-17l-1.45 11.1h-.06l-1.46-11.1h-4.72l-1.47 11.1h-.05l-1.45-11.1h-9.76l3.5 4.57 3.12 17h6.34l2.1-7.5h.05l2.1 7.5h6.35l3.95-21.58h-7.08zM102.8 49.8l-1.16 8.85h-.04l-1.17-8.85h-3.76l-1.17 8.85h-.04L94.3 49.8h-7.78l2.8 3.65L91.8 67h5.06l1.66-5.97h.04l1.67 5.97h5.05l3.15-17.2h-5.64zm7.28 3.65L109 49.8h6.42V67h-5.35V53.45zm15.32 4.12h.04V49.8h4.33V67h-5.2l-3.2-7.73h-.04V67h-4.17V53.45l-1.07-3.64h6.3l3 7.76zm18.4-1.77h-5.15v-.38c0-.76.16-1.95-1-1.95-1 0-1.08.94-1.08 1.68v7.08a1.06 1.06 0 0 0 1.08 1.12c1.18 0 1-1.18 1-2v-1l-1.06-3.64h6.22v8.77c-1.68 1.52-4.23 1.87-6.42 1.87-1.54 0-3.3-.12-4.53-1.15-1.58-1.34-1.67-2.9-1.67-4.8v-6.53c0-1.52.18-3 1.42-4.05a6.88 6.88 0 0 1 4.53-1.34 10.91 10.91 0 0 1 6.66 2zm8.8-.5c0-.77 0-1.83-1.06-1.83-.68 0-1 .22-1 .86a1.26 1.26 0 0 0 .32 1 3.85 3.85 0 0 0 1.5.68 15 15 0 0 1 4.09 1.52 3.16 3.16 0 0 1 1.32 1.64 6.77 6.77 0 0 1 .4 2.37v.08c0 3.3-1.46 5.76-6.58 5.76a10 10 0 0 1-6.24-1.81v-4.64h5.23a4.67 4.67 0 0 0 .16 1.86 1.09 1.09 0 0 0 1 .56.94.94 0 0 0 1-1c0-1.76-1.1-1.9-2.6-2.27-3.25-.8-5.07-1.58-5.07-5.3v-.38c.08-1.85.38-2.77 1.78-3.83a7.43 7.43 0 0 1 4.41-1.06 10.64 10.64 0 0 1 6.34 1.8v4.05h-5zm5.6 10.93h.14c.12 0 .16 0 .16-.12s0-.1-.17-.1h-.13zm0 .48h-.16v-.84h.3c.2 0 .32.07.32.25a.2.2 0 0 1-.2.22l.2.36h-.18l-.2-.35h-.1zm.13-1a.58.58 0 1 0 .56.58.56.56 0 0 0-.56-.58zm-.76.58a.76.76 0 1 1 .76.74.73.73 0 0 1-.76-.74z"/></svg>