<svg xmlns="http://www.w3.org/2000/svg" width="800" height="800" viewBox="0 0 106.7 106.7"><g fill="#fff"><path d="M53.4 104.2c-28 0-50.8-22.8-50.8-50.8S25.3 2.5 53.4 2.5c28 0 50.8 22.8 50.8 50.8s-22.8 50.9-50.8 50.9zm0-96.9c-25.4 0-46 20.6-46 46s20.6 46 46 46 46-20.6 46-46-20.7-46-46-46z" stroke="#ED7902" stroke-width="5" stroke-miterlimit="10"/><path d="M5 53.3C5 26.6 26.6 4.9 53.4 4.9s48.4 21.7 48.4 48.4-21.7 48.4-48.4 48.4S5 80.1 5 53.3"/></g><path d="M74.9 21.7c.2-.5-.2-1-.2-1s-3.3-5.6-14.8-6.8c-6.2-.7-14.6.6-20.5 3.8C28.6 23.5 27 33 27 33c-.1.2-.2.9.1 1.2.2.3.6.3 1 .2 3.8-1.3 15-5 22.2-6.9 10.1-2.7 18.4-4.3 23.8-5.2.4-.1.7-.2.8-.6" fill="#FDBD10"/><path d="M86.5 66.5c-6.1 13.6-17.7 23.1-32.9 23.3-11.1.2-20.9-3.6-28-10.3l-4.3 1.8v-6.6C16.7 68.5 14 60.5 14 51.5c0-23.1 17.7-41.3 42.4-41.3 4 0 7.7.6 10.4 1.2-4.2-1.4-8.4-2.1-13.1-2.1C27.2 9.3 9.4 30.8 9.4 53c0 24.1 18.9 44.4 43.8 44.4 23.8 0 36.6-16.7 40.7-26.8l-7.4-4.1z" fill="#0066B2"/><path d="M36 78.1c-.2.6.3 1.1.3 1.1 2.4 3 13 6.8 24.6 4C78.5 79 82.3 66.5 82.7 64.8c.1-.4.2-.9-.2-1.3-.3-.3-.7-.3-1.2-.2-12.3 2.9-32.7 9.1-44.5 14.2-.5.2-.7.3-.8.6" fill="#FDBD10"/><g fill="#fff"><path d="M41.7 17.6c-6.5 2.9-10.9 9.7-11.1 12.6-.1 1.1 1.4 1.3 1.6.1 1.3-5.3 5.5-10.3 9.5-12.7m21.5 4.9c3.5-.9 5.4-1 5.5-2.6.1-2.6-7.4-5.7-14.3-5.1 7 .5 11.2 3.2 11.2 5 0 1.2-1 2.3-2.4 2.7m2.2 57.9c5.3-2.1 10.3-6 13.1-11.9.8-1.7-1.5-2.6-2.2-.6-1.6 4.2-5 9.1-10.9 12.5"/></g><g fill="#EC1C24"><path d="M80.3 61.8c3.5-.4 5.9-1.8 7.2-3.1 1.2-1.2 1.5-2.8 1.5-4v-7.4l-9.2 2v2.2c0 1.4.7 2.2 2.2 1.9l1.2-.3v1.8s.1 1-2.2 1.4c-3 .5-4.4-1.4-4.5-4.7.1-3.5 2.1-5.6 4.5-6.1 2.7-.6 4.3 0 5.2.2 3.1.5 3.9-4.1 1.1-5.2-2.1-.8-4.7-1-7.3-.5-3.4.7-10.1 3.5-10.1 12.7.2 7.2 5.6 9.6 10.4 9.1m-29.9 7.8l3.1-1.1c2.3-.8 3.1-2.1 3.1-4.5v-7.5l6.6 7.6c1.1 1.1 2.4 1.2 3.6.8 1.3-.4 2.3-1.5 2.4-3.2V42.9s-1.7.4-3.1.8c-1.6.5-2.9 1.5-2.9 4.2v6.5s-3.7-4.6-6.1-7.1c-1.3-1.3-3.4-.5-3.4-.5l-3.2 1-.1 21.8zm-2-21.2l-3.6 1.2c-2.1.8-3.3 2-3.3 5.1v18.1l3.5-1.3c2.4-.9 3.3-2.2 3.3-4.7.1-2.3.1-18.4.1-18.4m-9.9 4.3c-1.8-.8-3.4.1-4 1.1l-5.6 9.5v-7.7l-6.6 2.7V80l4.6-1.9s.9-.3 1.5-1.1c.5-.8.5-2.1.5-2.1V68l5.2 5.5c1.1 1.2 3.2 1.8 5.1.3 1.7-1.3 1.4-3.6.5-4.7L35 64.3l4.8-7.7c.8-1.4.4-3.2-1.3-3.9m-13-3c0-1.2-.9-1.8-2.5-1v3.8l.9-.4c.9-.4 1.6-1.2 1.6-2.4m-2.6-3.4c.3-.1.5-.2.7-.3.9-.4 1.5-1.2 1.5-2.2 0-1.2-.9-1.5-2.2-.8v3.3zm6.8 2.9c.1 3-2.1 4.6-5 5.8l-5.8 2.5V41.7l4.9-1.9c3.4-1.2 5.4.3 5.4 2.5 0 1.5-.6 2.8-2.1 3.9 1.4.3 2.6 1.4 2.6 3m11.1-13.3c0-1.3-.9-1.7-2-1.4l-1.9.7V45c0 1-.2 2.2-1.4 2.5-.9.2-1.4-.4-1.4-1.4v-8c0-1.3-.9-1.7-2-1.4l-2 .7v9.7c0 3.3 2.2 4.9 5.7 3.9 3-.9 5-2.6 5.1-6.9l-.1-8.2zm32.3 4c.9-.2 1.4-.8 1.4-1.9v-1.7l-4.7 1v-2.8l3-.6c.8-.2 1.2-.6 1.2-1.5v-1.6l-4.2.9v-2.2l3.4-.7c.9-.2 1.2-.8 1.2-1.7v-1.7l-8.5 1.7v14.4c-.1.1 4.7-1 7.2-1.6m-27.3-.6s2.3-1.2 2.3-3.1c0-1.6-1.5-1.3-2.3-1v4.1zm0 2.2v3.9c0 1-.7 1.8-1.6 2.1l-2.4.8V33.5s3.3-1.2 5.3-1.6c3-.7 5.2.7 5.1 3.1 0 2.3-1.3 3.7-2.5 4.7l2.6 2.5c.8.8.8 2.1 0 3-.5.5-1.9 1-3-.1l-3.5-3.6z"/><path d="M79.3 31.4s2.3-.9 2.3-2.7c0-1.6-1.6-1.3-2.3-1.1v3.8zm-3.9 8.1V25.3l5.2-.9c3-.4 5 1.3 4.9 3.6 0 2.1-1.3 3.3-2.4 4l2.6 2.9c.7.8.7 2.2-.4 2.9s-2.1.3-2.7-.4l-3.3-3.9V37c0 1-.6 1.8-1.7 2l-2.2.5zm-10.5-6L59 34.9v1.6c0 .8.5 1.3 1.3 1.1l.9-.2V39c0 .6-1 1.1-2 1-1.4 0-2.2-1.1-2.2-3.2 0-2.7 1.3-4.4 3.1-4.8.9-.2 1.7-.1 2.3 0 1.5.2 2.4-.5 2.4-1.7 0-1.3-1.2-2.2-3.7-2.1-5.5.2-8.4 4.2-8.4 8.9 0 4.9 3.2 7 7.1 6.3 2.2-.4 3.3-1.2 4-1.8.8-.7 1.1-1.7 1.1-2.5v-5.6zm27 29.1h.7c.4 0 .9.1.9.5 0 .5-.4.6-.8.6h-.8v-1.1zm-.9 3.6h.8v-1.8h.5l1 1.8h.9l-1.1-1.9c.6-.1 1.1-.4 1.1-1.1 0-.9-.6-1.3-1.7-1.3H91v4.3zm-2.4-2.1c0 2.3 1.9 3.8 3.9 3.8 2.1 0 3.9-1.5 3.9-3.8s-1.9-3.8-3.9-3.8-3.9 1.5-3.9 3.8m1 0c0-1.7 1.3-3 2.9-3s2.9 1.3 2.9 3c0 1.8-1.3 3-2.9 3s-2.9-1.2-2.9-3"/></g></svg>