<svg xmlns="http://www.w3.org/2000/svg" width="800" height="800" viewBox="0 0 175 175" fill="none"><g clip-path="url(#A)"><path d="M-1.625-.125h179v180h-179z" fill="url(#A)"/><path d="M172.5 87.49c0 46.955-38.06 85-85.008 85-46.934 0-84.992-38.055-84.992-85C2.5 40.56 40.558 2.5 87.492 2.5c46.95 0 85.008 38.06 85.008 84.992z" fill="#fff"/><path d="M168.012 87.49c0 44.474-36.048 80.52-80.52 80.52-44.458 0-80.507-36.046-80.507-80.52 0-44.46 36.05-80.507 80.507-80.507 44.473 0 80.52 36.048 80.52 80.507zm-80.52-48.604c-26.836 0-48.6 21.764-48.6 48.604 0 26.853 21.764 48.616 48.6 48.616 26.857 0 48.622-21.764 48.622-48.616-.001-26.84-21.765-48.604-48.622-48.604z" fill="#AB2318"/><path d="M132.86 87.49c0 25.05-20.306 45.36-45.367 45.36-25.033 0-45.337-20.3-45.337-45.36 0-25.04 20.304-45.346 45.337-45.346 25.06 0 45.367 20.306 45.367 45.346z" fill="#451500"/><g fill="#fff"><path d="M103.707 54.123c.592.07 3.207.988 3.207.988l3.17 4.484c.65.793.36 1.367.36 1.367l-1.238 4.524s.45.37 0 0c-.456-.367-3.797-.064-4.593.01s.722-.938 1.082-1.296 1.802-1.368 1.618-1.946c-.173-.577-2.35-4.78-2.35-4.78s-3.795-.038-5.596.178-5.587 3.984-5.587 3.984l-1.378 5.446s.556 1.002 1.35 1.65 3.097.43 3.96.36.506.938-.214 1.585-3.313.647-3.313.647l1.077.36c1.192 1.08 3.376 6.616 4.665 7.9 1.288 1.282-.04 7.775-1.888 9.624-1.853 1.84-2.734 5.82-3.86 6.947-1.134 1.13-2.3.687-1.134 1.852 1.174 1.16.63 2.568.813 3.595.12.66.306 1.86.876 2.424.555.563 9.095 6.48 12.527 6.75.625.052.633 3.064-2.885 6.765 0 0-.628 2.138-6.493 2.325-6.4.2-12.694-.868-14.142-.868s-5.65-2.4-5.65-2.4c-.8 0-14.158-18.582-14.158-19.865s-.948-4.763-.948-6.05 1.487-13.054 1.25-14.478c-.2-1.12.395-1.38 1.683-2.668s3.607-3.462 4.488-4.345c.398-.396 3.477-.3 7.2-1.108l.577-.246-.742-.36s-1.2-1.5-3.14-1.438-2.593.215-1.584-.214 2.82-1.797 2.82-1.797l4.233 1.87h3.2l4-3.3 9.094-7.388 7.63-1.107zM74.63 77.5c-1.075.195-2.8-.112-3.628 1.375l-1.552 6.742.316 8.113c.146 1.336 1.893 5.702 2.87 6.684.862.862 2.538 3.713 4.056 5.216.4.404 1.245.6 1.595 1.072.632.854.238.266-.894-1.4-4.163-6.165-5.062-11.486-5.264-12.395-.445-1.986-.117-6.644 0-8.512.06-1 .747-3.206 1.398-3.703.307-.235 3.162-.552 3.737-.715.9-.262 2.156-.245 2.973-.413 2.616-.538 7.425.8 7.75.955 3.916 1.8 2.396 2.44 2.454 2.654.063.22-5.45 11.322-5.425 11.846.025.563.226 6.116.744 7.633.153.448 1.894 4.65 2.208 5.4 1.377 3.34-2.966-.553-3.245-.707s-6-10-6.838-12.1c-.56-1.406-.355-3.523-.244-3.973.148-.616-.294-5.37.6-6.02.6-.44 3.28-.7 4.575-.143 1.177.516 1.8 1.836 1.688 2.147-.095.262-1.956 6.264-2.244 5.762-.094-.165-.1-2.065-.346-2.254-.248-.194-1.615-.478-1.782-.262-.168.227-.498 2.24-.324 2.93.826 3.337 2.755 2.298 3.12 1.675.543-.926 3.162-8.3 3.114-8.774-.1-1.085-.913-2.954-2.614-3.526-1.02-.34-5.455-.152-6.676.487-1.874.984-1.763 9.506-1.406 10.747.357 1.23 6.26 11.145 6.537 11.906.546 1.485 4.12 5.016 4.68 5.348.233.14 5.1 2.035 5.74 1.086.276-.413.14-1.563-1.08-2.36-1.16-.763-3.94-8.863-3.93-9.502.01-.598-.724-5.1-.236-6.046.924-1.792 7.564-11.745 6.837-12.543-.974-1.078-3.953-6.1-5.35-4.208-1.26 1.7-7.232-.05-8.718-1.14-.112-.084-3.632.618-5.186.904zm20.107 38.4c1.93 0 7.307-2.863 5.314-4.18-1.26-.827-2.74-1.933-5.47-4.022-1.226-.938-1.762-.683-2.14-.683-1.128 0 .703-1.82.1-3.287-.666-1.6-1.044-4.052-1.605-4.6-.565-.565-.334-3.526.846-4.707 1.3-1.3 3.142-5.04 4.16-6.474 1.213-1.715 2.044-5.48 1.566-5.966-.488-.48-2.7-5.053-3.65-6.02-.625-.622-1.645-2.15-2.67-3.394l-.24-.342-1.037.6c-1.037.597-2.318 1.824-2.318 1.824s-.892.295-2.955-.12c-1.112-.222-1.514-1.005-1.514-1.894s-.58-.663-.58-.663-10.417.506-11.183.945c-.758.444-4.087 5.005-4.087 5.005s-1.773 17.34-.406 18.713c1.634 1.63 10.148 15.042 11.742 16.643 1.584 2.166 14.2 2.638 16.13 2.638zm-73.63-27.575a1.84 1.84 0 0 0 1.875 1.795c1.014-.022 1.82-.857 1.797-1.872a1.83 1.83 0 0 0-1.873-1.795c-1.013.018-1.816.856-1.8 1.872zm7.6 35.307l8.46-5.794 4.368 6.376-1.652 1.138-3.106-4.53-1.718 1.175 2.736 3.988-1.654 1.136-2.735-3.985-1.776 1.215 3.15 4.588-1.656 1.14-4.416-6.445zm14.046 16.45l.688-4.138-4.082 1.022-1.885-1.735 6.157-1.42.882-6.022 1.94 1.78-.66 3.9 3.844-.985 1.88 1.733-5.908 1.37-.916 6.274-1.94-1.787zm7.8 5.797l5.394-8.7 1.915 1.186-5.396 8.703-1.913-1.188zm13.3 6.83c-2.818-1.08-4.085-4.045-3.036-6.8l.01-.03c1.04-2.724 3.938-4.17 6.882-3.046 1.806.683 2.656 1.702 3.212 2.916l-1.926 1.036c-.483-.953-1.083-1.654-2.04-2.02-1.614-.62-3.3.28-3.912 1.93l-.01.025c-.627 1.64-.013 3.443 1.63 4.072 1.093.414 1.934.234 2.946-.166l.824 1.868c-1.4.676-2.73.915-4.578.214zm18.768 3.996l-.654-2.4-4.304-.528-1.208 2.17-2.283-.276 5.606-9.723 2.066.245 3.115 10.784-2.338-.283zm-2.164-7.94L78.7 151.9l2.707.327-.952-3.47zm18.83 7.217l-5.734-5.848.806 6.467-2.214.272-1.268-10.165 2.068-.256 5.548 5.66-.78-6.252 2.2-.28 1.263 10.166-1.9.236zm18.03-5.426c-2.9 1.332-5.836.207-7.103-2.552l-.01-.023c-1.22-2.648-.146-5.767 2.677-7.058 1.675-.77 2.893-.78 4.246-.4l-.575 2.147c-.995-.27-1.793-.32-2.87.17-1.494.684-2.074 2.55-1.347 4.13l.013.026c.784 1.704 2.53 2.42 4.175 1.664.75-.344 1.326-.84 1.677-1.448l-.6-1.334-2.064.95-.8-1.773 4.037-1.86 1.864 4.05c-.6 1.257-1.6 2.525-3.3 3.308zm15.357-9.973l-3.76-1.2-1.394 1.093 2.036 2.575-1.765 1.403-6.36-8.04 3.67-2.908c1.9-1.5 3.828-1.4 5.135.256l.016.02c1.027 1.297.977 2.67.25 3.855l4.232 1.322-2.062 1.633zm-4.156-5.326c-.598-.754-1.438-.726-2.298-.05l-1.753 1.397 1.817 2.302 1.794-1.416c.865-.675.998-1.528.456-2.206l-.016-.028zm11.144-1.483l-7.743-6.712 1.477-1.7 7.735 6.712-1.47 1.7zm6.215-7.923l-8.8-5.248 1.155-1.933 7.04 4.195 2.616-4.38 1.763 1.043-3.774 6.322zm6.697-12.83l-9.694-3.3.726-2.134 7.76 2.65 1.654-4.835 1.933.658-2.378 6.97zM24.03 114.45l6.272-2.34-5.113-1.176-.022-.054 3.065-4.2-6.23 2.322-.774-2.07 9.605-3.584.85 2.282-3.12 4.036 5.007 1.012.85 2.28-9.605 3.584-.784-2.102zm16.065-66.48a.52.52 0 0 0 .01.743l3.982 3.888a.53.53 0 0 1 .008.741l-1.532 1.57a.52.52 0 0 1-.743.009L29.367 42.757a.53.53 0 0 1-.009-.747l1.53-1.564c.202-.2.536-.214.743-.01l5.568 5.44a.53.53 0 0 0 .745-.009l5.963-6.105a.53.53 0 0 0-.006-.744l-5.57-5.44a.53.53 0 0 1-.007-.744l1.53-1.566c.206-.205.54-.2.746-.01l12.45 12.167c.208.2.2.533.01.743l-1.53 1.568c-.203.204-.54.2-.75.007l-3.98-3.888c-.206-.203-.54-.198-.744.01l-5.964 6.105zM53.95 21.877c.26-.132.58-.034.7.225l8.057 15.428c.13.254.035.574-.225.713l-1.94 1a.53.53 0 0 1-.711-.219l-8.057-15.43a.53.53 0 0 1 .227-.712l1.937-1.014zM97.3 33.92c-5.6-.977-8.743-5.895-7.84-11.04s5.608-8.738 11.197-7.756c5.575.98 8.73 5.892 7.826 11.042-.9 5.144-5.6 8.734-11.182 7.753zm2.8-15.865c-3.613-.636-6.647 1.806-7.274 5.363-.622 3.56 1.437 6.94 5.05 7.576s6.632-1.8 7.258-5.364c.62-3.555-1.435-6.943-5.035-7.575zm17.4 22.765c-.15.248-.474.335-.725.182l-1.902-1.132a.53.53 0 0 1-.179-.724l7.375-12.373c.142-.245.068-.568-.184-.722l-4.12-2.457c-.254-.15-.328-.47-.183-.72l.995-1.677c.154-.25.476-.335.73-.186l11.956 7.138c.25.145.335.47.187.72l-1.002 1.678a.53.53 0 0 1-.721.18l-4.125-2.46a.53.53 0 0 0-.724.186L117.5 40.82zm21.97-4.817c.216-.2.555-.162.738.056l1.43 1.66a.53.53 0 0 1-.058.744l-10.954 9.422a.52.52 0 0 0-.064.741l5.645 6.56c.184.22.16.555-.054.747l-1.44 1.235a.54.54 0 0 1-.749-.051l-7.757-9.027a.53.53 0 0 1 .056-.739l13.206-11.348zm16.924 32.705c-.273.103-.57-.034-.678-.305l-3.3-8.8a.52.52 0 0 0-.676-.311l-4.593 1.723c-.268.102-.4.405-.3.68l2.476 6.592a.54.54 0 0 1-.3.68l-1.733.645c-.27.102-.573-.035-.676-.307l-2.473-6.592a.53.53 0 0 0-.676-.312l-2.572.965c-.276.103-.414.407-.3.68l3.34 8.914a.52.52 0 0 1-.307.679l-1.728.65c-.27.103-.575-.04-.676-.3l-4.5-11.95c-.097-.272.042-.578.312-.678l16.294-6.115a.53.53 0 0 1 .682.307l4.443 11.832c.096.27-.045.574-.313.674l-1.727.65zM81.82 20.473c-.746-3.7-4.786-5.532-8.998-4.676l-6.617 1.34a.53.53 0 0 0-.412.619l3.462 17.06c.054.28.334.472.616.412l2.15-.435c.283-.06.47-.34.413-.625l-.972-4.78a.53.53 0 0 1 .414-.621l3.074-.624c3.982-.8 7.7-3.583 6.87-7.672zM71.292 25.9c-.286.06-.562-.126-.62-.4l-1.114-5.482c-.056-.28.13-.566.415-.624l3.174-.644c2.38-.48 4.13.323 4.564 2.47.395 1.937-.836 3.557-3.242 4.048l-3.177.642zm-48.9 33.928c.753-1.745 2.078-2.83 3.7-3.6a.53.53 0 0 0 .243-.708l-.925-1.924c-.13-.256-.444-.368-.7-.24-2.002.946-3.8 2.415-5.035 5.258-2.234 5.132.138 10.45 4.976 12.557l-.096-.043c4.835 2.104 10.342.216 12.57-4.917 1.242-2.84 1.096-5.154.432-7.27a.54.54 0 0 0-.659-.347l-2.046.634a.53.53 0 0 0-.343.66c.532 1.7.64 3.4-.116 5.154-1.418 3.246-5.096 4.434-8.43 2.98-3.343-1.448-4.98-4.95-3.56-8.197zm129.703 26.625c-1.014-.02-1.852.782-1.874 1.795s.783 1.85 1.797 1.872 1.854-.785 1.872-1.795a1.83 1.83 0 0 0-1.795-1.872z"/></g></g><defs><clipPath id="A"><path d="M0 0h175v175H0z" fill="#fff"/></clipPath></defs></svg>