<svg xmlns="http://www.w3.org/2000/svg" width="800" height="400" viewBox="0 0 74 37" fill="none"><path d="M36.6 36L68 28.6L72.2 9.5L36.6 1L1 9.5L5.2 28.6" fill="#fd0"/><path d="M36.6 36.9L4.4 29.3 0 8.9 36.6.1l36.6 8.8-4.4 20.4-32.2 7.6zm-30.7-9l30.7 7.3 30.7-7.3 3.9-17.7-34.6-8.4L2 10.1l3.9 17.8z" fill="#FDBD10"/><g fill="#CF9810"><path d="M28.3 18.4c-.2-3.3-.8-4.9-1.6-6-1.3-1.8-5-2.4-6.5.6-.7 1.3-.9 3.1-.7 5.4.3 2.7 1 4.7 2.3 5.7 1.5 1.3 3.7 1 5-.2 1-1 1.6-2.7 1.5-4.9l-3.4.3c0 .6-.2 1.1-.2 1.3-.1.4-.5.7-.8.1-.1-.3-.3-.9-.4-1.8l4.8-.5zm-4.6-4.3c.5 0 .7 1.2.8 1.8l-1.4.1c0-.9.3-1.8.6-1.9zm34.2-2.9c0 .9.4 1.6 1.4 2 0 .1-.7 1.4-.8 1.7-.2.5.3.9.8.6-.2.1 2.6-2.2 2.8-3.7v-.5C62 9.8 61 9 59.9 9c-1 0-2 .9-2 2.2"/><path d="M37.7 22.5l-.3-8.2c-.1-3.4-2-3.7-2.7-3.6-.8 0-1.5.4-2 1l-1.2-.7-4 .2 1.1 1.8.4 9.6-1 1.9 5.1-.2-.3-8.2c0-1.1.5-.9.6 0l.3 8.1 4.8-.1-.8-1.6zm29.4-4.1l.8-4c-1.6-1.2-2.6-1.6-4-1.6-2.5 0-4.1 1.9-4.1 3.9 0 1.6 1 2.7 1.9 4l.6.9c.3.5-.1.9-.6.8-.4-.1-1.5-.8-2.7-2.4l-.9 4.6c1.4 1.5 3.3 1.7 4.1 1.7 2.6 0 4.4-2.3 4.4-4.4 0-1.4-.6-2.5-1.8-3.8 0 0-.5-.6-.6-.8-.5-.7 0-1.1.4-1s1.4.7 2.5 2.1zM10 10.6l-4.7.8 1.6 1.9 2 11.5-.9 2.4 5.6-1c4-.7 6.1-3.9 5.2-9-.8-5-3.1-7.5-8.8-6.6zm3 11.5l-1.3-7.7h.3c1-.2 1.8.9 2.2 3.6.3 1.7.4 3.9-.9 4.1H13zm39.9-10.4l-.8 1.2.4 5.2 1.1-4.6-.7-1.8 6.1.4-1.3 1.8-5 13.9-5.1-.4 1.6-2 .5-1.9-2-10.4-1.2-2"/><path d="M47.1 22.2l.2-7.5c.1-2.4-.9-3.8-2.5-3.8-.8 0-1.5.3-2.1.9l-.8-.8-4.1-.1 1 1.9-.3 9.6-1 1.8 4.9.2.2-8.2c0-1 .6-.9.6 0l-.2 8.2 5.4.3-1.3-2.5z"/></g><g fill="#fff"><path d="M27.6 17.9c-.2-3.3-.8-4.9-1.6-6.1-1.3-1.8-5-2.4-6.5.6-.7 1.3-.9 3.1-.7 5.4.3 2.7 1 4.7 2.3 5.7 1.5 1.3 3.7 1 5-.2 1-1 1.6-2.7 1.5-4.9l-3.4.3c0 .6-.2 1-.2 1.3-.1.4-.5.7-.8.1-.1-.3-.3-.9-.4-1.8l4.8-.4zM23 14c.5 0 .7.8.8 1.4l-1.2.1c-.1-1 .2-1.5.4-1.5zm34.4-3.5c0 1 .5 1.6 1.3 1.9 0 .1-.6 1.4-.7 1.8-.2.5.3.9.8.6.4-.3 2.5-1.5 2.8-3.7v-.5c0-1.4-1-2.3-2.2-2.3-1 0-2 .9-2 2.2"/><path d="M37 21.9l-.3-8.2c-.1-3.4-2-3.7-2.7-3.6-.8 0-1.5.4-2 1v-.7l-5.1.2 1.1 1.8.4 9.6-1 1.9 5.1-.2-.3-8.2c0-1.1.5-.9.6 0l.3 8.1 4.8-.1-.9-1.6zm29.6-4.2l.8-4c-1.6-1.2-2.6-1.6-4-1.6-2.5 0-4.1 1.9-4.1 3.9 0 1.6.8 2.7 1.8 4l.6.9c.3.5.1.9-.5.8-.4-.1-1.5-.8-2.7-2.4l-.9 4.5c1.4 1.5 3 1.9 4.2 1.9 3.1 0 4.4-2.6 4.4-4.5 0-1.4-.7-2.4-1.8-3.8 0 0-.5-.6-.6-.8-.5-.7 0-1.1.4-1s1.4.7 2.4 2.1zM9.3 10.1l-4.7.8 1.6 1.9 2 11.5-.9 2.3 5.6-1c4.4-.7 6.1-3.8 5.2-9-.8-4.9-3.2-7.4-8.8-6.5zm3 11.5L11 13.9h.3c1-.2 1.8.9 2.2 3.6.3 1.7.4 3.9-.9 4.1h-.3zM52.4 11l-1 1.7.5 4.9 1.2-4.8-.8-1.8 6.5.5-1.6 1.8-5 13.9-5.2-.5 1.7-2 .4-1.9-2-10.4-1.2-2"/><path d="M46.5 22.3l.2-8.2c.1-2.4-.9-3.8-2.5-3.8-.8 0-1.5.3-2.1.9v-.7l-5.1-.2 1 1.9-.3 9.6-.8 1.8 4.8.2.2-8.2c0-1 .6-.9.6 0l-.2 8.2 5.1.3-.9-1.8z"/></g><path d="M23.8 24c-2.5.2-4.2-2-4.5-6.2-.4-4.2.9-6.8 3.3-7 2.7-.2 4.2 1.7 4.6 5.8 0 .3.1.6.1.9l-5 .5v.5c.2 1.7.6 2.5 1.3 2.5.5 0 .9-.8.9-1.8l2.6-.2c.1 2.9-1.2 4.8-3.3 5zm.5-8.2c-.1-1.5-.6-2.3-1.3-2.2-.6.1-1 .9-.8 2.4l2.1-.2zm34.2-1.4c-.1.1-.2.1 0 0 .2-.7.8-2.2.8-2.2-.1 0-.3-.1-.5-.2-1-.4-1-1.6-1-1.8.1-.8.8-1.7 1.9-1.5 1 .1 1.6 1 1.5 2.3-.4 2-1.7 2.7-2.7 3.4zm2.7 7.7c.6.1 1-.2 1.1-.7.1-.4-.4-1.1-.9-1.7-1.2-1.6-1.9-2.8-1.6-4.4.4-2 2.3-3.2 4.5-2.8.9.2 1.7.6 2.6 1.3l-.6 2.9c-.7-.8-1.5-1.5-2.1-1.6-.9-.2-1.5.7-.8 1.6.2.3.4.5.7.8 1.3 1.6 2 2.6 1.6 4.4-.5 2.4-2.5 3.6-5 3.1-1-.2-1.8-.7-2.7-1.5l.7-3.4c1 1.2 1.9 1.9 2.5 2zm-24 1.1l-.6-1.2-.3-8.3c-.1-2.2-.9-3.3-2.3-3.2-1.1 0-1.8.7-2.4 2.2l-.1-1.9-3.9.2.8 1.3.4 9.8-.7 1.4 3.9-.2-.3-7.7c0-.8.3-1.2.7-1.3.4 0 .7.3.7 1.1l.3 7.8h3.8zM9.3 10.5l-3.9.7 1.2 1.4 2 11.8-.6 1.8 4.8-.8c4.2-.7 5.7-3.6 4.9-8.5-.7-4.5-2.6-7.3-8.4-6.4zm3.4 11.4c-.1 0-.2 0-.7.1l-1.4-8.5c.5-.1.7-.1.7-.1 1.4-.2 2.3 1.3 2.7 3.9.3 2.7.1 4.4-1.3 4.6zm45.2-10l-5-.4.6 1.3-1.8 7.2-.8-7.4.8-1.3-5-.4.8 1.4 2.1 10.5-.6 2.1-1.2 1.5 4.1.3 4.9-13.6 1.1-1.2zM46.8 23.6l-.7-1.2.2-8.3c.1-2.2-.7-3.3-2.1-3.4-1.1 0-1.9.6-2.5 2l.1-1.9-3.9-.1.7 1.4-.3 9.8-.6 1.3 3.7.1.2-7.7c0-.8.4-1.2.8-1.2s.7.4.6 1.2l-.2 7.8 4 .2z" fill="#EC1C24"/><g fill="#B01117"><path d="M23.9 14.3c.2.4.3.9.3 1.5l-1.2.1v.8l2.1-.2c-.1-1.5-.5-2.2-1.2-2.2zm-.2 6.6c-.1 0-.1 0 0 0 .1.5.5.7.8.7.5 0 .9-.8.9-1.8l1.7-.2v-.8l-2.6.2c0 1.1-.3 1.9-.8 1.9m-3.6-2.4c-.4-4.2.9-6.8 3.3-7 .8-.1 1.6.1 2.2.4-.8-.9-1.8-1.2-3-1.1-2.5.2-3.7 2.8-3.3 7 .3 3 1.2 4.9 2.6 5.7-1-1-1.6-2.7-1.8-5zm38.3-7.4c.1-.8.8-1.7 1.9-1.5.3 0 .6.2.8.3-.2-.7-.7-1.1-1.4-1.2-1-.2-1.7.7-1.9 1.5 0 .2 0 1.2.6 1.6v-.7zm1.7 2.1c-.1 0-.9-.4-1-.4l-.7 1.7s0 .1.1 0l1.6-1.3zm1 6.1c-.6-1-.9-1.9-.7-3 .4-2 2.3-3.2 4.5-2.8.6.1 1.3.4 1.9.8l.1-.4c-.9-.7-1.8-1.1-2.6-1.3-2.2-.5-4.1.7-4.5 2.8-.2 1.4.3 2.5 1.3 3.9zm-1.7 1.9c.8 1 1.8 1.7 2.4 1.9.6.1 1-.2 1.1-.7.1-.4-.3-.9-.7-1.5.1.2.1.4.1.6-.1.5-.6.8-1.1.7-.6-.1-1.5-.9-2.4-1.9l-.7 3.4c.2.2.4.4.7.6l.6-3.1zm-27.1-9.6l.1 1.8c.6-1.4 1.3-2.1 2.4-2.2.3 0 .6 0 .9.2-.4-.6-1-.9-1.7-.9-.8 0-1.4.4-1.8 1.1h.1zm-2.7 11.2l-.4-9.8-.8-1.3 3.2-.1-.1-.8-3.9.2.8 1.3.4 9.8-.7 1.4 1.2-.1.3-.6zm4.6.4l-.3-7c0-.8-.3-1.1-.7-1.1h-.1v.4l.3 7.8.8-.1zm8.4-11.6l-.1 1.9c.7-1.4 1.4-2 2.5-2 .3 0 .6.1.9.2-.4-.7-.9-1-1.7-1a2.32 2.32 0 0 0-1.9.9h.3zM39 22.7l.3-9.8-.7-1.4 3.2.1v-.8l-3.9-.1.7 1.4-.3 9.8-.6 1.3h1l.3-.5zm4.6.7l.2-7c0-.8-.2-1.2-.6-1.2h-.1v.4l-.2 7.8h.7zM14.8 18c-.4-2.2-1-3.6-2-3.9.5.7.9 1.8 1.1 3.3.4 2.6.2 4.3-1.2 4.6l.1.8c.5-.1.7-.1.7-.1 1.5-.4 1.7-2.1 1.3-4.7z"/><path d="M9.5 25.1l-2-11.8-1.2-1.4 3.9-.7c2.3-.4 4-.2 5.2.5-1.3-1.2-3.2-1.6-6.1-1.1l-3.9.7 1.2 1.4 2 11.8-.6 1.7 1.2-.2.3-.9zM52.2 18l.2 2.9 1.8-7.3-.5-1.3 3.6.3.6-.7-5-.4.6 1.3-1.3 5.2zm-4.4 8.4l1.3.1.7-.8.5-2.1-2-10.5-.9-1.4 3.9.4.4-.8-5-.4.8 1.4 2.1 10.5-.6 2.1"/></g><path d="M56.5 27.3c.5 0 1-.4 1-1 0-.5-.4-1-1-1-.5 0-1 .4-1 1a.94.94 0 0 0 1 1zm0-1.7a.68.68 0 0 1 .7.7.68.68 0 1 1-1.4 0c-.1-.4.3-.7.7-.7zm-.2.8h.2l.2.4h.3l-.3-.4c.2 0 .3-.1.3-.3 0-.1 0-.2-.1-.3-.1 0-.2-.1-.3-.1H56v1.1h.2v-.4h.1zm0-.2V26h.2c.1 0 .2 0 .2.1s0 .1-.2.1h-.2z" fill-rule="evenodd" fill="#EC1C24"/></svg>