<svg xmlns="http://www.w3.org/2000/svg" preserveAspectRatio="xMinYMin meet" viewBox="0 0 99.188 99.188" width="800" height="800"><g transform="matrix(.509117 -.509117 .509117 .509117 -1.190315 49.721375)"><rect width="100" height="48.5" rx="4" fill="#de2939" x="0" y="0"/><g fill="#fff"><circle cx="15.5" cy="15.5" r="8"/><circle cx="33" cy="33.25" r="8"/><circle cx="76" cy="24.25" r="8"/><path d="M50 0h3v48.5h-3z"/></g><rect y="51" width="100" height="48.5" rx="4" fill="#007bad" x="0"/><path d="M5 73V55.5h6c7.5 1 7.5 16 0 17.5zm4.5-13.5v9c3.5-.5 3.5-8.5 0-9m13.75.75c7 0 7 12.75 0 12.75s-7-12.75 0-12.75zm0 3.25c1.75 0 1.75 6.25 0 6.25s-1.75-6.25 0-6.25zM30 61h4.5v1.5a3.5 3.5 0 0 1 6 0 3.5 3.5 0 0 1 6 0V73h-4.25v-7.5a1 1.5 0 0 0-1.75 0V73H36v-7.5a1 1.5 0 0 0-1.75 0V73H30zm18.5 0H53v12h-4.5zm2.25-7a2.6 2.6 0 1 0 .01 0M55 61h4.25v2a3.15 3.15 0 0 1 6 1v9H61v-7.5a1 1.5 0 0 0-1.75 0V73H55zm17.25-.75c7 0 7 12.75 0 12.75s-7-12.75 0-12.75zm0 3.25c1.75 0 1.75 6.25 0 6.25s-1.75-6.25 0-6.25zm8.25-8H85l-3 7.75h-3.25zm10 8.5c-4.5-2-4 1-1 1.5C93 67 93 73 87.5 73q-2.5-.25-4.25-1.5l1.5-2.5C89 71 89 68 85 67c-4-2-1-10 7-6zM10 95H5V77h5a6 6 0 1 1 0 12zm0-14.5a2.613 2.375 0 1 1 0 4.75zm7.75 2h4.5V95h-4.5zM20 76.2a2.6 2.6 0 1 0 .01 0m4 6.3h9.5l-4 8.75h3.75V95H23.5l4-9H24zm11.25 0h9.5l-4 8.75h3.75V95h-10l4.25-9H35zm17 10.5a4 6.3 0 1 1 0-9v-1.5H57V95h-4.75zm0-3a1 2.5 0 1 1 0-3z" fill="#fff" fill-rule="evenodd"/></g></svg>