<svg xmlns="http://www.w3.org/2000/svg" width="800" height="300" viewBox="0 0 800 300"><g transform="matrix(1.359064 0 0 1.359064 -94.704872 -25.000822)"><rect width="122.228" height="166.17" ry="25.066" x="78.287" y="61.404" fill="#cf2082"/><g fill="#fff"><g fill-rule="evenodd"><path d="M144.313 74.75c-5.854.284-11.5 1.246-16.906 2.03-.126.026-.25.057-.375.094-10.146 2.434-12.3 4.432-15.28 5.875l-.094.063c-16.247 8.5-27.21 19-35.156 30.375-.066.09-.13.185-.187.28-1.918 3.238-2.152 6.786-1.75 9.656s1.276 5.27 1.78 7.28c.08.314.196.618.344.906l11.875 23.22c.584 2.125 1.655 4.05 3.22 5.188 1.9 1.388 3.826 1.707 5.25 1.938.803.21 1.487.31 1.97.313.145.26.313.506.625 1.5a4.35 4.35 0 0 0 .313.719l37.375 70.47c.813 1.55 2.475 2.46 4.22 2.313 7.643-.676 15.592-1.576 24.156-3.656a4.35 4.35 0 0 0 .594-.187c7.645-3.074 18.375-5.4 26.03-19.875.067-.127.152-.215.22-.344l-.03-.03c1.812-3.098 1.547-6.242 1.5-7.906-.056-7.88-1.79-15.26-3.094-22.375-.04-.19-.092-.38-.156-.562l-3.875-11.844-.03-.125-1.97-10.22-.03-.25-2.25-17.187c-.02-.168-.053-.335-.094-.5-1.02-3.99-1.894-8.66-3.375-13.187 1.966-2.045 3.712-3.892 4.47-7.03.484-2.008-.28-4.808-1.75-6.344-.952-.994-2.07-1.635-3.25-2.22l-5.437-18.594h.03c-1.208-5.3-2.72-12.8-10.094-17.187-.25-.14-.5-.255-.78-.344-6.042-2.104-12.146-2.534-18-2.25zm5.625 14.75c.32.036.773-.013 1.063.03l-.406.22c-.215-.108-.437-.157-.656-.25zm-9.22.156c-1.307.53-2.42 1-3.312 1.406L135 90.78a51.14 51.14 0 0 1 5.719-1.125zm-10.53 2.656l-.375.406-.562-.062c.312-.122.623-.228.938-.344zm28.938 8.53c3.2 7.612 5.984 15.012 7 21.656-.53.165-1.04.364-2.125.53-2.52-.103-5.015.418-6.594 2.063-1.34 1.394-1.712 2.596-1.937 3.5-3.708 4.003-8.39 7.2-15.47 9.125-2.71.108-5.037.568-6.906 1.563-1.68.893-2.79 2.106-3.656 3.22-2.912 2.252-9.138 4.153-26.78 2.156-3.263-5.61-5.348-11.345-7.25-17.22 32.612-5.374 48.714-16.234 63.72-26.594zM165.313 142c3.596 10.93 5.682 21.98 7.688 33.28v.03c1.094 6.012 2.165 11.694 1.97 17a4.35 4.35 0 0 0 0 .438l.75 11.375c.026.33.088.654.188.97l.78 2.594c-3.776 2.234-7.43 4.79-10.844 7.906-.01.01-.02.02-.03.03-4.93 3.172-9.06 3.83-14.187 4.906-1.126.2-1.688.108-3.062-.906s-3.28-3.224-5.28-7.156v-.03l-15.906-30.812a4.07 4.07 0 0 0-.031 0l-10.406-20c.635-.06 1.16-.206 1.97-.156.43.022.863-.02 1.28-.125 2.277-.53 5.366-.658 8.72-1.22 3.145-.526 6.743-1.62 9.594-4.406l.03.03c2.897-2.247 4.883-3.677 7.75-3.875.542-.037 1.072-.174 1.563-.406 7-3.317 12.6-6.437 17.47-9.47z" stroke="#fff" stroke-linejoin="round"/><path d="M114.464 160.536L145.357 220l7.5 2.32 7.857-2.5 6.607-3.57 7.857-5.357 3.214-2.68-2.5-22.143c0-1.07-4.286-25.18-4.286-26.607s-5.357-19.643-5.357-19.643l-18.57 10-8.57 3.036-6.07 4.82-18.57 2.857z"/></g></g><g fill="#cf2082"><path d="M212.46 215.363v-51.645c0-1.627.286-3.182.857-4.667a11.74 11.74 0 0 1 2.472-3.923c1.142-1.2 2.402-2.103 3.78-2.704s2.906-.9 4.585-.9l15.93-.107c5.644.072 10.75.743 15.32 2.015s8.57 3.18 11.996 5.727 6.266 5.604 8.517 9.173 3.914 7.652 4.99 12.248l.4 2.387a31.23 31.23 0 0 1 .303 2.387 18.16 18.16 0 0 1 .252 2.385c.033.813.05 1.608.05 2.385-.066 5.443-1.023 10.428-2.872 14.953s-4.553 8.555-8.114 12.09c-3.562 3.605-7.612 6.274-12.148 8.007s-9.593 2.6-15.17 2.6h-19.556c-1.614 0-3.093-.282-4.438-.848s-2.588-1.45-3.73-2.65-2-2.528-2.57-3.978-.857-3.058-.857-4.825v-.107zm23.287-8.696h5.543c2.62.07 5-.3 7.106-1.113s3.982-1.998 5.596-3.554c1.612-1.624 2.82-3.41 3.628-5.354s1.2-4.12 1.21-6.523a11.26 11.26 0 0 1-.152-1.058c-.034-.354-.05-.708-.05-1.062-.068-.354-.118-.707-.152-1.06a12.03 12.03 0 0 0-.149-1.058c-.404-1.91-1.093-3.66-2.067-5.25s-2.234-2.988-3.78-4.2c-1.612-1.202-3.426-2.12-5.442-2.757s-4.234-.955-6.654-.955l-4.636-.103v34.04zm56.982 4.773c-1.01-1.415-1.917-2.918-2.722-4.508a32.71 32.71 0 0 1-2.015-4.932 35.91 35.91 0 0 1-1.26-4.982 52.99 52.99 0 0 1-.657-5.092 1.08 1.08 0 0 1-.102-.476v-3.447c0-.07.017-.16.05-.265s.05-.194.05-.266c.068-.848.152-1.696.252-2.544s.218-1.697.354-2.547c.133-.777.318-1.6.554-2.44s.488-1.697.757-2.545a34.98 34.98 0 0 1 2.015-4.824c.806-1.59 1.713-3.165 2.722-4.72a37.26 37.26 0 0 1 6.099-7.21c2.318-2.12 4.89-3.96 7.71-5.515s5.728-2.722 8.72-3.5 6.1-1.167 9.326-1.167c3.158 0 6.25.39 9.273 1.167s5.947 1.945 8.77 3.5 5.375 3.394 7.66 5.515a41.48 41.48 0 0 1 6.149 7.21c1.01 1.556 1.9 3.13 2.672 4.72s1.428 3.2 1.967 4.824a51.02 51.02 0 0 1 1.36 4.932 28.11 28.11 0 0 1 .655 4.932v.264a.87.87 0 0 0 .102.37v1.9c0 1.9-.15 3.783-.454 5.62s-.722 3.677-1.26 5.515a52.61 52.61 0 0 1-2.118 5.408c-.807 1.767-1.782 3.5-2.924 5.194-1.815 2.757-3.865 5.197-6.15 7.32a35.45 35.45 0 0 1-7.66 5.41c-2.822 1.556-5.745 2.687-8.77 3.393s-6.115 1.06-9.273 1.06c-3.226 0-6.335-.354-9.326-1.06s-5.898-1.838-8.72-3.393c-2.822-1.485-5.392-3.288-7.71-5.4s-4.35-4.562-6.1-7.32v-.104zm16.33-21.845c0 2.686.387 5.125 1.16 7.316s1.9 4.1 3.378 5.727c1.544 1.696 3.224 2.95 5.04 3.764s3.764 1.22 5.848 1.22h.755a2.96 2.96 0 0 0 .755-.107c.27 0 .52-.017.757-.052a6.76 6.76 0 0 0 .757-.159 13.34 13.34 0 0 0 4.99-2.068c1.51-1.025 2.872-2.315 4.082-3.87 1.2-1.627 2.117-3.412 2.723-5.356s.907-4.012.907-6.204v-.848c-.068-.143-.102-.284-.102-.426v-.422c0-.283-.017-.566-.05-.848a7.6 7.6 0 0 0-.152-.851c-.336-2.2-.958-4.17-1.864-5.937s-2.065-3.323-3.476-4.665c-1.48-1.344-3.04-2.352-4.688-3.024s-3.41-1.008-5.29-1.008c-2.15 0-4.135.425-5.95 1.273s-3.495 2.122-5.04 3.817a18.08 18.08 0 0 0-3.378 5.728c-.773 2.12-1.16 4.49-1.16 7.104v-.104zm62.663 35.205c-.537-.565-1.024-1.22-1.46-1.96a17.17 17.17 0 0 1-1.16-2.385c-.27-.848-.487-1.696-.655-2.545s-.252-1.733-.252-2.652v-52.28c0-1.273.15-2.492.454-3.66a11.71 11.71 0 0 1 1.463-3.342 12.19 12.19 0 0 1 2.369-2.599c.906-.742 1.898-1.36 2.975-1.854.133-.07.284-.142.452-.212a11.65 11.65 0 0 1 .554-.212 3.91 3.91 0 0 1 .606-.16 3.78 3.78 0 0 0 .603-.16h.203c.068 0 .168-.034.3-.104h.808c.067 0 .168-.035.303-.107h.504c.874 0 1.73.124 2.57.37s1.663.62 2.47 1.115 1.612 1.094 2.42 1.8 1.613 1.555 2.42 2.545l25.604 31.496v-24.92c0-.707.084-1.468.252-2.28s.387-1.573.655-2.28c.336-.78.723-1.504 1.16-2.175s.924-1.29 1.46-1.855 1.142-1.08 1.813-1.54 1.344-.83 2.017-1.113c.738-.352 1.477-.6 2.216-.74a11.72 11.72 0 0 1 2.22-.213 11.05 11.05 0 0 1 1.058.053 15.18 15.18 0 0 1 1.16.16c.336.07.69.177 1.058.32l1.058.423c.738.283 1.4.654 2.015 1.113s1.176.973 1.713 1.54 1.024 1.184 1.46 1.855a9.88 9.88 0 0 1 1.058 2.175c.336.706.572 1.465.706 2.28a14.67 14.67 0 0 1 .201 2.388v54.403c-.066.07-.1.12-.098.157v.37c-.068.07-.102.124-.102.16v.795c-.27 1.484-.722 2.8-1.36 3.978s-1.53 2.175-2.672 3.023c-1.075.92-2.25 1.573-3.527 1.96a13.44 13.44 0 0 1-3.933.582h-.505c-.133-.07-.234-.103-.3-.103h-.704c-.135-.07-.236-.107-.303-.107h-.2c-.336-.072-.673-.16-1.01-.266a11.01 11.01 0 0 0-1.006-.266c-.336-.07-.673-.177-1.01-.32s-.673-.318-1.01-.53a5.39 5.39 0 0 1-.806-.531l-.806-.638a4.49 4.49 0 0 1-.706-.688c-.202-.247-.404-.512-.605-.794l-26.4-33.83v25.874c0 .92-.067 1.768-.2 2.545s-.37 1.555-.706 2.332c-.27.708-.62 1.415-1.058 2.122s-.924 1.344-1.46 1.91a11.53 11.53 0 0 1-1.715 1.484c-.604.424-1.276.777-2.016 1.06-.336.07-.69.16-1.058.266s-.722.194-1.058.266c-.404.07-.79.124-1.16.158s-.722.052-1.058.052a11.79 11.79 0 0 1-2.216-.212 25.43 25.43 0 0 1-2.22-.529c-.67-.354-1.342-.76-2.015-1.22a9.04 9.04 0 0 1-1.815-1.644v-.107zm89.35-.634c-3.662-1.91-6.737-4.384-9.224-7.424-2.486-2.97-4.35-6.38-5.594-10.233s-1.866-8.148-1.866-12.884v-30.648c0-.707.067-1.468.2-2.28s.336-1.608.604-2.385c.336-.777.706-1.5 1.11-2.173s.874-1.29 1.414-1.856a9.08 9.08 0 0 1 1.813-1.644c.672-.46 1.378-.83 2.118-1.113.738-.354 1.477-.6 2.216-.743s1.512-.212 2.318-.212h.3c0 0 .017 0 .05 0h.454c.068.07.118.107.152.107h.152a15.79 15.79 0 0 1 1.812.317c.605.143 1.2.39 1.815.74.605.283 1.176.62 1.713 1.008a11.09 11.09 0 0 1 1.514 1.325c.537.565 1.04 1.184 1.512 1.856a8.77 8.77 0 0 1 1.109 2.173c.336.78.572 1.575.706 2.388a14.63 14.63 0 0 1 .202 2.385v31.39c0 1.838.218 3.5.655 4.985a13.06 13.06 0 0 0 1.966 4.031c2.948 3.38 8.36 3.652 11.674 0 .94-1.202 1.63-2.545 2.067-4.03s.655-3.112.655-4.88v-31.603c0-.706.084-1.465.252-2.28s.387-1.61.655-2.388a14.69 14.69 0 0 1 1.16-2.173 12.83 12.83 0 0 1 1.461-1.856 12.5 12.5 0 0 1 1.764-1.537c.64-.46 1.294-.83 1.964-1.113.74-.282 1.463-.494 2.17-.636s1.427-.212 2.166-.212a12.6 12.6 0 0 1 2.269.212 7.55 7.55 0 0 1 2.167.743 8.06 8.06 0 0 1 2.066 1.167c.64.495 1.227 1.025 1.764 1.59a12.89 12.89 0 0 1 1.461 1.856c.437.672.79 1.396 1.058 2.173a10.15 10.15 0 0 1 .706 2.385c.134.813.2 1.6.2 2.388v30.434c0 4.807-.62 9.137-1.864 13s-3.14 7.265-5.694 10.233c-2.488 3.04-5.562 5.497-9.224 7.37-11.764 5.145-17.59 5.986-30.123.053zm53.05-62.357c.133-1.342.435-2.632.906-3.87s1.177-2.35 2.118-3.342 2-1.75 3.176-2.28 2.436-.794 3.78-.794l39.413-.107c1.345.072 2.606.372 3.78.9s2.267 1.325 3.276 2.387c.94 1.06 1.664 2.208 2.167 3.445s.755 2.598.755 4.083v.107c-.068 1.485-.353 2.845-.857 4.082a10.63 10.63 0 0 1-2.167 3.342c-1.007.99-2.082 1.732-3.224 2.226s-2.386.74-3.732.74l-8.466-.103v44.008c0 1.698-.286 3.236-.857 4.615s-1.428 2.67-2.57 3.87c-1.077 1.13-2.304 1.98-3.68 2.544s-2.84.848-4.385.848c-1.612 0-3.107-.283-4.485-.848s-2.638-1.413-3.78-2.544c-1.075-1.202-1.898-2.5-2.47-3.924s-.857-2.97-.857-4.665v-44.118H524c-1.41.07-2.688-.14-3.83-.636s-2.184-1.272-3.125-2.332c-.94-1-1.63-2.104-2.067-3.34s-.655-2.598-.655-4.083v-.107l-.2-.107zm68.796 62.357c-.203-.07-.405-.16-.606-.265l-.505-.266c-.2-.14-.385-.28-.554-.424s-.32-.284-.452-.424c-.874-.636-1.596-1.273-2.167-1.9s-1.025-1.308-1.36-2.016c-.336-.634-.59-1.376-.757-2.225s-.252-1.733-.252-2.652v-.74c0-.565.05-1.113.15-1.644s.218-1.043.354-1.537a8.08 8.08 0 0 1 .503-1.38c.202-.424.437-.847.706-1.27.537-.78 1.058-1.47 1.563-2.07s1.06-1.078 1.664-1.432c.537-.354 1.142-.6 1.813-.743s1.4-.212 2.216-.212h.806c.135.07.27.107.405.107h.404c.27.07.554.125.857.16a11.23 11.23 0 0 1 .955.157l4.436 1.168 4.033 1.058 2.922.744 1.1.317c.133.142.284.23.452.265s.32.052.455.052h.403c.066.07.132.107.2.107h.203a9.53 9.53 0 0 0 1.058.16 10.16 10.16 0 0 0 .957.053c.336.07.622.107.857.107h.755a5.08 5.08 0 0 0 .757-.054 7.12 7.12 0 0 0 .757-.16 3.48 3.48 0 0 0 .604-.053c.202-.036.404-.09.604-.16.135-.07.287-.12.454-.157s.285-.09.352-.16h.203c.068 0 .134-.036.2-.107 0 0 .034-.017.1-.052a.77.77 0 0 0 .203-.158h.15c.034 0 .085-.036.152-.107 0 0 .017-.018.05-.054s.083-.053.15-.053a.82.82 0 0 1 .203-.157.8.8 0 0 0 .203-.16l.4-.426c.134-.14.235-.282.303-.422s.118-.3.15-.477.05-.37.05-.584a2 2 0 0 1-.149-.476 1.98 1.98 0 0 0-.152-.479c-.068-.07-.118-.14-.15-.21s-.083-.142-.15-.213c-.068 0-.135-.035-.2-.105l-.2-.212h-.05c-.034 0-.085-.036-.152-.107h-.2c-.068 0-.135-.018-.203-.054s-.134-.088-.2-.157l-1.916-.744-1.31-.424-5.343-1.38-1.006-.2-6.654-2.016c-1.075-.212-2.05-.476-2.923-.795a27.24 27.24 0 0 1-2.421-1.008 63.34 63.34 0 0 1-2.116-1.061 22.14 22.14 0 0 1-1.815-1.058 17.4 17.4 0 0 1-3.679-3.181c-1.042-1.2-1.932-2.546-2.67-4.033a21.03 21.03 0 0 1-1.663-4.612 21.68 21.68 0 0 1-.555-4.932v-1.006a3.89 3.89 0 0 1 .102-.903c0-.352.033-.705.1-1.058l.2-1.062c.135-1 .37-1.98.706-2.97a27.24 27.24 0 0 1 1.21-2.969 23.59 23.59 0 0 1 1.612-2.864 36.22 36.22 0 0 1 2.015-2.757c1.077-1.2 2.304-2.333 3.68-3.393s2.906-2.014 4.585-2.862c1.747-.848 3.596-1.572 5.545-2.173s4.032-1.043 6.25-1.325h.354c.1 0 .218-.035.354-.107h.957c.1 0 .218-.036.354-.107h1.057c.1 0 .186-.036.254-.107h2.015a35.42 35.42 0 0 1 2.772.107 32.36 32.36 0 0 1 2.67.32c.94.07 1.832.2 2.672.422s1.697.46 2.57.743c1.95.636 3.648 1.3 5.093 1.96s2.604 1.396 3.478 2.175c.94.708 1.71 1.52 2.316 2.44s1.042 1.908 1.3 2.968c.135.283.22.583.254.9s.084.654.15 1.008v.476a1.1 1.1 0 0 0 .102.479v.848c0 .494-.033 1.007-.1 1.537a11 11 0 0 1-.303 1.537 8.33 8.33 0 0 1-.504 1.38 6.6 6.6 0 0 1-.704 1.167c-.472.777-1 1.448-1.614 2.013s-1.208 1.025-1.813 1.38a7.37 7.37 0 0 1-2.016.796c-.74.177-1.546.266-2.42.265-.47 0-.94-.018-1.4-.053s-.975-.09-1.512-.16c-.472-.14-.993-.263-1.564-.37s-1.16-.265-1.764-.48l-.806-.424-2.922-.955-4.033-1.058-1.412-.32-1.006-.2c-.068.07-.118.103-.152.103h-.352c-.068 0-.102-.034-.102-.103h-1.5c-.404 0-.757.017-1.06.052s-.554.087-.755.158c-.27.07-.504.16-.706.266s-.37.23-.503.372-.253.3-.354.476-.22.337-.354.48c-.068.14-.118.28-.15.423s-.05.283-.05.425a1.26 1.26 0 0 0 .049.37 2.67 2.67 0 0 0 .151.371l.202.213.2.21c.135.07.253.142.354.213s.218.142.354.21a1.87 1.87 0 0 0 .401.16c.134.036.303.09.506.16l4.937 1.272 3.024.74.806.213 5.848 1.696a30.57 30.57 0 0 0 2.519.901c.806.247 1.545.548 2.218.9a32.59 32.59 0 0 0 1.058.425l1.058.423a6.83 6.83 0 0 0 1.009.532c.336.14.64.282.908.422 1.813.99 3.408 2.157 4.787 3.5a19.61 19.61 0 0 1 3.479 4.562c.94 1.696 1.66 3.427 2.166 5.194s.757 3.605.757 5.515v.955c-.068.212-.102.406-.102.583v.48c-.068.282-.118.583-.15.9a9.77 9.77 0 0 0-.049 1.008c-.203.988-.472 1.977-.808 2.968s-.705 1.98-1.11 2.97a77.37 77.37 0 0 1-1.512 2.809c-.538.954-1.177 1.855-1.915 2.705-1.41 1.767-3 3.304-4.737 4.612s-3.697 2.456-5.848 3.447c-2.084.92-4.368 1.59-6.854 2.014s-5.207.636-8.164.636h-1.01c-.2-.07-.386-.107-.554-.107h-1.664c-.2-.07-.386-.103-.554-.103h-.554c-2.22-.143-4.235-.32-6.05-.532s-3.46-.53-4.94-.953c-1.48-.354-2.772-.76-3.88-1.22s-2.066-.936-2.872-1.43v-.107z" font-size="103.392" font-family="Debussy"/><text x="632.372" y="169.745" xml:space="preserve" writing-mode="lr-tb" font-size="27.54" font-family="BellGothic BT"><tspan x="632.372" y="169.745">®</tspan></text></g><path d="M210.32 128.953V77.308c0-1.627.286-3.182.857-4.667a11.74 11.74 0 0 1 2.472-3.922c1.142-1.202 2.402-2.103 3.78-2.704s2.906-.9 4.585-.9l15.93-.107c5.644.07 10.75.743 15.32 2.015s8.57 3.18 11.996 5.727 6.266 5.604 8.517 9.173 3.914 7.652 4.99 12.248l.4 2.387c.134.812.235 1.608.303 2.387.135.777.22 1.572.252 2.385a59.46 59.46 0 0 1 .049 2.385c-.066 5.444-1.023 10.428-2.872 14.953s-4.553 8.555-8.114 12.09c-3.562 3.605-7.612 6.274-12.148 8.007s-9.593 2.6-15.17 2.6h-19.556c-1.614 0-3.093-.283-4.438-.848s-2.588-1.45-3.73-2.65-2-2.528-2.57-3.977-.857-3.058-.857-4.825v-.107zm23.287-8.696h5.543c2.62.07 5-.3 7.106-1.113s3.982-1.998 5.596-3.553c1.612-1.625 2.82-3.41 3.628-5.354s1.2-4.12 1.21-6.523c-.068-.352-.118-.704-.152-1.058a11.11 11.11 0 0 1-.051-1.062c-.068-.354-.118-.708-.152-1.062s-.084-.707-.15-1.058c-.404-1.91-1.093-3.66-2.067-5.25s-2.234-2.988-3.78-4.19c-1.612-1.202-3.426-2.12-5.442-2.757s-4.234-.955-6.654-.955l-4.636-.104v34.04zm134.5 18.133a10.73 10.73 0 0 1-1.461-1.961c-.437-.742-.823-1.537-1.16-2.385a23.61 23.61 0 0 1-.655-2.545c-.168-.85-.252-1.733-.252-2.652v-52.28c0-1.273.15-2.492.454-3.66a11.71 11.71 0 0 1 1.463-3.342 12.19 12.19 0 0 1 2.369-2.599c.906-.742 1.898-1.36 2.975-1.854.133-.07.284-.142.452-.212s.353-.14.554-.212.405-.125.606-.16a3.76 3.76 0 0 0 .603-.16h.203c.068 0 .168-.034.3-.104h.808c.067 0 .168-.036.303-.107h.505c.874 0 1.73.124 2.57.37s1.663.62 2.47 1.115 1.612 1.094 2.42 1.8S385.245 69 386.05 70l25.604 31.496v-24.92c0-.708.084-1.468.252-2.282s.387-1.573.655-2.278c.336-.78.723-1.504 1.16-2.175s.924-1.29 1.46-1.854a11.19 11.19 0 0 1 1.813-1.54c.672-.46 1.344-.83 2.016-1.113.738-.352 1.477-.6 2.216-.74a11.72 11.72 0 0 1 2.22-.214 11.09 11.09 0 0 1 1.058.053c.37.036.756.09 1.16.16.336.07.69.178 1.058.32l1.058.422a8.1 8.1 0 0 1 2.015 1.113 14.15 14.15 0 0 1 1.713 1.54c.537.565 1.024 1.183 1.46 1.854s.8 1.396 1.058 2.175a8.48 8.48 0 0 1 .706 2.278c.134.813.2 1.6.202 2.388v54.403c-.066.07-.1.12-.098.157v.37c-.068.07-.102.125-.102.16v.795c-.27 1.484-.722 2.8-1.36 3.977s-1.53 2.175-2.672 3.023c-1.075.92-2.25 1.573-3.527 1.96a13.44 13.44 0 0 1-3.933.583c-.068 0-.152 0-.252 0a1050.33 1050.33 0 0 0-.252 0c-.133-.07-.234-.104-.3-.104h-.704c-.135-.07-.236-.107-.303-.107h-.202a10.86 10.86 0 0 1-1.009-.265c-.336-.106-.672-.194-1.006-.265a5.59 5.59 0 0 1-1.009-.319 6.97 6.97 0 0 1-1.009-.529c-.27-.142-.537-.32-.806-.53l-.806-.638c-.27-.21-.504-.44-.706-.688a14.79 14.79 0 0 1-.604-.795l-26.4-33.83v25.874c0 .92-.067 1.768-.202 2.545s-.37 1.555-.706 2.332c-.27.708-.62 1.415-1.058 2.12s-.924 1.344-1.46 1.91-1.11 1.06-1.715 1.484a9.21 9.21 0 0 1-2.017 1.06c-.336.07-.69.16-1.058.265a15.55 15.55 0 0 1-1.058.265c-.404.07-.79.124-1.16.16a11.38 11.38 0 0 1-1.058.052 11.78 11.78 0 0 1-2.216-.212c-.74-.14-1.48-.318-2.22-.53a20.7 20.7 0 0 1-2.015-1.22c-.673-.46-1.278-1.008-1.815-1.644v-.107zm81.142.32c-.537-.496-1.007-1.098-1.4-1.804a22.67 22.67 0 0 1-1.109-2.225 20.34 20.34 0 0 1-.655-2.335 11.51 11.51 0 0 1-.252-2.439V76.246c0-1.553.286-3.055.857-4.505s1.428-2.776 2.57-3.977 2.403-2.085 3.78-2.65 2.907-.848 4.587-.848c1.614.07 3.1.404 4.487 1.005s2.603 1.503 3.678 2.707c1.142 1.202 1.983 2.527 2.52 3.976s.807 2.987.808 4.613v15.06l20.463-23.33a13.43 13.43 0 0 0 .806-.689 13.48 13.48 0 0 1 .806-.689c.27-.21.554-.423.857-.636a22.56 22.56 0 0 1 .958-.636 2.59 2.59 0 0 1 .352-.16c.1-.036.185-.09.25-.16.135 0 .253-.017.354-.052a.62.62 0 0 0 .252-.159l.604-.212c.202-.07.437-.14.706-.212h.352c.1 0 .186-.036.254-.107h.957c.1 0 .185-.036.252-.107h.603c1.142 0 2.217.16 3.225.477s2.016.796 3.026 1.432 1.88 1.397 2.62 2.28 1.345 1.926 1.817 3.128a16.96 16.96 0 0 0 .452 1.434c.168.46.286.9.354 1.324a4.24 4.24 0 0 1 .2 1.273v1.273a12.78 12.78 0 0 1-.201 2.278c-.134.742-.336 1.432-.604 2.068-.27.708-.57 1.344-.906 1.91s-.74 1.06-1.21 1.485l-15.926 15.8 18.245 21.314c.537.637.974 1.273 1.3 1.91a17.96 17.96 0 0 1 .908 2.016c.2.708.37 1.415.503 2.12s.2 1.414.2 2.12c0 .92-.1 1.803-.303 2.65s-.47 1.696-.804 2.544c-.404.848-.875 1.626-1.412 2.333a10.04 10.04 0 0 1-1.917 1.909c-.336.283-.69.53-1.058.743s-.722.424-1.058.636l-.604.212a3.56 3.56 0 0 0-.503.212h-.354c-.1 0-.185.036-.252.107-.133 0-.234.018-.3.053s-.17.053-.305.053a7.67 7.67 0 0 1-.755.157c-.235.036-.487.09-.755.16h-.405c-.134 0-.234.036-.3.107h-.81a11.72 11.72 0 0 1-2.519-.265c-.806-.177-1.578-.407-2.316-.69-.808-.354-1.514-.76-2.118-1.22a8.14 8.14 0 0 1-1.613-1.644l-22.478-28.74v20.467c0 .92-.067 1.768-.2 2.545s-.37 1.555-.706 2.332c-.27.708-.62 1.415-1.058 2.12s-.924 1.344-1.46 1.91c-.472.494-1 .953-1.613 1.377a12.02 12.02 0 0 1-1.813 1.06c-.27.07-.57.16-.908.265s-.64.194-.907.265l-1.917.424h-2.015c-.673-.07-1.328-.195-1.966-.37s-1.26-.37-1.864-.584c-.605-.283-1.176-.636-1.713-1.06s-1.076-.883-1.615-1.377v-.107zm73.257 0c-.537-.496-1.007-1.098-1.4-1.804a32.07 32.07 0 0 1-1.109-2.121c-.27-.777-.487-1.554-.655-2.332a11.51 11.51 0 0 1-.252-2.439v-53.555c0-1.627.286-3.165.857-4.613s1.428-2.774 2.57-3.976 2.403-2.086 3.78-2.652 2.873-.85 4.485-.85 3.1.3 4.487.9 2.604 1.503 3.68 2.707c1.142 1.202 2 2.527 2.57 3.976s.857 3.022.857 4.72v53.448a14.32 14.32 0 0 1-.201 2.439c-.134.778-.37 1.555-.706 2.332-.27.708-.62 1.415-1.058 2.12s-.924 1.343-1.46 1.908a16.91 16.91 0 0 1-1.815 1.485c-.605.425-1.278.743-2.018.955a10.35 10.35 0 0 1-2.166.636c-.773.14-1.53.212-2.267.212h-1.01c-.673-.07-1.328-.195-1.966-.37s-1.26-.37-1.864-.584c-.605-.283-1.176-.636-1.713-1.06s-1.076-.883-1.615-1.377v-.107zm34.796-.32a10.73 10.73 0 0 1-1.461-1.961c-.437-.742-.823-1.537-1.16-2.385a23.61 23.61 0 0 1-.655-2.545 13.62 13.62 0 0 1-.252-2.652v-52.28c0-1.273.15-2.492.454-3.66a11.71 11.71 0 0 1 1.463-3.342 12.19 12.19 0 0 1 2.369-2.599c.906-.742 1.898-1.36 2.975-1.854.133-.07.284-.142.452-.212a11.05 11.05 0 0 1 .554-.212c.203-.07.405-.125.606-.16a3.76 3.76 0 0 0 .603-.16h.203c.068 0 .168-.034.3-.104h.808c.067 0 .168-.036.303-.107h.505c.874 0 1.73.124 2.57.37s1.663.62 2.47 1.115 1.612 1.094 2.42 1.8S574.44 69 575.246 70l25.604 31.496v-24.92c0-.708.084-1.468.252-2.282s.387-1.573.655-2.278c.336-.78.723-1.504 1.16-2.175a12.9 12.9 0 0 1 1.461-1.854 11.19 11.19 0 0 1 1.813-1.54 11.41 11.41 0 0 1 2.016-1.113c.738-.352 1.477-.6 2.216-.74a11.72 11.72 0 0 1 2.22-.214 11.09 11.09 0 0 1 1.058.053c.37.036.756.09 1.16.16.336.07.69.178 1.058.32l1.058.422c.738.283 1.4.654 2.015 1.113a14.15 14.15 0 0 1 1.713 1.54c.537.565 1.024 1.183 1.46 1.854s.79 1.396 1.058 2.175a8.48 8.48 0 0 1 .706 2.278c.134.813.2 1.6.202 2.388v54.403c-.066.07-.1.12-.098.157v.37c-.068.07-.102.125-.102.16v.795c-.27 1.484-.722 2.8-1.36 3.977s-1.53 2.175-2.672 3.023c-1.075.92-2.25 1.573-3.527 1.96a13.44 13.44 0 0 1-3.933.583c-.068 0-.152 0-.252 0s-.185 0-.252 0c-.133-.07-.234-.104-.3-.104h-.704c-.135-.07-.236-.107-.303-.107h-.2a10.86 10.86 0 0 1-1.009-.265c-.336-.106-.672-.194-1.006-.265a5.59 5.59 0 0 1-1.009-.319 6.97 6.97 0 0 1-1.009-.529c-.27-.142-.537-.32-.806-.53l-.806-.638c-.27-.21-.504-.44-.706-.688a14.79 14.79 0 0 1-.604-.795l-26.4-33.83v25.874c0 .92-.067 1.768-.2 2.545s-.37 1.555-.706 2.332c-.27.708-.62 1.415-1.058 2.12s-.924 1.344-1.46 1.91-1.11 1.06-1.715 1.484a9.21 9.21 0 0 1-2.016 1.06c-.336.07-.69.16-1.058.265a15.55 15.55 0 0 1-1.058.265c-.404.07-.79.124-1.16.16a11.38 11.38 0 0 1-1.058.052 11.78 11.78 0 0 1-2.216-.212c-.74-.14-1.48-.318-2.22-.53-.67-.354-1.342-.76-2.015-1.22s-1.278-1.008-1.815-1.644v-.107zm-249.735-.315c-3.662-1.91-6.737-4.384-9.224-7.424-2.486-2.97-4.35-6.38-5.594-10.233s-1.866-8.148-1.866-12.884V76.886a14.05 14.05 0 0 1 .202-2.282c.134-.813.336-1.608.604-2.385.336-.777.706-1.5 1.11-2.173a10.51 10.51 0 0 1 1.414-1.856 9.07 9.07 0 0 1 1.813-1.644c.672-.46 1.378-.83 2.118-1.113.738-.354 1.477-.6 2.216-.743a12.34 12.34 0 0 1 2.318-.212h.3a4.02 4.02 0 0 0 .051 0h.454c.068.07.118.107.152.107h.152a15.73 15.73 0 0 1 1.812.317c.605.142 1.2.4 1.815.74a10.46 10.46 0 0 1 1.713 1.008c.537.4 1.042.83 1.514 1.325a16.07 16.07 0 0 1 1.512 1.856 8.77 8.77 0 0 1 1.109 2.173c.336.78.572 1.575.706 2.388s.2 1.61.2 2.385v31.39c0 1.838.218 3.5.655 4.986a13.06 13.06 0 0 0 1.966 4.031c2.948 3.38 8.36 3.653 11.675 0 .94-1.202 1.63-2.545 2.067-4.03s.655-3.112.655-4.88V76.672c0-.705.084-1.465.252-2.278a19.29 19.29 0 0 1 .655-2.388c.336-.777.723-1.5 1.16-2.173s.924-1.29 1.46-1.856a12.5 12.5 0 0 1 1.764-1.537 10.05 10.05 0 0 1 1.964-1.113c.74-.283 1.463-.495 2.17-.636a11.01 11.01 0 0 1 2.166-.212c.74 0 1.497.07 2.27.212a7.55 7.55 0 0 1 2.167.743 8.07 8.07 0 0 1 2.066 1.167c.64.495 1.227 1.025 1.764 1.59a12.87 12.87 0 0 1 1.461 1.856 9.93 9.93 0 0 1 1.058 2.173 10.15 10.15 0 0 1 .706 2.385c.134.813.2 1.6.2 2.388v30.434c0 4.807-.62 9.137-1.864 12.99s-3.14 7.264-5.694 10.233c-2.488 3.04-5.562 5.497-9.224 7.37-11.764 5.145-17.59 5.986-30.123.053zm323.862-54.86c-.568-26.408 27.253-25.835 20.357 4.643-3.936 11.12-19.126 18.565-20.357-4.643z" font-size="103.392" fill="#e71010" font-family="Debussy"/><g fill-rule="evenodd"><path d="M126 22.406c-9.8.415-19.147 6.533-22.406 16.344-1.79 5.067-1.232 10.083.438 14.625-2.022-.53-4.068-.856-6.03-.844-6.838.035-14.08 2.32-19.312 7.78l-.094.094c-3.38 3.72-4.46 8.15-5.062 11.75-.975 5.953.925 12.164 5.5 16.406 2.767 2.63 6.014 4.55 9.53 5.78.144.047.3.09.438.125 5.8 1.516 10.925-.89 14.47-3.812.096-.08.2-.164.28-.25.438-.412.85-.934 1.28-1.406 1.126.377 2.127.5 3 .406v.03c.11-.003.232-.054.344-.062.146-.02.33-.008.47-.03v-.062c.847-.117 1.647-.383 2.47-.78 1.022 1.126 2.45 1.8 3.97 1.87s3.004-.468 4.125-1.495c1.606-1.475 4.59-3.093 7.5-6.406 4.802-5.07 4.52-11.696 2.938-16.812-.052-.17-.07-.366-.125-.53h-.03a17.89 17.89 0 0 0-1.031-2.875c2.075.403 4.393.464 6.938-.312.095-.03.188-.06.28-.094 8.36-3.04 13.673-11.166 13.53-19.875-.17-8.96-6.95-15.09-13.656-17.844-3.18-1.34-6.488-1.857-9.75-1.72z" fill="#fff" stroke="#fff"/><g fill="#e0140f"><g stroke="#e0140f"><path d="M115.536 84.643c1.93-3.975 5.164-7.616 5.097-12.285-.016-5.584-3.75-10.156-7.33-14.06-4.103-4.78-6.447-11.58-4.272-17.732 3.208-9.656 15.187-15.1 24.57-11.148 5.157 2.117 9.976 6.723 10.088 12.633.1 6.137-3.937 12.308-9.742 14.42-2.94.897-6.05-.24-8.752-1.404-3.04-1.303-5.1-4.676-4.338-7.982.6-2.814 2.178-5.786 4.9-7.03 2.766-.85 7.077.466 7.37 3.36.147 2.725-3.158 1.536-5.197 2.904-2.066 1.615 2.063 3.414 3.493 3.868 2.465 1.096 5.678.035 6.797-2.443 1.625-4.003 1.023-9.1-2.446-11.963-3.12-2.705-7.45-3.57-11.48-3.277-5.732 1.934-10.937 6.998-11.063 13.343-.236 5.418 3.146 10.034 6.738 13.742 1.954 2.112 3.675 4.5 4.328 7.358 1.285 3.87 1.295 8.614-1.67 11.742-2.05 2.336-4.81 3.87-7.085 5.958zm-8.57-4.107c-1.06 1.803-1.28 3.55.922 3.172 2.29-.06 2.14-2.532 2.876-4.673 1.31-4.776 1.926-10.274-.63-14.76-2.392-4.226-7.435-6.063-12.09-6.034-5.56.03-11.325 1.938-15.23 6.014-2.197 2.42-3.137 5.694-3.666 8.85-.67 4.09.71 8.453 3.763 11.283 2.135 2.028 4.74 3.574 7.513 4.544 3.337.874 6.86-.58 9.417-2.687 2.573-2.417 4.7-5.845 4.116-9.512-.464-3.36-2.463-6.478-5.325-8.292-1.68-1.125-3.885-.347-5.035 1.153-1.44 1.622-2.435 3.51-2.563 5.824-.11 1.98 1.702 2.54 2.968 1.392 2.222-2.206 3.762-3.332 5.195-2.155 1.483 1.895.237 5.43-2.48 7.572-2.542 1.888-6.333 2.892-9.087.86-2.568-1.9-4.12-5.04-4.417-8.087.112-2.656 1.784-4.942 3.29-7.018 2.095-2.563 4.67-5.203 8.064-5.812 4.032-.207 8.528.137 11.703 2.907 2.86 2.538 3.236 6.75 2.477 10.285a20.61 20.61 0 0 1-1.785 5.174z"/><path d="M141.17 232.624c7.575-.67 15.246-1.535 23.486-3.536 8.336-3.352 16.94-4.563 23.99-18.183 1.246-1.936 1.065-3.872 1-5.808-.052-7.24-1.703-14.48-3.03-21.718l-4.04-12.374-2.02-10.607-2.273-17.425c-1.32-5.162-2.123-10.84-4.04-15.405 5.413-6.085 7.984-8.502.758-11.364l-6.06-20.708c-1.236-5.423-2.265-10.934-8.08-14.395-10.71-3.73-21.9-1.6-32.83 0-9.81 2.353-10.824 3.827-14.395 5.556C97.98 94.85 87.654 104.82 80.055 115.7c-2.692 4.546-.638 9.09.505 13.637l11.87 23.234c.5 3.714 2.818 4.395 5.303 4.798 2.02 1.017 4.04-1.634 6.06 4.798l37.376 70.458zM87.126 116.71h4.546l24.496-17.425 5.556.505 2.525-3.283 7.324.758 2.02-2.273 4.546.505c4.04-1.517 8.08-4.918 12.122-.758 22.968-9.32-9.9-15.763-30.8-2.02-23.432 5.815-27.973 14.887-32.325 23.99zm2.525 7.324c2.557 8.25 5.163 16.5 10.354 24.75 20.322 2.57 28.04.413 32.325-3.03 1.367-2 3.233-3.77 8.586-3.788 8.362-2.226 14.105-6.198 18.435-11.112.6-1.957.802-4.18 5.303-3.536 3.282-.506 6.104-1.287 6.06-3.788-1.08-9.34-5.205-19.29-9.596-29.294-17.45 11.865-32.58 24.432-71.468 29.8zm20.96 34.85l12.88 24.75 15.9 30.8c4.377 8.596 8.755 11.17 13.132 10.354 5.02-1.054 9.986-1.895 15.657-5.556 4.182-3.927 8.783-7.014 13.637-9.596l-1.768-5.808-.758-11.364c.22-5.977-.933-11.953-2.02-17.93-2.316-13.048-4.65-26.096-9.596-39.143-5.165 3.695-12.513 7.754-21.718 12.122-4.24.292-7.18 2.532-10.102 4.798-3.92 4.325-10.95 3.467-16.668 4.798-3.68-.23-6.238.664-8.586 1.768z" stroke-linejoin="round"/></g></g><path d="M93.393 126.25l31.786-8.393 23.93-12.143 11.25-7.32 6.07 17.5.714 7.68-7.5 1.964-4.464 4.643-10.893 7.68-10 2.32-6.25 5.714-15.18 1.07-11.07-.18-8.393-20.536z" fill="#fff"/><path d="M169.727 159.23c-1.095-2.424 1.505-3.47 2.07-.373.074 1.186-1.04 2.474-2.07.373z" fill="#e71010" stroke="#e0140f" stroke-width=".101"/></g><g font-family="Debussy"><path d="M126.22 183.645l-1.246-6.29c-.04-.198-.042-.396-.007-.59a1.49 1.49 0 0 1 .21-.543c.112-.176.245-.32.4-.43s.336-.187.543-.23l1.96-.434c.697-.14 1.342-.193 1.935-.16a4.49 4.49 0 0 1 1.615.381 4.12 4.12 0 0 1 1.27.892c.363.375.667.83.9 1.36l.107.28.095.283c.035.09.065.185.09.284l.064.29c.123.665.126 1.297.007 1.897s-.354 1.163-.707 1.687c-.352.534-.786.965-1.303 1.296s-1.12.57-1.805.717l-2.408.517a1.43 1.43 0 0 1-.567.014c-.18-.033-.354-.108-.523-.225a1.49 1.49 0 0 1-.412-.416 1.59 1.59 0 0 1-.222-.566l-.003-.013zm2.658-1.675l.683-.146c.324-.06.607-.17.848-.323s.442-.35.603-.58c.16-.24.265-.5.318-.748s.05-.534-.008-.827l-.044-.125-.032-.128-.044-.125-.044-.125c-.096-.222-.223-.417-.38-.585s-.347-.305-.567-.4c-.227-.104-.473-.168-.737-.192s-.544-.005-.842.06l-.573.1.82 4.147zm10.387.237c-.61.08-1.166.07-1.67-.034s-.954-.296-1.35-.576c-.394-.27-.727-.617-1-1.037s-.48-.914-.63-1.483l-.958-3.68c-.022-.085-.038-.178-.047-.28s-.01-.205-.001-.307c.017-.105.04-.204.067-.3a1.35 1.35 0 0 1 .113-.271c.045-.095.102-.18.17-.26s.14-.147.222-.206c.08-.068.16-.123.246-.165s.177-.077.275-.105l.037-.01.025-.007.037-.01c.01.006.018.01.022.008.094-.018.17-.026.248-.03a.84.84 0 0 1 .243.027 1.29 1.29 0 0 1 .239.063c.077.028.152.064.225.107.083.05.163.106.242.17s.146.14.203.223a1.23 1.23 0 0 1 .16.263c.042.093.075.186.1.28l.98 3.768c.057.22.136.413.235.576s.22.302.365.417c.15.103.31.18.48.227s.357.06.562.04c.02.004.035.006.048.007s.024 0 .032-.002l.043-.012.043-.012.043-.012.03-.01.043-.012.03-.01.073-.02.073-.02c.024-.007.048-.016.072-.027a.48.48 0 0 0 .068-.04c.18-.087.332-.196.46-.328s.227-.28.297-.446a1.51 1.51 0 0 0 .125-.555c.007-.193-.018-.396-.073-.608l-.988-3.794a1.39 1.39 0 0 1-.041-.282 2.4 2.4 0 0 1 .005-.309c.017-.105.04-.205.073-.3s.072-.186.12-.273a1.61 1.61 0 0 1 .166-.245 1.29 1.29 0 0 1 .204-.201 1.78 1.78 0 0 1 .243-.151c.08-.04.167-.074.256-.1a1.61 1.61 0 0 1 .282-.052.95.95 0 0 1 .286.015.99.99 0 0 1 .287.069c.093.037.18.08.264.13a1.56 1.56 0 0 1 .235.173 1.19 1.19 0 0 1 .196.225 1.23 1.23 0 0 1 .16.262c.042.093.075.186.1.28l.952 3.654c.15.577.2 1.118.18 1.623s-.154.98-.37 1.423c-.207.45-.503.85-.89 1.2s-.86.65-1.426.9c-.06.035-.123.064-.187.087l-.19.074-.098.028a.41.41 0 0 0-.095.04l-.293.083a.28.28 0 0 1-.089.011.72.72 0 0 1-.1.021.84.84 0 0 0-.1.021.72.72 0 0 1-.099.021.72.72 0 0 0-.087.018c-.035 0-.07.003-.103.008s-.067.012-.1.022l.003.013zm6.132-2.2c-.086-.044-.17-.1-.25-.17s-.157-.146-.23-.23a2.84 2.84 0 0 1-.176-.272c-.053-.093-.097-.193-.133-.3l-2.02-6.153a1.78 1.78 0 0 1-.087-.45c-.01-.15.006-.302.045-.455a1.58 1.58 0 0 1 .181-.406c.08-.125.173-.24.282-.344.013-.014.028-.028.046-.044l.058-.05a.54.54 0 0 1 .066-.045.48.48 0 0 0 .066-.044l.024-.01c.008-.003.02-.01.032-.025l.03-.01.066-.024c.008-.003.02-.01.032-.026l.03-.01.03-.01c.104-.037.21-.06.32-.065a1.26 1.26 0 0 1 .337.027 2.16 2.16 0 0 1 .357.11c.123.05.252.115.386.197l4.264 2.623-.964-2.933c-.027-.083-.047-.176-.058-.28s-.015-.202-.01-.296c.01-.106.028-.208.054-.305s.06-.19.102-.28.094-.176.156-.258.128-.154.197-.216c.074-.073.153-.133.235-.18a1.5 1.5 0 0 1 .256-.119c.04-.014.083-.027.128-.04l.144-.03a.89.89 0 0 1 .138-.007l.142.005c.1.002.193.017.283.046a1.72 1.72 0 0 1 .263.109c.086.044.168.096.246.157a1.17 1.17 0 0 1 .21.211 1.01 1.01 0 0 1 .172.238c.047.1.086.18.116.272l2.104 6.403c-.005.01-.007.018-.006.023l.008.025v.042l.016.05.014.043c.025.186.023.36-.008.526s-.098.32-.2.47c-.092.154-.207.28-.344.38a1.75 1.75 0 0 1-.445.235l-.03.01-.03.01c-.02-.003-.032-.002-.04.001l-.024.008-.03.01-.03.01c-.02-.003-.032-.003-.04 0l-.024.008a1.29 1.29 0 0 1-.13.011l-.13.012a.7.7 0 0 1-.132.005c-.045-.002-.092-.01-.14-.02-.037-.005-.076-.015-.116-.028l-.12-.04c-.04-.013-.077-.03-.11-.05l-.103-.068-4.45-2.863 1 3.045a1.83 1.83 0 0 1 .074.308c.014.097.016.2.006.304a1.58 1.58 0 0 1-.044.295 1.51 1.51 0 0 1-.1.287c-.042.09-.09.172-.147.247a1.21 1.21 0 0 1-.199.21l-.116.076-.116.076-.132.068-.124.05a1.48 1.48 0 0 1-.272.069l-.285.032a2.42 2.42 0 0 1-.287-.058c-.098-.026-.19-.064-.28-.116l-.004-.013zm9.026-3.24a.89.89 0 0 1-.246-.137 2.67 2.67 0 0 1-.23-.2 2.36 2.36 0 0 1-.183-.236c-.055-.08-.102-.17-.14-.268l-2.45-6.17a1.5 1.5 0 0 1-.106-.56c0-.195.04-.39.117-.586s.184-.36.318-.494a1.57 1.57 0 0 1 .494-.327c.19-.073.38-.11.567-.11a1.29 1.29 0 0 1 .551.127 1.38 1.38 0 0 1 .474.331 1.57 1.57 0 0 1 .304.49l.687 1.73 1.313-3.705.062-.12.062-.12.07-.116.082-.12a.34.34 0 0 1 .034-.036c.01-.01.017-.02.022-.03.016-.006.03-.014.04-.023s.017-.02.022-.03l.06-.055.072-.06.04-.018c.012-.005.02-.013.025-.025l.04-.017.03-.013.04-.018c.012-.005.02-.013.024-.025l.04-.018.03-.013c.133-.057.265-.092.397-.106a1.61 1.61 0 0 1 .417.014 1.34 1.34 0 0 1 .408.131 1.33 1.33 0 0 1 .354.269l.118.142a.84.84 0 0 1 .102.134c.035.042.062.088.08.137l.058.146c.035.09.062.18.08.272a1.22 1.22 0 0 1 .024.268 1.56 1.56 0 0 1-.018.265c-.013.082-.037.16-.073.23l-1.13 2.612 3.093 1.538c.09.046.17.098.24.154s.134.12.197.186l.155.218c.048.075.088.153.12.234.042.106.07.212.086.32s.023.218.023.333a1.7 1.7 0 0 1-.058.339c-.03.108-.075.213-.136.315a.98.98 0 0 1-.089.138l-.094.126-.06.055a.5.5 0 0 0-.049.05l-.04.018c-.012.005-.02.013-.024.025-.016.007-.026.014-.033.02s-.017.015-.033.022l-.08.056a.94.94 0 0 0-.08.056l-.047.02c-.016.006-.026.016-.03.027l-.094.04c-.102.044-.203.075-.305.096s-.202.032-.3.036a1.25 1.25 0 0 1-.302-.034c-.09-.023-.18-.06-.263-.108l-3.924-2.18.934 2.353c.042.106.073.207.093.303s.028.197.024.303c.001.095-.008.194-.026.297s-.046.2-.083.292a1.42 1.42 0 0 1-.125.239 1.61 1.61 0 0 1-.162.212l-.187.152-.203.144-.03.013-.04.018-.024.01-.023.01-.024.01-.035.015-.024.01-.035.015a1.57 1.57 0 0 1-.245.056l-.243.026a1.06 1.06 0 0 1-.247-.036l-.25-.078-.005-.012zm7.938-3.51a.89.89 0 0 1-.252-.126l-.233-.178a2.42 2.42 0 0 1-.192-.227c-.058-.08-.11-.166-.15-.262l-2.692-6.043c-.082-.184-.126-.373-.134-.568a1.58 1.58 0 0 1 .093-.59 1.45 1.45 0 0 1 .298-.507 1.54 1.54 0 0 1 .469-.343 1.41 1.41 0 0 1 .557-.145c.187-.008.373.026.556.103a1.46 1.46 0 0 1 .493.307c.138.132.25.294.335.486l2.687 6.03c.043.096.076.19.1.286s.036.196.037.302c.005.094 0 .194-.014.297a1.51 1.51 0 0 1-.071.296c-.04.097-.085.186-.132.268s-.108.154-.182.22a1.38 1.38 0 0 1-.215.191 1.64 1.64 0 0 1-.248.149l-.023.01-.034.017-.023.01-.034.017c-.08.03-.16.05-.243.066l-.242.037a1.06 1.06 0 0 1-.249-.026l-.253-.066-.005-.012zm3.32-1.61c-.09-.03-.18-.073-.27-.128s-.177-.12-.26-.193a2.85 2.85 0 0 1-.213-.241 1.62 1.62 0 0 1-.174-.278l-2.88-5.77c-.07-.14-.12-.284-.15-.43s-.037-.3-.02-.457c.02-.15.06-.293.12-.43s.137-.265.23-.384l.04-.05.05-.057a.49.49 0 0 1 .059-.054.5.5 0 0 0 .058-.054l.023-.012c.008-.004.017-.014.028-.03l.028-.015.028-.015.034-.018c.007-.004.017-.014.028-.03l.056-.03a1.16 1.16 0 0 1 .307-.114c.107-.023.22-.032.337-.026a2.13 2.13 0 0 1 .369.053 2.5 2.5 0 0 1 .41.135l4.592 1.93-1.373-2.75c-.04-.078-.072-.167-.098-.267s-.044-.197-.052-.29a1.85 1.85 0 0 1 .01-.31c.012-.1.032-.198.06-.293s.068-.188.117-.28a1.52 1.52 0 0 1 .164-.245c.063-.083.132-.155.206-.216a1.53 1.53 0 0 1 .236-.157 1.37 1.37 0 0 1 .121-.058l.138-.052a.89.89 0 0 1 .136-.029l.14-.017a.99.99 0 0 1 .286.001 1.67 1.67 0 0 1 .276.066c.09.03.18.07.265.117a1.15 1.15 0 0 1 .238.176c.076.057.144.127.204.21s.11.166.154.25l2.998 6.005c-.004.01-.004.02-.002.023l.012.024.006.04.044.088c.052.18.074.354.067.52s-.05.332-.132.495a1.3 1.3 0 0 1-.285.429 1.78 1.78 0 0 1-.407.301l-.028.015-.028.015c-.02 0-.032.003-.04.007l-.022.012-.028.015-.028.015c-.02 0-.032.003-.04.006l-.022.012c-.04.013-.084.023-.127.032l-.127.03a.69.69 0 0 1-.13.026.88.88 0 0 1-.142.003.66.66 0 0 1-.119-.01l-.125-.022a.54.54 0 0 1-.117-.033l-.11-.05-4.8-2.14 1.426 2.856c.05.1.1.2.118.293s.044.194.05.3a1.58 1.58 0 0 1-.001.298c-.01.104-.03.204-.058.3a1.53 1.53 0 0 1-.11.267 1.22 1.22 0 0 1-.167.239l-.103.093-.103.093-.12.087-.115.07a1.53 1.53 0 0 1-.259.11l-.277.075a2.54 2.54 0 0 1-.292-.013c-.1-.01-.198-.034-.293-.072l-.006-.012z" font-size="12.884" fill="#e0140f"/><path d="M129.45 193.035l-1.35-5.682c-.042-.18-.05-.358-.023-.537a1.32 1.32 0 0 1 .184-.499 1.39 1.39 0 0 1 .367-.401 1.41 1.41 0 0 1 .507-.225l1.84-.45c.655-.147 1.264-.214 1.826-.2s1.075.115 1.538.3a3.91 3.91 0 0 1 1.225.775c.354.33.653.734.898 1.2l.11.252.097.254c.036.082.066.167.09.255l.068.26a4.38 4.38 0 0 1 .058 1.724c-.096.55-.304 1.066-.623 1.553-.318.495-.717.9-1.197 1.215s-1.042.55-1.688.703l-2.263.537c-.187.045-.365.054-.536.03s-.337-.088-.5-.19-.297-.223-.4-.367a1.41 1.41 0 0 1-.225-.507l-.003-.012zm2.468-1.597l.642-.152c.305-.064.57-.17.793-.318s.41-.33.555-.545a1.88 1.88 0 0 0 .28-.689c.043-.236.033-.486-.03-.75l-.045-.112c-.013-.038-.024-.076-.034-.115l-.045-.112-.045-.112c-.097-.2-.222-.373-.376-.52a1.8 1.8 0 0 0-.547-.357c-.218-.088-.452-.14-.702-.154s-.515.01-.795.078l-.54.116.89 3.745zm6.638-1.047a3.94 3.94 0 0 1-.45-.403c-.14-.147-.27-.304-.382-.47a3.9 3.9 0 0 1-.297-.501 5.73 5.73 0 0 1-.232-.533.12.12 0 0 1-.026-.049l-.018-.064-.01-.035-.01-.035-.016-.057-.015-.052-.018-.063-.01-.035-.01-.034c-.002-.008-.003-.018-.002-.03s0-.023-.002-.03l-.05-.285-.038-.288a2.69 2.69 0 0 1-.012-.283l.008-.3c.012-.194.04-.39.082-.6s.1-.4.166-.6c.117-.35.276-.676.476-.982s.438-.59.713-.85a4.62 4.62 0 0 1 .89-.663 4.61 4.61 0 0 1 1.032-.429 4.64 4.64 0 0 1 1.097-.173 4.6 4.6 0 0 1 2.158.449 4.77 4.77 0 0 1 .926.586c.163.137.314.28.45.427s.262.302.374.46a5.52 5.52 0 0 1 .307.493c.093.17.17.34.227.516l.008.028c.003.012.01.024.023.037l.008.03.01.04.02.07.02.07a3.72 3.72 0 0 1 .121.626 5.06 5.06 0 0 1 .025.641 5.78 5.78 0 0 1-.076.657c-.038.218-.096.438-.175.66-.123.36-.283.69-.48.996a4.23 4.23 0 0 1-.71.836 4.2 4.2 0 0 1-.899.653 5.07 5.07 0 0 1-1.029.415c-.37.104-.736.166-1.1.186s-.732-.01-1.102-.087c-.37-.07-.718-.183-1.05-.34s-.638-.355-.923-.6l-.003-.01zm1.197-2.905c.083.292.202.545.358.758s.343.384.563.514c.23.134.46.217.693.246a1.76 1.76 0 0 0 .707-.056l.086-.024c.027-.008.055-.02.083-.036a.68.68 0 0 0 .085-.03.86.86 0 0 0 .082-.042c.197-.097.366-.226.508-.386s.258-.345.348-.553a1.97 1.97 0 0 0 .147-.671 2.24 2.24 0 0 0-.087-.705l-.026-.092c-.012-.013-.02-.028-.025-.043l-.013-.046a.75.75 0 0 0-.032-.091.8.8 0 0 0-.044-.088c-.106-.227-.238-.423-.396-.586s-.34-.295-.54-.395c-.21-.098-.42-.158-.63-.177a1.73 1.73 0 0 0-.637.061c-.246.07-.46.18-.642.33s-.335.344-.46.578c-.117.233-.187.477-.2.733s.005.526.086.81l-.003-.01zm8.23 1.772c-.08-.04-.16-.092-.236-.154a1.88 1.88 0 0 1-.217-.212c-.06-.08-.116-.163-.166-.248s-.09-.176-.124-.274l-1.9-5.6a1.57 1.57 0 0 1-.081-.409c-.008-.137.007-.274.044-.414.04-.132.098-.254.173-.368a1.63 1.63 0 0 1 .268-.312.54.54 0 0 1 .043-.04l.055-.044c.02-.015.04-.03.063-.04s.042-.025.062-.04l.023-.008c.008-.003.018-.01.03-.023l.028-.01.028-.01.034-.01c.008-.003.018-.01.03-.023l.057-.02c.098-.033.2-.052.303-.058s.2.003.32.026.22.056.338.1.238.105.365.18l4.024 2.4-.9-2.67c-.026-.076-.044-.16-.054-.254a1.61 1.61 0 0 1-.009-.269c.01-.096.027-.19.052-.277s.058-.173.098-.254.1-.16.15-.234a1.37 1.37 0 0 1 .187-.196c.07-.066.145-.12.223-.164a1.47 1.47 0 0 1 .242-.107c.038-.013.078-.024.12-.034l.137-.027c.04-.005.084-.007.13-.006l.135.005a.99.99 0 0 1 .267.043 1.67 1.67 0 0 1 .249.1c.08.04.158.088.232.143s.14.12.198.193a.92.92 0 0 1 .162.217c.045.082.08.165.11.248l1.967 5.83c-.005.01-.007.017-.005.02l.008.023v.038l.015.045.013.04a1.43 1.43 0 0 1-.01.478c-.03.15-.094.29-.192.425a1.18 1.18 0 0 1-.327.344 1.67 1.67 0 0 1-.422.212l-.057.02a.09.09 0 0 0-.038 0l-.023.008-.03.01-.028.01c-.018-.003-.03-.003-.038 0l-.023.008-.123.01-.123.01a.72.72 0 0 1-.125.004c-.043-.003-.087-.01-.133-.018-.035-.005-.072-.014-.1-.026l-.114-.038a.54.54 0 0 1-.104-.047l-.097-.062-4.2-2.62.935 2.772c.033.098.056.192.07.28a1.12 1.12 0 0 1 .005.277 1.38 1.38 0 0 1-.043.267 1.34 1.34 0 0 1-.096.26c-.04.08-.087.156-.14.224a1.11 1.11 0 0 1-.189.19l-.22.137-.125.06-.117.046a1.47 1.47 0 0 1-.257.061l-.27.028c-.088-.013-.18-.03-.27-.054a1.06 1.06 0 0 1-.264-.107l-.004-.012zm11.56-3.724c-.564.14-1.088.19-1.573.152s-.928-.162-1.33-.37c-.4-.202-.75-.477-1.048-.827s-.55-.772-.748-1.27l-1.29-3.217a1.52 1.52 0 0 1-.074-.249c-.02-.09-.03-.184-.034-.277a2.06 2.06 0 0 1 .031-.277 1.2 1.2 0 0 1 .078-.258 1.06 1.06 0 0 1 .131-.253c.055-.078.117-.148.187-.21.067-.07.138-.13.214-.176a1.54 1.54 0 0 1 .247-.125l.033-.014.022-.01.033-.013c.01.005.018.006.02.005a1.7 1.7 0 0 1 .23-.054c.073-.012.15-.013.232-.003.08.003.156.013.232.03a1.32 1.32 0 0 1 .223.072c.083.036.165.078.245.128a.99.99 0 0 1 .214.179 1.12 1.12 0 0 1 .178.22 1.57 1.57 0 0 1 .123.241l1.32 3.295c.077.193.17.358.282.494s.24.25.387.336a1.53 1.53 0 0 0 .474.152 1.47 1.47 0 0 0 .532-.026.34.34 0 0 0 .046.001c.013-.001.023-.003.03-.005l.04-.016.04-.015.04-.015.028-.01.04-.016.028-.01.067-.027.067-.027c.022-.01.044-.02.064-.032s.04-.027.06-.043c.16-.098.29-.214.397-.346s.184-.278.232-.435c.053-.168.073-.34.06-.514a1.86 1.86 0 0 0-.133-.541l-1.33-3.317c-.03-.074-.052-.158-.068-.25s-.025-.186-.028-.28a1.63 1.63 0 0 1 .037-.28c.02-.1.048-.176.083-.26a1.47 1.47 0 0 1 .13-.239 1.21 1.21 0 0 1 .17-.204 1.66 1.66 0 0 1 .213-.163 1.38 1.38 0 0 1 .23-.118c.082-.033.168-.06.26-.078a.92.92 0 0 1 .271-.018.98.98 0 0 1 .277.031 1.84 1.84 0 0 1 .262.089c.083.036.163.08.24.13s.146.112.208.18a1.1 1.1 0 0 1 .178.219 1.57 1.57 0 0 1 .123.242l1.28 3.194c.202.504.316.986.34 1.446s-.04.9-.198 1.326c-.147.43-.383.823-.71 1.182s-.74.682-1.245.97a1.09 1.09 0 0 1-.167.099l-.17.088-.09.036c-.03.012-.058.027-.085.047l-.178.07-.09.036c-.03.012-.057.02-.082.02a.79.79 0 0 1-.091.03c-.03.008-.062.018-.09.03a.73.73 0 0 1-.091.03.68.68 0 0 0-.08.026.76.76 0 0 0-.096.019c-.03.008-.062.018-.09.03l.004.01zm1.74-8.783c-.05-.144-.078-.292-.087-.442a1.12 1.12 0 0 1 .069-.449 1.2 1.2 0 0 1 .234-.393 1.13 1.13 0 0 1 .37-.271l4.247-1.986c.15-.06.3-.092.45-.097s.308.022.467.08c.152.06.285.143.398.245a1.16 1.16 0 0 1 .276.381 1.33 1.33 0 0 1 .107.472c.005.152-.02.303-.075.45-.06.152-.142.282-.242.4a1.16 1.16 0 0 1-.367.263l-.918.414 2.096 4.513c.08.174.123.346.127.516s-.027.345-.093.526c-.062.17-.154.318-.276.445a1.42 1.42 0 0 1-.433.307c-.174.08-.35.126-.524.138s-.352-.013-.53-.07c-.173-.07-.324-.162-.453-.278s-.234-.262-.315-.435l-2.1-4.524-.86.4a1.05 1.05 0 0 1-.443.126c-.147.006-.296-.02-.448-.082-.15-.055-.276-.134-.382-.24s-.194-.234-.265-.386l-.032-.012zm10.105 3.038c-.025.004-.05.006-.078.007l-.067.001-.08-.012c-.025-.005-.05-.01-.07-.017-.126-.015-.235-.038-.33-.07s-.177-.074-.25-.126a.89.89 0 0 1-.197-.18c-.062-.076-.118-.16-.167-.25l-.01-.02-.01-.02-.017-.032c-.03-.056-.053-.114-.07-.173l-.044-.173c-.012-.057-.02-.112-.02-.166a1.34 1.34 0 0 1 .007-.166l.055-.294c.02-.088.055-.167.1-.236a.64.64 0 0 1 .152-.175c.063-.05.137-.1.222-.144l.043-.023.042-.022c.018 0 .034-.004.048-.012l.043-.022c.032-.008.065-.018.1-.032l.11-.037.528-.13.48-.118.347-.088.134-.03c.022.007.042.007.062.001s.036-.013.05-.02l.02-.01.02-.01c.01.003.02.003.027-.001l.02-.01a1.19 1.19 0 0 0 .12-.043l.103-.048c.04-.01.07-.024.096-.037l.08-.042c.028-.015.054-.03.077-.047s.047-.036.07-.058c.02-.01.04-.024.06-.04a.46.46 0 0 0 .055-.05.23.23 0 0 1 .039-.041c.016-.013.025-.024.03-.036l.02-.01c.007-.004.012-.01.015-.022.013-.018.018-.027.02-.038.02-.01.023-.017.026-.028s.008-.018.015-.022c.003-.01.008-.02.013-.027a.1.1 0 0 0 .013-.027l.02-.065c.007-.022.01-.04.01-.06a.21.21 0 0 0-.009-.056c-.006-.02-.014-.04-.026-.06-.014-.01-.028-.023-.04-.04s-.027-.03-.04-.04c-.01-.003-.02-.007-.027-.013s-.016-.01-.027-.013c-.007.004-.016.004-.027.001l-.032-.01c-.01.005-.016.004-.027.001l-.02.01c-.007.004-.015.006-.024.006s-.02-.001-.03-.005l-.24.032-.16.03-.635.16-.117.035-.806.168a2.47 2.47 0 0 1-.349.083l-.308.033-.28.012c-.09.002-.172 0-.247-.005-.197-.014-.382-.052-.555-.114a2.14 2.14 0 0 1-.494-.255c-.156-.107-.295-.23-.418-.37a2.34 2.34 0 0 1-.319-.462l-.053-.1c-.017-.032-.03-.064-.037-.096a.61.61 0 0 1-.045-.111l-.035-.117a1.73 1.73 0 0 1-.082-.336c-.017-.117-.027-.24-.03-.364s.003-.25.018-.376.037-.255.066-.388a3.18 3.18 0 0 1 .208-.544c.09-.183.2-.363.33-.54a4.77 4.77 0 0 1 .469-.525c.173-.17.37-.328.587-.48l.037-.02c.01-.005.02-.015.032-.03l.032-.017.032-.017.037-.02c.01-.005.02-.015.032-.03l.032-.017.043-.022.037-.02c.01-.005.018-.014.02-.025l.037-.02.027-.014.15-.078.297-.143.298-.116c.103-.045.204-.08.303-.106l.3-.07.64-.087c.187-.013.348-.005.48.024.136.02.26.057.372.115a1.07 1.07 0 0 1 .294.224c.03.02.054.046.074.076l.07.092.025.048c.01.018.02.032.036.042l.022.042.022.042a1.35 1.35 0 0 1 .071.16c.02.057.037.114.05.17s.02.112.02.166a.74.74 0 0 1-.013.156c-.01.104-.03.2-.063.29a1.22 1.22 0 0 1-.118.239c-.045.07-.102.133-.17.19s-.15.112-.24.16l-.15.073-.168.068c-.057.012-.118.03-.184.05a1.44 1.44 0 0 1-.211.05l-.107.003-.358.067-.144.035-.336.083-.165.046-.117.035c-.003.01-.007.017-.01.02l-.037.02c-.023-.001-.03.003-.037.006l-.02.01-.032.017-.02.01-.02.01-.02.01-.02.01-.11.064c-.03.02-.054.04-.07.058-.025.022-.045.044-.06.066s-.027.043-.033.065-.01.044-.012.067-.005.046-.012.068c0 .018.002.035.006.05s.01.03.017.045.016.026.025.034.02.02.035.03l.032.01.032.01a.4.4 0 0 1 .048.002.41.41 0 0 0 .048.001.23.23 0 0 0 .051-.006c.016-.004.037-.008.062-.012l.587-.147.357-.094.096-.023.705-.155.313-.05c.098-.02.19-.03.28-.033l.134-.016.134-.017a.83.83 0 0 0 .134-.003l.118-.008a2.59 2.59 0 0 1 .688.084c.216.058.418.146.607.263s.356.25.502.4a2.15 2.15 0 0 1 .371.509l.025.048.025.047c.004.025.01.046.02.064l.025.048c.008.032.018.065.032.098a1.07 1.07 0 0 0 .048.104c.03.1.055.224.072.34l.04.36-.01.365c-.006.125-.026.25-.06.377a3.02 3.02 0 0 1-.255.724c-.115.228-.26.45-.433.67-.17.208-.376.402-.615.582a6.09 6.09 0 0 1-.825.517l-.058.03-.048.026c-.025.004-.046.01-.064.02l-.122.065-.053.028c-.025.004-.046.01-.064.02l-.058.03-.664.283a3.9 3.9 0 0 1-.57.179c-.174.047-.332.078-.473.093a2.53 2.53 0 0 1-.378.017l-.006-.01z" font-size="12.649" fill="#cf2082"/></g></g></svg>