<svg xmlns="http://www.w3.org/2000/svg" viewBox="0 0 913.333 277.333" width="800" height="243"><g fill-rule="evenodd"><path d="M677.473 184.863c-52.492 26.245-193.51 9.34-193.51 9.34 152.762 55.054 254.01-2.348 254.01-1.333 0 0-31.14 10.23-60.5-8.007zM316.485 15.414c-2.64-4.404-12.28-4.993-12.28-4.993H264.13c-15.95 0-20.695 11.9-20.695 11.9L224.94 69.863c-36.105.44-59.443 15.852-59.443 15.852l-3.523-6.606-.44-58.12s-1.76-15.41-18.933-19.815-25.098 8.806-25.098 8.806L85.36 54.893 32.886 40.287s-16.014-1.78-27.135 9.34-2.67 27.136-2.67 27.136l33.363 48.044L8.42 165.3s-14.68 16.904-3.56 33.363 34.254 8.897 34.254 8.897l48.488-18.238 34.254 46.708c9.786 12.456 25.356 5.783 25.356 5.783s22.243-5.783 17.35-34.253c0 0 29.164 7.197 55.856-2.145 0 0 26.565 11.508 27.45 61.098 0 0 54.908-33.654 140.806-21.257 97.033 14.004 184.888 47 284.258 23.024 0 0 90.395-12.104 177.178-104.2 36.04-2.653 49.748-15.7 58.15-27.86s4.2-32.723-8.18-40.682-35.817 1.548-35.817 1.548c6.19-51.517-43.337-48.864-43.337-48.864 5.97-22.774-9.728-26.975-9.728-26.975s-8.18-1.105-24.32-1.768-20.784 22.11-20.784 22.11-27.195-2.653-36.703-1.99-15.697 5.305-15.697 5.305c-21.005-10.612-63.172-3.23-63.172-3.23s-.44-2.65 1.765-16.333S641.7 11.205 641.7 11.205s-15.45-.883-34.875 0-21.19 11.036-21.19 11.036l-10.595 21.632s-27.81 1.324-41.937 12.8c0 0-54.74-40.835-92.262-13.023-13.464-7.505-52.24-1.24-52.24-1.24s4.848-14.1-.88-23.136-16.967-8.154-16.967-8.154l-40.93.102s-8.48-.332-13.33 4.19" fill="#db232e"/><path d="M93.534 78.474l38.455-55.868s8.707-6.168 8.707 3.628v67.114l63.85 19.953s7.257 3.627 0 7.98l-63.487 22.855v67.478s-.725 6.893-8.344 1.815l-38.818-52.605-62.036 22.493s-7.98 1.45-5.08-7.98l37.73-54.78-39.544-54.42s-3.265-6.893 5.442-6.893l63.125 19.228" fill="#fcd213"/></g><path d="M93 76.92l37.905-55.07.333-.34c.03-.02 10.8-7.652 10.8 4.723V92.37l63.125 19.75c.027.014 9.407 4.705.073 10.304l-.235.11-62.6 22.536-.01 66.698c-.003.025-.96 9.07-10.406 2.772l-.328-.317-38.23-51.807L32.08 184.63c-.028.004-10.113 1.833-6.57-9.685l.178-.364 37.194-54.004L23.76 66.697c-.01-.024-4.158-8.784 6.65-8.784l.386.063zm39.944-53.342L94.078 80.03 30.236 60.582c-5.83.08-4.406 4.164-4.107 4.89l40.012 55.063-38.144 55.38c-1.935 6.573 2.772 6.206 3.542 6.105l62.838-22.783 39.258 53.2c5.176 3.356 5.993-.285 6.09-.89v-68.34l.885-.318 63.353-22.807c4.6-2.828.744-5.174.07-5.545l-64.672-20.2V26.234c0-6.508-5.363-3.348-6.428-2.657" fill="#231f20"/><g fill-rule="evenodd"><path d="M128.724 99.878s11.61-4.354 11.61 3.265c0 0-1.452 4.353-5.44.727 0 0-3.265-1.452-5.805-1.452 0 0-1.45-.726-.363-2.54zm6.893 16.69s2.54 4.354-2.902 4.716c0 0-2.903.726-4.717-2.902 0 0-1.813-2.902-5.805-2.902 0 0-2.54.725-3.265-.363 0 0-3.628-3.99.725-5.804 0 0 2.902.725 7.98.362 0 0 1.815-.725 4.717 5.08 0 0 .725 1.088 3.265 1.815zM99.7 91.173s-7.256-10.523-11.246-3.99c0 0-1.452 4.352 3.99 3.264 0 0 3.628 1.088 5.442 2.54 0 0 1.45 0 1.814-1.813zm-14.874 9.795s-4.353 2.176-.363 5.44c0 0 1.814 2.177 5.442.363 0 0 3.265-1.45 6.53.725 0 0 1.814 2.177 2.902 1.452 0 0 5.08-1.09 2.54-5.08 0 0-2.54-1.09-6.53-4.355 0 0-1.088-1.45-6.893 1.815 0 0-1.452.363-3.628-.362zm29.023 21.404c-.725 1.813-4.354 2.54-8.344 1.088-3.99-1.088-6.53-3.265-6.168-5.08.726-1.814 4.354-2.54 8.344-1.088 3.99 1.088 6.53 3.265 6.167 5.08zm-39.18 4.353s-2.902-3.99 3.628-3.99c0 0 2.54 0 4.717-4 0 0 3.265-1.45 3.265 1.45 0 0 .363 3.628-2.177 5.443 0 0 11.61 26.846 38.092 11.972 0 0-.725-4.354 1.452-6.53 0 0 3.628-1.088 3.628 2.177 0 0-1.452 3.264 2.54 5.442l1.09 1.088s1.814 3.628-1.814 3.628c0 0-2.902.726-4.716-2.54 0 0-10.158 9.796-25.758 5.442 0 0-12.334-2.54-18.14-18.865 0 0-5.442.726-5.805-.725" fill="#ee293d"/><path d="M269.853 105.528h36.987l-28.632 73.533h33.916l57.24-151.91H336.34l-24.207 62.525h-36.116l24.217-62.965H266.33l-24.657 63.405s-10.285-.035-22.593 1.323c-31.237 3.442-79.566 21.51-80.08 59.06-.415 30.325 22.14 40.378 47.212 38.18s52.668-16.646 62.332-35.32c13.86-25.516 21.31-47.832 21.31-47.832zm-33.077 1.312c-2.767 8.632-7.415 22.996-13.927 35.925-8.82 17.506-24.873 36.19-46.675 26.653-3.52-1.54-12.32-11.66-6.82-25.737 3.093-7.918 9.213-17.68 18.832-25.178 7.48-5.83 17.077-10.3 29.01-11.445 18.08-1.042 19.577-.217 19.577-.217zm524.733 44.98s-12.317 16.497-36.515 17.817-34.755-8.8-35.195-25.957c-7.48 8.14-21.777 21.338-48.393 25.737S609.07 154.02 609.07 154.02c-39.153 31.016-49.932 3.96-49.932 3.96-40.255 28.156-47.953-5.28-47.953-5.28-40.693 35.415-51.472 3.08-51.472 3.08s-.88-3.3.44-6.6S483.25 86.27 483.25 86.27l-8.58-.22s-6.6 17.16-13.42 28.817-21.556 33.214-32.995 43.553-27.936 19.357-40.915-.22c-34.315 25.516-50.372 2.2-48.392-15.838s17.157-62.91 50.372-73.69 49.273 1.76 49.273 1.76l-5.388 14.84s-22.548-6.7-32.887 1.876-17.157 19.137-17.157 19.137-12.1 22.877-13.2 33.216-1.54 14.078 5.28 10.998 14.297-9.68 18.477-21.997L407.36 90.23l29.476-.44L414.4 151.6s14.74-9.898 24.857-29.695 18.037-36.734 18.037-36.734-4.84-2.42-4.62-6.16-1.1-17.597 14.08-27.716 16.277 14.08 14.957 16.278 21.557.66 21.557.66 16.497 0 11 15.837-25.516 67.1-25.516 67.1l23.096-14.958s4.62-34.535 23.976-52.792 32.336-20.237 54.772-18.037l13.42-37.395 28.66.055-45.793 123.728 21.135-14.53s-1.36-21.925 16.456-45.02 34.315-24.636 34.315-24.636l25.517-2.42s23.316 8.14 9.897 32.115-37.395 30.796-55.652 30.356l-1.54 21.117c-.22 5.72 8.14 6.6 8.14 6.6s15.837-2.64 29.695-15.837l17.157-16.717s5.28-14.52 11-23.537 17.597-26.836 42.673-33.214c0 0 16.057-4.18 25.076.88s13.2 21.776 3.96 34.754-18.477 25.076-52.133 25.296c0 0-2.2 11.88-2.86 19.797s8.58 7.92 8.58 7.92 15.837-.66 37.395-29.256l45.313-59.83h26.176l3.74 56.312s31.456.44 41.575-7.26 10.56 4.62 6.82 7.92-11.657 13.858-28.595 14.298l-24.197.88s-3.96 15.838-17.597 22.877-45.533 18.038-57.412-8.798zM540 146.322c1.54-20.237 16.717-45.973 24.856-56.752s18.697-7.26 18.697-7.26l-17.597 45.534-8.14 14.298-12.32 8.578h-4.84zm135.06-67.31s-8.14-3.08-16.277 10.12-14.517 25.297-14.517 25.297 8.8-.88 17.157-7.26S675.94 90.67 675.06 79.01zm83.588-.22s-8.14-3.08-16.277 10.118-14.517 25.297-14.517 25.297 8.8-.88 17.157-7.26S759.53 90.45 758.65 78.79zm52.793 12.76l-23.537 32.114 22.877-1.1s1.32-19.136.66-31.015zm-4.4 45.093s-17.817-3.52-24.636 9.24 12.76 8.8 12.76 8.8 7.48-5.5 11.877-18.038zM788.345 32.818l16.5.22s4.62 5.06-.22 15.838-12.977 12.098-16.497 10.778-4.84-3.08-2.42-6.6 7.04-5.5 5.5-11.44-2.86-8.8-2.86-8.8" fill="#fff"/></g><path d="M269.853 104.195h38.932l-28.632 73.533h31.05L367.44 28.486h-30.19l-24.205 62.52h-38.96l24.215-62.96h-31.06L242.58 91.45h-.908c-.03 0-10.24-.035-22.447 1.312l-.14.016c-4.347.483-9.012 1.25-13.816 2.3a142.4 142.4 0 0 0-14.751 4.1c-25.215 8.51-49.835 25.06-50.193 51.328-.025 1.86.04 3.67.196 5.43.98 11.194 5.585 19.037 12.38 24.102 6.86 5.112 15.98 7.452 25.896 7.59 2.36.032 4.8-.066 7.296-.284l.027-.002c3.457-.304 6.96-.844 10.456-1.598a94.86 94.86 0 0 0 10.435-2.891c17.607-5.97 33.556-16.986 40.347-30.11l.016-.026c13.795-25.4 21.195-47.56 21.216-47.623l.307-.907zm35.04 2.667h-34.09c-1.54 4.42-8.79 24.477-21.08 47.108h.001c-7.12 13.756-23.656 25.242-41.857 31.413-3.537 1.2-7.133 2.198-10.727 2.974-3.612.78-7.228 1.337-10.79 1.65l-.027.002a75.1 75.1 0 0 1-7.557.284c-10.455-.144-20.115-2.645-27.448-8.1-7.395-5.51-12.4-13.98-13.453-26.01-.156-1.783-.223-3.68-.196-5.7.38-27.703 25.885-45 52.007-53.82a144.42 144.42 0 0 1 15.021-4.172c4.928-1.088 9.687-1.87 14.096-2.363l.14-.016c10.24-1.128 19.05-1.3 21.83-1.327l24.66-63.41h36.747l-.696 1.807L277.95 88.35h33.273l24.208-62.53h35.856l-58.245 154.575h-36.78l.705-1.813zm-66.853.385c-1.393 4.35-3.26 10.14-5.573 16.402-2.335 6.32-5.144 13.19-8.43 19.715l-.003-.001v.005a91.96 91.96 0 0 1-4.188 7.446c-1.55 2.473-3.233 4.878-5.04 7.125-9.52 11.84-22.748 19.873-39.15 12.703h-.001l-.005-.002-.01-.005c-.608-.267-1.317-.72-2.06-1.34-.697-.584-1.452-1.338-2.205-2.25-3.775-4.575-7.44-13.142-3.257-23.847l.003-.005c.44-1.13.945-2.304 1.515-3.506a60.49 60.49 0 0 1 1.885-3.651c3.55-6.347 8.775-13.063 15.852-18.58l.005-.005.015-.012v.001c1.076-.837 2.19-1.646 3.34-2.415a56 56 0 0 1 3.608-2.22c6.4-3.618 13.952-6.222 22.735-7.07l.053-.006c18.412-1.06 20.2-.1 20.207-.096l1.068.493zm-8.075 15.486c2.075-5.617 3.76-10.757 5.075-14.838-1.82-.118-6.4-.164-17.77.49-8.364.816-15.548 3.293-21.63 6.73a54 54 0 0 0-3.432 2.117c-1.11.743-2.172 1.513-3.188 2.305l-.005.004-.015.012h-.001c-6.764 5.273-11.76 11.697-15.16 17.772-.656 1.17-1.256 2.34-1.8 3.494a51.39 51.39 0 0 0-1.443 3.339l-.003.005c-3.73 9.554-.504 17.148 2.83 21.2.63.764 1.268 1.4 1.86 1.897.547.456 1.028.772 1.405.94l.003.001.012.005c14.98 6.554 27.187-.934 36.027-11.927 1.763-2.192 3.385-4.507 4.863-6.865s2.836-4.8 4.064-7.237V142.172v-.006c3.225-6.403 5.997-13.182 8.305-19.432zM761.2 154.25c-3.89 4.282-16.01 15.62-36.128 16.717l-2.3.09c-11.356.29-19.648-2.052-25.25-6.544-5.243-4.204-8.09-10.23-8.85-17.695-3.656 3.746-8.58 8.165-15.18 12.265-7.963 4.944-18.353 9.415-31.863 11.648-22.82 3.772-30.96-9.63-33.147-14.563-33.852 26.07-46.84 9.103-49.844 3.77-34.7 23.57-45.623 2.063-48.117-4.91-40.92 34.547-52.02 1.285-52.055 1.19l-.025-.078c-.003-.01-1-3.742.487-7.453 1.183-2.957 18.864-51.33 22.447-61.135l-5.797-.148c-1.436 3.64-7.204 17.935-13.17 28.136l-.005.01-.003.004a200.94 200.94 0 0 1-3.315 5.448L455 127.268c-7.513 11.26-17.532 24.61-25.86 32.136-5.88 5.315-13.09 10.295-20.572 11.442-7.372 1.13-14.904-1.39-21.553-10.763-8.492 6.126-15.9 9.3-22.213 10.33-6.4 1.045-11.696-.1-15.875-2.6-4.184-2.513-7.22-6.377-9.112-10.774-2.003-4.65-2.732-9.914-2.196-14.807l.003-.02v-.005c.285-2.59.832-5.7 1.65-9.154.817-3.448 1.912-7.262 3.293-11.268 7.125-20.654 21.94-46.45 46.337-54.366 33.88-10.993 50.433 1.927 50.483 1.962l.788.594-6.147 16.935-1.196-.348c-.063-.018-21.876-6.5-31.668 1.627-9.833 8.16-16.412 18.108-16.865 18.8-.73 1.387-11.977 22.896-13.017 32.666l-.02.198c-.55 5.173-.915 8.595-.29 9.978.303.67 1.388.52 3.72-.533l.004-.002a27.87 27.87 0 0 0 2.761-1.439c.945-.56 1.877-1.183 2.78-1.87 4.76-3.617 9.305-9.315 12.217-17.9 4.168-12.287 13.62-38.226 13.65-38.3l.312-.86.92-.013 31.4-.468-21.527 59.3c4.92-4.14 13.957-12.937 20.856-26.434a1323.39 1323.39 0 0 0 17.508-35.609c-1.62-1.085-4.43-3.456-4.236-6.757h.001a31.76 31.76 0 0 0 .035-1.243c.084-5.197.293-17.947 14.63-27.505 3.42-2.28 6.263-2.962 8.61-2.584 2.204.354 3.907 1.61 5.204 3.356 1.213 1.632 2.06 3.688 2.628 5.8 1.312 4.893 1.064 10.383.396 11.496-.032.052 20.27-1.347 20.327-1.35h.1c.052 0 18.353 0 12.243 17.597-4.615 13.29-19.297 51.126-24.04 63.305l19.135-12.39c.72-4.707 6.088-35.803 24.295-52.975 9.84-9.28 18.09-14.433 26.768-16.997 8.403-2.483 17.12-2.51 28.013-1.492l13.387-37.302h.933l30.57.06-44.997 121.58 17.077-11.74c-.055-4.076.56-24.155 16.756-45.152 18.167-23.55 35.172-25.14 35.22-25.147h.02l25.516-2.42.58.072c.07.025 24.8 8.658 10.607 34.017l-.068.123c-1.917 3.408-4.055 6.486-6.363 9.26a57.72 57.72 0 0 1-7.359 7.381c-12.857 10.742-28.66 14.367-41.8 14.29l-1.433 19.816c-.156 4.05 5.648 5.05 6.77 5.207 1.777-.335 16.105-3.348 28.82-15.456l16.92-16.47c.74-1.995 5.68-15.096 11.028-23.535 2.892-4.56 7.345-11.35 14.297-17.853 6.963-6.512 16.39-12.688 29.175-15.94h.005c.047-.012 16.56-4.314 26.05 1 .445.25.888.53 1.325.843 4.088 2.91 7.056 8.096 8.1 14.122 1.032 5.96.19 12.768-3.31 19-.51.91-1.084 1.816-1.72 2.712-4.7 6.604-9.407 12.987-17.3 17.797-7.69 4.685-18.33 7.806-34.803 8.045-.548 3.075-2.107 12.134-2.644 18.59-.512 6.143 6.46 6.464 7.2 6.48.65-.04 15.635-1.208 36.38-28.73l45.72-60.363h28.08l.083 1.25 3.657 55.073c5.843-.01 30.916-.447 39.52-6.995 3.305-2.515 5.828-3.107 7.644-2.585 1.06.303 1.863.96 2.435 1.837.515.787.825 1.752.96 2.784.357 2.795-.65 6.276-2.53 7.936l-.02.016c-.47.416-1.06 1.005-1.74 1.684-4.433 4.42-12.572 12.538-27.685 12.93l-23.215.83c-1.116 3.595-5.857 16.514-18 22.782-1.327.685-2.808 1.4-4.403 2.106-7.5 3.32-17.905 6.64-27.92 6.34-10.223-.31-20.003-4.347-25.935-15.84zm-36.264 14.06c23.576-1.286 35.49-17.245 35.525-17.29l1.364-1.795.912 2.06a35.95 35.95 0 0 0 .908 1.901c5.393 10.45 14.313 14.122 23.644 14.404 9.536.288 19.54-2.917 26.776-6.12 1.575-.697 3.003-1.385 4.256-2.032 13.105-6.763 16.91-21.978 16.92-22.022l.243-.948.976-.052c.02-.001 7.217-.44 24.233-.88 14.045-.366 21.703-8.002 25.872-12.16.693-.69 1.295-1.29 1.856-1.788l.02-.017c1.26-1.11 1.916-3.578 1.656-5.612-.083-.647-.264-1.228-.552-1.67-.228-.35-.54-.61-.935-.724-1.065-.304-2.77.213-5.3 2.14-10.484 7.976-42.307 7.53-42.397 7.53l-1.232-.016-3.737-56.29H811.66l-44.91 59.3c-21.93 29.1-38.336 29.78-38.383 29.782h-.09c-.03 0-10.67.004-9.892-9.356.664-7.96 2.875-19.9 2.88-19.933l.2-1.075 1.1-.008c16.548-.108 27.053-3.112 34.536-7.672 7.447-4.536 11.98-10.693 16.52-17.066.57-.803 1.093-1.63 1.567-2.474 3.18-5.67 3.944-11.852 3.008-17.26-.925-5.34-3.497-9.897-7.016-12.403a12 12 0 0 0-1.085-.687c-8.495-4.765-23.86-.812-24.1-.75H746c-12.293 3.128-21.343 9.05-28.017 15.294-6.687 6.255-11.033 12.885-13.86 17.343-5.64 8.9-10.857 23.24-10.873 23.28l-.276.448c-.01.01-3.325 3.548-17.215 16.776-14.155 13.48-30.34 16.178-30.388 16.186l-.37.01c-.027-.002-9.588-1.007-9.32-7.97.224-5.835 1.536-21.136 1.54-21.18l.107-1.248 1.253.03c12.85.3 28.584-3.046 41.283-13.654 2.48-2.07 4.837-4.41 7.025-7.037s4.233-5.577 6.08-8.864l.07-.123c11.83-21.137-6.463-29.148-8.92-30.112l-25.187 2.39c-.045.005-15.94 1.485-33.408 24.127-17.512 22.7-16.183 44.08-16.18 44.142l.04.74-21.747 14.95-2.007-1.552L630.76 29.358l-25.815-.05-13.453 37.487-1.024-.1c-11.06-1.084-19.768-1.144-28.04 1.3-8.26 2.44-16.177 7.406-25.695 16.383-19.01 17.932-23.556 51.908-23.57 52.006l-.084.603-.51.33-23.097 14.958-1.963-1.594 25.5-67.043c4.683-13.487-8.52-14.052-9.673-14.076-.72.047-25.34 1.618-22.767-2.672.46-.764.455-5.18-.688-9.444-.49-1.827-1.2-3.575-2.19-4.905-.904-1.216-2.05-2.086-3.485-2.315-1.71-.275-3.91.307-6.715 2.177-13.185 8.79-13.376 20.538-13.455 25.328l-.036 1.357c-.168 2.86 3.885 4.894 3.896 4.9l1.14.587-.543 1.16c-.023.048-7.925 16.952-18.06 36.776-10.276 20.107-25.245 30.16-25.288 30.2l-2-1.552 21.78-60-26.63.397-13.316 37.386c-3.103 9.148-7.995 15.257-13.135 19.16-1.02.777-2.035 1.457-3.03 2.046-1.01.6-2.024 1.124-3.023 1.575l-.004.002c-4.05 1.83-6.168 1.575-7.24-.8-.92-2.037-.525-5.748.07-11.354l.02-.2c1.127-10.592 13.31-33.628 13.344-33.694l.063-.108c.02-.032 6.925-10.724 17.423-19.435 9.417-7.813 28.015-3.713 32.904-2.452l4.62-12.725c-3.552-2.244-18.94-10.2-47.26-1.008-23.407 7.595-37.717 32.63-44.64 52.7-1.35 3.915-2.42 7.644-3.22 11.017s-1.328 6.367-1.6 8.83l-.003.016c-.488 4.45.177 9.242 2 13.473 1.688 3.918 4.364 7.344 8.028 9.545s8.36 3.2 14.084 2.266c6.193-1.01 13.577-4.267 22.168-10.656l1.127-.836.775 1.17c6.14 9.26 13.04 11.77 19.728 10.745 6.87-1.052 13.628-5.752 19.187-10.775 8.14-7.357 18.01-20.522 25.435-31.647l4.024-6.205c1.24-1.968 2.34-3.783 3.28-5.385l.005-.01.003-.004c6.76-11.56 13.3-28.564 13.32-28.613l.34-.874 11.36.292-.63 1.733-23.113 62.953c-1.107 2.77-.455 5.504-.397 5.73.513 1.453 11.067 29.58 49.32-3.7l1.643-1.43.524 2.118c.02.09 7.253 31.54 45.9 4.508l1.352-.945.64 1.523c.03.072 10.115 25.425 47.88-4.5l1.523-1.208.57 1.858c.016.053 5.392 18.683 30.85 14.476 13.105-2.166 23.173-6.496 30.884-11.284 7.704-4.785 13.063-10.035 16.743-14.04l2.308.87.048 1.162c.412 7.562 2.965 13.586 8.005 17.628 5.112 4.1 12.83 6.234 23.52 5.96.695-.017 1.437-.048 2.225-.09zm-186.253-22.088l.001-.03c.223-2.9.72-5.908 1.428-8.966.704-3.033 1.624-6.126 2.7-9.216 5.493-15.773 15.083-31.417 20.99-39.242 8.713-11.54 20.133-7.734 20.167-7.723l1.34.43-18.19 47.024-8.14 14.297-.396.438-12.32 8.58-.76.24h-5.985l-.17-1.14-.66-4.4zm4.024-8.4c-.67 2.885-1.14 5.72-1.356 8.45l.467 3.115h3.276l11.732-8.17 7.937-13.946 17.008-44.005c-2.94-.475-10.005-.623-15.84 7.107-5.803 7.684-15.216 23.04-20.607 38.513-1.04 2.988-1.93 5.986-2.616 8.936zM673.79 80.08c-2.09-.298-7.84-.04-13.875 9.75-5.925 9.608-10.916 18.633-13.175 22.803 3.113-.723 8.57-2.47 13.876-6.522l.001.001.016-.013.005-.004a37.6 37.6 0 0 0 3.251-2.796 35.82 35.82 0 0 0 2.916-3.179c4.46-5.495 7.296-12.407 6.984-20.04zm-16.136 8.352c8.71-14.122 17.825-10.684 17.85-10.675l.82.292.064.864c.66 8.752-2.47 16.664-7.52 22.884-.98 1.206-2.03 2.348-3.137 3.42a39.53 39.53 0 0 1-3.479 2.993l-.001-.001-.016.012-.005.005c-8.656 6.607-17.803 7.523-17.83 7.526l-2.472.257 1.16-2.2c.017-.035 6.388-12.115 14.564-25.376zm99.724-8.573c-2.09-.297-7.84-.037-13.875 9.75-5.925 9.608-10.916 18.633-13.175 22.802 3.113-.723 8.57-2.47 13.876-6.52l.001.001.015-.012.007-.005c1.13-.865 2.22-1.8 3.25-2.796s2.008-2.06 2.916-3.18c4.46-5.494 7.296-12.407 6.984-20.04zm-16.136 8.355c8.71-14.124 17.825-10.685 17.85-10.676l.82.29.064.866c.66 8.753-2.47 16.664-7.52 22.884a38.6 38.6 0 0 1-3.137 3.419c-1.107 1.07-2.272 2.07-3.48 2.993V107.987l-.015.013-.007.005c-8.656 6.606-17.803 7.522-17.83 7.523l-2.472.26 1.16-2.203a488.78 488.78 0 0 1 14.564-25.373zm69.015 7.207l-19.63 26.784 18.904-.9c.24-3.815.94-16.126.725-25.874zm-23.424 27.46l23.537-32.116 2.4.713c.664 11.968-.657 31.123-.66 31.178l-.08 1.183-1.184.057-25.66 1.233zm18.393 14.845c-4.327-.49-16.465-.912-21.647 8.783-5.05 9.446 8.764 7.327 11.023 6.925 1.216-.982 6.807-5.878 10.624-15.708zm-23.99 7.532c7.285-13.63 26.004-9.93 26.06-9.92l1.515.29-.51 1.455c-4.536 12.93-12.31 18.646-12.332 18.663l-.547.245c-.064.012-22.34 4.525-14.185-10.73zM788.36 31.5l17.08.228.39.435c.015.016 5.2 5.697.005 17.265l-.008.02v.004c-.705 1.568-1.488 2.958-2.32 4.184a21.3 21.3 0 0 1-2.624 3.183c-4.804 4.757-10.343 5.172-13.22 4.092-2.09-.783-3.555-1.76-4.188-3.177-.66-1.48-.37-3.213 1.112-5.385l.003-.005.027-.036c.716-1.04 1.567-1.916 2.41-2.787 1.927-1.985 3.83-3.945 2.892-7.56-1.507-5.812-2.783-8.577-2.787-8.585l-.865-1.903zm15.81 2.868l-13.856-.185c.544 1.484 1.33 3.842 2.177 7.11 1.312 5.06-1.108 7.553-3.56 10.08-.757.78-1.52 1.565-2.105 2.405h.001l-.004.005-.025.036c-.913 1.33-1.167 2.227-.897 2.828.3.672 1.256 1.235 2.687 1.772 2.185.82 6.493.4 10.42-3.488.796-.788 1.57-1.712 2.3-2.788.736-1.084 1.44-2.34 2.09-3.787l.003.001.005-.015c3.687-8.21 1.62-12.648.76-13.976" fill="#231f20"/><path d="M284.958 217.383l.268-.275 2.928 2.895-.285.294-.3-.138c-.067-.02-.13-.028-.185-.016-.117.026-.39.256-.83.68-2.037 1.93-4.16 3.147-6.367 3.64-2.567.576-4.88.276-6.936-.894-2.057-1.176-3.35-2.932-3.88-5.273-.544-2.39-.124-4.54 1.26-6.46 1.38-1.92 3.46-3.2 6.23-3.81 1.42-.318 2.9-.404 4.453-.253l2.46.198.353-.12.43-.15.36.135-1.364 4.04-.41-.123c.005-.022.005-.043.005-.064s-.001-.052-.01-.087c-.1-.44-.772-.766-2.013-.98a9.55 9.55 0 0 0-3.748.101c-1.724.387-3.028 1.2-3.91 2.466-.884 1.263-1.15 2.655-.803 4.188.37 1.627 1.223 2.82 2.556 3.576s2.9.933 4.692.532c1.316-.295 2.54-.874 3.687-1.74s1.67-1.48 1.59-1.84a1.71 1.71 0 0 0-.08-.239 2.75 2.75 0 0 0-.156-.28zm11.335 2.118c.047.298.123.495.233.585.108.098.325.153.645.178l.06.4-4.92.742-.063-.4c.296-.127.484-.255.557-.38.076-.13.09-.33.048-.608l-2.085-13.372c-.047-.3-.128-.493-.24-.595-.116-.097-.33-.158-.64-.184l-.06-.384 4.923-.742.06.384c-.277.115-.46.235-.544.362-.087.132-.105.342-.06.64l.768 4.92 9.057-1.365-.767-4.92c-.05-.32-.127-.52-.24-.61-.104-.087-.317-.144-.627-.17l-.06-.384 4.897-.738.06.383c-.275.104-.45.218-.532.345-.076.13-.095.345-.045.653l2.084 13.373c.048.308.125.504.236.596s.313.15.62.187l.06.384-4.897.738-.063-.4c.28-.104.46-.22.54-.346s.096-.34.05-.64l-.856-5.5-9.06 1.365zm16.192-1.157l-.043-.402c.532-.2.93-.702 1.197-1.5.017-.073.04-.143.065-.202l4.57-13.017a1.69 1.69 0 0 0 .095-.303c.01-.057.015-.11.01-.16a.61.61 0 0 0-.263-.437c-.155-.12-.376-.2-.655-.256l-.04-.386 5.343-.517.04.386c-.285.13-.47.246-.565.358a.5.5 0 0 0-.112.386c.008.07.025.147.06.236a2.51 2.51 0 0 0 .143.299l7.34 11.882c.32.51.596.862.828 1.056a1.56 1.56 0 0 0 .801.35l.04.402-5.684.55-.04-.402c.267-.118.447-.234.55-.346.1-.118.147-.256.13-.43-.008-.066-.025-.14-.055-.222-.027-.074-.08-.182-.153-.313l-1.397-2.348-7.24.7-.832 2.563-.083.336c-.01.084-.013.162-.007.227a.53.53 0 0 0 .213.396c.12.09.325.17.612.234l.04.402zm7.88-12.82l-2.1 5.907 5.24-.507zm13.98 10.755l-.02-.402c.3-.076.496-.17.59-.298.09-.12.13-.328.115-.62l-.697-13.507c-.015-.28-.07-.478-.17-.59s-.31-.207-.625-.274l-.02-.39 9.964-.43c2.063-.09 3.684.25 4.87 1.018s1.812 1.887 1.887 3.353c.064 1.205-.24 2.215-.903 3.027-.66.817-1.715 1.45-3.16 1.913l3.596 4.6c.212.283.447.523.71.728s.677.44 1.24.72l.02.403-5.828.252-.02-.403c.215-.04.377-.11.484-.2s.16-.207.153-.34c-.001-.026-.047-.126-.13-.292a3.71 3.71 0 0 0-.275-.438l-3.575-4.78-4.32.187.273 5.295c.016.302.072.503.173.607.096.108.307.186.623.244l.02.403zm8.313-13.717l-4.775.207.228 4.412 4.896-.21c1.444-.062 2.467-.286 3.063-.665s.872-.975.83-1.78c-.04-.776-.37-1.314-.987-1.616-.615-.295-1.7-.412-3.256-.345zm12.92 13.15v-.404c.312-.08.52-.174.61-.286.096-.116.14-.3.14-.59v-13.52c0-.3-.05-.506-.147-.624s-.3-.208-.604-.283v-.388l10.728.106c1.793.018 3.185.395 4.188 1.125.997.736 1.496 1.748 1.496 3.036 0 .736-.18 1.383-.54 1.932s-.9 1.013-1.632 1.384c.907.47 1.577 1.023 2.01 1.666s.65 1.412.65 2.296c0 1.487-.57 2.642-1.704 3.458s-2.747 1.214-4.823 1.194zm9.428-7.016l-5.195-.052v4.385l5.08.05c1.592.016 2.692-.137 3.285-.463.595-.32.892-.88.892-1.684 0-.766-.317-1.326-.957-1.685s-1.673-.54-3.104-.552zm.4-6.375l-5.593-.056v3.516l6.02.06c.957.01 1.663-.126 2.12-.403s.685-.714.685-1.307c0-.654-.236-1.12-.716-1.387s-1.315-.412-2.52-.423zm11.78 14.102l.028-.403c.305-.037.513-.106.623-.22.103-.1.167-.3.188-.6l.93-13.477c.02-.28-.012-.483-.1-.608s-.283-.243-.588-.35l.027-.388 9.952.805c2.06.167 3.632.704 4.717 1.61s1.573 2.095 1.473 3.557c-.084 1.203-.504 2.17-1.26 2.89-.753.728-1.88 1.226-3.37 1.505l3.02 5.004c.176.306.38.574.616.808s.62.52 1.148.866l-.027.402-5.82-.47.027-.402c.22-.013.39-.062.505-.14.123-.083.185-.185.195-.317.001-.026-.032-.13-.096-.305s-.143-.334-.22-.468l-2.98-5.18-4.313-.35-.364 5.283c-.02.3.01.508.097.623s.284.222.59.32l-.028.402zm9.91-12.572l-4.77-.385-.304 4.402 4.89.396c1.443.116 2.485.02 3.123-.28s.984-.858 1.04-1.663c.053-.774-.21-1.35-.785-1.723s-1.64-.62-3.195-.746zm21.447-.5c2.66.405 4.733 1.517 6.224 3.328 1.485 1.817 2.067 3.908 1.74 6.28s-1.46 4.205-3.39 5.51c-1.935 1.3-4.22 1.752-6.857 1.35-2.6-.396-4.647-1.513-6.145-3.347-1.492-1.838-2.08-3.93-1.752-6.28.327-2.36 1.447-4.188 3.365-5.5 1.913-1.302 4.187-1.75 6.816-1.35zm-6.836 7.258c-.225 1.622.113 3 1.02 4.14s2.23 1.847 3.97 2.112c1.732.264 3.193-.02 4.373-.845s1.888-2.045 2.112-3.657c.224-1.618-.12-3.002-1.035-4.148s-2.245-1.855-3.987-2.12c-1.712-.26-3.163.023-4.343.855-1.187.836-1.89 2.055-2.113 3.662zm22.167 11.06c-.06.306-.052.515.02.64.075.12.245.25.523.39l-.073.38-4.872-1.01.075-.396c.316-.008.527-.058.637-.15.105-.098.187-.284.243-.568l2.543-13.246c.06-.305.053-.52-.017-.654s-.245-.254-.525-.375l.073-.38 4.872 1.01-.075.38c-.292.002-.497.048-.616.138-.117.096-.205.29-.264.596zm20.032 3.605c.307.086.52.1.632.04.12-.062.248-.226.393-.497l.39.093-1.12 4.224-.383-.108c.016-.302-.015-.522-.105-.654-.084-.135-.265-.24-.544-.317l-13.7-3.86.103-.388c.323.005.548-.032.664-.115.123-.087.216-.262.287-.532l3.45-13.025c.076-.3.08-.5.017-.64-.068-.136-.24-.28-.513-.43l.1-.374 4.815 1.356-.1.374c-.3-.01-.52.023-.644.104-.132.085-.233.268-.31.558l-3.04 11.483zm19.27 5.467c.308.086.52.098.645.034s.255-.23.4-.5l.37.104-1.12 4.225-.37-.104c.007-.305-.03-.526-.11-.655-.085-.135-.267-.24-.553-.32l-13.93-3.925.103-.388c.324.006.548-.03.664-.115.123-.087.216-.263.287-.533l3.45-13.024c.076-.29.08-.5.017-.64-.068-.137-.24-.28-.513-.43l.1-.374 13.76 3.877c.297.083.505.09.632.024.124-.07.26-.245.405-.52l.384.108-1.116 4.215-.385-.11c.016-.296-.012-.505-.093-.634-.077-.123-.23-.218-.444-.278l-.117-.033-9.67-2.724-.9 3.402 6.16 1.736c.308.086.52.1.633.04.12-.06.255-.23.412-.508l.37.104-1.04 3.93-.37-.104c.015-.297-.02-.508-.1-.636-.087-.125-.273-.23-.57-.315l-6.16-1.736-1.07 4.038zm12.38-7.112l-2.568 10.42 4.112 1.08c1.756.46 3.2.372 4.327-.275s1.9-1.83 2.32-3.546c.42-1.71.29-3.12-.4-4.234s-1.916-1.9-3.68-2.363zm4.125-1.634c1.843.485 3.243.995 4.192 1.534s1.724 1.222 2.324 2.044c.63.865 1.03 1.877 1.2 3.033s.093 2.364-.22 3.63c-.317 1.287-.813 2.394-1.496 3.326s-1.504 1.628-2.46 2.087c-.907.426-1.903.643-2.987.648s-2.55-.238-4.392-.722l-7.604-2 .096-.39c.323 0 .547-.04.66-.126.12-.09.21-.266.28-.538l3.224-13.085c.072-.292.072-.502.007-.64s-.244-.275-.52-.422l.093-.375zm21.27 8.382c-.303-.062-.508-.058-.63.016-.117.075-.237.247-.364.528l-.39-.08.817-4.256.376.078c.013.305.064.523.164.648.093.128.28.22.563.278l13.055 2.703c.3.063.51.054.63-.02.12-.08.24-.262.368-.548l.39.082-.823 4.286-.39-.08c-.003-.308-.048-.525-.148-.65-.093-.128-.283-.22-.564-.278l-4.837-1-2.25 11.718c-.06.306-.053.515.02.64.075.12.247.243.525.374l-.076.395-4.828-1 .076-.396c.303-.02.513-.077.624-.168.116-.096.208-.28.283-.562l2.247-11.703zm20.21 16.543c-.045.298-.033.506.045.628.072.126.263.246.56.37l-.06.398-4.923-.84.063-.398c.32-.028.54-.09.647-.185.113-.1.187-.283.23-.56l2.084-13.33c.048-.297.03-.507-.047-.64-.083-.127-.268-.252-.555-.374l.06-.383 4.923.84-.06.383c-.3.02-.512.078-.63.172-.123.098-.204.29-.25.588l-.767 4.904 9.06 1.545.767-4.904c.05-.318.036-.532-.04-.654-.073-.116-.26-.236-.547-.357l.06-.383 4.897.835-.06.382c-.293.013-.496.066-.612.16-.113.1-.196.298-.244.605l-2.085 13.33c-.047.308-.033.517.044.64.08.117.255.24.535.37l-.06.383-4.897-.835.063-.398c.297-.012.505-.064.623-.158.112-.1.193-.293.24-.59l.856-5.473-9.057-1.545zm22.732 3.656c-.04.31-.017.52.064.637s.26.23.547.352l-.047.385-4.927-.663.05-.4c.313-.03.52-.095.624-.194.1-.105.168-.297.203-.585l1.624-13.402c.037-.31.017-.523-.063-.652-.083-.124-.26-.236-.55-.337l.047-.384 4.927.663-.047.384c-.293.023-.493.083-.607.182s-.184.305-.22.613zm20.68-1.874l.34-.176 1.912 3.662-.36.2c-.107-.108-.192-.188-.244-.224-.057-.042-.116-.068-.17-.073-.12-.012-.45.12-1 .383-2.533 1.19-4.93 1.68-7.184 1.456-2.624-.26-4.74-1.268-6.345-3.022-1.604-1.76-2.3-3.83-2.096-6.215.21-2.438 1.267-4.344 3.173-5.73 1.9-1.387 4.273-1.94 7.104-1.66 1.45.143 2.89.526 4.325 1.155l2.287.96.375-.004.456-.006.304.24-2.532 3.403-.353-.245a.36.36 0 0 0 .025-.06.42.42 0 0 0 .017-.085c.04-.448-.504-.968-1.623-1.56s-2.323-.953-3.608-1.08c-1.76-.174-3.256.197-4.48 1.113s-1.908 2.156-2.04 3.72c-.144 1.658.307 3.057 1.35 4.19s2.483 1.794 4.315 1.975c1.345.132 2.69-.033 4.048-.494 1.356-.466 2.044-.88 2.076-1.247.007-.07.004-.154-.004-.25s-.033-.2-.064-.315zm9.9 5.36c-.015.3.02.508.11.622s.287.217.596.308l-.02.404-4.977-.314.02-.403c.316-.062.528-.146.624-.252.1-.11.157-.302.17-.583l.7-13.494c.015-.3-.024-.508-.113-.63-.096-.12-.292-.223-.59-.314l.02-.387 4.977.314-.02.387c-.296.053-.5.132-.608.238-.112.1-.172.312-.188.612l-.285 5.5 6.633-4.772.047-.027c.33-.235.5-.45.508-.64.007-.112-.05-.218-.17-.323s-.284-.182-.497-.247l.02-.387 6.668.42-.02.388a19.83 19.83 0 0 0-2.657 1.618c-.04.023-.068.043-.08.052l-5.455 3.93 5.86 8.016.837.795 1.04.885-.02.403-6.25-.394.02-.403a2.42 2.42 0 0 0 .527-.341c.107-.106.168-.22.175-.352.005-.107-.08-.277-.256-.507l-.15-.204-4.457-5.984-2.513 1.75zm16.275 2.308v-.404c.313-.08.52-.174.61-.286.096-.116.14-.3.14-.59v-13.52c0-.3-.05-.506-.147-.625-.1-.113-.303-.207-.605-.282v-.388l10.73.106c1.793.02 3.184.395 4.187 1.125.997.736 1.497 1.748 1.497 3.036 0 .736-.183 1.383-.54 1.932s-.9 1.013-1.632 1.384c.907.468 1.577 1.022 2.01 1.666s.65 1.412.65 2.296c0 1.487-.57 2.64-1.703 3.458-1.14.817-2.747 1.215-4.823 1.194zm9.428-7.016l-5.195-.052v4.386l5.08.05c1.592.016 2.69-.137 3.285-.463.593-.32.892-.88.892-1.683 0-.766-.317-1.326-.957-1.685s-1.673-.538-3.105-.553zm.4-6.375l-5.593-.056v3.517l6.02.06c.957.01 1.664-.126 2.12-.403s.685-.714.685-1.307c0-.655-.236-1.122-.715-1.387s-1.316-.412-2.52-.424zm15.683 6.938c.075 1.45.475 2.45 1.2 3.018.72.563 1.893.81 3.503.74 1.595-.07 2.73-.435 3.408-1.094.683-.66.987-1.707.912-3.14l-.007-.122-.425-8.242c-.016-.312-.072-.52-.173-.632-.1-.108-.297-.187-.597-.235l-.02-.388 4.98-.215.02.387c-.288.084-.485.185-.58.302-.1.122-.14.328-.124.63l.447 8.66c.12 2.313-.413 3.99-1.596 5.018s-3.23 1.608-6.14 1.734c-2.828.123-4.89-.29-6.185-1.232s-2.003-2.55-2.12-4.827l-.447-8.66c-.016-.312-.073-.52-.173-.632s-.297-.187-.597-.235l-.02-.388 4.956-.214.02.388c-.284.074-.47.168-.565.285-.09.122-.128.333-.112.645zm18.97 5.076l-.04-.4c.293-.09.485-.196.573-.328.083-.126.112-.334.08-.625l-1.393-13.458c-.028-.28-.095-.474-.2-.582s-.32-.19-.637-.24l-.04-.386 9.923-.96c2.055-.2 3.69.054 4.912.758s1.907 1.79 2.057 3.25c.125 1.2-.123 2.227-.744 3.073-.616.85-1.637 1.54-3.055 2.08l3.827 4.403a3.75 3.75 0 0 0 .744.689c.273.2.7.405 1.277.652l.04.402-5.803.56-.04-.4c.212-.052.37-.13.472-.226a.4.4 0 0 0 .136-.347c-.003-.025-.053-.124-.145-.284a3.54 3.54 0 0 0-.297-.423l-3.815-4.586-4.3.416.547 5.276c.03.3.096.5.203.598s.316.17.635.2l.04.402zm7.592-14.146l-4.756.46.455 4.396 4.876-.47c1.44-.14 2.448-.417 3.023-.827s.82-1.02.737-1.824c-.08-.773-.437-1.293-1.068-1.562-.63-.263-1.717-.322-3.267-.17zm28.89 5.115c.057.296.145.493.272.59.12.102.336.15.635.157l.073.382a19.37 19.37 0 0 1-4.047 2.742c-1.46.742-2.888 1.243-4.267 1.502-2.597.486-4.904.106-6.915-1.136-2.007-1.25-3.237-3.05-3.688-5.407-.456-2.388.043-4.517 1.492-6.397s3.56-3.078 6.327-3.595c1.4-.262 2.82-.3 4.256-.14l2.213.242c.11-.02.312-.085.608-.203l.17-.063.372.144-1.224 4.134-.36-.146c.005-.022.012-.043.013-.065s-.005-.05-.012-.086c-.084-.442-.75-.79-1.993-1.048a9.69 9.69 0 0 0-3.776-.027c-1.76.33-3.097 1.116-4.016 2.36s-1.22 2.676-.91 4.3c.288 1.503 1.145 2.66 2.577 3.48s3.063 1.062 4.887.72c.708-.132 1.433-.357 2.18-.668s1.527-.723 2.35-1.247l-.413-2.162-3.87.724c-.29.055-.48.137-.565.252-.092.116-.144.324-.167.635l-.375.07-.7-3.655.39-.073c.117.29.24.476.38.554.13.074.34.087.62.035l7.39-1.384.07.367c-.265.112-.44.238-.527.385-.08.14-.095.36-.04.652zm18.637-3.858c.307-.08.493-.177.572-.297.072-.12.105-.33.096-.64l.37-.097 1.12 4.247-.37.097c-.144-.27-.284-.444-.417-.516-.14-.074-.347-.073-.633.002l-13.932 3.648-.1-.39c.28-.158.455-.305.513-.437.063-.138.057-.337-.015-.6l-3.45-13.093c-.077-.292-.177-.477-.3-.567-.127-.083-.345-.122-.655-.114l-.1-.376 13.76-3.604c.297-.078.48-.178.556-.3.072-.125.103-.344.092-.66l.385-.1 1.116 4.237-.384.1c-.132-.267-.26-.434-.395-.505-.127-.067-.304-.074-.52-.018l-.117.03-9.67 2.532.9 3.42 6.163-1.613c.307-.08.495-.177.565-.286.073-.114.105-.33.104-.65l.37-.098 1.04 3.95-.37.097c-.132-.267-.264-.434-.397-.505-.137-.064-.35-.062-.647.016l-6.163 1.614 1.07 4.06zm6.787.987l-.124-.386c.27-.15.435-.294.493-.442.055-.14.04-.352-.048-.63l-4.12-12.898c-.085-.268-.19-.445-.317-.528-.123-.09-.348-.12-.67-.102l-.12-.37 9.49-3.033c1.965-.628 3.613-.726 4.95-.292s2.227 1.352 2.675 2.75c.367 1.15.335 2.21-.097 3.17-.427.964-1.283 1.855-2.556 2.682l4.637 3.5c.277.218.564.4.87.518s.765.25 1.38.37l.123.385-5.55 1.773-.123-.384c.196-.095.336-.205.415-.32.083-.123.103-.242.063-.37-.008-.024-.077-.1-.2-.247s-.256-.257-.376-.353l-4.664-3.7-4.113 1.314 1.616 5.057c.092.288.197.47.32.542.12.08.344.1.663.074l.123.385zm4.51-15.468l-4.548 1.454 1.345 4.213 4.663-1.49c1.376-.44 2.304-.924 2.78-1.448s.59-1.173.345-1.943c-.236-.742-.692-1.176-1.363-1.306s-1.744.047-3.224.52zm14.305 7.534l.16-4.197.53.013c-.003.022-.001.055.005.097l.04.226c.147.37.91.534 2.287.497 1.372-.036 2.696-.312 3.963-.818 1.14-.456 1.997-1.024 2.577-1.703s.75-1.303.52-1.88c-.376-.946-1.82-.98-4.327-.11l-2.184.73c-1.833.55-3.32.654-4.452.308-1.136-.34-1.945-1.124-2.432-2.35-.587-1.48-.435-2.924.452-4.332.892-1.41 2.36-2.525 4.416-3.347 1.687-.675 3.725-.966 6.104-.876.595.022.94.017 1.04-.025a.5.5 0 0 0 .183-.139c.055-.066.136-.187.24-.354l.407.03-.385 4.255-.567-.065c-.012-.028-.02-.047-.02-.063s-.007-.046-.027-.094c-.177-.447-.925-.694-2.237-.743s-2.587.17-3.805.656c-1.08.432-1.876.95-2.4 1.555s-.673 1.184-.455 1.73c.316.8 1.557.844 3.715.13l2.707-.806c1.86-.484 3.41-.537 4.647-.145s2.097 1.2 2.58 2.408c.568 1.433.356 2.9-.64 4.374s-2.57 2.66-4.724 3.522a14.49 14.49 0 0 1-6.42 1.012c-.42-.024-.668-.02-.743.01-.1.04-.165.088-.2.15s-.05.163-.05.3l-.507.043" fill="#f7c611"/><g fill="#db232e"><path d="M872.476 56.655v1.412h-1.66v6.627h-1.72v-6.627h-1.66v-1.412h5.04m2.52 8.04h-1.707v-8.038h2.283l2.24 5.846 2.235-5.846h2.283v8.038h-1.7l.06-5.836-2.23 5.836h-1.3l-2.235-5.836.072 5.836"/></g></svg>