<svg xmlns="http://www.w3.org/2000/svg" width="800" height="566" viewBox="0 0 390 276" fill="none"><g clip-path="url(#A)"><g fill-rule="evenodd"><g fill="#FF5000"><g stroke="#672D00"><g stroke-miterlimit="10"><path d="M23.4 53.8l-.3-19c0-1.4.3-5.8-6.8-5.9l-8.8-.1s-5.9-.1-6.4 5.8C.6 40.4.4 90.1.5 92c.3 5.1 6 4.4 10.7 4.5s9.5.9 10.3-5.1c1.2-9 1.2-18.5 1.2-18.5l10.7-.9.2 17.7c0 2.2-.2 5.9 4.4 6.8 5.9 1.2 10.5.3 12.7-.3 2.2-.7 4.4-1.5 4.5-5.3l-.3-55.2s.5-3.9-3.4-4.9-8.5-1.4-14.2-.7c-2.4.3-4.9 3.4-4.9 5.8s.3 17.6.3 17.6l-9.3.3zm348.3-10.2C367 30.4 351.2 31.9 349.8 32s-20.5-.5-23.2 18.9C325 62.6 340 72.5 340 72.5l8.2 5.5c3.9 2.2 3.3 7.2-.3 4.3-2.1-1.7-6.6-4.4-8-5.3-3.5-2.3-12.8-1-13.3 7.7 0 0-.7 15.4 21.3 15.4 8.3 0 22.5-1.9 22.9-17.1.4-15.1-12.5-21.1-12.5-21.1s-5.7-2.7-8.7-4.6c-3.1-1.9-1.8-7.3 3-4.6 11 7.9 23.3 3.8 19.1-9.1z"/></g></g></g></g><path d="M148.7 216c-23.8 26.4-46.1 19.6-46.1 19.6l18.2-13.8c93.8-31.1 42.9-131.5 42.9-131.5l.1-3.5.1.3 1.6-1.2c-1.2-2.5-2.3-4.8-3.5-6.8 0-3.3-10-9.9-10-9.9S97.7 50 95.3 63c-7.9 9.3-13.9 49.8-13.9 49.8l8.3 79.8s-.7 37.1 3 41.6c27.8 9 46.2-5.3 56.8-19-.2.3-.5.6-.8.8z" fill="#DAD6CC"/><path d="M166.9 89l-2.1 1.5-1.5.2 1.3 3.2.4 1.4c4.9 16.7 5.8 38.2 2.6 55.3l-2-1.1c-.6 10.8-3.7 17.7-6.6 21.9-1.1 1.4-2.3 2.8-3.4 4-1.2 1.1-2 1.6-2 1.6.1-.9-.6-5.1-.6-5.1-9.6 20-48.8 33.7-48.8 33.7l1.3 6.5c-2.6 1.1-5.3 2.1-8.1 3.1l3 25.2c5.8.6 12.2-1.1 17.9-2.3 2.5-.8 4.3-.7 6.5-2 2.6-1.5 5.4-2.8 7.8-4.6 3.9-2.9 7-6.7 10.6-9.9 1.3-1.2 5.6-5.5 6.8-2.1.4 1.1.5 2.1.5 3.2.2.4.4.9.6 1.3 1.7-1.9 3.2-4 4.7-6.1C205.1 164.5 166.9 89 166.9 89z" fill="#CDC3B9"/><g fill="#672D00"><path d="M180.8 23.3c1.9-4.5-.4-4.4-.4-4.4s3.1-10.1-1.5-16.6c-3.5-4.9-5.3.9-5.3.9s-6.5 17.2-27.9 22.4c0 0-18.4 4.3-25.7 19.3-7.4-14.1-24.6-18.6-24.6-18.6C74.1 20.5 68 3.2 68 3.2s-1.6-5.8-5.3-1c-4.7 6.4-1.9 16.6-1.9 16.6s-2.3-.1-.5 4.4c-3 8.6 1.9 22.3 1.9 22.3-8.7 24.5.5 37.9 7.9 44.3-12.7 14.4-32 37.6-31 80.4.7 28.3 14.5 55.8 18 62.3.3.5.3.4.6 1 .3.5.8 1.1 1.2 1.5l.3.3c.4-1.4 1.4-4.4 1.4-4.4s.5 8.9 6.5 14.4l.2-.4.8-6.5c1.1 11.4 5.2 17.2 6.3 18.6.2.2 1.6 2.2 1.7 1.9.3-1.9 1-4 1-4s7.3 20.5 7.9 20.5c.5 0 8.1-14.8 8.9-15.9.7.7 1.9-.1 2.5-.5 3.2-2 5.1-5.7 6.6-9.1l1.8-4.1a129.66 129.66 0 0 0 2.2-5.6c.6 2.6.6 2.3.7 3.9 0 .2.1.5.1.7 0 .4.1.5.5.3 2.7-1.6 7.4-8.5 8.2-9.6 0 0 40.6-58.7 4.6-119.5-12.8-21.2-27.8-33-23.9-43.2l8.7 3 27.7-3.1 5 10.1c4-.9 17-3.7 22.2-4 2-.1 4.5 5.5 6.9 13.1 8.8-7.6 16.1-20.1 11.3-39.2 0-.1 4.6-20.7 1.8-29.4zm-60.2 23.2v-.1.1z"/><path d="M85 275.7c-.2 0-.7 0-7.8-20-.2.8-.6 2.1-.8 3.3v.2h-.2c-.1 0-.3 0-1.8-2-3-4.2-5.2-10-6.1-16.6-.2 1.8-.5 3.9-.6 4.4 0 0-.1.6-.4.6l-.2-.1c-4.7-4.3-6-10.8-6.4-13.5l-1 3.3-.1.2h-.2c-.2 0-.5-.4-.5-.4-.3-.3-.8-1-1.2-1.6-.1-.2-.2-.3-.2-.4-.1-.2-.2-.3-.4-.6-1.8-3.2-17.3-32.5-18-62.4-1-43.9 19.6-67.6 30.9-80.4-4.8-4.2-8.1-9.3-9.9-15.3-2.5-8.4-1.8-18.1 2.1-29-.4-1.2-4.8-14-1.9-22.3-.7-2-.9-3.3-.3-4.1.2-.3.5-.5.8-.5-.4-1.7-2.3-10.7 2-16.5 1-1.3 2-2 2.9-2 1.9 0 2.8 3 2.8 3.1.1.2 6.3 17.2 27.2 22.9.2 0 17 4.6 24.5 18.3 7.4-14.6 25.5-19 25.6-19 21-5.1 27.7-22.1 27.7-22.3 0-.1 1-3 2.9-3 .9 0 1.9.7 2.9 2 4.2 6 2.1 14.9 1.6 16.6.2.1.5.2.8.5.5.8.4 2.2-.4 4.1 2.7 8.5-1.5 27.9-1.8 29.3 5 20.1-3.4 32.5-11.4 39.4l-.3.2-.1-.4C164 81.3 161.9 79 160.8 79c-5.3.3-18.3 3.1-22.2 4h-.2l-5-10.1-27.6 3.1-8.5-3c-2.3 6.5 3.1 13.7 10.6 23.7 4.1 5.5 8.8 11.7 13.2 19.2 18.6 31.4 16.4 62.3 11.2 82.7-5.6 22.1-15.7 36.9-15.8 37l-.2.3c-1.4 1.9-5.5 7.9-8.1 9.3-.8.4-.8-.2-.8-.5v-.7c-.1-1.3-.1-1.3-.4-2.8l-.1-.3c-.6 1.6-1.2 3.2-1.9 4.8l-.1.2c-.5 1.3-1.1 2.6-1.7 4-1.6 3.6-3.4 7.2-6.7 9.2h-.1c-.5.3-1.2.8-1.9.8-.2 0-.4-.1-.6-.2-.5.8-1.7 3.1-3 5.5-5 9.7-5.6 10.5-5.9 10.5zm-7.9-21.5l.2.7c2.7 7.5 6.8 18.7 7.7 20.2.8-1 3.6-6.3 5.5-9.9 1.6-3 2.8-5.3 3.2-5.8l.2-.2.2.2c.1.1.3.2.5.2.5 0 1.2-.4 1.7-.7h.1c3.1-1.9 4.9-5.5 6.5-9 .6-1.3 1.1-2.6 1.7-3.9l.1-.1 2.2-5.6.3-.8.4 1.9c.3 1.5.3 1.5.5 2.9v.8s.1 0 .1-.1c1.6-.9 4.3-4 7.9-9.2l.2-.3c.1-.1 10.2-14.9 15.8-36.9 5.1-20.3 7.4-51-11.2-82.3-4.4-7.4-9.1-13.6-13.2-19.1C99.9 86.8 94.4 79.5 97 72.7l.1-.2 8.9 3.1 27.8-3.1 4.9 10c4.1-.9 16.9-3.7 22-3.9h.1c1.9 0 4.2 4.2 7 12.9 7.8-6.8 15.9-19 10.9-38.7v-.2c0-.2 4.6-20.7 1.8-29.2v-.2c.9-2.3.8-3.3.5-3.7-.2-.4-.6-.4-.7-.4h-.3l.1-.3c0-.1 3-10.1-1.5-16.4-.9-1.2-1.7-1.8-2.5-1.8-1.6 0-2.4 2.7-2.4 2.7-.1.2-6.8 17.4-28.1 22.6-.2 0-18.3 4.5-25.5 19.2l-.2.4-.2-.4c-7.3-13.8-24.3-18.4-24.4-18.5-21.1-5.7-27.5-23-27.6-23.2 0 0-.8-2.7-2.4-2.8-.8 0-1.6.6-2.5 1.8-4.6 6.2-1.9 16.3-1.8 16.4l.1.3h-.3c-.1 0-.4 0-.7.4s-.5 1.4.4 3.7v.2c-3 8.4 1.9 22 1.9 22.1v.2c-8.4 23.7-.3 37 7.9 44.1l.2.2h-.1c-11.2 12.7-31.9 36.3-30.9 80.2.7 29.8 16.2 59 18 62.2.2.3.2.4.3.6.1.1.1.2.2.4.4.6.9 1.3 1.1 1.5l1.3-4.1.5.1c0 .1.6 8.7 6.1 14.1l.8-6.4h.5c.7 7.4 2.9 14 6.2 18.5.5.7 1 1.3 1.3 1.6.3-1.8.9-3.7.9-3.7l.4-.8zm44.2-207.1l-1.1-.6.5-.6.6 1.2z"/><path d="M166.3 86.8c-7.6-9.5-12-15.8-16.2-18.2h-.2c-.1.1-.1.2 0 .3 12.8 13.1 20.4 30.6 22.5 52 1.5 14.7.2 31.3-3.4 47.5-21.6 77.7-63.6 69.3-76.6 64.8-2-3.1-1.6.1-.3 1.6l.2.3-.5 3c27.2 5.5 42.7-3.7 55.1-17.6.5 6 .4 9 .3 9.8v.1c0 .2.2.1.3.1 6.6-3.4 10.2-10.5 11.7-12.4 1.2 1.7.3 6.7.3 7.5 0 .1 0 .2.1.2 2.3-.3 4.7-3.3 6-4.9 1.4-1.7 2.7-3.5 3.7-5.4.9-1.7 1.6-3.6 2.2-5.4.2-.5.3-1.1.5-1.6.4-1.7.8-3.5 1.1-5.2.1-.6.2-1.1.2-1.7 0-.1.1-.5.1-.9 0 0 0 .1.1.1.1.1.1.2.1.4.3.8.5 1.7.6 2.6 0 .2.1.5.1.8.1.6.1 1.1.1 1.7v1.7c0 .1.1.1.2 0 3.6-3.1 8.5-9.7 11-16.3 2.7-7.2 3.9-14.8 4.5-22.4a75.08 75.08 0 0 0 .3-6.7c.1-5 0-10.1-.5-15.1-.6-6.9-1.9-13.7-3.6-20.3-.5-1.9-1.1-3.8-1.7-5.7a76.09 76.09 0 0 0-2.4-6.7c-2.3-6-5.6-11.8-8.8-17.4a62.99 62.99 0 0 0-3-4.8c-1.3-2.2-2.7-4-4.1-5.8z"/></g><g fill="#93775F"><path d="M148.9 212.9s-.1.1-.1.2c.1.3.1.4.1.4l1.1 5.9.2 3.3v.3c0 .6 1.8-1.7 2-2 1.5-1.7 6.4-10 8-13.3 0 0 1 1.5 1.5 3.5l1.4 5.2c0-.1 3.5-3.7 6-13.7.3-1.2.7-2.4 1-3.6.4-1.7.8-3.4 1.1-5.2.1-.7.4-2.2.4-2.4.4.2 1 .7 1.1.8 1.7 1.4 2.9 3.3 3.8 5.3.2.4.3.7.5 1.1 1-1.6 2.9-5.4 4.1-8.3 2-4.7 3.1-9.8 3.9-14.9.8-5.3 1.3-10.6 1.3-15.9.1-8.8-1-17.7-2.9-26.3-.5-2.5-1.1-4.9-1.8-7.3-1.8-6.7-4.7-13.1-7.7-19.4-.8-1.8-1.7-3.5-2.7-5.2-1.3-2.1-3.2-4.7-5.2-7.1 2.8 7.1 5.8 23.5 6 25.2 1.5 15 .5 32.1-3.3 48.7l-2.6 8.5c-1.1 3.8-4.4 11.4-5.7 15.2-1.2 3.5-6.9 13.6-8.7 16.4-1.1 2.3-1.3 2.3-2.8 4.6zm-29-172.7c3.9-5.9 8.3-11.2 21.7-16.2-5.2-2-24.3-5.7-39.8 2 .4.1 10.5 3.5 18.1 14.2zM85.7 85.5c5.5 2.2 11.2 1.2 11.4 1.5 2.4 3.6 13.3 20.6 15.4 24 18.1 28.9 15.5 60.5 15.5 60.5s-2.7 30.3-15 43.3c-.6.6-6 19.3-5.8 18.5 1.9-10 2.6-18 2.8-21 0 0 13.8-22.4 11.1-49.8-4.4-46.9-35.4-77-35.4-77zM72.4 96.4c-49.6 44.2-17.2 118.9-17.2 118.9S34.3 148.9 72.4 96.4zm39.6 58.8c-7.5 47.5-23.4 62.2-23.4 62.2-18.7-30.2-20.2-62-17.7-85.1-.6 33.6 16.6 66.6 16.6 66.6s18.6-35.2 10.8-65.9c.2 28.4-9.2 52.1-9.2 52.1-12.8-26.7-12.7-61.2-12.3-74.4.1-2 .3-4 .5-6 .2-1.4.4-2.9.8-4.3.1-.5.5-1.8.5-2-40 69.1 8.2 135.1 8.2 135.1s29.4-33.2 25.2-78.3zM101.3 33.1s-21.6-11.8-36.1 6.3c15.1-22 36.1-6.3 36.1-6.3zm-12.9-7.8C65.6 14.9 69 1.4 64.9 3.1c-5.7 3-1.8 16.6-1.8 16.6s-1.5-.2-1.6 1.1c-.2 1.4.7 2.9.7 2.9-2.2 6 .8 19.2.8 19.2S61.3 23.5 64.3 24c-1.6-1.6-1.2-2.4-1-2.8.4-.7 2.5-.2 2.5-.2s-4.9-12-.7-16.4c6.3 16.6 23.3 20.7 23.3 20.7zm53.9 3.2c30.4-6.3 30.7-27 34.7-25.2 5.7 3.1 1.4 16.6 1.4 16.6s1.5-.2 1.6 1.2-.7 2.9-.7 2.9c2.8 7.3-1 24-1 24s1.2-23.9-1.8-23.5c1.6-1.6 1.5-2.4 1.3-2.8-.4-.7-2.9-.3-2.9-.3s5.8-10.4 1.7-14.9c-10.6 22.6-34.3 22-34.3 22z"/></g><g fill="#672D00"><path d="M381.1 38.5h-1.6v-.7l3.9.1v.6h-1.6v4.4h-.7v-4.4zm3.5-.6h1l1.6 3.8 1.6-3.8h1.1l-.1 5.1h-.7l.1-4.2-1.8 4.2-.5-.1-1.6-4.1-.1 4.1h-.7l.1-5z"/></g><path d="M110.7 85.2l11.4 15.5s8-17.1 7.7-17.8c-1.4-1.7-4.5-7-4.5-7s-10.4-5.3-15.6 2.8c-5 7.8 1 6.5 1 6.5z" fill="#93775F"/><path d="M104.8 81.5l13 16.9s11.5-15 11.4-15.7c-1-2-2.7-8.6-2.7-8.6s-9.2-6.7-16.1.2c-6.6 6.6-5.6 7.2-5.6 7.2z" fill="#fff"/><path d="M117.7 99.6L104.2 82c-.1-.1-.2-.3-.2-.5 0-.4-.2-1.7 5.8-7.6 2.2-2.2 4.9-3.3 8-3.3 4.8.1 8.8 2.9 9 3l.2.1.1.2c0 .1 1.6 6.5 2.6 8.4l.1.1v.1c0 .3.1 1-11.5 16.2l-.6.9zm-12.3-18.4l12.3 16c4-5.2 9.8-13 10.6-14.6-.9-2-2.2-7-2.5-8.2-.8-.6-4.2-2.6-8-2.6-2.7 0-5.1.9-7 2.9-4.5 4.6-5.2 6.1-5.4 6.5z" fill="#672D00"/><path d="M119.1 92.9s1-1.6 2.1-3l2.5-3s-1.7-1.9-2.3-3.5l-1.4-5.1-.9 14.6z" fill="#DAD6CC"/><path d="M148.2 35.9c-7.9.5-26.6 7.1-27.8 30.1-1.3 25.8 20.1 28.8 26.1 29 4 .1 29.3-.2 30.7-27.5 1.2-21.3-16.2-32.4-29-31.6z" fill="#FF5000"/><path d="M147.1 95.6h-.5c-3-.1-13.3-1-20.3-8.5-4.7-5.1-6.9-12.2-6.4-21.1 1.2-23.7 20.8-30.2 28.3-30.6h1.6c7.2.1 14.7 3.5 20.1 9.2 4 4.2 8.6 11.7 7.9 23.1-1.4 26.9-25.9 28-30.7 27.9zm2.7-59.2h-1.6c-7.2.5-26.1 6.7-27.3 29.6-.4 8.6 1.6 15.4 6.1 20.3 6.7 7.2 16.6 8.1 19.5 8.2h.5c4.7.1 28.3-1 29.7-27 .6-11-3.8-18.2-7.6-22.3-5.1-5.4-12.4-8.7-19.3-8.8z" fill="#672D00"/><path d="M147.3 72.9c5.2.2 9.6-3.9 9.8-9.2.2-5.2-3.9-9.6-9.2-9.8-5.2-.2-9.6 3.9-9.8 9.2-.1 5.3 4 9.6 9.2 9.8z" fill="#fff"/><g fill="#672D00"><path d="M147.5 73.4h-.2c-5.5-.2-9.8-4.8-9.6-10.3.2-5.4 4.7-9.7 10.1-9.6h.2c5.5.2 9.8 4.8 9.6 10.3-.2 5.3-4.7 9.7-10.1 9.6zm.2-18.9c-4.8-.1-8.9 3.8-9.1 8.7s3.7 9.1 8.7 9.3h.2c4.8.1 8.9-3.8 9.1-8.7s-3.7-9.1-8.7-9.3h-.2zm.1 5.7c-1.9 0-3.5 1.5-3.6 3.3 0 .9.3 1.8.9 2.5s1.5 1.1 2.4 1.1h.1a3.51 3.51 0 0 0 3.5-3.3c.1-1.9-1.4-3.5-3.3-3.6z"/></g><path d="M89 32.4c-6-.2-12.3.9-17.2 4.8-6.4 5.1-9.6 14.5-10.1 25.6-.6 14.4 7.8 29 25.3 30.4.3 0 .7 0 1 .1 9.1.4 27.7-6.1 28.6-28 .6-12.4-5.7-32.2-27.6-32.9z" fill="#FF5000"/><path d="M88.6 93.8H88c-.4 0-.7 0-1.1-.1-8.3-.6-15.1-4.3-19.8-10.5-4.2-5.6-6.3-12.8-6-20.4.5-12 4.1-21 10.3-26 4.2-3.3 9.8-5 16.7-4.9h.9c8.1.3 14.7 3.1 19.7 8.4 6.7 7.3 8.8 17.7 8.5 25-.9 21-18 28.6-28.6 28.5zm-.4-60.9c-6.7-.1-12.1 1.5-16 4.7-5.9 4.7-9.4 13.7-9.9 25.2-.9 19.1 12.2 28.9 24.7 29.8.3 0 .7 0 1 .1h.6c6.8.1 26.5-4.8 27.5-27.5.3-7.1-1.7-17.2-8.2-24.2-4.7-5.1-11.1-7.8-18.9-8.1h-.8z" fill="#672D00"/><path d="M90.8 70.7c5.2.2 9.6-3.9 9.8-9.2.2-5.2-3.9-9.6-9.2-9.8-5.2-.2-9.6 3.9-9.8 9.2-.1 5.2 4 9.6 9.2 9.8z" fill="#fff"/><g fill="#672D00"><path d="M91 71.1h-.2a9.86 9.86 0 0 1-6.9-3.1c-1.8-1.9-2.8-4.5-2.7-7.1.2-5.4 4.7-9.7 10.1-9.6h.2c5.5.2 9.8 4.8 9.6 10.3-.2 5.3-4.7 9.6-10.1 9.5zm.2-18.9c-4.8-.1-8.9 3.8-9.1 8.7a8.82 8.82 0 0 0 2.4 6.4c1.6 1.7 3.9 2.8 6.3 2.8h.2c4.9.1 8.9-3.8 9.1-8.7s-3.7-9.1-8.7-9.3l-.2.1zm2.7 7.5c-.6-.7-1.5-1.1-2.4-1.1h-.1a3.51 3.51 0 0 0-3.5 3.3c0 .9.3 1.8.9 2.5s1.5 1.1 2.4 1.1h.1a3.51 3.51 0 0 0 3.5-3.3c0-1-.3-1.9-.9-2.5z"/></g><g fill="#93775F"><path d="M105.8 214.1c-.1 3.9-.5 6.2-1.1 10.1-.6 3.7-1.3 7.4-2.5 11-2.5 7.8-6.7 13.8-7.2 14.1l-1-3.2c-.6.9-1.1 1.9-1.6 2.9-1 1.8-2.1 3.6-3.2 5.3-.3.5-.6 1-1 1.5-.6.9-1.2 1.7-1.8 2.6-.2.3-.5.6-.8.9-.9-1.3-3.6-7.3-3.9-8.1-.5-1.2-4.1-9.3-4.9-11.8-.1-.3-1.2 5.1-1.4 6.5 0 .3-.4-.5-.5-.8-3.1-7.6-5.5-15.8-5.9-17.3l-.6-2.2c-.8 1.7-1.2 2.7-1.8 4.5-.2.5-.3 1-.5 1.5-.1.3-.4 1.3-.5 1.6-.5-.6-.8-1.3-1.1-2-1.2-2.6-2.2-5.2-3.1-7.9-.3-.8-.5-1.6-.7-2.4l-2.3-8.4c-.7-2.7-1.3-5.7-2-8.5-.1-.3-.2-1.2-.2-1.2 4.4 13.3 8.6 19.9 9 20.7l2.8-8.9s4.3 13.1 7.1 19.3c.4-1.1 1.3-5 1.3-5s3.2 10.2 9.5 21.7c4.2-4.4 9-14.6 9-14.6l1 4c5.7-9 9.5-22.3 9.6-25.7l.3-.2zm34.1-179.3s23.1-8.5 34.8 11.6c-11.6-23.9-34.8-11.6-34.8-11.6z"/></g><g fill="#FF5000"><g stroke="#672D00"><g stroke-miterlimit="10"><path d="M227.5 38.7c0-2.3-.5-7.5-6.2-7.4-3.4 0-26.8.2-33.2-.5-.8-.1-2.9.5-3.5 3.9-.5 3.4.9 15.9.9 15.9s.3 1.8 2.3 1.7l6.8.1.5 41c0 1.7-.1 3.6 3.9 4.4 4.9 1 9.5.4 11.6 0 3-.6 4.1-1.3 4.6-4.2.7-4.4.5-40.1.5-42 4.2-.2 10.7.6 11.3-5.7l.5-7.2zm74.5-5.6c13.7 1.6 19.5 13.1 19.3 21.4-.3 10.6-10 17.8-10 17.8 5.3 5.4 9 9.2 11.5 17.2 3 9.5-4 9.5-9.4 10.1-5.3.7-9-1.3-10.7-4.5-1.2-2.3-1.9-5.4-2.8-8.3s-3.8-6.9-3.8-6.9l-.6 13.7c-.2 2.1-.9 4.1-2.5 4.9-1.5.7-8.8.9-12.7-.1S276 95.3 276 93l.1-54.2c.1-5.4 5.9-5.8 5.9-5.8s6.3-1.5 20 .1zM294.9 53l-.1 9.8 3.1-.1s3.3.2 3.3-4.7c0-3.3-1.4-3.9-1.9-4.4s-4.4-.6-4.4-.6zm-24.6-17.3c-.4-1.3-1.4-3.9-4.8-4-3.4 0-25.6-.2-27.3-.3-1.8-.1-4.6.3-5.4 6.3-3.4 24.8-.1 55.2-.1 55.2s1.4 4.9 7.3 5.9c5.8 1 23.6 0 23.6 0s5.6.1 5.8-5.5l.1-8.3c0-1.4-1.4-3.4-3.4-3.5-2 0-14.2.5-14.2.5l.3-8.6s7.1.2 9.1-.2c2.4-.5 3.9-.9 4.4-3.4.5-2.4.6-9.8.6-9.8s-.5-2.9-2.9-3c-2.4 0-10.7-.6-10.7-.6s-.9-3.1 0-4.2c1-1.1 7.3-.6 10.7-.5 5.9.1 6.9-1.9 7.4-4.8.5-3.5-.1-9.9-.5-11.2z"/></g></g></g></g><defs><clipPath id="A"><path d="M0 0h389.9v275.7H0z" fill="#fff"/></clipPath></defs></svg>