<svg xmlns="http://www.w3.org/2000/svg" width="800" height="435" viewBox="0 0 125 67.9"><style><![CDATA[.B{fill:#158DCD}]]></style><path d="M86.5 67.9c-16.1 0-30.5-10-36.1-25.1-.2-.6-.3-1.3-.2-1.9.2-1.2 1.1-2 2.2-2.1 1.3-.1 2.3.5 2.8 1.6.3.7.5 1.4.8 2.1C61 53.3 69.4 60 81.1 62c15.7 2.7 31-6.3 36.6-21.3.4-1.2 1.1-1.9 2.4-2 1.1-.1 2 .4 2.5 1.4.4.8.4 1.6.1 2.4-2.6 7.1-7 13-13 17.5-6.7 5.2-14.7 7.9-23.2 7.9" fill="#ef4337"/><path class="B" d="M111.9 19.4c0-3.7-3-6.6-6.6-6.6s-6.6 3-6.6 6.7 3 6.6 6.7 6.6c3.6 0 6.5-3 6.5-6.7M98.7 35.7v9c0 3-2.4 5.4-5.4 5.3a5.34 5.34 0 0 1-5.3-5.3V19.4c0-8.6 6.3-15.9 14.8-17.2 9.5-1.5 18.4 5.1 19.8 14.7 1.4 9.3-4.9 18.2-14.2 19.8-3.1.5-6.1.3-9-.8-.2-.1-.4-.1-.5-.2h-.2m-31-9.6c3.6 0 6.6-3 6.6-6.6a6.7 6.7 0 0 0-6.7-6.7c-3.6 0-6.6 3.1-6.6 6.7.1 3.6 3.1 6.6 6.7 6.6M67.8 2c9.6 0 17.4 7.8 17.4 17.4s-7.8 17.4-17.4 17.4S50.4 29 50.4 19.3C50.3 9.8 58.1 2 67.8 2M36.2 23.6H25.9v.8l-.1 7.8c-.2 2.6-2.6 4.6-5.2 4.7s-5-1.9-5.4-4.4c0-.3-.1-.6-.1-.9V7.4c0-2.2 1.4-4.2 3.5-5 2-.8 4.4-.2 5.9 1.4 1 1.1 1.4 2.4 1.4 3.8v6.8h10.4v-7c0-2.8 2.1-5.1 4.7-5.4 2.9-.3 5.3 1.5 5.9 4.3.1.4.1.8.1 1.2v24c0 3-2.2 5.4-5.1 5.5-3 .1-5.6-2.3-5.6-5.4v-8zM0 19.5V7.6c0-2.8 2.1-5.2 4.7-5.5 2.9-.3 5.4 1.6 5.9 4.5.1.3.1.6.1 1v24c0 2.9-2 5.1-5 5.4-2.6.3-5.1-1.7-5.7-4.4V19.5"/><path d="M122 6a3.01 3.01 0 0 1-3-3 3.01 3.01 0 0 1 3-3 3.01 3.01 0 0 1 3 3 3.01 3.01 0 0 1-3 3zm0-.3a2.69 2.69 0 0 0 2.7-2.7c0-1.5-1.1-2.7-2.7-2.7a2.69 2.69 0 0 0-2.7 2.7 2.69 2.69 0 0 0 2.7 2.7zm-1.2-1.5V1.8c0-.2.2-.4.4-.4h1.1c.7 0 1.3.3 1.3 1 0 .5-.2.8-.6.9l.5.6c.1.1.1.2.1.3 0 .2-.2.4-.4.4-.1 0-.2-.1-.3-.2l-.9-.9h-.5v.7c0 .2-.2.4-.4.4s-.3-.2-.3-.4zm.7-1.3h.7c.3 0 .5-.2.5-.4 0-.3-.2-.4-.5-.4h-.7v.8z" fill="#168dcd"/></svg>