<svg xmlns="http://www.w3.org/2000/svg" xmlns:xlink="http://www.w3.org/1999/xlink" width="800" height="437" viewBox="0 0 150 87"><g fill="#ffef00"><g fill-rule="evenodd"><g stroke="#db001d"><path d="M41.335 38.716l-19-24.754s-.896-1.172-.896-2.895 1.792-4.55 5.377-4.55c.93 0 4.62.896 4.62.896l87.2 16.958v-5.867h.177l8.187 9.6-9.176 7.397-.464-.14-.042-4.818L53.52 23.02s-4.12-.853-4.12.926 7.64 14.77 7.64 14.77H41.335zM61.592 64.5l6.928 9.202h9.168L72.346 64.5H61.592z"/></g></g></g><g fill="#c6001d"><g fill-rule="evenodd"><path d="M7.98 61.957V41.555h5.374v20.437l-5.374-.035zm9.013.045v-20.44l5.966-.001 9.37 10.916V41.562h5.17v20.44h-5.17l-9.37-10.54v10.54h-5.966zm33.033 0v-20.44l5.966-.001 9.37 10.916V41.562h5.17v20.44h-5.17l-9.37-10.54v10.54h-5.966zm-9.078-8.02v-5.975h6.104v5.986l-6.104-.01zm33.632.001v-5.975h6.104v5.986l-6.104-.01z"/></g><path d="M94.595 62.577l-.437-.047c-1.81-.192-3.682-.907-5.172-1.978-.9-.64-1.902-1.645-2.52-2.504-1.088-1.51-1.763-3.226-2.015-5.125-.07-.52-.078-2.02-.016-2.53.17-1.387.528-2.577 1.146-3.795 1.29-2.55 3.578-4.524 6.28-5.426.76-.254 1.4-.4 2.266-.52.4-.055 2.1-.055 2.5 0 1.407.192 2.54.53 3.657 1.09 3.03 1.52 5.206 4.348 5.872 7.628.177.872.202 1.15.202 2.224 0 1.05-.025 1.34-.187 2.156-.762 3.84-3.572 7.03-7.28 8.268-.765.255-1.28.375-2.16.5-.32.045-1.87.088-2.136.058zm1.625-5.903c2.092-.332 3.8-1.88 4.315-3.93a4.77 4.77 0 0 0 .159-1.32c0-1.042-.256-1.95-.794-2.812a5.36 5.36 0 0 0-3.742-2.457 7.69 7.69 0 0 0-1.547 0c-.735.117-1.438.372-2.015.733-1.584.99-2.532 2.69-2.532 4.542 0 2.783 2.15 5.084 4.953 5.303.252.02.916-.012 1.203-.058z"/><path d="M134.55 62.5h5.982V46.484H145V41.53h-15v4.953h4.484l.065 16.015z" fill-rule="evenodd"/><text xml:space="preserve" x="53.906" y="74.563" writing-mode="lr-tb" font-size="10" font-weight="bold" font-family="Arial"><tspan x="53.906" y="74.563">®</tspan></text><path d="M85.57 69.413v-4.53h2.27l2.854.1c1.062.25 1.72 1.34 1.537 2.55-.1.72-.5 1.258-1.1 1.536-.063.03-.115.06-.115.068s.057.032.127.054c.75.233 1.232.772 1.4 1.562a3.91 3.91 0 0 1 .012 1.194c-.155.777-.597 1.416-1.17 1.687-.214.102-.427.154-.956.238l-.442.07-4.43.014v-4.53zm4.023 2.558c.3-.076.466-.213.574-.445.218-.468.07-1.05-.32-1.24-.218-.107-.36-.12-1.17-.122h-.746v1.86l.768-.01.9-.043zm-.144-3.582c.23-.076.366-.206.455-.434.065-.166.07-.573.01-.745a.67.67 0 0 0-.525-.459c-.118-.027-.293-.034-.804-.034h-.653v1.726l.702-.008.814-.045zm9.35 5.54c-1.42-.103-2.02-.328-2.66-.994-.492-.514-.713-.95-.887-1.752-.123-.57-.122-.534-.122-3.607V64.74h2.606l.013 5.933.05.165c.157.5.477.832.956.965a2.41 2.41 0 0 0 .882.001c.488-.132.798-.44.955-.947l.05-.162.012-5.955h2.607v2.873l-.023 3.088c-.12 1.104-.602 2.004-1.394 2.607-.393.3-.947.502-1.6.6-.334.044-1.057.06-1.436.033z"/><use xlink:href="#A"/><path d="M120.062 73.93c-.73-.06-1.317-.2-1.815-.46-1.182-.594-1.95-1.837-2.14-3.464a8.54 8.54 0 0 1 .001-1.5c.185-1.598.92-2.773 2.153-3.44.612-.332 1.436-.493 2.518-.492.912.001 1.667.102 2.135.287.683.27 1.232.798 1.565 1.503.095.202.293.745.276.758a88.15 88.15 0 0 1-1.235.233l-1.277.24c-.04.01-.054.001-.065-.04-.008-.03-.053-.132-.1-.23a1.18 1.18 0 0 0-.267-.354 1.28 1.28 0 0 0-.646-.368 2.45 2.45 0 0 0-.99.001c-.573.154-.988.537-1.213 1.12-.316.82-.298 2.363.037 3.158.276.654.83 1.03 1.597 1.082.56.04 1.104-.106 1.718-.457l.238-.136v-.876h-1.8V68.63h4.132v3.863l-.348.23c-1.36.903-2.247 1.2-3.75 1.22a9.63 9.63 0 0 1-.729-.011zm7.978-4.516v-4.53h5.856v1.922h-3.668v1.458h3.403V70.1h-3.403v1.812h3.78v2.033h-5.966v-4.53z"/><use xlink:href="#A" x="30.847"/><path d="M117.385 61.893c-3.192-.232-4.544-.737-5.98-2.235-1.107-1.155-1.604-2.137-1.993-3.94-.277-1.28-.274-1.2-.274-8.11v-6.382h5.86l.03 13.34.114.372c.352 1.145 1.072 1.87 2.15 2.17.444.123 1.534.124 1.983.002 1.098-.297 1.794-.987 2.147-2.13l.113-.364.028-13.39h5.86v6.46l-.053 6.943c-.27 2.48-1.354 4.506-3.134 5.862-.884.673-2.128 1.13-3.62 1.325-.75.1-2.377.136-3.23.074z"/></g><defs><path id="A" d="M106.203 69.413v-4.53l2.436.008 2.7.046c.79.117 1.193.316 1.553.766.256.32.416.693.492 1.146.058.348.037.99-.044 1.306-.117.46-.412.954-.735 1.23-.265.227-.6.406-.93.497-.1.028-.182.058-.182.067s.013.017.03.017.148.06.294.13c.228.113.285.152.408.282a5.4 5.4 0 0 1 .536.725 43.14 43.14 0 0 1 .698 1.486l.617 1.354-2.785-.01-.712-1.492-.81-1.654a1.78 1.78 0 0 0-.19-.259c-.174-.182-.464-.286-.758-.27l-.144.007-.01 3.68h-2.453v-4.53zm4.046-.942c.293-.078.405-.142.52-.296.31-.422.198-1.126-.21-1.334-.232-.118-.3-.127-1.133-.138l-.768-.01v1.864l.668-.01c.664-.01.67-.01.925-.077z"/></defs></svg>