<svg xmlns="http://www.w3.org/2000/svg" width="800" height="769" viewBox="13 10 155 155"><path d="M31.99 146.974c0 .432-.13.784-.386 1.055s-.556.407-.904.407-.654-.127-.91-.38c-.285-.28-.427-.64-.427-1.08s.135-.793.404-1.056.58-.394.932-.394c.345 0 .647.13.904.394s.386.615.386 1.056zm-.282 15.272c0 .704-.25 1.056-.754 1.056h-.5c-.503 0-.754-.352-.754-1.056V151.53c0-.695.25-.898.754-.898h.5c.503 0 .754.203.754.898v10.716zm17.55 0c0 .704-.25 1.056-.754 1.056h-.527c-.503 0-.754-.352-.754-1.056v-8.38c0-.5-.22-.984-.663-1.162-.357-.144-.988-.216-1.9-.216h-3.3c-.94 0-1.584.068-1.936.204-.454.178-.682.67-.682 1.188v8.368c0 .704-.248 1.056-.745 1.056h-.527c-.497 0-.745-.352-.745-1.056v-8.994c0-1.187.35-1.72 1.054-2.32.757-.644 1.948-.496 3.572-.496h3.3c1.545 0 2.696-.127 3.454.488s1.136 1.37 1.136 2.558v8.766zm9.835-11.674v-2.53c0-.695.248-1.043.745-1.043h.527c.497 0 .745.348.745 1.043v2.53h3.9c.503 0 .754.348.754 1.043v-.052c0 .704-.25.8-.754.8h-3.9l-.077 9.037 4.42.016c.32 0 .518 1.886.02 1.886h-.9c-.304 0-2.582-.02-4.096-.012-.945.005-1.374-1.08-1.374-1.682v-11.036zm23.094 11.674c0 .704-.248 1.056-.745 1.056h-.527c-.497 0-.745-.352-.745-1.056v-7.566c0-.66-.214-1.117-.64-1.367s-.797-.375-1.748-.375h-5.935v9.308c0 .704-.248 1.056-.745 1.056h-.527c-.497 0-.745-.352-.745-1.056V148.04c0-.695.248-1.043.745-1.043h.527c.497 0 .745.348.745 1.043v2.53h5.453c1.927 0 2.965.318 3.752.954.757.6 1.136 1.65 1.136 3.115v7.604zm16.7-5.137a2.14 2.14 0 0 1-.145.814c-.097.237-.236.356-.418.356H88.62c-.01 1.212-.166 2.015 1.13 2.566.88.373 3.374.714 6.02.475h1.253c.497 0 1-.03 1 .672v.254c0 .704-.248 1.056-.745 1.056h-1.29c-.915 0-6.542-.104-7.175-.312s-1.125-.498-1.477-.87c-.745-.822-1.118-1.78-1.118-2.874v-4.718c0-1.255.433-2.247 1.3-2.976s2.045-1.094 3.535-1.094h3.772c1.133 0 2.075.292 2.826.877.83.645 1.245 1.54 1.245 2.683v3.1zm-2.282-1.285v-1.577c0-.365-.27-.69-.81-.973s-.86-.426-1.598-.426H91.28c-.88 0-1.265.115-1.798.343-.618.263-.927.65-.927 1.157v1.475h8.06zm23.45 3.446c0 1.06-.25 1.912-.754 2.556-.43.55-1.036.945-1.818 1.183-.636.195-1.372.292-2.208.292h-2.652l-4.935-.073v-15.353c0-.704.248-.864.745-.864h.527c.497 0 .745.097.745.8v2.76h5.57c1.606 0 2.814.356 3.626 1.068.77.678 1.154 1.65 1.154 2.912v4.718zm-2.018-.102v-4.565c0-.475-.206-.856-.618-1.145-.48-.34-1.18-.508-2.108-.508h-5.606v7.903l3.163.083h2.425c1.03 0 1.72-.093 2.072-.28.448-.237.672-.733.673-1.488zm18.665.344c0 .62-.103 1.178-.31 1.678-.28.678-.715 1.208-1.31 1.6-.733.475-1.687.52-2.863.52h-3.354c-1.163 0-2.12-.097-2.872-.546-.636-.38-1.112-.907-1.427-1.577-.255-.542-.382-1.12-.382-1.73v-5.114a3.88 3.88 0 0 1 1.045-2.708c.854-.94 2.063-1.156 3.626-1.156h3.363c1.545 0 2.678.018 3.4.692s1.082 1.702 1.082 3.083v5.267zm-2.054-.192v-4.947a1.23 1.23 0 0 0-.677-1.144c-.45-.254-1.053-.382-1.804-.382h-2.898c-.92 0-1.62.2-2.1.598-.388.322-.582.704-.582 1.145v4.73c0 .407.173.75.518 1.03.48.4 1.203.585 2.172.585h2.898c.812 0 1.445-.182 1.9-.547.382-.305.573-.66.573-1.068zm17.865 2.073c.145.145.25.3.318.464s.1.337.1.515c0 .263-.077.483-.232.66s-.365.267-.632.267h-.6c-.055 0-.13-.02-.227-.063s-.17-.09-.218-.14l-4.508-4.616-4.562 4.616c-.036.034-.108.076-.214.127s-.18.076-.223.076h-.627c-.26 0-.47-.09-.627-.273s-.236-.4-.236-.655a1.33 1.33 0 0 1 .105-.509 1.43 1.43 0 0 1 .323-.471l4.5-4.5-4.444-4.514c-.145-.145-.25-.3-.318-.464s-.1-.337-.1-.515c0-.263.077-.483.232-.66s.365-.267.632-.267h.636c.055 0 .13.02.223.063s.168.09.223.14l4.5 4.604 4.4-4.59a.69.69 0 0 1 .209-.14.6.6 0 0 1 .236-.076h.61c.26 0 .468.09.623.267s.232.398.232.66c0 .17-.033.337-.1.502a1.45 1.45 0 0 1-.309.464l-4.344 4.49 4.444 4.54z" fill="#e4011a" stroke="#e40826" stroke-width=".96"/><g stroke="none"><path d="M90.91 137.684l61.605-17.82c7.37-1.618 12.16-6.51 12.16-13.387v-64.1c0-6.88-5.423-10.798-12.16-12.417L90.91 11.946" fill="#b50a37"/><path d="M90.606 90.558l1.926-9.116c-.326-16.767.508-34.112 1.444-51.5.257-4.13 7.21-3.235 6.98-.962.523 15.646.992 31.05.24 46.696 7.068-7.705 11.552-14.548 16.85-21.663 1.765-5.295 5.937 1.524 3.85 3.85-1.97 7.092-8.605 20.002-16.123 28.725 17.183 36.216 43.377 19.597 49.58-.804.753-4 1.415-3.424 1.926-3.37.474.152.87-.085.24 3.6.09 12.322-10.796 29.396-27.69 29.775-9.395.214-22.528-4.84-29.598-21.1.304 4.975.337 9.95.48 14.923-.104 3.576-7.674 4.367-7.93-.896-.016-3.47-.225-5.377 0-10.457-.595 1-.802 1.4-1.938 3.165l-.24-10.858z" fill="#d0dcdb" fill-rule="evenodd"/><path d="M91.055 137.68l-61.818-17.82c-7.434-1.618-12.265-6.508-12.265-13.387V42.377c0-6.878 5.47-10.798 12.265-12.416L91.055 11.95" fill="#e51837"/><g fill-rule="evenodd"><path d="M31.202 47.124c.068-1.54 4.677-2.5 5.53 1.3 3.672 11.925 5.54 23.85 6.18 35.775.355-4.698.988-9.74 2.787-13.4 2.582-5.266 7.428-7.934 12.26-4.198.682.422.602-.143.8-.813l.417-1.408c.488-1.365 5.248-1.516 4.968.21.57 4.422-2.273 19.23-2.38 29.853.34 4.443 3.72 3.503 4.753.916-3.253-20.74 5.695-40.594 12.823-38.47 6.03-1.222 13.32 10.4 7.76 24.22-1.272 1.84-6.274.816-6.18-1.175.542-5.53-.07-7.732-.28-11.01-.48-2.648-2.103-3.87-5.204 0-4.384 11.18-2.723 48.182 15.624 19.55l-.002 12.64c-2.008 4.635-14.116 10.86-20.175.333-3.137 5.98-9.715 5.657-12.684-.325-.26 2.728-10.137 12.963-14.635-9.106 2.01 10.7-.874 19.972-8.456 20.164-8.637.063-11.57-8.937-12.36-15.936.003-.803 2.046-1.44 2.495-.437 2.322 4.666 3.965 9.005 7.727 8.197 4.633-.395 5.475-11.312-1.766-56.87z" fill="#fffffd"/><path d="M54.525 72.546c2.05-.63 1.308 26.043-1.694 25.744-4.728.904-5.55-27.387 1.694-25.744z" fill="#e51837"/></g></g></svg>