<svg xmlns="http://www.w3.org/2000/svg" width="800" height="800" viewBox="2 0 300 300"><path d="M151.147 4.93c-3.52 0-10.388.368-10.668.385 1.33.355-102.726 53.74-102.726 53.18-.032.18-.08.33-.176.45C16.95 84.18 4.705 116.235 4.705 151.37a145.68 145.68 0 0 0 22.944 78.656c.098-.053 36.938 35.63 36.487 39.123 24.333 18 54.42 28.654 87.006 28.654 11.382 0 22.44-1.344 33.08-3.795l-.528-3.447-1.923-13.5c-.58-3.693-3.604-28.793-3.604-28.793l-.01-.074 3.22-1.236 4.127.188 5.844 34.258c.312 1.867.575 3.718.96 5.636l.746 4.647a148.13 148.13 0 0 0 10.246-3.483l-1.112-6.263-1.73-10.27L195.65 248l-.436-2.086 3.305-1.322 4.36.34 6.95 31.7 1.586 8.193c2.983-1.35 5.937-2.775 8.805-4.318l-.917-4.204-.33-1.44-6.827-31.125 3.977-1.562 3.885.547h.02l8.23 33.13c5.562-3.452 10.89-7.243 15.915-11.387l46.705-69.187c4.347-13.857 6.7-28.604 6.7-43.9C297.58 70.496 232.018 4.93 151.147 4.93z" fill="#A3080C"/><path d="M187.834 77.833s-18.3-34.5-25.75-39.667c-7.452-5.177-19.735-8.41-28.25-7.333-10.78 1.36-35.44 14.4-37.078 14.84.012.126-9.187 11.473-11.59 23.16-.534 2.597-10 44-10 44l18 52 64.146 30.604 23.52-25.604s3-25.333 9.334-44.333 4.333-29.333 4.333-29.333l-6.666-18.334z" fill="#FFF1E2"/><g fill="#fff"><path d="M114.552 210.378l-.54.228.54-.228m-.552.232zm-4.73-99.27c-1.018.58-1.77.716-2.24.966-.47.257-1.214.8-1.03 1.796.194.992.466 1.314.56 2.08.1.757-.274 2.13-1.154 3.687-.866 1.562-2.252 2.7-3.04 3.147-.774.463-1.25.588-1.7.82-.1.046-.2.285-.28.765a.85.85 0 0 1 .195-.11c.17-.072.517-.08.83-.14l.637-.142.938-.14c.118-.023 2.245-.468 3.563-1.075 1.3-.6 3.613-1.72 4.932-3.314.97-1.167 2.136-3.292 2.25-5.4l.022-.707c.02-.005.033-.01.047-.01a.93.93 0 0 1-.563-.208c-.353-.276-.638-.48-1.72-1.636-.696-.746-.648-1.293-.272-1.918-.01.014-.025.028-.035.042-.32.3-.947.916-1.952 1.495m53.782-6.9s-.594.05-.798.14c-.162.067-.468.18-.677.46s-.256.783.18 1.318c.445.533 1.057 1.53 1.006 2.382-.032.375.023 1.6-.375 2.484-.445 1-.96 1.988-1.312 2.433-.204.262-1.146 1.304-1.284 2.042-.037.155 0 .327.073.5.006.01.01.018.006.027a.47.47 0 0 1 .088-.167c.235-.264.714-.53 1.548-.788 1.106-.35 1.9-.767 2.503-1.233-.074.086-.093.186-.14.285.064-.153.135-.304.272-.424.33-.283 4.67-3.196 4.78-7.9.042-1.766-2.25-2-3.203-2.03-.7-.03-2.045.62-2.6.483-.01-.004-.026-.02-.046-.023.01.015-.008.015-.012.02m-46.216 32.47s17.25 5.334 25.5-4.25 22.5 5.084 23.416 9.417-21.416 16.333-28.166 16.583-33.5-3.333-33.5-6.083 12.75-15.667 12.75-15.667zm70.792-68.54c-2.743-29.092-16.13-43.673-25.75-50.75-10.1-6.662-34.164-12.53-45.5-12C103 6.25 72.112 20.84 70.917 21.917c-1.14 1.04-21.854 35.677-19.292 41.865s6.192 35.413 7.375 37.76c.36.703 6.27 19.743 10.167 19.042 3.93-.707 7.592-18.072 7.417-19.417-.5-3.833-7.457-21.106-6.917-23.542.547-2.43 19.128-31.52 20.458-32.542.938-.714 32.8-4.678 32.996-4.37-.004-.01-.004-.02-.017-.028l-.004-.005c2.228-1.942 7.395-7.06 12.012-6.877 4.613.2 17.802 1.838 25.254 7.02 7.46 5.177 9.765 10.245 10.398 11.663-.005 0-.014.007-.02.007.25.037 10.63 23.63 13.67 23.715 2.03.055 3.543-4.337 3.2-7.834zM174.713 87.72l-4.468.447c-.594.077-.58.413-.542.665l.16 1.685c.037.426.482.676.938.64l3.786-.36c.422-.07.84-.426.834-.767l-.01-1.615c-.01-.37-.283-.74-.7-.693M54.274 226.835l1.78.403-3.587-.825c-.408-.103-1.05-.162-1.793-.147-1.24.027-2.77.27-4.007.9l-15.655 7.914a147.47 147.47 0 0 0 15.908 19.14c.364-1.5 6.873-8.33 7.8-12.334 1.254-5.485-1.867-12.726-.435-15.043m165.73 15.874l-7.847 1.012 7.156 32.564.9 4.204a148.61 148.61 0 0 0 8.022-4.653c-3.244-12.017-8.235-33.127-8.235-33.127h-.007zm45.472-104.28c-3.963 2.994-6.158 7.038-6.146 11.085.02 6 4.87 11.776 16.113 11.74 2.8-.02 5.25-.3 7.488-.68a46.07 46.07 0 0 0 1.9-.349l1.307-5.584c-2.178.728-4.93 1.33-7.137 1.34-5.987.02-10-3.53-10-8.186-.01-2.48 1-4.66 2.854-6.254 1.975-1.708 4.886-2.74 8.527-2.74 2.883 0 4.57.797 5.72 1.935a6.26 6.26 0 0 1 .63.702h.938l1.835-6.6c-1.9-.624-4.694-1.15-7.65-1.182-6.885-.092-12.48 1.828-16.367 4.766m-9.4.924c.808 0 1.48.294 1.93.68.385.327.616.716.616 1.052h.923l1.8-7.156h-24.295l-.355 1.4-.084.34s2.66.3 1.845 2.957l-6.065 22.034 12.124.02.46-1.892s-2.268-.547-1.675-2.642c.028-.13.882-3.264 1.392-5.145l.4-1.396 5.552-.004c.908 0 1.604.167 2.142.375 1.112.426 1.54 1.072 1.54 1.072l1.6-6.548h-9.36l1-3.74.38-1.395 8.132-.01zm-29.52 17.373c-.72-.77-6.96-10.493-6.96-10.493l11.405-9.13a7.59 7.59 0 0 1 1.366-.917c1.173-.603 1.93-.517 1.93-.517l.443-1.76-14.2.02-.353 1.395-.084.345c.964.067 2.3.93 1.2 1.956-.144.123-11.404 8.727-11.404 8.727l.088-.304 2.34-8.48c.495-1.694 2.315-1.898 2.315-1.898l.445-1.745-13.546.004-.348 1.395-.1.345c.648.167 2.498.526 1.857 2.957l-4.3 15.6c-1.012 3.873-2.53 4.406-3.443 4.505-.2.02-.37.02-.496.026l-.186.732-.287 1.158h14.168l.473-1.918s-2.248-.445-1.82-2.067l1.287-4.708.917-3.323c2.457 3.94 3.022 4.426 5.988 8.495 2.73 3.764 5.646 3.588 12.688 3.54l1.808-.01.468-1.882c-1.785.01-2.967-1.292-3.68-2.06M293.4 134.4a1.74 1.74 0 0 0-1.27-.517 1.73 1.73 0 0 0-1.78 1.78c0 .498.176.92.52 1.272.344.346.77.526 1.26.526.5 0 .918-.18 1.27-.526.35-.352.524-.774.524-1.272a1.71 1.71 0 0 0-.524-1.263m-.175 2.36a1.48 1.48 0 0 1-1.094.457c-.426 0-.788-.153-1.084-.457a1.5 1.5 0 0 1-.45-1.096c0-.422.153-.788.45-1.087s.658-.456 1.084-.456.788.153 1.094.456a1.49 1.49 0 0 1 .445 1.087c0 .43-.148.797-.445 1.096"/><path d="M292.94 135.23c0-.246-.106-.412-.302-.498a1.75 1.75 0 0 0-.537-.065h-.687v1.963h.34v-.776h.272c.2 0 .314.023.395.065.116.076.18.225.176.452v.15l.015.067v.023s0 .01.01.02h.32l-.005-.028c-.02-.014-.02-.046-.027-.1v-.3a.6.6 0 0 0-.1-.31c-.065-.1-.187-.167-.334-.2.12-.02.213-.046.282-.095.124-.085.194-.212.194-.4m-.546.344c-.07.028-.177.037-.32.037h-.32v-.707h.292c.194-.004.338.023.426.072s.13.146.13.3a.31.31 0 0 1-.2.308M273.5 189.5c-18.667-5.667-57-4.333-57-4.333L247.833 259s2.902-1.455 3.264-.66c17-15.892 30.198-35.764 38.113-58.146-.624-.48 2.957-5.026-15.7-10.693zm-63.658 87.122c-1.4-7.358-6.966-31.7-6.966-31.7s7.4-1.942 9.124-6.173-2.2-10.745-2.375-13.313c-.8-7.666-3.813-39.063-8.75-45.563-2.875-3.785-16.096-11.253-17.125-11.208-4.75.208-14.25 20.896-22.188 22.77-5.3 1.25-9.028-3.897-8.172-3.508-.015-.01-.033-.02-.042-.03 0 0 .01-.592-.876-3.373-.885-2.8-2.74-5.72-3.082-6.38-.333-.664-1.34-2.1-1.374-2.275-.028-.163-.394-1.094-.653-2.8-.493-3.272-.267-5.464-.248-5.663.01-.2.1-.793.128-.913.02-.126-.028-.34-.18-.376-.158-.027-.58-.13-1.02.324-.92.928-.962 1.104-.98 1.26-.032.147.063.427.035.75-.1 1.03-.28 1.816-.74 2.567-.46.76-.758 1.02-1.408.96-.66-.06-1.2-.584-1.3-1.94-.086-1.356-.353-1.82-.625-2.14-.27-.334-.9-.487-1.1-.474-.208 0-.382.186-1.812.537-1.418.36-3.672.482-4.004.496-.34.02-1.576.145-1.585.148.26.968-5.198-.52-6.116.216-1.875 1.5-2.75 11.24-3.667 16.3L92 188.25l-10.75 25 3.25 50.25c0 .75 68-14.75 68-14.75l25.655-.555a.39.39 0 0 0 .011.068l3.604 28.803 1.923 13.5.528 3.448c2.976-.687 5.923-1.45 8.83-2.32l-.746-4.64c-.38-1.923-.645-3.772-.955-5.64l-.814-4.635-5.042-29.613L190 244.3l5.216 1.594.436 2.086 4.807 23.672 1.73 10.28c.047.436.604 3.393 1.117 6.266a151.28 151.28 0 0 0 8.11-3.393l-1.573-8.2z"/></g><g fill="#F5D4B7"><path d="M158.875 89.083c-5.667.833-13.917 5.458-13.542 8.833.23 2.092 12.05 2.412 17.375 2.792s6.204-4.74 5.918-7.52-3.787-4.98-9.75-4.104zm38.672 90.855c-2.813-.293-1.506 4.267-1.54 4.73v.01a222.17 222.17 0 0 1 3.518 15.567c.01.478.047.897.106 1.237.403 2.112 1.237 8.938 2.84 24.357l.9 14.997c.146-.01 9.618.54 9.618.54s-.375-13.25-3.313-29.875-7.343-31.06-12.14-31.56zm-25.54-41.75c.426-2.345-.062-3.504-.83-4.875-.755-1.367-2.215-2.646-4.102-3.886-1.825-1.214-5.95-4.854-6.35-5.198l-2.762-2.52c-.464-.357-1.363-1.105-3.337-2.106-4.783-2.412-8.63-.607-8.778-.524s-.856.656-1.536 1.302c-.67.635-.167 1.863.1 2.3l25.454 19.055s1.798-1.644 2.15-3.56m-10.5-22.916c-.834.257-1.313.523-1.548.788-.046.053-.064.1-.083.167-.02.044-.02.1-.02.134v.102c.01.044.027.08.037.12l.074.14c.02.03.037.063.063.095.037.058.1.113.14.17.022.028.047.05.074.077l.214.2a.28.28 0 0 0 .06.05l.273.225c.02.01.027.02.047.033l.334.23.375.243c.125.074.3.113.515.118.203.01.454-.02.724-.067.9-.176 2.03-.625 2.993-1.087-.075.024-1.84-2.9-1.77-2.975-.6.466-1.4.883-2.5 1.233m-34.098 17.422c.07.028.132.07.204.097-.01-.01-.015-.014-.02-.023-.36-.375-.4-.46-.515-.97-.137-.53-.484-1.182-.63-1.55-.157-.37-.855-1.63-1.124-2.444s-.4-1.314-.443-2.132c-.208-.617-.366-1.845-.27-2.955.08-.982.3-2.113.922-5.292.422-2.088-.24-4.493-.262-6.72-.02-1.717-.2-5.937-.143-10.184v-.014c-.294.1-38.097-8-37.83-8.05.005 0 .015-.005.023-.005.3-3.13.118-7.34-.05-10.534.978-9.6 2.453-20.693 5.842-28.094 2.62-5.7 2.27-3.816 3.563-6.498.072-.144.167-.313.182-.512.014-.134-.096-.887-.118-1.126-.077.014-9.3-2.566-20.753 23.743C71.198 80.438 77.583 108 77.583 108l9.98 3.313 6.5-3.53 15.375-3.156 6.28 3.063-1.95 5.88c-.005.004 0 .28-.032.7-.108 2.113-1.276 4.238-2.25 5.406-1.313 1.6-3.614 2.7-4.924 3.313-1.32.603-3.445 1.052-3.57 1.073-.113.027-.82.123-.935.14-.114.01-.332.08-.635.14-.315.054-.66.063-.832.135a.6.6 0 0 0-.204.123.48.48 0 0 0-.171.267c-.005.01-.01.028-.01.042-.02.095-.02.2-.005.276.063.313.402.75.442.825.142.27.957 1.045 2.292.746 1.756-.394 2.9-.746 4.063-1.124 1.182-.385 2.75-1.063 2.988-1.272a16.23 16.23 0 0 1 .997-.755l.394-.353c.054-.046.108-.104.163-.146.013-.01.022-.02.036-.03.207 2.477-2.764 9.914-2.764 9.914s-6.922 2.463-6.483 2.137c-.57.28-1.4.58-2.237-.077 0 0-.815-.952-1.813-2.215-.598-.755-1.258-1.617-1.855-2.458-.422-.593-.723-1.077-.945-1.476-.43-.734-.603-1.205-.68-1.5-.01-.023-.02-.05-.02-.067-.186-.5-.34-1.28-.34-1.28-1.25-.155-2.563-.44-3.776-.883.01.004.01.016.02.025.1.1-8.573 1.982-8.573 1.982l8.975 36.563s16.75 26.333 27.25 21.25c1.565-.758 4.3-6.095 3.167-7.917l-18.917-31.333 24.836-13.075zm34.048 99.382c3.28 2.178 4.422 2.688 8 4.188 1.14.538 4.152-.074 5.44-2.002-.023.01-.046.037-.064.052-.103.055-17.88-13.894-20.197-14.72-.825-.292-5.365 1.374-4.78 2.213.523.755 2.718 3.042 2.77 3.13 3.1 2.4 6.997 5.626 8.823 7.138m-37.793-25.726l-29.73-17.02.862 8.565c2.178 1.95 5.575 4.275 6.112 4.64l1.875 1.373c.365.397 4.033 3.006 4.313 3.2.268.182 4.23 2.368 6.63 3.646a41.06 41.06 0 0 1-1.643 1.345c-.844.056-1.456.444-2.387.74-4.167 2.34-1.694 7.2-1.3 10.604.797 2.86 1.804 7.823 5.5 8.286 2.822.34 9.282-1.427 12.697-2.127.484-.856 5.435-1.163 5.374-1.094.874-.26 2.046-.673 2.4-.607.213.037-.774 1.085-1.346 2.155-.575 1.08-4.13 11.572-7.438 17.16-1.1 2.3-.584 1.344-1.26 3.008v.005l6.705 1.535 10.833-27.5-18.208-17.915zM89.943 227.7c1.154 2.14 4.48 6.632 4.642 6.887s.878 1.02 1.722 1.965l1.775 2.002c.204.232 1.8 1.877 2.198 2.254s.88 1.14 1.224 1.46l5.9 5.117c.417.318 2.477 1.7 2.848 1.75 3.7.47 5.53-1.562 5.907-2.164.38-.588.452-.842.218-1.724-.005.063-14.322-10.694-23.822-31.382-.368-.8-3.663-4.8-6.688-2.375-2.484 1.984-.688 6.738-.688 6.738v.027c.943 1.948 3.768 7.62 4.755 9.446m-28.1 2.05c.958-3.584-6.987-2.785-7.56-2.915-2.477 4-5.106 17.625-6.445 24.002-.232.718-.544 1.872-.9 3.364a147.56 147.56 0 0 0 5.604 5.418c1.383-5.38 9.058-28.916 9.312-29.87z"/></g><path d="M292.612 136.59c0 .01.005.02.005.023-.001-.004-.005-.013-.005-.023" fill="#A3080C"/><path d="M274.557 187.9c-4.43-.98-14.923-3.087-29.066-4.386l-27.297-2.563c-1.456-.145-1.983-1.48-3.305-2.143-4.792-2.403-13.848-4.633-19.523-6.63-1.404-.486-2.327-1.73-4.265-4.092-1.178-1.44-1.975-2.1-2.983-3.004a57.83 57.83 0 0 0-2.27-1.933c-.343-.278-.584-1.075-.287-2.623.297-1.554 1.225-7.614 1.15-14.67-.02-1.894.814-3.107 1.7-3.55.477-.24 3.582-1.622 3.373-4.674-.22-3.1-1.173-7.398 1.312-13.463 2.405-5.876 5.408-16.364 5.77-23.283.385-7.35-1.46-12.1-4.36-14.658-1.13-.992-2.466-2.5-1.376-5.7 1.163-3.443 3.275-12.846 1.2-19.066-.465-1.38-.992-1.4-1.3-1.557s-1.825-1.316-2.4-3.854c-.76-3.346-3.207-15.238-12.43-27.327-4.886-6.418-10.104-10.235-12.188-11.773-1.428-.93-3.935-2.676-6.934-4.27-4.3-2.27-7.697-4-14.548-6.217a98.19 98.19 0 0 0-4.053-1.17h-.022s-5.837-1.562-12.15-2.3l-4.227-.35c-6.498-.38-8.87.02-12.25.36-.36.035-.73.1-1.092.14l-2.1.308C98.596 5.192 88.382 9.9 83.414 12.27c-2.805 1.332-5.286 2.718-7.568 4.018-.063.04-.144.086-.186.1-.588.36-1.5.872-2.407 1.365-1.404.792-2.746 1.534-4.046 2.17-4.02 1.956-7.558 2.957-10.144 3.854l-1.168.43c-1.864.726-3.052 1.476-3.27 2.713-.398 2.22 2.215 4.28 1.282 7.82C53.6 43.457 43.78 51.815 42.205 52.78c-4.565 2.786-4.28 4.725-4.456 5.717 0 .922.2 1.946.714 3.052 1.52 3.223 4.335 5.985 5.712 8.898s2.168 8.024 1.135 13.996c-.986 5.775-1.295 7.056-1.808 8.115s-1.54 3.128-.12 5.584c1.425 2.463 4.428 4.975 6.312 6.42 1.002.774 1.52 1.476.778 2.87-1.224 2.283-.9 7.666.248 10.678 1.75 4.595 3.805 8.975 5.712 11.8s5.315 7.6 7.318 9.333c1.995 1.743 2.27 4.764 2.23 6.64-.042 1.865-.304 7.153 5.13 10.462 2.678 1.646 2.918 1.232 3.9 2.04.982.793 1.444 1.205 2.123 3.346.68 2.133 3.768 9.612 8.02 14.877 1.24 1.53 1.93 2.613 2.078 2.864s.38.528-.157 1.788-2.682 8.44-4.395 15.86c-.313 1.36-.773 3.15-2.48 4-1.7.824-5.53 2.934-6.92 3.702-1.4.77-2.1 1.187-3.698 3.188-.716.9-1.237 1.412-1.7 1.955-.26.314-.375.515-1.735 1.224-1.178.612-18.66 6.763-37.198 18.103a43.61 43.61 0 0 1-1.314.76c1.092 1.705 2.206 3.394 3.365 5.043l15.652-7.915c1.232-.62 2.765-.862 4.004-.892.746-.014 1.386.047 1.793.148l3.967.908.248.06 1.467.366c.023.01.042.01.065.02l.52.148c1.18.4 1.8 2.604 1.17 4.62l-1.02 3.55-1.996 7.228-4.353 16.3a146.46 146.46 0 0 0 11.616 9.53l1.295-9.777c.964-6.904 6.48-32.48 8.036-38.294 1.133-4.23 1.722-6.16 3.2-6.826.447-.194.955-.5 1.25-.635s.938-.292.74.83c-.228 1.33-1.376 6.757-3.065 24.367-1.173 12.217-1.2 23.037-.78 29.545.182 2.77.23 6.688 4.47 5 4.954-1.98 21.842-8.035 30.864-10.815 14.527-4.48 41.755-10.466 67.998-14.34l7.338-1.043 5.044 29.617-5.037-29.617 3.082-.403 23.57-3.02 8.068 36.77-.898-4.204-7.155-32.565 7.847-1 6.16-.7c1.844-.077 2.65-1.12 1.24-1.543-1.016-.297-3.364-.532-4.552-.56l-1.77-.023c-1.816-.032-2.335-.4-2.734-3.067-1.13-7.852-5.505-27.314-8.646-37.575l-4.523-14.93c-.64-1.877.6-1.992 1.196-1.965 2.215.106 5.283 1.256 6.163 3.15 1.947 4.222 15.266 39.108 20.614 52.114l11.016 26.842c2.378-1.955 4.672-4.014 6.92-6.117l-30.4-67.02a25.72 25.72 0 0 1-.885-2.238c-.07-.2-.098-.376-.098-.533.01-1.1 1.48-1.266 2.206-1.195 2.863.287 28.872 2.002 35.973 2.68 4.686.443 9.36 1.158 12.484 1.715l1.9.36c.667.133 1.168.24 1.492.328 2.317.604 6.404 2.22 10.188 4.25 1.565.834 3.346 2.05 5.255 3.514l1.67-4.922c-1.362-.945-2.893-1.9-4.395-2.717-4.32-2.303-7.968-3.768-11.92-4.648m-211.78-86.25c-.707.304-1.346.385-1.835-.58-1.186-2.345-2.087-6.52-2.43-9.234-.354-2.7-.896-10.803-.725-15.224.2-4.424-.675-6.896-2.256-9.012s-2.604-3.58-2.993-4.292c-.5-.888-.162-1.495.773-2.173.454-.318 1.38-.127 2.098-.276 1.418-.285 6.153-2.002 9.68-4.77 3.52-2.767 9.13-8.12 12.937-10.18 3.795-2.06 5.48-3 9.922-3.532.788-.092 1.97.33.636 1.344s-5.615 2.498-10.6 10.02c-3.06 4.602-3.56 7.26-4.53 9.325s-1.905 2.648-3.446 4.32c-.75.797-2.278 2.472-2.83 4.9-.535 2.43-2.748 10.995-1.448 23.948.153 1.508.774 3.515-.64 4.245-.873.453-1.622.837-2.322 1.136m6.104 17.453c-.753-.535-3.83-4.702-5.33-9.333-.165-.5-.345-1.733.466-2.088.665-.285 1.548-.797 2.007-1.015.465-.234 1.624-.538 1.784 1.133s.308 3.65 2.217 8.6c.346.883.417 1.16.507 1.513.247 1.026-.954 1.696-1.65 1.2m6.27-15.736c-.204.035-2.316.3-3.455.503-.707.13-1.435.394-1.516-.287a21.91 21.91 0 0 0-.39-2.072c-.06-.287.077-.56.42-.64.84-.194 4.08-.74 4.394-.755.313-.004.63.102.766.75l.316 1.626c.038.3.12.774-.535.874M76.302 92.8c-.195-.987-.468-2.677-.38-3.73.03-.42.157-1.467.66-2.032.7-.806 1.656-1.54 2.27-2.035 1.115-.913.883-3.276.964-4.632.246-3.94-.104-16.378 7.968-28.28a22.43 22.43 0 0 1 .94-1.263c.095-.118.2-.227.285-.343a14.5 14.5 0 0 1 .702-.779 6.44 6.44 0 0 1 .304-.313 14.91 14.91 0 0 1 .864-.792c.042-.033.08-.07.118-.104a17.14 17.14 0 0 1 .981-.73 8.59 8.59 0 0 1 .354-.222 8.09 8.09 0 0 1 .68-.4l.4-.2c.248-.127.503-.246.755-.36.096-.04.2-.086.285-.13a15.95 15.95 0 0 1 .996-.373c.143-.05.28-.1.422-.134l.67-.2c.076-.02.146-.046.223-.065 1.643-.43 3.328-.675 5.03-.964 4.805-.816 10.406-.053 13.287.864 2.3.725 3.45 1.28 4.216.558s2.775-2.994 3.626-3.8a1.68 1.68 0 0 0 .272-.362c.026-.042.04-.085.06-.127.03-.08.058-.167.07-.252.005-.046.015-.095.015-.146a1.66 1.66 0 0 0-.023-.248c-.01-.042-.01-.1-.03-.132a1.17 1.17 0 0 0-.154-.341c-.187-.3-.484-.588-.852-.8-.934-.55-10.312-7.43-22.954-7.74-12.353-.3-22.38 4.062-25.038 4.977-.538.18-.814.276-1.13.28s-1.4-.36-.992-1.138c.438-.832 1.534-2.113 2.673-3.15 1.195-1.077 7.04-6.58 12.813-9.127 1.068-.468 1.328-.663 2.012-.93.874-.33 1.4-2.3-.54-2.306-1.98-.014-2.767.208-3.812.37-1.047.174-1.622-.294-.96-1.2.653-.894 1.944-1.886 4.274-3.15 5.06-2.757 14.313-5.663 18.688-6.62 5.705-1.25 6.402-1.33 10.188-1.562 3.54-.204 6.373.046 7.713.1 11.343.43 24.406 4.185 34.52 10.844 9.616 7.075 23.455 18.862 26.198 47.96.33 3.492.098 5.47-.037 6.345-.12.874-1.112 2.48-1.983.656-2.87-6.013-7.304-13.882-12.3-21.34-.297-.443-.6-.656-.844-.688a.45.45 0 0 0-.278.033c-.022.014-.037.037-.06.053a.52.52 0 0 0-.136.146 2.51 2.51 0 0 0-.056.137.96.96 0 0 0-.046.204c-.01.063-.02.12-.02.186a2.09 2.09 0 0 0 .052.489c.125.528 1.72 8.418 1.778 9.517.07 1.096-.468 3.786 3.62 8.75 1.67 2.037 3.15 3.777 3.912 6.782.75 2.994 1.005 4.275 1 4.593.01.313.37 1.205-1.075 1.214-1.437.004-6.924-.394-9.272-.34s-18.57 1.647-24.603 2.93-9.282 2.804-12.38 6.06c-.746.783-1.8 1.513-2.026 1.58s-1 .046-2.55-.058c-1.532-.1-4.2.276-5.584.906-1.404.628-2.405 1.212-4.096.523-2.417-.978-6.563-5.443-17.328-4.917-6.48.317-9.8.494-14.297 1.16l-.802.123-.523.085-.294.046c-1.83.3-3.9.684-6.452 1.182l-1.068.208c-.995.2-1.683-.247-1.868-1.287m99.125-2.776c0 .343-.417.698-.844.77a130.99 130.99 0 0 1-3.78.366c-.454.032-.9-.218-.937-.646l-.157-1.685c-.047-.246-.057-.6.533-.665.343-.042 3.363-.313 4.477-.445.417-.05.7.327.7.692l.01 1.613m-13.546 3.25c-.896-.63-2.47-1.622-3.425-1.97-.658-.236-.428-1.06.5-1.2 3.263-.475 5.356-.475 6.98.538 1.187.735 1.975 2.162 1.612 3.42-.427 1.444-.992 1.13-1.7 1.12s-3.1-1.283-3.975-1.916m1.886 6.366c-.574.387-2.45.042-3.133-.225-1.4-.55-2.392-.93-4.338-2.164-1.27-.806-3.48-1.205-5.413-.62-1.274.385-2.298.707-3.42 1.14s-1.354-.593-1.06-1.03 2.07-2.52 4.43-3.406c.496-.2 1.506-.294 2.002-.304 1.52-.044 3.406.698 4.834 1.74 1.44 1.05 3.726 2.762 5.228 3.404.704.303 2.233.526.87 1.467m-46.914 50.653c-5.692 1.993-7.288-.01-7.795-.603s.118-1.172.72-1.453c1.354-.63 3.166-2.002 4.08-2.895s2.707-3.997 3.997-5.088c.612-.52 3.918-1.645 6.405-.46 2.957 1.4 7.56 1.555 10.388 1.187 2.825-.38 3.902-2.445 4.515-3.664.6-1.23 2.1-1.68 2.898-2.004 2.17-.887 5.04-3.863 5.334-4.166.294-.313 1.2-.753 2.612.08 2.6 1.522 3.907 3.536 6.312 6.268s5.25 3.16 6.085 3.214 1.354 1.02 1.392 1.286c.046.266-.65 1.2-1.168 1.58s-.808 1.078-5.413 1.187c-23.108.57-33.506 3.13-40.364 5.53m31.342 2.78c-1.37.7-5.45 2.246-7.48 2.637l-9.6 1.8c-1.358.105-3.26-.302-4.913-1.432-.332-.23-.783-1.117.422-1.295 2.236-.332 5.846-2 18.978-2.68l2.412-.1c.338-.007 1.552.38.17 1.1m-30.4 29.125c-4.586.756-16.795-2.826-24.733-22.416-2.046-5.04.198-10.053 2.167-11.067 1.168-.593 1.8-.834 2.198-.934.432-.1 2.5-.38 2.746 1.958.187 1.9 3.858 17.417 8.794 22.55 1.217 1.273 2.18 1.195 2.493-.12.27-1.205.802-2.8.957-3.394.1-.436 1.3-1.752 1.975-.074 1.452 3.56 3.204 8.223 4.355 10.1 1.126 1.822.764 3.122-.952 3.406m.905-51.222c.43.598.698 1.685.665 2.165-.044.554-1.938 1.56-3.907-.65s-1.585-5.276-.77-6.576c1.3-2.074 3.854-1.04 3.607-.3-.853 2.562-.033 4.76.405 5.363m-14.635-28.7c-1.473-.048-3.058-.23-5.747.767-3 1.112-4.945 2.563-6.345 3.422-1.44.897-2.962 1.282-3.472 1.32-.507.044-2.355-.2-1.082-1.537.338-.366 1.15-.642 2.38-1.54.88-.648 1.532-1.1 2.533-1.953 1.784-1.52 5.42-3.717 7.005-3.912 1.163-.14 3.22.08 4.442 1.082 1.273 1.045 1.762 2.398.286 2.35m-25.327 2.6c.155-.964 1.2-3.506 3.43-4.243.3-.1 1.406-.45 2.33-.688a48.49 48.49 0 0 1 2.862-.625c1.607-.28 1.946.943.934 1.74-.663.528-1.722 1.216-2.658 1.974-1.423 1.164-2.8 2.458-3.847 3.337-1.287 1.072-3.372.484-3.052-1.495m7.545 27.68c-.018-.023-.024-.032-.032-.044-.398-.56-.77-1.147-1.117-1.745l-.222-.4c-.346-.642-.67-1.3-.925-1.974-.498-1.323.336-1.518.892-1.23.555.297 2.18 1.244 3.914 1.6 1.06.218 1.7-.3 1.938-1.054l.137-.408a1.98 1.98 0 0 0 .076-.213l.044-.14a4.8 4.8 0 0 0 .06-.25c.015-.044.02-.1.028-.134.02-.088.03-.174.04-.264.004-.044.004-.086.01-.135 0-.088-.01-.174-.02-.264a.91.91 0 0 0-.02-.118 1.28 1.28 0 0 0-.1-.275c-.018-.028-.026-.058-.04-.08a1.57 1.57 0 0 0-.24-.3c-.13-.113-.3-.218-.498-.3-1.5-.607-5.795-1.96-9.012-7.943-.466-.846-.025-1.566.288-1.82s1.434-.964 1.97-1.295c.542-.332 1.276-.294 2.04.234.735.526 2.332 1.7 3.613 1.576 1.2-.116 1.3-.604 1.52-.913.84-1.224 3.112-5.67 9.07-5.742 2.458-.032 4.76.195 5.584.144.815-.053 3.722-.315 5.434-1.48 1.686-1.16 2.405-.325 1.43.943l-.4.524c-.048.06-.085.113-.13.17-.132.176-.246.343-.346.503-.37.628-.417 1.172.275 1.918 1.087 1.156 1.37 1.363 1.723 1.636a.92.92 0 0 0 .564.204 1.15 1.15 0 0 0 .29-.046c.042-.014.083-.014.132-.032a1.98 1.98 0 0 0 .484-.306c.62-.55 1.038-.876 1.58-1.576.403-.517.744.004.644.813-.08.63.204 4.674-4.203 9.646-.144.167-.48.443-.896.797a10.83 10.83 0 0 0-.303.257c-.054.046-.1.1-.163.146-.138.12-.275.248-.417.38-.113.104-.228.23-.343.343s-.232.227-.35.354c-.072.077-.144.167-.218.253-.148.167-.3.336-.447.52l-.132.186a9.11 9.11 0 0 0-.475.669c-.187.3-.36.612-.513.938-1.226 2.616-1.067 3.48-1.2 4.433-.12.945-.854 1.32-1.68 1.703-.498.23-1.818.992-3.28 2.1l.008-.007c-.438.33-.884.695-1.326 1.073-.085.077-.167.148-.246.225a18.62 18.62 0 0 0-1.281 1.232 8.41 8.41 0 0 1-.818.75c-.095.074-.183.132-.277.2a7.26 7.26 0 0 1-.593.389 3.59 3.59 0 0 1-.319.165 4.98 4.98 0 0 1-.604.252c-.108.037-.213.082-.32.1-.054.014-.104.037-.153.053-.127.028-.255.032-.382.05-.158.028-.315.058-.476.067-.176.01-.356 0-.537-.01-.155-.017-.313-.017-.464-.035-.186-.028-.37-.086-.552-.137-.154-.04-.308-.072-.465-.127-.174-.067-.346-.163-.52-.248-.167-.08-.327-.146-.5-.246-.015-.012-.032-.016-.046-.025a8.89 8.89 0 0 1-.894-.65 43.48 43.48 0 0 1-2.458-2.283.7.7 0 0 0-.066-.067 1 1 0 0 1-.067-.077c-.43-.436-.862-.9-1.28-1.386-.036-.045-1.014-1.222-1.43-1.8m52.966 92.912c-.27 1.408-1.42 6.153-5.638 15.918l-.832 1.906-.195.426-.316.694c-.01.02-.015.037-.023.056-.153.34-.308.658-.466.975 0 0-.01.01-.01.02-.02.037-.042.078-.067.12l-.17.324c-.076.14-.148.292-.23.428 0 .014-.005.02-.01.026-.02.028-.037.056-.056.093l-.18.315c-.01.02-.023.036-.033.056l-.148.24c-.014.026-.027.056-.042.078-.01.01-.016.022-.03.036-.064.106-.132.205-.198.315-.015.015-.028.027-.037.042l-.228.324c-.004 0-.016.02-.03.027-.064.1-.133.177-.2.26-.02.02-.032.037-.046.047-.076.102-.157.182-.228.27-.01 0-.02.014-.03.026-.042.042-.1.084-.133.13h-.004a.49.49 0 0 1-.077.074c-.014.014-.036.027-.05.047-.08.073-.158.145-.24.2-.01.01-.014.014-.027.02a1.92 1.92 0 0 1-.224.156c-.02.014-.038.027-.058.037-.014.01-.028.014-.037.02-.016.014-.03.022-.044.022-.056.037-.114.07-.172.103-.093.045-.174.073-.26.102-.02.01-.04.02-.063.027-.1.027-.176.052-.27.074-.876.2-1.813.324-2.36.418a10.35 10.35 0 0 0-.688.12l-.74.116-31.54 5.64c-5.3 1.058-4.778-1.6-6.108-6.428-.56-2.025-2.527-19.94-1.504-31.186.343-3.734.507-4.828 1.177-5.24s1.694-1.08 2.002-1.168c.3-.08 1.213-.32 1.64.45.417.76 8.15 16.45 13.206 22.134 4.485 5.065 7.638 8.74 11.42 11.206.25.167.465.27.66.334.02.01.042.02.064.027a1.52 1.52 0 0 0 .248.051 1.01 1.01 0 0 0 .213 0c.02-.004.037-.004.057-.01a.59.59 0 0 0 .301-.166c.01-.01.02-.023.033-.037a.77.77 0 0 0 .149-.319c.005-.02.005-.042.005-.062.104-.584-.174-1.47-.73-2.07-.834-.9-4.3-4.454-8.84-10.928-5.887-8.356-9.876-20.688-10.95-24.638-.702-2.586-1.096-6.664-1.03-9.918a4.56 4.56 0 0 1 .008-.407l.046-.956a16.59 16.59 0 0 1 .082-.881l.046-.344.087-.552a4.25 4.25 0 0 1 .063-.292c.05-.25.1-.48.18-.682.916-2.617 1.68-2.336 2.5-1.46.812.885 8.12 7.517 20.17 12.916 2.56 1.145 4.085 1.672 4.434 2.05.345.365.896 1.14-.2 1.398-1.082.256-4.296.37-7.66 1.7l-.54.23c-1.177.528-1.73 1.058-1.98 1.627-.05.1-.086.228-.113.344a1.74 1.74 0 0 0-.049.255c-.015.13-.02.26-.015.4 0 .085-.005.173.004.26a10.55 10.55 0 0 0 .046.5 20.46 20.46 0 0 1 .11.94c.178 1.826.494 3.13.726 5.57.227 2.45.086 4.666 1.28 5.7 1.2 1.02 2.817 1.626 7.16.783l5.98-1.168c.48-.015 1.636-.2.93 1.14-.067.13-.155.287-.26.478-.95 1.7-3.25 5.502-4.035 8.04-.87 2.8-1.045 3.573-1.12 4.05-.07.48.262 1.408 1.117.37s2.542-4.908 6.785-9.834a79.29 79.29 0 0 1 1.581-1.771c.004 0 .01-.01.02-.02l1.082-1.13a8.72 8.72 0 0 1 .276-.272l.814-.788a4.49 4.49 0 0 0 .199-.182 20.27 20.27 0 0 1 1.652-1.361c.048-.027.1-.057.134-.088a7.07 7.07 0 0 1 .531-.357 1.9 1.9 0 0 0 .141-.093c.167-.103.325-.188.47-.27.023-.02.06-.037.085-.05.02-.006.033-.02.046-.027.172-.08.315-.163.46-.23 1.185-.584 1.507.226 1.148 2.103m7.024 21.56c-.68.157-3.617.603-4.07.6-.447.01-.827-.407-.637-.728.2-.315 2.2-2.946 3.322-7.526.187-.746.654-1.265.957-.193.234.783 1.14 4.676 1.35 6.14.03.256.188 1.436-.92 1.696m1.232-37.345c-1.93.724-4.076-1.445-5.813-2.604-3.904-2.67-7.496-5.24-10.443-8.842-4.514-5.5-4.092-9.353-2.78-16.472.9-5.057-.74-9.812-1.1-10.482s.046-1.354 1.114-.854 2.088 2.06 3.184 3.394c1.087 1.335 1.328.386 1.418-.52.208-2.094-.264-3.77-.525-4.744h-.006c-.014-.047-.026-.106-.036-.157-.153-.58-.693-1.873-1.83-2.108-1.522-.32-3.018-.455-3.83-1.04-.378-.272-.808-.828-.382-1.236.775-.75 1.9-1.747 2.97-2.113 1.455-.5 2.854-1.26 4.697-1.25 12.438.08 15.792-2.8 20.547-4.772.932-.4 1.5-.565 2.3-.315.802.24 2.976 1.058 3.525 2.024s.65 5 1.7 7.926 2.83-.106 3.222-1.357c.375-1.257.522-4.245.542-5s.24-3.944 1.24-5.02c1.988-2.123 2.456-4.635 2.697-5.617.213-.88.38-3.344-.056-6.843-.047-.43-.1-.883-.187-1.346-.672-4.22-1.52-4.577-2.665-5.344s-2.35-.433-5.272-2.435c-2.614-1.798-4.987-4.94-6.966-6.857-1.97-1.914-5.088-3.84-8.376-4.178a5.77 5.77 0 0 0-.557-.023h-.037a3.21 3.21 0 0 0-.402.044c-.023.004-.037.014-.063.02a1.43 1.43 0 0 0-.28.079c-.022.016-.042.03-.07.04-.063.037-.125.072-.176.113-.023.023-.042.046-.067.072-.037.037-.074.077-.1.123-.023.032-.037.072-.057.1-.014.04-.035.072-.044.1a1.02 1.02 0 0 0-.037.176c0 .023-.004.042-.004.067a1.5 1.5 0 0 0 .004.25h-.004c.067.813.653 1.805.802 2.213.208.554.734 2.248-.2 3.235-.94.987-6.436 5.904-11.583 5.78-2.326-.053-4.267-.53-5.896-1.226a.11.11 0 0 1 .02.025c-.07-.03-.127-.067-.2-.1a13.5 13.5 0 0 1-1.11-.552c-.056-.032-.123-.06-.186-.095a13.58 13.58 0 0 1-1.102-.711l-.304-.227a12.18 12.18 0 0 1-.746-.612c-.07-.063-.15-.125-.218-.186-.28-.267-.54-.528-.783-.788-.06-.072-.113-.14-.174-.204-.186-.215-.356-.43-.52-.637-.05-.067-.1-.127-.146-.195-.185-.262-.356-.512-.502-.753-.02-.03-.03-.053-.05-.08a12.5 12.5 0 0 1-.332-.62c-.023-.05-.048-.097-.072-.15-.095-.204-.176-.403-.23-.57-.75-2.26 1.114-7.598 1.048-11.42-.023-1.675-.37-4.9-.626-7.12s.92-5.234 1.467-5.962c.123-.16.308-.313.52-.463.054-.04.114-.072.17-.1a4.75 4.75 0 0 1 .685-.366l.114-.058a10.84 10.84 0 0 1 .814-.308v.014c.48-.165.997-.318 1.563-.445 1.833-.408 3.976.5 4.527 2.012 1.916 5.278 4.04 6.393 4.75 6.738.722.352 1.856-.693 2.3-1.078.447-.373 1.524-1.8 1.046-2.4-.737-.943-1.14-1.522-1.354-2.1-.36-.996.94-1.017 1.25-.878 3.923 1.662 5.802 2 9.6 1.884s9.688-2.616 10.418-2.63c.595-.014 1.77.352 2.212.964.073.104.172.252.265.398.38.565.9 1.323 1.344 1.48.02.004.032.014.05.02.562.14 1.9.037 2.6.067.96.033 2.623-.3 2.576 1.462-.106 4.702-3.823 7.635-4.16 7.92-.13.118-.204.27-.27.422-.02.042-.055.086-.063.132-.02.086-.037.172-.037.253a.86.86 0 0 0 .028.227c.088.28.5 1.295.662 1.57a1.37 1.37 0 0 0 .23.285c.023.023.062.042.1.067.074.056.147.1.23.146.042.023.098.028.147.044.078.02.167.037.256.032.056 0 .125-.02.18-.032.14-.03.27-.058.417-.148 3.15-1.884 4.43-4.1 5.802-6.9s2.086-11.987 2.165-13.496c.078-1.52.556-2.454 1.302-3.065s4.42-2.97 4.94-3.1c.528-.123 1.13-.174 1.724 1.198.604 1.38 1.92 9.864 2.17 11.168.283 1.386 1 1.22 1.363.955.787-.575 1.357-1.282 2.058-2.486.724-1.205.194-2.867-.5-3.64s-1.794-2.02-1.326-3.255c1.066-2.804 3.306-2.663 3.907-2.563s2.86 1.122 3.27 7.232c.593 9.05-3.098 18.4-3.978 20.783-1.946 5.276-2.354 8.868-2.655 10.578-.292 1.703-1.585 1.395-1.896 1.12s-.72-1.594-.918-1.8c-.204-.195-.714-.095-1.048 1.358s-1.445 3.464-2.096 4.56c-.436.7-.355 1.73-.25 2.523.195 1.54.996 7.427.75 14.12-.444 11.9-4.426 19.412-7.396 23.34-6.988 9.24-13.542 13.103-14.33 13.65-1 .705-2.702.595-3.268.408-.575-.162-1.08-.756-2.155-1.523-.088-.07-.176-.106-.25-.145-.854-.395-.982.807-.974 1.12.01.334.527 1.57.82 2.77.558 2.262-.7 4.996-1.992 7.154-1.845 3.05-3.904 6.405-3.474 10.1-.005.328-.005.567-.28.673m59.218 3.523L210.3 235.7a27.25 27.25 0 0 1 .157 1.265c.01.047.02.1.02.144.037.357.056.683.056.95 0 .028-.004.052-.004.074 0 .12 0 .25-.01.353a3.56 3.56 0 0 1-.052.278c0 .036-.01.073-.01.106a1.63 1.63 0 0 1-.193.477c-.01.02-.027.037-.047.064a1.28 1.28 0 0 1-.265.27c-.032.023-.06.047-.098.074-.125.08-.265.148-.437.204-.04.02-.102.026-.157.046-.13.042-.272.08-.427.12-.097.02-.193.037-.292.064l-.652.13c-.427.088-1.053.177-1.487.213l-2.58.232c-9.223.844-27.273 2.674-41.733 4.495-.272.026-.55.056-.848.103-1.126.158-1.78-.022-1.868-1.127-.07-1.015-1.76-11.053-6.872-19.604a39.18 39.18 0 0 0-1.488-2.32c-.583-.84.283-1.48 1.108-1.188 2.316.814 8.73 3.75 17.88 10.297 2.336 1.67 2.943 2.188 3.467 2.633.07.06.177.12.273.167.037.02.08.027.125.046.063.023.144.047.223.065.042.01.083.02.125.022.088.01.176.014.255.01h.1a.75.75 0 0 0 .292-.1c.213-.134.3-.394.144-.843-.57-1.604-3.63-4.755-11.456-12.018-1.117-1.033-1.136-1.47.022-1.6 1.154-.1 4.292.032 5.96-.037 1.673-.073 5.408-.177 4.676-5.065-.56-3.786-1-7.702-1.07-8.874-.063-1.168-.27-3.352-3.003-3.66-2.716-.312-7.27.32-11.357 1.75-1.127.4-1.525-.13-.7-.9.83-.755 8.004-5.423 14.117-12.443 6.72-7.73 9.676-13.416 11.354-18.588.303-.918.7-.606 1.066-.396.37.22 2.892 2.258 3.786 7.27.876 5.023 2.614 11.994-.45 30.3-1.683 10.028-3.74 15.95-4.218 17.365-.48 1.4.343 2.188 1.27.933 2.16-2.95 5.016-11.123 7.426-20.52 2.373-9.273 3.233-17.223 3.597-22.32v-.005l.092-1.33.015-.17.07-1.163a2.3 2.3 0 0 1 .064-.547c.01-.047.027-.084.042-.125.022-.07.042-.148.068-.204 0-.01.01-.01.01-.02a1.27 1.27 0 0 1 .15-.22c.016-.02.028-.037.042-.047.046-.04.088-.06.13-.082.032-.015.064-.037.094-.048.026-.004.046-.004.073-.01.052-.01.103-.02.148-.02.02 0 .037 0 .06.01h.07c.017 0 .027.015.036.015.186.032.356.106.487.162.478.187 2.6.797 3.692 5.867l.148.647c.01.074.026.157.046.23a19.34 19.34 0 0 1 .147.631l.01.037c.913 3.986 2.567 10.883 4.995 24.976m-38.997 8.687h1.028v2.623h.62v-2.623h1.025v-.527h-2.674zm4.903 1.736l-.793-2.252h-.894v3.15h.575v-2.535l.876 2.535h.505l.862-2.535v2.535h.574v-3.15h-.894z"/></svg>