<svg version="1" xmlns="http://www.w3.org/2000/svg" width="800" height="284" viewBox="100 5 100 100"><switch><g><path fill="#FFF" d="M150.323 23.601C87.366 16.158 58.009 13.014 12.644 7.654c-1.537 0-2.908-.251-2.686 2.267C19.739 43.41 21.157 48.94 33.876 92.327c2.727 7.846 7.182 9.925 11.498 9.925 42.479 0 63.814 0 104.613.002l104.587.002c4.312 0 8.771-2.081 11.498-9.925 12.72-43.389 14.137-48.918 23.918-82.406.221-2.518-1.148-2.269-2.686-2.269-45.365 5.36-74.022 8.504-136.981 15.945"/><path fill="none" stroke="#FFF" stroke-width="2.018" stroke-miterlimit="3.864" d="M150.323 23.601C87.366 16.158 58.009 13.014 12.644 7.654c-1.537 0-2.908-.251-2.686 2.267C19.739 43.41 21.157 48.94 33.876 92.327c2.727 7.846 7.182 9.925 11.498 9.925 42.479 0 63.814 0 104.613.002l104.587.002c4.312 0 8.771-2.081 11.498-9.925 12.72-43.389 14.137-48.918 23.918-82.406.221-2.518-1.148-2.269-2.686-2.269-45.365 5.36-74.022 8.504-136.981 15.945z"/><path fill="#FFF" d="M149.961 28.28c56.795-6.369 90.617-10.689 131.322-15.374 1.463-.146 2.781-.953 2.098 1.423-5.612 19.808-7.358 25.981-17.533 61.049-1.979 6.371-4.879 5.578-9.405 5.599-38.231 0-64.955-.014-106.481-.022-41.528.009-68.226.019-106.455.019-4.526-.021-7.429.772-9.405-5.595-10.178-35.073-11.924-41.245-17.537-61.052-.681-2.375.637-1.572 2.102-1.425 40.701 4.687 74.498 9.007 131.294 15.378"/><path fill="none" stroke="#FFF" stroke-width="2.018" stroke-miterlimit="3.864" d="M149.961 28.28c56.795-6.369 90.617-10.689 131.322-15.374 1.463-.146 2.781-.953 2.098 1.423-5.612 19.808-7.358 25.981-17.533 61.049-1.979 6.371-4.879 5.578-9.405 5.599-38.231 0-64.955-.014-106.481-.022-41.528.009-68.226.019-106.455.019-4.526-.021-7.429.772-9.405-5.595-10.178-35.073-11.924-41.245-17.537-61.052-.681-2.375.637-1.572 2.102-1.425 40.701 4.687 74.498 9.007 131.294 15.378z"/><path fill-rule="evenodd" clip-rule="evenodd" fill="#FFF" d="M50.19 88.033h.666c1.816 0 3.101 1.099 3.101 3.044 0 2.122-1.444 3.044-3.131 3.044h-.636v-6.088m-2.827 8.481h4.01c3.014 0 5.526-2.379 5.526-5.437 0-3.056-2.496-5.437-5.523-5.437h-4.013v10.874z"/><path fill="none" stroke="#FFF" stroke-width=".122" stroke-miterlimit="3.864" d="M50.19 88.033h.666c1.816 0 3.101 1.099 3.101 3.044 0 2.122-1.444 3.044-3.131 3.044h-.636v-6.088zm-2.827 8.481h4.01c3.014 0 5.526-2.379 5.526-5.437 0-3.056-2.496-5.437-5.523-5.437h-4.013v10.874z"/><path fill-rule="evenodd" clip-rule="evenodd" fill="#FFF" d="M77.116 88.021c1.687 0 3.072 1.369 3.072 2.869 0 1.875-1.385 3.244-3.072 3.244s-3.074-1.369-3.074-3.244c0-1.499 1.387-2.869 3.074-2.869m0-2.741c-3.131 0-6.015 2.308-6.015 5.595 0 3.521 2.524 5.999 6.015 5.999 3.491 0 6.013-2.478 6.013-5.999.002-3.287-2.884-5.595-6.013-5.595z"/><path fill="none" stroke="#FFF" stroke-width=".122" stroke-miterlimit="3.864" d="M77.116 88.021c1.687 0 3.072 1.369 3.072 2.869 0 1.875-1.385 3.244-3.072 3.244s-3.074-1.369-3.074-3.244c0-1.499 1.387-2.869 3.074-2.869zm0-2.741c-3.131 0-6.015 2.308-6.015 5.595 0 3.521 2.524 5.999 6.015 5.999 3.491 0 6.013-2.478 6.013-5.999.002-3.287-2.884-5.595-6.013-5.595z"/><path fill-rule="evenodd" clip-rule="evenodd" fill="#FFF" d="M104.655 85.491v5.726c0 1.414-.102 2.959-1.917 2.959-1.816 0-1.919-1.545-1.919-2.959v-5.726h-2.826v6.116c0 1.399.059 2.782 1.139 3.834.91.895 2.336 1.212 3.606 1.212s2.696-.317 3.606-1.21c1.08-1.054 1.139-2.437 1.139-3.836v-6.116h-2.828"/><path fill="none" stroke="#FFF" stroke-width=".122" stroke-miterlimit="3.864" d="M104.655 85.491v5.726c0 1.414-.102 2.959-1.917 2.959-1.816 0-1.919-1.545-1.919-2.959v-5.726h-2.826v6.116c0 1.399.059 2.782 1.139 3.834.91.895 2.336 1.212 3.606 1.212s2.696-.317 3.606-1.21c1.08-1.054 1.139-2.437 1.139-3.836v-6.116h-2.828z"/><path fill="#FFF" d="M128.282 90.444v2.221h2.053c-.115 1.256-1.052 1.889-2.279 1.889-1.859 0-2.87-1.715-2.87-3.403 0-1.659.967-3.431 2.828-3.431 1.141 0 1.964.691 2.35 1.731l2.682-1.129c-.937-2.034-2.666-3.042-4.903-3.042-3.503 0-5.897 2.322-5.897 5.855 0 3.418 2.378 5.738 5.796 5.738 1.818 0 3.42-.647 4.486-2.132.967-1.357 1.082-2.71 1.11-4.298h-5.356"/><path fill="none" stroke="#FFF" stroke-width=".122" stroke-miterlimit="3.864" d="M128.282 90.444v2.221h2.053c-.115 1.256-1.052 1.889-2.279 1.889-1.859 0-2.87-1.715-2.87-3.403 0-1.659.967-3.431 2.828-3.431 1.141 0 1.964.691 2.35 1.731l2.682-1.129c-.937-2.034-2.666-3.042-4.903-3.042-3.503 0-5.897 2.322-5.897 5.855 0 3.418 2.378 5.738 5.796 5.738 1.818 0 3.42-.647 4.486-2.132.967-1.357 1.082-2.71 1.11-4.298h-5.356z"/><path fill-rule="evenodd" clip-rule="evenodd" fill="#FFF" d="M151.285 89.837v-4.196h-2.827v10.877h2.827v-4.457h4.08v4.457h2.827V85.641h-2.827v4.196h-4.08"/><path fill="none" stroke="#FFF" stroke-width=".122" stroke-miterlimit="3.864" d="M151.285 89.837v-4.196h-2.827v10.877h2.827v-4.457h4.08v4.457h2.827V85.641h-2.827v4.196z"/><path fill-rule="evenodd" clip-rule="evenodd" fill="#FFF" d="M173.562 96.518h2.826v-6.663h.03l5.178 6.663h2.827V85.641h-2.827v6.65h-.031l-5.177-6.65h-2.826v10.877"/><path fill="none" stroke="#FFF" stroke-width=".122" stroke-miterlimit="3.864" d="M173.562 96.518h2.826v-6.663h.03l5.178 6.663h2.827V85.641h-2.827v6.65h-.031l-5.177-6.65h-2.826z"/><path fill-rule="evenodd" clip-rule="evenodd" fill="#FFF" d="M206.396 85.641v5.728c0 1.412-.1 2.957-1.917 2.957-1.816 0-1.92-1.545-1.92-2.957v-5.728h-2.825v6.116c0 1.399.057 2.783 1.139 3.837.91.894 2.336 1.211 3.606 1.211s2.695-.317 3.605-1.211c1.08-1.054 1.139-2.438 1.139-3.837v-6.116h-2.827"/><path fill="none" stroke="#FFF" stroke-width=".122" stroke-miterlimit="3.864" d="M206.396 85.641v5.728c0 1.412-.1 2.957-1.917 2.957-1.816 0-1.92-1.545-1.92-2.957v-5.728h-2.825v6.116c0 1.399.057 2.783 1.139 3.837.91.894 2.336 1.211 3.606 1.211s2.695-.317 3.605-1.211c1.08-1.054 1.139-2.438 1.139-3.837v-6.116h-2.827z"/><path fill="#FFF" d="M228.859 88.035h3.178v-2.394h-9.266v2.394h3.178v8.483h2.91v-8.483"/><path fill="none" stroke="#FFF" stroke-width=".122" stroke-miterlimit="3.864" d="M228.859 88.035h3.178v-2.394h-9.266v2.394h3.178v8.483h2.91z"/><path fill-rule="evenodd" clip-rule="evenodd" fill="#FFF" d="M252.837 86.247c-.963-.548-2.306-.894-3.4-.894-2.178 0-3.75 1.444-3.75 3.648 0 2.105 1.165 2.566 2.941 3.072.604.172 1.715.447 1.715 1.244 0 .76-.708 1.092-1.369 1.092-.967 0-1.802-.504-2.508-1.124l-1.212 2.277c1.108.78 2.451 1.241 3.821 1.241 1.098 0 2.236-.303 3.086-1.023.867-.736 1.127-1.845 1.127-2.929 0-1.759-1.172-2.523-2.683-2.969l-.722-.219c-.491-.159-1.256-.404-1.256-1.037 0-.606.691-.908 1.211-.908.692 0 1.355.287 1.873.72l1.126-2.191"/><path fill="none" stroke="#FFF" stroke-width=".122" stroke-miterlimit="3.864" d="M252.837 86.247c-.963-.548-2.306-.894-3.4-.894-2.178 0-3.75 1.444-3.75 3.648 0 2.105 1.165 2.566 2.941 3.072.604.172 1.715.447 1.715 1.244 0 .76-.708 1.092-1.369 1.092-.967 0-1.802-.504-2.508-1.124l-1.212 2.277c1.108.78 2.451 1.241 3.821 1.241 1.098 0 2.236-.303 3.086-1.023.867-.736 1.127-1.845 1.127-2.929 0-1.759-1.172-2.523-2.683-2.969l-.722-.219c-.491-.159-1.256-.404-1.256-1.037 0-.606.691-.908 1.211-.908.692 0 1.355.287 1.873.72l1.126-2.191z"/><path fill="#FFF" d="M98.14 33.104c21.655-.004 48.017-.006 49.151.007 3.43.032 4.986-1.523 5.611-2.08.627-.558 1.341-.53 1.322.12-.006.28-3.713 8.875-8.847 8.863-3.145-.005-26.784-.009-47.276-.009a5.39 5.39 0 0 0 1.26-3.471 5.393 5.393 0 0 0-1.221-3.43m18.676 20.436c-.4.802-3.523 8.559-3.523 8.559-.839 2.144.39 3.233 1.292 3.462 2.019.515 3.964-.975 6.063-6.496 3.332-8.768-2.817-7.554-3.832-5.525zm-22.062 7.175c2.989 1.331 1.788 5.485-.301 5.989-.963.756 3.072 2.732 4.846-1.333 1.808-4.143-.498-8.171-.769-9.15-.726.602-1.986 2.16-3.776 4.494zm25.179 6.735c5.046-1.565 9.326-8.171 10.204-10.363 1.942-5.187 3.596-9.209 3.596-9.209l6.039-.015s-4.318 10.333-6.177 15.577c-1.778 5.008 3.232.799 5.263-4.761a881.261 881.261 0 0 1 4.049-10.631l6.262-.011s-7.267 18.148-8.016 19.721c2.34-.636 5.273 1.165 4.988 2.038-1.025 3.123-1.652-1.545-5.96-.198-2.373 5.75-7.653 10.772-11.799 10.151-5.37-.801-2.237-8.124 6.818-10.774l.787-2.188c-4.654 3.866-9.136 1.521-8.076-3.03-3.906 4.749-8.495 5.425-11.413 5.214-2.195.328-4.069-.616-5.044-2.066-1.486 3.896-3.515 8.898-3.515 8.898h-6l3.066-7.835c-2.571 1.515-5.097 1.809-7.064 1.735-3.97 1.088-6.412-1.565-7.113-3.503-4.43 5.869-9.324 3.764-9.991.162-1.891 1.964-3.962 3.439-5.839 3.369-4.569-.168-3.45-7.006-2.657-9.296 2.067-5.961 4.308-8.346.119-8.478-.698-.022-5.722 19.475-14.857 20.323-8.464.78-5.204-5.959-3.8-9.813 2.245-6.173 4.627-9.254 3.432-11.553-.926-1.787-6.062 1.909-7.637 5.849-2.035 5.077-6.144 15.683-6.144 15.683l-7.922.17s6.535-16.525 12.885-33.154c2.071-5.418-1.088-5.576-3.56-5.431-2.037.121-1.236-1.684.257-1.798 7.607-.58 10.368-.466 11.284.132 1.563 1.02 1.491 3.122 1.209 3.61-1.397 3.639-3.968 10.084-4.314 11.099-1.11 3.256 1.191.13 1.867-.717.676-.844 5.471-6.237 6.424-7.513.993-1.327 5.39-5.735 8.336-5.735l19.831-.002a5.4 5.4 0 0 0-1.222 3.428c0 1.321.475 2.531 1.26 3.471-12.321.002-21.977.004-22.67.009-1.533.008-4.967 1.899-7.568 5.028-2.239 2.703.68 1.723.68 1.723 4.366-.42 8.432-1.402 1.462 13.84-6.666 14.583 3.285 7.755 9.105-9.89.21-.642-1.495-1.478-1.551-2.687-.077-1.545-.538-3.324 2.168-3.324 2.707 0 1.813 2.745 4.102 3.444 4.635 1.419 7.156-.035 4.723 5.859-2.33 5.651-4.905 12.679-1.859 11.833 1.462-.406 2.306-1.477 2.848-2.461 3.216-8.76 5.971-15.532 5.971-15.532h5.982l-6.529 16.475c-1.509 3.803 1.499 1.667 3.731-.776.259-2.005 1.754-2.759 2.205-2.832 2.369-3.422 9.965-14.161 9.965-14.161s.58.421.093 1.189c-.651 1.022.56 6.089 1.092 7.696.843 2.562 2.198 8.884-1.355 11.788a15.7 15.7 0 0 1-2.053 1.442 12.492 12.492 0 0 0 5.335-2.385l7.21-18.422h5.946s-.257.563-.595 1.432c1.709-1.306 3.829-2.003 5.457-1.57 1.66.438 7.151.865.977 13.517-1.47 3.005-3.108 4.991-4.728 6.209zm9.78 8.62c1.95-1.278 3.301-2.658 4.49-4.851-1.454.31-3.942 1.673-5.236 2.887-1.689 1.585-.862 3.018.746 1.964zM90.691 36.535a3.252 3.252 0 1 1 6.504 0 3.252 3.252 0 0 1-6.504 0zm109.947 22.507c3.05.065 6.721-1.785 7.521-3.166.799-1.381.704-4.086-1.331-4.186-1.721-.083-5.137 1.49-6.19 7.352zm60.649 5.128c-5.904 7.984-14.627 6.978-16.696-.387-1.438 2.916-3.525 5.788-7.358 6.126-4.601.404-5.074-4.144-4.566-6.68.506-2.539 1.297-3.554 3.153-8.798 1.309-3.695-2.54-1.808-4.729 1.757-1.576 4.252-5.142 13.741-5.142 13.741s-1.843-.138-5.954-.19c.508-2.536 3.905-9.987 5.766-15.23 1.329-3.75-2.657-1.753-4.825 1.916-.067.12-.138.233-.208.34L215.41 69.93h-6.212l1.948-4.919a13.456 13.456 0 0 1-2.17 1.918c-7.965 5.63-11.757 1.557-12.995-2.436-2.277 2.808-5.042 5.331-7.485 5.24-4.566-.17-3.446-7.006-2.655-9.293 2.064-5.966 4.308-8.349.119-8.481-.698-.022-5.724 19.473-14.857 20.321-8.464.78-5.206-5.955-3.803-9.813 2.245-6.169 4.63-9.254 3.435-11.553-.929-1.785-6.062 1.911-7.639 5.849-2.033 5.077-6.145 15.688-6.145 15.688l-7.92.165s6.535-16.523 12.887-33.152c2.071-5.42-1.088-5.575-3.56-5.431-2.038.119-1.237-1.686.255-1.8 7.608-.578 10.369-.464 11.284.132 1.561 1.021 1.49 3.124 1.209 3.612-1.397 3.639-3.968 10.084-4.314 11.097-1.107 3.258 1.191.13 1.869-.717.678-.844 5.467-6.235 6.422-7.511.993-1.327 5.392-5.734 8.339-5.734 2.587 0 75.47-.02 77.375 0 3.427.034 4.983-1.521 5.61-2.078.625-.557 1.34-.532 1.323.12-.006.278-3.716 8.873-8.849 8.863-5.606-.011-76.34-.013-78.264 0-1.528.008-4.967 1.899-7.566 5.028-2.242 2.703.678 1.721.678 1.721 4.367-.418 8.43-1.399 1.465 13.84-6.669 14.583 3.284 7.755 9.104-9.89.212-.642-1.493-1.478-1.552-2.685-.075-1.547-.538-3.324 2.168-3.324 2.708 0 1.813 2.744 4.102 3.444 4.638 1.418 7.158-.036 4.725 5.859-2.33 5.649-4.904 12.679-1.86 11.832 2.466-.686 3.176-3.258 3.628-4.119a6.522 6.522 0 0 1 .013-.68c.421-5.839 3.845-10.864 6.759-12.135 6.982-3.051 9.672.838 9.443 4.545-.279 4.546-5.374 7.59-11.128 7.756-.103-.081-.119-.021 0 .847.902 6.519 8.325 2.968 12.287-1.426l5.101-12.86 6.394-.034-1.554 3.851c4.723-5.658 9.821-4.07 9.389.772l.184-.245c5.415-7.104 11.596-4.385 9.474 2.032-.312.942-3.388 9.689-3.388 9.689s-.952 2.937.908 2.937c1.606 0 3.803-2.834 4.783-5.499l-.014-.23c-.291-5.799 3.299-10.803 6.196-12.065 6.948-3.032 9.915.835 9.895 4.519-.024 4.52-5.046 7.546-10.905 7.716-.111-.085-.125-.022.049.839 1.551 7.75 9.312 2.662 10.456 1.269 2.886-3.528 2.789-.976 1.436.849zm-12.024-5.113c3.112.063 6.755-1.775 7.489-3.149.736-1.375.483-4.063-1.598-4.163-1.758-.081-5.155 1.483-5.891 7.312z"/><path fill="none" stroke="#FFF" stroke-width="2.018" stroke-miterlimit="3.864" d="M119.933 67.45c5.046-1.565 9.326-8.171 10.204-10.363 1.942-5.187 3.596-9.209 3.596-9.209l6.039-.015s-4.318 10.333-6.177 15.577c-1.778 5.008 3.232.799 5.263-4.761a881.261 881.261 0 0 1 4.049-10.631l6.262-.011s-7.267 18.148-8.016 19.721c2.34-.636 5.273 1.165 4.988 2.038-1.025 3.123-1.652-1.545-5.96-.198-2.373 5.75-7.653 10.772-11.799 10.151-5.37-.801-2.237-8.124 6.818-10.774l.787-2.188c-4.654 3.866-9.136 1.521-8.076-3.03-3.906 4.749-8.495 5.425-11.413 5.214-2.195.328-4.069-.616-5.044-2.066-1.486 3.896-3.515 8.898-3.515 8.898h-6l3.066-7.835c-2.571 1.515-5.097 1.809-7.064 1.735-3.97 1.088-6.412-1.565-7.113-3.503-4.43 5.869-9.324 3.764-9.991.162-1.891 1.964-3.962 3.439-5.839 3.369-4.569-.168-3.45-7.006-2.657-9.296 2.067-5.961 4.308-8.346.119-8.478-.698-.022-5.722 19.475-14.857 20.323-8.464.78-5.204-5.959-3.8-9.813 2.245-6.173 4.627-9.254 3.432-11.553-.926-1.787-6.062 1.909-7.637 5.849-2.035 5.077-6.144 15.683-6.144 15.683l-7.922.17s6.535-16.525 12.885-33.154c2.071-5.418-1.088-5.576-3.56-5.431-2.037.121-1.236-1.684.257-1.798 7.607-.58 10.368-.466 11.284.132 1.563 1.02 1.491 3.122 1.209 3.61-1.397 3.639-3.968 10.084-4.314 11.099-1.11 3.256 1.191.13 1.867-.717.676-.844 5.471-6.237 6.424-7.513.993-1.327 5.39-5.735 8.336-5.735l19.831-.002a5.4 5.4 0 0 0-1.222 3.428c0 1.321.475 2.531 1.26 3.471-12.321.002-21.977.004-22.67.009-1.533.008-4.967 1.899-7.568 5.028-2.239 2.703.68 1.723.68 1.723 4.366-.42 8.432-1.402 1.462 13.84-6.666 14.583 3.285 7.755 9.105-9.89.21-.642-1.495-1.478-1.551-2.687-.077-1.545-.538-3.324 2.168-3.324 2.707 0 1.813 2.745 4.102 3.444 4.635 1.419 7.156-.035 4.723 5.859-2.33 5.651-4.905 12.679-1.859 11.833 1.462-.406 2.306-1.477 2.848-2.461 3.216-8.76 5.971-15.532 5.971-15.532h5.982l-6.529 16.475c-1.509 3.803 1.499 1.667 3.731-.776.259-2.005 1.754-2.759 2.205-2.832 2.369-3.422 9.965-14.161 9.965-14.161s.58.421.093 1.189c-.651 1.022.56 6.089 1.092 7.696.843 2.562 2.198 8.884-1.355 11.788a15.7 15.7 0 0 1-2.053 1.442 12.492 12.492 0 0 0 5.335-2.385l7.21-18.422h5.946s-.257.563-.595 1.432c1.709-1.306 3.829-2.003 5.457-1.57 1.66.438 7.151.865.977 13.517-1.47 3.005-3.108 4.991-4.728 6.209zm9.78 8.62c1.95-1.278 3.301-2.658 4.49-4.851-1.454.31-3.942 1.673-5.236 2.887-1.689 1.585-.862 3.018.746 1.964zM90.691 36.535a3.252 3.252 0 1 1 6.504 0 3.252 3.252 0 0 1-6.504 0zm109.947 22.507c3.05.065 6.721-1.785 7.521-3.166.799-1.381.704-4.086-1.331-4.186-1.721-.083-5.137 1.49-6.19 7.352zm60.649 5.128c-5.904 7.984-14.627 6.978-16.696-.387-1.438 2.916-3.525 5.788-7.358 6.126-4.601.404-5.074-4.144-4.566-6.68.506-2.539 1.297-3.554 3.153-8.798 1.309-3.695-2.54-1.808-4.729 1.757-1.576 4.252-5.142 13.741-5.142 13.741s-1.843-.138-5.954-.19c.508-2.536 3.905-9.987 5.766-15.23 1.329-3.75-2.657-1.753-4.825 1.916-.067.12-.138.233-.208.34L215.41 69.93h-6.212l1.948-4.919a13.456 13.456 0 0 1-2.17 1.918c-7.965 5.63-11.757 1.557-12.995-2.436-2.277 2.808-5.042 5.331-7.485 5.24-4.566-.17-3.446-7.006-2.655-9.293 2.064-5.966 4.308-8.349.119-8.481-.698-.022-5.724 19.473-14.857 20.321-8.464.78-5.206-5.955-3.803-9.813 2.245-6.169 4.63-9.254 3.435-11.553-.929-1.785-6.062 1.911-7.639 5.849-2.033 5.077-6.145 15.688-6.145 15.688l-7.92.165s6.535-16.523 12.887-33.152c2.071-5.42-1.088-5.575-3.56-5.431-2.038.119-1.237-1.686.255-1.8 7.608-.578 10.369-.464 11.284.132 1.561 1.021 1.49 3.124 1.209 3.612-1.397 3.639-3.968 10.084-4.314 11.097-1.107 3.258 1.191.13 1.869-.717.678-.844 5.467-6.235 6.422-7.511.993-1.327 5.392-5.734 8.339-5.734 2.587 0 75.47-.02 77.375 0 3.427.034 4.983-1.521 5.61-2.078.625-.557 1.34-.532 1.323.12-.006.278-3.716 8.873-8.849 8.863-5.606-.011-76.34-.013-78.264 0-1.528.008-4.967 1.899-7.566 5.028-2.242 2.703.678 1.721.678 1.721 4.367-.418 8.43-1.399 1.465 13.84-6.669 14.583 3.284 7.755 9.104-9.89.212-.642-1.493-1.478-1.552-2.685-.075-1.547-.538-3.324 2.168-3.324 2.708 0 1.813 2.744 4.102 3.444 4.638 1.418 7.158-.036 4.725 5.859-2.33 5.649-4.904 12.679-1.86 11.832 2.466-.686 3.176-3.258 3.628-4.119a6.522 6.522 0 0 1 .013-.68c.421-5.839 3.845-10.864 6.759-12.135 6.982-3.051 9.672.838 9.443 4.545-.279 4.546-5.374 7.59-11.128 7.756-.103-.081-.119-.021 0 .847.902 6.519 8.325 2.968 12.287-1.426l5.101-12.86 6.394-.034-1.554 3.851c4.723-5.658 9.821-4.07 9.389.772l.184-.245c5.415-7.104 11.596-4.385 9.474 2.032-.312.942-3.388 9.689-3.388 9.689s-.952 2.937.908 2.937c1.606 0 3.803-2.834 4.783-5.499l-.014-.23c-.291-5.799 3.299-10.803 6.196-12.065 6.948-3.032 9.915.835 9.895 4.519-.024 4.52-5.046 7.546-10.905 7.716-.111-.085-.125-.022.049.839 1.551 7.75 9.312 2.662 10.456 1.269 2.886-3.528 2.789-.976 1.436.849zm-12.024-5.113c3.112.063 6.755-1.775 7.489-3.149.736-1.375.483-4.063-1.598-4.163-1.758-.081-5.155 1.483-5.891 7.312z"/><path fill="none" stroke="#FFF" stroke-width="2.018" stroke-miterlimit="3.864" d="M98.14 33.104c21.655-.004 48.017-.006 49.151.007 3.43.032 4.986-1.523 5.611-2.08.627-.558 1.341-.53 1.322.12-.006.28-3.713 8.875-8.847 8.863-3.145-.005-26.784-.009-47.276-.009a5.39 5.39 0 0 0 1.26-3.471 5.393 5.393 0 0 0-1.221-3.43zm18.676 20.436c-.4.802-3.523 8.559-3.523 8.559-.839 2.144.39 3.233 1.292 3.462 2.019.515 3.964-.975 6.063-6.496 3.332-8.768-2.817-7.554-3.832-5.525zm-22.062 7.175c2.989 1.331 1.788 5.485-.301 5.989-.963.756 3.072 2.732 4.846-1.333 1.808-4.143-.498-8.171-.769-9.15-.726.602-1.986 2.16-3.776 4.494z"/><path fill="#007550" d="M150.323 23.601C87.366 16.158 58.009 13.014 12.644 7.654c-1.537 0-2.908-.251-2.686 2.267C19.739 43.41 21.157 48.94 33.876 92.327c2.727 7.846 7.182 9.925 11.498 9.925 42.479 0 63.814 0 104.613.002l104.587.002c4.312 0 8.771-2.081 11.498-9.925 12.72-43.389 14.137-48.918 23.918-82.406.221-2.518-1.148-2.269-2.686-2.269-45.365 5.36-74.022 8.504-136.981 15.945"/><path fill="#FFF" d="M149.961 28.28c56.795-6.369 90.617-10.689 131.322-15.374 1.463-.146 2.781-.953 2.098 1.423-5.612 19.808-7.358 25.981-17.533 61.049-1.979 6.371-4.879 5.578-9.405 5.599-38.231 0-64.955-.014-106.481-.022-41.528.009-68.226.019-106.455.019-4.526-.021-7.429.772-9.405-5.595-10.178-35.073-11.924-41.245-17.537-61.052-.681-2.375.637-1.572 2.102-1.425 40.701 4.687 74.498 9.007 131.294 15.378"/><path fill="#CE1041" d="M98.14 33.104c21.655-.004 48.017-.006 49.151.007 3.43.032 4.986-1.523 5.611-2.08.627-.558 1.341-.53 1.322.12-.006.28-3.713 8.875-8.847 8.863-3.145-.005-26.784-.009-47.276-.009a5.39 5.39 0 0 0 1.26-3.471 5.393 5.393 0 0 0-1.221-3.43m18.676 20.436c-.4.802-3.523 8.559-3.523 8.559-.839 2.144.39 3.233 1.292 3.462 2.019.515 3.964-.975 6.063-6.496 3.332-8.768-2.817-7.554-3.832-5.525zm-22.062 7.175c2.989 1.331 1.788 5.485-.301 5.989-.963.756 3.072 2.732 4.846-1.333 1.808-4.143-.498-8.171-.769-9.15-.726.602-1.986 2.16-3.776 4.494zm25.179 6.735c5.046-1.565 9.326-8.171 10.204-10.363 1.942-5.187 3.596-9.209 3.596-9.209l6.039-.015s-4.318 10.333-6.177 15.577c-1.778 5.008 3.232.799 5.263-4.761a881.261 881.261 0 0 1 4.049-10.631l6.262-.011s-7.267 18.148-8.016 19.721c2.34-.636 5.273 1.165 4.988 2.038-1.025 3.123-1.652-1.545-5.96-.198-2.373 5.75-7.653 10.772-11.799 10.151-5.37-.801-2.237-8.124 6.818-10.774l.787-2.188c-4.654 3.866-9.136 1.521-8.076-3.03-3.906 4.749-8.495 5.425-11.413 5.214-2.195.328-4.069-.616-5.044-2.066-1.486 3.896-3.515 8.898-3.515 8.898h-6l3.066-7.835c-2.571 1.515-5.097 1.809-7.064 1.735-3.97 1.088-6.412-1.565-7.113-3.503-4.43 5.869-9.324 3.764-9.991.162-1.891 1.964-3.962 3.439-5.839 3.369-4.569-.168-3.45-7.006-2.657-9.296 2.067-5.961 4.308-8.346.119-8.478-.698-.022-5.722 19.475-14.857 20.323-8.464.78-5.204-5.959-3.8-9.813 2.245-6.173 4.627-9.254 3.432-11.553-.926-1.787-6.062 1.909-7.637 5.849-2.035 5.077-6.144 15.683-6.144 15.683l-7.922.17s6.535-16.525 12.885-33.154c2.071-5.418-1.088-5.576-3.56-5.431-2.037.121-1.236-1.684.257-1.798 7.607-.58 10.368-.466 11.284.132 1.563 1.02 1.491 3.122 1.209 3.61-1.397 3.639-3.968 10.084-4.314 11.099-1.11 3.256 1.191.13 1.867-.717.676-.844 5.471-6.237 6.424-7.513.993-1.327 5.39-5.735 8.336-5.735l19.831-.002a5.4 5.4 0 0 0-1.222 3.428c0 1.321.475 2.531 1.26 3.471-12.321.002-21.977.004-22.67.009-1.533.008-4.967 1.899-7.568 5.028-2.239 2.703.68 1.723.68 1.723 4.366-.42 8.432-1.402 1.462 13.84-6.666 14.583 3.285 7.755 9.105-9.89.21-.642-1.495-1.478-1.551-2.687-.077-1.545-.538-3.324 2.168-3.324 2.707 0 1.813 2.745 4.102 3.444 4.635 1.419 7.156-.035 4.723 5.859-2.33 5.651-4.905 12.679-1.859 11.833 1.462-.406 2.306-1.477 2.848-2.461 3.216-8.76 5.971-15.532 5.971-15.532h5.982l-6.529 16.475c-1.509 3.803 1.499 1.667 3.731-.776.259-2.005 1.754-2.759 2.205-2.832 2.369-3.422 9.965-14.161 9.965-14.161s.58.421.093 1.189c-.651 1.022.56 6.089 1.092 7.696.843 2.562 2.198 8.884-1.355 11.788a15.7 15.7 0 0 1-2.053 1.442 12.492 12.492 0 0 0 5.335-2.385l7.21-18.422h5.946s-.257.563-.595 1.432c1.709-1.306 3.829-2.003 5.457-1.57 1.66.438 7.151.865.977 13.517-1.47 3.005-3.108 4.991-4.728 6.209zm9.78 8.62c1.95-1.278 3.301-2.658 4.49-4.851-1.454.31-3.942 1.673-5.236 2.887-1.689 1.585-.862 3.018.746 1.964zM90.691 36.535a3.252 3.252 0 1 1 6.504 0 3.252 3.252 0 0 1-6.504 0zm109.947 22.507c3.05.065 6.721-1.785 7.521-3.166.799-1.381.704-4.086-1.331-4.186-1.721-.083-5.137 1.49-6.19 7.352zm60.649 5.128c-5.904 7.984-14.627 6.978-16.696-.387-1.438 2.916-3.525 5.788-7.358 6.126-4.601.404-5.074-4.144-4.566-6.68.506-2.539 1.297-3.554 3.153-8.798 1.309-3.695-2.54-1.808-4.729 1.757-1.576 4.252-5.142 13.741-5.142 13.741s-1.843-.138-5.954-.19c.508-2.536 3.905-9.987 5.766-15.23 1.329-3.75-2.657-1.753-4.825 1.916-.067.12-.138.233-.208.34L215.41 69.93h-6.212l1.948-4.919a13.456 13.456 0 0 1-2.17 1.918c-7.965 5.63-11.757 1.557-12.995-2.436-2.277 2.808-5.042 5.331-7.485 5.24-4.566-.17-3.446-7.006-2.655-9.293 2.064-5.966 4.308-8.349.119-8.481-.698-.022-5.724 19.473-14.857 20.321-8.464.78-5.206-5.955-3.803-9.813 2.245-6.169 4.63-9.254 3.435-11.553-.929-1.785-6.062 1.911-7.639 5.849-2.033 5.077-6.145 15.688-6.145 15.688l-7.92.165s6.535-16.523 12.887-33.152c2.071-5.42-1.088-5.575-3.56-5.431-2.038.119-1.237-1.686.255-1.8 7.608-.578 10.369-.464 11.284.132 1.561 1.021 1.49 3.124 1.209 3.612-1.397 3.639-3.968 10.084-4.314 11.097-1.107 3.258 1.191.13 1.869-.717.678-.844 5.467-6.235 6.422-7.511.993-1.327 5.392-5.734 8.339-5.734 2.587 0 75.47-.02 77.375 0 3.427.034 4.983-1.521 5.61-2.078.625-.557 1.34-.532 1.323.12-.006.278-3.716 8.873-8.849 8.863-5.606-.011-76.34-.013-78.264 0-1.528.008-4.967 1.899-7.566 5.028-2.242 2.703.678 1.721.678 1.721 4.367-.418 8.43-1.399 1.465 13.84-6.669 14.583 3.284 7.755 9.104-9.89.212-.642-1.493-1.478-1.552-2.685-.075-1.547-.538-3.324 2.168-3.324 2.708 0 1.813 2.744 4.102 3.444 4.638 1.418 7.158-.036 4.725 5.859-2.33 5.649-4.904 12.679-1.86 11.832 2.466-.686 3.176-3.258 3.628-4.119a6.522 6.522 0 0 1 .013-.68c.421-5.839 3.845-10.864 6.759-12.135 6.982-3.051 9.672.838 9.443 4.545-.279 4.546-5.374 7.59-11.128 7.756-.103-.081-.119-.021 0 .847.902 6.519 8.325 2.968 12.287-1.426l5.101-12.86 6.394-.034-1.554 3.851c4.723-5.658 9.821-4.07 9.389.772l.184-.245c5.415-7.104 11.596-4.385 9.474 2.032-.312.942-3.388 9.689-3.388 9.689s-.952 2.937.908 2.937c1.606 0 3.803-2.834 4.783-5.499l-.014-.23c-.291-5.799 3.299-10.803 6.196-12.065 6.948-3.032 9.915.835 9.895 4.519-.024 4.52-5.046 7.546-10.905 7.716-.111-.085-.125-.022.049.839 1.551 7.75 9.312 2.662 10.456 1.269 2.886-3.528 2.789-.976 1.436.849zm-12.024-5.113c3.112.063 6.755-1.775 7.489-3.149.736-1.375.483-4.063-1.598-4.163-1.758-.081-5.155 1.483-5.891 7.312z"/><path fill-rule="evenodd" clip-rule="evenodd" fill="#FFF" d="M259.272 87.465c.437 0 .756.045.959.128.363.153.546.45.546.892.002.313-.113.542-.344.691-.12.077-.29.136-.508.17.276.043.478.158.606.344a.966.966 0 0 1 .192.546v.255c0 .081.004.17.008.264a.617.617 0 0 0 .03.182l.024.045h-.578l-.011-.037c-.004-.012-.006-.024-.008-.036l-.014-.115-.002-.279c0-.406-.109-.676-.33-.807-.134-.077-.362-.115-.689-.115h-.487l.002 1.385h-.619l-.006-3.511h1.229m.664.553c-.153-.088-.4-.13-.744-.13l-.526-.004.003 1.274h.556c.261 0 .459-.024.587-.077.242-.095.361-.279.361-.548-.003-.257-.077-.427-.237-.515zm1.67 3.486a3.075 3.075 0 0 1-2.264.938 3.083 3.083 0 0 1-2.263-.946 3.115 3.115 0 0 1-.933-2.271c0-.88.31-1.632.935-2.257a3.053 3.053 0 0 1 2.251-.929 3.1 3.1 0 0 1 2.268.935c.625.623.936 1.377.938 2.259a3.098 3.098 0 0 1-.932 2.271zm-4.216-4.227a2.674 2.674 0 0 0-.797 1.947c0 .767.267 1.422.799 1.964.536.54 1.185.811 1.951.811a2.624 2.624 0 0 0 1.944-.807 2.677 2.677 0 0 0 .801-1.96 2.664 2.664 0 0 0-.806-1.947c-.54-.544-1.187-.813-1.947-.815s-1.407.269-1.945.807z"/><path fill="none" d="M259.272 87.465c.437 0 .756.045.959.128.363.153.546.45.546.892.002.313-.113.542-.344.691-.12.077-.29.136-.508.17.276.043.478.158.606.344a.966.966 0 0 1 .192.546v.255c0 .081.004.17.008.264a.617.617 0 0 0 .03.182l.024.045h-.578l-.011-.037c-.004-.012-.006-.024-.008-.036l-.014-.115-.002-.279c0-.406-.109-.676-.33-.807-.134-.077-.362-.115-.689-.115h-.487l.002 1.385h-.619l-.006-3.511h1.229zm.664.555c-.153-.088-.4-.13-.744-.13l-.526-.004.003 1.274h.556c.261 0 .459-.024.587-.077.242-.095.361-.279.361-.548-.003-.257-.077-.427-.237-.515zm1.67 3.486a3.075 3.075 0 0 1-2.264.938 3.083 3.083 0 0 1-2.263-.946 3.115 3.115 0 0 1-.933-2.271c0-.88.31-1.632.935-2.257a3.053 3.053 0 0 1 2.251-.929 3.1 3.1 0 0 1 2.268.935c.625.623.936 1.377.938 2.259a3.098 3.098 0 0 1-.932 2.271zm-4.216-4.227a2.674 2.674 0 0 0-.797 1.947c0 .767.267 1.422.799 1.964.536.54 1.185.811 1.951.811a2.624 2.624 0 0 0 1.944-.807 2.677 2.677 0 0 0 .801-1.96 2.664 2.664 0 0 0-.806-1.947c-.54-.544-1.187-.813-1.947-.815s-1.407.269-1.945.807z"/><path fill="#FFF" d="M128.282 90.444v2.221h2.053c-.115 1.256-1.052 1.889-2.279 1.889-1.859 0-2.87-1.715-2.87-3.403 0-1.659.967-3.431 2.828-3.431 1.141 0 1.964.691 2.35 1.731l2.682-1.129c-.937-2.034-2.666-3.042-4.903-3.042-3.503 0-5.897 2.322-5.897 5.855 0 3.418 2.378 5.738 5.796 5.738 1.818 0 3.42-.647 4.486-2.132.967-1.357 1.082-2.71 1.11-4.298h-5.356"/><path fill="none" stroke="#FFF" stroke-width=".122" stroke-miterlimit="3.864" d="M128.282 90.444v2.221h2.053c-.115 1.256-1.052 1.889-2.279 1.889-1.859 0-2.87-1.715-2.87-3.403 0-1.659.967-3.431 2.828-3.431 1.141 0 1.964.691 2.35 1.731l2.682-1.129c-.937-2.034-2.666-3.042-4.903-3.042-3.503 0-5.897 2.322-5.897 5.855 0 3.418 2.378 5.738 5.796 5.738 1.818 0 3.42-.647 4.486-2.132.967-1.357 1.082-2.71 1.11-4.298h-5.356z"/><path fill="#FFF" d="M228.859 88.035h3.178v-2.394h-9.266v2.394h3.178v8.483h2.91v-8.483"/><path fill="none" stroke="#FFF" stroke-width=".122" stroke-miterlimit="3.864" d="M228.859 88.035h3.178v-2.394h-9.266v2.394h3.178v8.483h2.91z"/><path fill-rule="evenodd" clip-rule="evenodd" fill="#FFF" d="M50.19 88.033h.666c1.816 0 3.101 1.099 3.101 3.044 0 2.122-1.444 3.044-3.131 3.044h-.636v-6.088m-2.827 8.481h4.01c3.014 0 5.526-2.379 5.526-5.437 0-3.056-2.496-5.437-5.523-5.437h-4.013v10.874z"/><path fill="none" stroke="#FFF" stroke-width=".122" stroke-miterlimit="3.864" d="M50.19 88.033h.666c1.816 0 3.101 1.099 3.101 3.044 0 2.122-1.444 3.044-3.131 3.044h-.636v-6.088zm-2.827 8.481h4.01c3.014 0 5.526-2.379 5.526-5.437 0-3.056-2.496-5.437-5.523-5.437h-4.013v10.874z"/><path fill-rule="evenodd" clip-rule="evenodd" fill="#FFF" d="M77.116 88.021c1.687 0 3.072 1.369 3.072 2.869 0 1.875-1.385 3.244-3.072 3.244s-3.074-1.369-3.074-3.244c0-1.499 1.387-2.869 3.074-2.869m0-2.741c-3.131 0-6.015 2.308-6.015 5.595 0 3.521 2.524 5.999 6.015 5.999 3.491 0 6.013-2.478 6.013-5.999.002-3.287-2.884-5.595-6.013-5.595z"/><path fill="none" stroke="#FFF" stroke-width=".122" stroke-miterlimit="3.864" d="M77.116 88.021c1.687 0 3.072 1.369 3.072 2.869 0 1.875-1.385 3.244-3.072 3.244s-3.074-1.369-3.074-3.244c0-1.499 1.387-2.869 3.074-2.869zm0-2.741c-3.131 0-6.015 2.308-6.015 5.595 0 3.521 2.524 5.999 6.015 5.999 3.491 0 6.013-2.478 6.013-5.999.002-3.287-2.884-5.595-6.013-5.595z"/><path fill-rule="evenodd" clip-rule="evenodd" fill="#FFF" d="M104.655 85.491v5.726c0 1.414-.102 2.959-1.917 2.959-1.816 0-1.919-1.545-1.919-2.959v-5.726h-2.826v6.116c0 1.399.059 2.782 1.139 3.834.91.895 2.336 1.212 3.606 1.212s2.696-.317 3.606-1.21c1.08-1.054 1.139-2.437 1.139-3.836v-6.116h-2.828"/><path fill="none" stroke="#FFF" stroke-width=".122" stroke-miterlimit="3.864" d="M104.655 85.491v5.726c0 1.414-.102 2.959-1.917 2.959-1.816 0-1.919-1.545-1.919-2.959v-5.726h-2.826v6.116c0 1.399.059 2.782 1.139 3.834.91.895 2.336 1.212 3.606 1.212s2.696-.317 3.606-1.21c1.08-1.054 1.139-2.437 1.139-3.836v-6.116h-2.828z"/><path fill-rule="evenodd" clip-rule="evenodd" fill="#FFF" d="M151.285 89.837v-4.196h-2.827v10.877h2.827v-4.457h4.08v4.457h2.827V85.641h-2.827v4.196h-4.08"/><path fill="none" stroke="#FFF" stroke-width=".122" stroke-miterlimit="3.864" d="M151.285 89.837v-4.196h-2.827v10.877h2.827v-4.457h4.08v4.457h2.827V85.641h-2.827v4.196z"/><path fill-rule="evenodd" clip-rule="evenodd" fill="#FFF" d="M173.562 96.518h2.826v-6.663h.03l5.178 6.663h2.827V85.641h-2.827v6.65h-.031l-5.177-6.65h-2.826v10.877"/><path fill="none" stroke="#FFF" stroke-width=".122" stroke-miterlimit="3.864" d="M173.562 96.518h2.826v-6.663h.03l5.178 6.663h2.827V85.641h-2.827v6.65h-.031l-5.177-6.65h-2.826z"/><path fill-rule="evenodd" clip-rule="evenodd" fill="#FFF" d="M206.396 85.641v5.728c0 1.412-.1 2.957-1.917 2.957-1.816 0-1.92-1.545-1.92-2.957v-5.728h-2.825v6.116c0 1.399.057 2.783 1.139 3.837.91.894 2.336 1.211 3.606 1.211s2.695-.317 3.605-1.211c1.08-1.054 1.139-2.438 1.139-3.837v-6.116h-2.827"/><path fill="none" stroke="#FFF" stroke-width=".122" stroke-miterlimit="3.864" d="M206.396 85.641v5.728c0 1.412-.1 2.957-1.917 2.957-1.816 0-1.92-1.545-1.92-2.957v-5.728h-2.825v6.116c0 1.399.057 2.783 1.139 3.837.91.894 2.336 1.211 3.606 1.211s2.695-.317 3.605-1.211c1.08-1.054 1.139-2.438 1.139-3.837v-6.116h-2.827z"/><path fill-rule="evenodd" clip-rule="evenodd" fill="#FFF" d="M252.837 86.247c-.963-.548-2.306-.894-3.4-.894-2.178 0-3.75 1.444-3.75 3.648 0 2.105 1.165 2.566 2.941 3.072.604.172 1.715.447 1.715 1.244 0 .76-.708 1.092-1.369 1.092-.967 0-1.802-.504-2.508-1.124l-1.212 2.277c1.108.78 2.451 1.241 3.821 1.241 1.098 0 2.236-.303 3.086-1.023.867-.736 1.127-1.845 1.127-2.929 0-1.759-1.172-2.523-2.683-2.969l-.722-.219c-.491-.159-1.256-.404-1.256-1.037 0-.606.691-.908 1.211-.908.692 0 1.355.287 1.873.72l1.126-2.191"/><path fill="none" stroke="#FFF" stroke-width=".122" stroke-miterlimit="3.864" d="M252.837 86.247c-.963-.548-2.306-.894-3.4-.894-2.178 0-3.75 1.444-3.75 3.648 0 2.105 1.165 2.566 2.941 3.072.604.172 1.715.447 1.715 1.244 0 .76-.708 1.092-1.369 1.092-.967 0-1.802-.504-2.508-1.124l-1.212 2.277c1.108.78 2.451 1.241 3.821 1.241 1.098 0 2.236-.303 3.086-1.023.867-.736 1.127-1.845 1.127-2.929 0-1.759-1.172-2.523-2.683-2.969l-.722-.219c-.491-.159-1.256-.404-1.256-1.037 0-.606.691-.908 1.211-.908.692 0 1.355.287 1.873.72l1.126-2.191z"/><path fill="#007550" d="M269.836 91.285h.649l.453-2.525 1.204 2.719 1.233-2.711.402 2.517h.642l-.787-4.494-1.485 3.246-1.437-3.246-.874 4.494"/><path fill-rule="evenodd" clip-rule="evenodd" fill="#007550" d="M278.397 87.331c-.391-.227-.68-.307-1.123-.307-1.179 0-2.176.988-2.176 2.159 0 1.23.952 2.185 2.176 2.185.387 0 .751-.101 1.123-.315v-.756c-.402.34-.723.475-1.11.475-.882 0-1.554-.678-1.554-1.567 0-.882.678-1.586 1.525-1.586.423 0 .742.134 1.139.458v-.746"/></g></switch></svg>