<svg xmlns="http://www.w3.org/2000/svg" width="800" height="606" viewBox="0 0 450 340"><g fill-rule="evenodd"><path d="M22.73 0C10.176 0 0 10.178 0 22.73v295.524c0 12.555 10.176 22.732 22.73 22.732h404.538c12.554 0 22.732-10.178 22.732-22.732V22.73C450 10.178 439.822 0 427.268 0H22.73" fill="#d52b1e"/><path d="M190.282 153.86C196.405 108.582 216.6 26.92 255.086 26.92c44.942 0 97.746 150.964 97.734 275.946h-41.444c0-131.088-32.108-249.202-55.212-249.207-24.1-.002-45.22 80.343-45.22 233.418h-41.388c0-153.075-20.993-233.418-45.22-233.418-23.06 0-55.146 118.14-55.146 249.207H27.743c.04-125.09 52.7-275.96 97.732-275.946 38.442.013 58.634 81.65 64.806 126.938" fill="#fdc82f"/><path d="M163.196 252.64h190.9v-48.242h-190.9v48.242z" fill="#d52b1e"/><g fill="#fff"><path d="M334.84 247.8h12.012v-39.52H334.84v39.52zm56.187-39.52h8.18l-2.778 10.77h-5.948l.545-10.77m22.277 5.853c8 0 15.5 2.017 15.534 9.86H417.43c0-2.703-1.577-3.93-4.24-3.93-1.58 0-3.715.656-3.715 3.133.003 4.1 6.5 3.288 12.02 4.926 4.957 1.47 8.393 4.428 8.393 9.204 0 7.316-5.74 11.364-16.584 11.407-11.37.045-15.65-4.054-15.686-11.407h11.558c0 2.775 1.726 4.428 4.163 4.428 2.92 0 4.243-1.108 4.243-3.17 0-4.296-7.968-4.185-12.667-5.722-3.195-1.047-6.1-3.416-6.1-8.445 0-4.202 3.152-10.282 14.487-10.282M167.3 235.822c-1.993 7.857-8.5 12.95-16.64 12.952-9.814 0-17.28-7.427-17.27-18.173.007-10.733 6.643-18.16 17.27-18.17 8.8-.008 14.877 5.1 16.698 12.978l-11.24.001c-.862-2.364-2.518-4.208-5.457-4.2-4.96-.001-6.268 5.256-6.266 9.402s1.306 9.402 6.266 9.402c2.927 0 4.58-1.828 5.445-4.18l11.194-.001m-82.883-27.55H98.77l6.247 23.346 6.247-23.346h14.362l6.275 40.5h-11.84l-3.13-23.673-6.47 23.664h-10.89L93.1 225.1l-3.13 23.664H78.12l6.294-40.5M268.5 228.44v19.367h-11.876V213.28H268.5v2.697c3.006-2.342 5.723-3.546 11.886-3.546 6.693 0 12.086 4.473 12.088 9.168v26.207h-11.96V228.8c.005-3.157-2.822-5.73-5.9-5.73-3.96 0-5.928 3.503-6.114 5.368"/><path d="M374.45 216.704v-8.424h12v39.52h-12v-1.917c-1.577 1.424-3.646 2.88-8.823 2.88-5.825 0-15.08-3.236-15.086-17.14-.007-13.884 9.25-17.487 15.837-17.487 4.783 0 7.04 1.65 8.073 2.57zm-12.464 14.917c0 5.404 2.514 8.857 6.645 8.857 2.476 0 4.547-1.08 5.825-3.33V226.78c-.64-2.3-2.863-3.976-5.825-3.977-4.138-.002-6.645 3.414-6.645 8.817m-145.232-1.015c.01-10.733 6.97-18.162 18.117-18.172s18.1 7.44 18.118 18.172c.01 10.745-6.97 18.17-18.118 18.17-11.136.001-18.126-7.425-18.117-18.17zm25 0c.003-4.148-1.434-9.403-6.883-9.403s-6.884 5.255-6.883 9.403 1.435 9.402 6.883 9.402 6.883-5.255 6.883-9.402"/><path d="M171.474 208.283h20.637c12.9 0 21.7 8.02 21.7 20.245s-8.798 20.246-21.7 20.246h-20.637v-40.5zm13.652 30.92h6.24c4.043 0 8.964-2.465 8.964-10.674 0-8.2-4.92-10.673-8.964-10.673h-6.24v21.347m128.772-26.768c8.524-.008 15.55 3.127 16.098 10V247.8h-12.02v-3.42c-2.92 2.5-5.828 4.378-11.082 4.378-6.12 0-11.05-4.838-11.05-10.5s3.492-11.973 17.475-11.97c3.605.001 4.655-1.417 4.658-3.106.005-2.075-2.386-3.232-4.4-3.232s-4.273.834-4.273 3.002h-11.26c0-5.088 3.42-10.498 15.847-10.5zm-.666 19.456c-2.773 0-5.34 1.48-5.34 4.316 0 1.836 1.086 3.42 3.92 3.42 2.712 0 5.605-1.6 6.16-4.943v-3.158c-.917.5-3 .365-4.742.365"/></g><path d="M371.196 275.92h7.38c3.654 0 6.086 1.962 6.086 4.555 0 2.394-1.844 3.965-4.122 4.162v.08c3.495 1.177 4.005 3.612 4.046 6.9h-3.298c-.118-3.966-.983-5.693-4.476-5.693H374.1v5.693h-2.904V275.92zm2.904 7.5h3.457c2.71 0 3.807-.942 3.807-2.71 0-1.335-.824-2.277-3.336-2.277H374.1v4.987zm3.142-12.958a13.48 13.48 0 1 1 0 27.014 13.48 13.48 0 1 1 0-27.014zm0 25.562a12.06 12.06 0 0 0 12.055-12.054 12.06 12.06 0 0 0-12.055-12.055c-6.634 0-12.055 5.38-12.055 12.055a12.06 12.06 0 0 0 12.055 12.054" fill="#fdc82f"/></g></svg>