<svg xmlns="http://www.w3.org/2000/svg" width="800" height="314" viewBox="0 35 250 30"><g fill="red"><path d="M55.303 90.747c1.46.8 3.232 1.34 4.996.853.68-.32 1.426-1.097 1.697-1.87.274-1.06-.305-1.904-1.122-2.362-1.73-.772-4.143-.95-4.893-3.138.033-.845.136-1.656.543-2.362 1.6-1.195 3.806-1.263 5.643-.6.5.38.27 1.123.168 1.615-1.325-.427-3-1.166-4.313-.248-.575.383-.883 1.096-.5 1.7 2.07 1.624 6.66 1.553 5.88 5.675-.274 1.654-1.906 2.675-3.335 3.033-1.696.388-3.427-.07-4.825-.923-.1-.423-.2-1.017.07-1.374m13.04-9.8c2.512-.316 4.655.25 7.03.173.174.25.345.778.174 1.165-1.157.387-2.722-.492-3.263.775l-.17 9.902c-.377.14-1.054.14-1.157-.354V82.543l-.24-.25h-2.923c-.27-.426-.337-1.654.55-1.338m12.4.25c2.375-.25 4.382.136 6.762 0 .27.276.168.735.27 1.087l-.27.175-5.3.075c-.48.948-.48 2.538.168 3.38a27.46 27.46 0 0 1 5.132-.072c.304.248.135.742.168 1.094l-.24.175c-1.905.356-3.602-.35-5.37.248-.405 1.304.07 2.573-.103 4.053.646.63 1.77.2 2.448.417l.407-.14 2.687.072c.44.277.233.883.168 1.272h-6.998c.272-4.16-.204-7.58.07-11.838m22.595 11.24c-1.497-3.842-2.853-7.752-4.553-11.488-.443-.072-1.16-.283-1.494.173l-4.213 11.845c.206.46.613.103 1.054.244 1.054-1.66 1.12-3.77 2.445-5.252l3.5.07c1.02 1.55 1.26 3.42 2.104 5l.748.065c.38.036.444-.315.4-.666m-4.317-5.92c-.68-.07-1.356.104-2.038-.252.308-1.02.612-2.217 1.293-2.953.373.98.95 1.863 1.054 2.953l-.3.252m10.5-5.237c.34.1 1.122-.566 1.157.275.133 1.477-.305 3.033.068 4.3h.407l4.654-4.574 1.564.1v.317c-1.7 1.724-3.602 3.136-4.996 5.004 1.326 2.285 3.567 4.227 4.757 6.518a1.76 1.76 0 0 1-1.561 0c-1.36-2.047-3.06-3.947-4.554-5.922-.442-.14-.404.36-.513.605l-.168 5.2c-.34.106-.95.213-1.12-.14-.102-3.986.168-7.72.304-11.693m13.796-.07c.208-.323.615-.108.883-.18.823 1.338-.2 3.3.58 4.755 1.8.25 3.534-.14 5.402 0l.412-.53c.1-1.444.03-2.46.06-3.873.3-.172.712-.386 1.057-.172.373 4.187 0 7.604 0 11.767-.306.032-.6.2-.988.14l-.23-.316c.104-2.008.203-3.453-.075-5.5-1.768-.278-3.7-.176-5.635-.106l-.304.424-.17 5.36c-.24.278-.646.104-1 .14l-.168-.315c-.07-4.34.1-7.934.165-11.592m22.85.847c-1.907-1.55-4.248-1.653-6.458-.668-1.63.847-2.547 2.608-2.926 4.3-.434 2.644.445 5.25 2.7 6.767 1.795.738 4.275 1.195 5.943-.07 1.5-1.13 2.445-2.714 2.72-4.582.202-2.186-.476-4.268-1.97-5.745m.403 6.4c-.578 1.518-1.902 3.035-3.6 3.24-1.46 0-2.925-.206-3.8-1.44-.984-1.307-1.357-3.175-.815-4.832.3-1.056.954-2.072 1.938-2.705 1.5-.92 3.297-.46 4.726.24 1.4 1.48 2.138 3.423 1.56 5.497m7.278-7.43c.236-.4.542.07.883-.072l.238.322.104 8.205a2.84 2.84 0 0 0 1.525 1.865c.512.488 1.117-.07 1.623.422 1.196-.315 2.458-1.022 2.8-2.356l.065-8.386c.24-.286.712-.178.98-.072l.238.423-.064 8.353c-.104 1.305-1.223 2.568-2.38 3.063-1.803.772-3.88.142-5.303-1.096-.545-.7-.753-1.513-.887-2.392l.177-8.28m14.245 9.658c1.602.78 3.568 1.413 5.308.43.9-.562 1.32-1.62 1.117-2.646-1.498-2.57-7.138-1.4-5.607-6 .65-1.2 1.935-1.65 3.158-1.757.987.172 2.177.104 2.858.843l-.07 1.168c-1.192-.32-2.9-.888-4.18-.18-.784.35-.508 1.304-.242 1.863 1.87 1.415 5.6 1.34 5.406 4.76a3.8 3.8 0 0 1-2.14 3.45c-1.662.92-4.045.527-5.6-.352 0-.53-.373-1.095 0-1.6m14.002-9.7c2.52-.244 4.076.104 6.625 0 .138.354.24.807.07 1.163l-5.472.35c-.24.886-.24 2.183 0 2.958 1.694.32 3.5.1 5.4.182.27.316.17.882.07 1.27l-5.54.18c-.406 1.3.066 2.848-.07 4.05l.54.42 5.067.175c.066.35.274.987-.173 1.272h-6.42l-.234-.178v-11.6l.134-.25m11.9 3.498c0-2.2 1.735-3.994 3.873-3.994s3.856 1.795 3.856 3.994c0 2.22-1.722 4.016-3.856 4.016s-3.873-1.798-3.873-4.016m7.123 0c0-1.942-1.373-3.463-3.25-3.463s-3.256 1.52-3.256 3.463c0 1.967 1.375 3.5 3.256 3.5s3.25-1.525 3.25-3.5zm-1.316 2.238h-.637l-1.232-2.063h-.967v2.063h-.528V82.2h1.886c1.14 0 1.53.443 1.53 1.185 0 .876-.598 1.206-1.36 1.224l1.306 2.062zm-2.03-2.5c.612 0 1.5.103 1.5-.808 0-.694-.554-.778-1.082-.778h-1.233v1.586h.804M38.67 49.84l.014-.438.003-.236c0-2.355-1.022-4.433-2.83-5.718l-.362-.253-.158-.4c-.38-.967-1.244-1.648-2.247-2.44L32.645 40c-.97-.228-1.717-.774-2.326-1.25-.714-.562-1.076-.8-1.486-.766l-.55.054-.448-.325c-1.545-1.12-4.005-1.1-6.172-1.095l-.95.005-.23-.077c-.285-.097-.53-.008-1.17.27-.566.25-1.307.573-2.206.578-.945.613-1.953.972-2.867 1.225-.834.228-1.535.45-2.06.842-.592 1.315-1.66 2.005-2.5 2.502-.842.492-1.195.75-1.323 1.2l-.166.623-.573.302c-.182.092-.3.373-.506.95-.197.556-.535 1.242-1.08 1.866l-.987 3.424-.02 1.828L5 53.926c0 2.44.23 4.795 1.648 6.44l.193.22.092.274c.532 1.588 2.114 5.375 5.292 6.242l.435.12.296.338c.942 1.098 2.542 1.45 4.088 1.787l.857.202.726.04c.524-.014 1.2.04 1.902.35 2.58.313 6.207.5 8.476-1.36l.4-.33h.524c.318 0 .655-.188 1.185-.48l1.315-.636-.236.104c1.223-.682 2.073-1.805 2.972-2.992.814-1.075 1.657-2.188 2.9-3.145.305-.2.367-.688.427-1.646.065-.974.193-2.22 1.024-3.24l.046-1.14.06-1.707c0-1.167-.146-2.193-.726-3.156l-.225-.367m64.874-9.883c0-.938-.124-1.833-.254-2.625-.95.333-1.853.263-2.584.18-.963-.107-1.162-.082-1.398.2l-1.1 1.262-1.016-1.167-.338.008c-.46.035-1.205.014-1.934-.356l-.655.014c-.467-.028-.684-.033-.8.062l-.332.24-.4.034c-1.572.133-3.376-.142-5.017-.47-1.26.646-2.872.57-4.156.1-.794-.133-1.454-.07-1.94.136l-.1 3.217c.042.3.093.58.093.877 0 .552-.063 1.088-.12 1.597l-.1 1.28c0 .397.082.595.202.748a2.06 2.06 0 0 1 .624-.014c.884-.25 1.67-.188 2.42-.1l1.1.108.28.166c1.358.794 1.55 2.103 1.55 3.132l-.014.644-.018.563c0 .263.018.494.083.592l.378.598-.223.67c-.207.6-.28 1.24-.28 1.885 0 .802.114 1.625.228 2.48l.248 2.83c0 .936-.16 1.896-.508 2.864a9.46 9.46 0 0 1 .236 2.06c0 .876-.093 1.72-.193 2.55l-.174 2.224c0 .548.082 1.1.222 1.63a5.47 5.47 0 0 0 1.098.072c.06-.018.24-.088.24-.088.434-.168 1.355-.502 2.276-.1l1.212.1c.806.13 1.122.153 1.404-.035 1.472-1.063 2.826-.438 3.55-.1l.196.07c.02-.1.082-.2.082-.334a3.38 3.38 0 0 0-.25-1.206l-.117-.28.068-1.804.083-2.93c0-1.24-.065-2.46-.285-3.604l-.1-.54.27-.47c.147-.268.205-.584.205-.948 0-.417-.074-.896-.153-1.4-.1-.58-.184-1.182-.184-1.802l.023-.554.022-.152.04-.143a3.89 3.89 0 0 0 .174-1.234c0-.45-.048-.923-.108-1.43l-.128-1.712c0-.823.125-1.685.55-2.578 1.165-2.66 3.445-2.185 4.54-1.954.655.136.924.127 1.125.08-.018-.302-.097-.635-.203-1.014l-.26-.934.185-.456c.337-.838.454-1.783.454-2.718zm-29.92 25.6l-.185-.265-.01-2.193.01-.896c0-1.297-.08-2.588-.584-3.63l-.378-.8.5-.705c.445-.618.587-1.35.587-2.166 0-.713-.104-1.493-.22-2.32L73.1 50.47l.46-1.304.026-.665c0-1-.12-2-.242-3l-.246-3.06a9.89 9.89 0 0 1 .325-2.53l-.097-1.5c0-.717-.057-1.18-.193-1.525-.324.003-.652.04-.785.2l-.766.9-1.042-.56c-.58-.314-1.283-.34-2.084-.38l-.83-.07-.487.4-.154.07c-1.212.604-2.226.05-2.752-.248-.416.093-.798.085-1.082.07-.075.44-.17.88-.17 1.32l.103 2.803c0 .635-.083 1.314-.214 2a24.37 24.37 0 0 1 .222 3.352l-.117 4.868c0 1.328.08 2.646.373 4.02l.02.425-.168 1.633c-.068 1.295-.172 2.895-1.443 4.043.03-.033.063-.04.092-.072l-.182.187c.036-.042.054-.077.1-.114-.84.924-1.98 1.004-3.4.207l-.226-.12.14.056c-1.942-.692-2.266-2.68-2.442-3.748l-.092-.562.075-.3c0-.03.005-.062.005-.1 0-.194-.1-.483-.208-.784-.142-.4-.335-.967-.335-1.6 0-.372.12-.767.307-1.17a14.56 14.56 0 0 0 .19-2.287 14.98 14.98 0 0 0-.202-2.469l-.078-.5.228-.435c.125-.236.154-.663.154-1.116l-.02-.766v-.965c-.42-.848-.623-1.7-.623-2.542 0-.8.128-1.568.236-2.26.12-.712.214-1.307.214-1.83a3 3 0 0 0-.211-1.076 3.7 3.7 0 0 0-1.523.315l-.62.263-.6-.3c-.948-.453-2.785-1.084-4.387-.177l-.223.123-.253.05c-.763.128-1.5-.005-2.14-.214-.08.266-.114.595-.114.96 0 .405.034.837.06 1.214l.036.677c.293.646.44 1.295.44 1.904 0 .72-.135 1.4-.263 2-.122.604-.212 1.08-.212 1.507a2.12 2.12 0 0 0 .155.837l.117.26-.077 2.73-.07 3.02c0 1.552.087 3.063.402 4.418l.096.408-.142.4a2.98 2.98 0 0 0-.152.979c0 .713.195 1.48.405 2.324l.336 1.674c.992.906 1.426 2.076 1.75 3.053.437 1.318.658 1.803 1.418 2.047 1.037.158 1.885.68 2.567 1.117.88.566 1.288.8 1.784.673l.55-.134.498.275c.66.358 1.6.283 2.616.197l.885-.057c.394-.103.826-.334 1.293-.592 1.048-.578 2.346-1.293 4.04-.888l.632.153.318.57c.28.524.917.607 2.2.664l.795.063.27-.05c.502-.1 1.133-.25 1.72-.15l.68.07c1.645.175 3.445.306 4.686-.352-.046-.962-.584-1.877-1.216-2.904l-.593-.97zm29.806-28.245l.2-.07c-.08.042-.157.044-.236.076l.046-.005zm74.9 31.424c-.97-1.607-1.48-3.28-1.927-4.898-.396-1.47-.78-2.848-1.5-4.114l-.174-.3-.026-.34c-.093-1.263-.595-2.464-1.526-3.67l.16.17c-1.147-1.063-1.1-2.438-1.067-3.354.02-.596.02-.965-.127-1.137-1.75-1.472-1.934-3.47-2.072-5.095-.086-1.042-.172-2.028-.6-2.683-.723-1-.905-2.123-1.066-3.105-.1-.652-.2-1.27-.462-1.703l-.05-.087-.04-.103c-.25-.617-.3-.714-1.9-.432-.884.155-1.963.258-3.053-.008a1.76 1.76 0 0 1-.567-.035c-.037.008-.27.077-.27.077-.58.177-1.668.46-2.684-.028l-2.058.087c-1.7.124-3.584.228-5.335-.164l-.158.077c-1.07.56-1.975.498-2.708-.08l-.46-.12a2.82 2.82 0 0 0-.256 1.14 2.96 2.96 0 0 0 .07.657c.277.644.414 1.283.414 1.904 0 .755-.146 1.475-.274 2.116s-.2 1.115-.2 1.5a1.43 1.43 0 0 0 .28.875c.134.024.3.032.494.038.695.01 1.863.035 2.77 1.125l.35.54-.033 1.717v.5c0 1.355-.17 2.98-1.313 4.248-.078 1.264-.6 2.297-1.046 3.143-.423.8-.688 1.328-.688 1.864l.006.132.056.687-.495.483c-.936.912-1.268 2.38-1.6 3.935l-.256 1.146-.584.057c-.1 1.354-.724 2.422-1.3 3.36-.4.658-.697 1.248-.82 1.86a5.53 5.53 0 0 0 .746-.102c.566-.097 1.248-.172 1.965-.094.846-.328 1.73-.238 2.416-.14l.5.053c1.186-.524 2.297-.264 3.06-.053.672.188.838.175.97.1.1-.2.185-.367.2-.48l.146-.65.426-.396.182-.43c.184-.498.43-1.18 1.08-1.734l.054-.044.058-.045c2.264-1.58 5.077-1.292 7.346-1.054l.4.035c2.714-.107 3.936 2.396 4.666 3.9l.2.423c.637.24 1.602.066 2.294-.33l.792-.462.76.507c.717.473 1.62.342 3.02.07l2.02-.37.315.72a6.23 6.23 0 0 1 .239.037c.18-.094.322-.188.4-.273-.012-.313-.072-.648-.15-1.032-.007 0-.016-.065-.027-.14zm66.366-3.343c0-.405-.072-.867-.176-1.43-.104-.596-.223-1.25-.223-1.958 0-.34.05-.7.123-1.064L243 59.86c-1.547-1.18-3.012-2.3-4.627-2.717l-.867-.265-.367-1.558c-.178-.7-.37-1.498-.37-2.353a4.67 4.67 0 0 1 .286-1.612c-.012.045-.04.076-.048.123l.064-.224c-.015.036-.006.063-.018.1.336-1.28 1.376-2 2.157-2.504l.167-.117c.8-1.633 2.148-2.56 3.38-3.355.912-.587 1.668-1.133 2.096-1.858-.12-.382-.527-.8-.994-1.188l-.435-.356-.095-.545c-.25-1.56-2.02-2.64-3.572-3.592l-.314-.2-.312.044c-1.302.166-1.438.28-1.513.578l-.188.744-.712.278c-1.2.473-2.496 1.694-3.44 3.268l-.322.548-.622.14c-.167.035-.43.396-.668.715-.5.663-1.16 1.568-2.4 1.847l-.75.16-.562-.52c-.573-.524-.86-1.233-.887-2.08-.397-.666-.613-1.334-.613-1.97 0-.744.182-1.438.338-2.03.14-.527.262-1.008.262-1.436 0-.065-.018-.125-.02-.185-.27-.343-.74-.375-2.444.057-.775.194-1.573.396-2.36.396h-.956l-.25-.552a.34.34 0 0 0-.095-.02c-1.204.47-2.34.296-3.28.12-.326-.063-.62-.093-.92-.125l-.053.325-.042.335c.13.562.245 1.122.245 1.66 0 .787-.102 1.552-.192 2.27l-.175 1.892c0 .562.08 1.083.292 1.567l.224.506-.164.532c-.293.932-.44 1.915-.44 2.813 0 .645.072 1.24.23 1.75l.07.2-.1 3.688-.083 7.128.078.896.107 1.3a4.29 4.29 0 0 1-.229 1.412c-.13.665-.182 1.338-.182 2.008 0 .917.102 1.8.24 2.65l.25-.078c.537-.2 1.2-.43 2.002-.35l.378.052.313.222c.15.104.593.182.768.123l.98-.304.354.396.222-.006c1.463-1.165 2.98-.57 3.746-.217.793.357.85.322 1.013.208l.27-.15c-.03-.164-.104-.4-.155-.584-.164-.496-.364-1.136-.364-1.85 0-.498.095-1.03.38-1.576l.1-.176.143-.15c.103-.104.125-.42.125-.76l-.006-.483-.015-.595c0-.6.056-1.24.328-1.874l.562-1.307 1.324.517c1.2.466 1.896 1.448 2.47 2.247l.402.545-.184-.195 1.666 1.746c.645.746 1.307 1.46 1.95 1.916 1.64.062 2.625 1.144 3.285 1.898.52.593.834.93 1.246.986l.435.147.243.14c.117.056.597 0 .847-.03.628-.08 1.4-.173 2.18.147l.094.035.105.063c.044-.68.2-1.284.334-1.808s.238-.896.238-1.233c0-.203-.038-.384-.122-.58l-.272-.626.3-.6c.15-.328.217-.65.217-1.025zm-107.083-9.8c-.24-.846-.354-1.137-.787-1.34l-1.22-.58.475-1.264c.314-.843.852-1.554 1.318-2.174.684-.9 1.025-1.42 1.025-1.964a1.2 1.2 0 0 0-.054-.359l-.188-.726.47-.58c.33-.404.495-.98.495-1.74 0-.507-.1-1.125-.245-1.8l-.78-1.247c-1.027-1.76-1.587-2.537-2.672-2.57l-.62-.023-.417-.458c-1.07-1.167-3.197-1.065-4.904-.985l-.133.002c-1.863.277-3.904.27-5.92.008-1.7.42-3.193.3-4.646.152-1.027-.1-2-.185-3.083-.092-1.34.885-2.713.416-3.5.103l-.7-.258-.14.142c-.038.035-.063.07-.063.16 0 .1.044.313.176.734.12.402.3.965.3 1.592 0 .5-.2 1.045-.53 1.58a2.85 2.85 0 0 0-.129.864c0 .832.276 1.757.55 2.665l.168.562-.174.466c-.404 1.08-.545 2.255-.545 3.363 0 1.04.124 2.02.274 2.83l.063.33-.087.33c-.257.906-.35 1.916-.35 2.943 0 1.7.26 3.438.506 4.793l.108.627-.378.5c-.27.37-.4.98-.4 1.647 0 .734.143 1.54.38 2.178l.27.742-.464.64c-.35.473-.506 1.302-.506 2.097 0 .545.096 1.018.236 1.412 1.853.06 3.53.045 5.2-.6l.513-.2.513.188a7.5 7.5 0 0 0 4.914 0l.702-.25.62.412c.156.104.663.15 1.002.178l.774.105c1.595-.316 3.136-.25 4.615-.143l2.738.064 3.945-1.28c.773-.307 1.102-1.073 1.568-2.3.262-.705.535-1.438.973-2.115l.287-.437.336-.1.15-.424-.05-.777c0-.63.06-1.237.1-1.797l.1-1.467c0-.635-.1-1.142-.394-1.586-1.16-.8-1.542-1.95-1.775-2.775zm70.203 7.9c0-.517.067-1.006.123-1.432l.1-1.003c0-.18-.022-.295-.056-.388l-.4-.047c-.24-.04-.607-.1-.72-.07l.017-.01-.447.185-2.686.18c-1.738.164-3.533.334-5.472-.063l-.218-.044-3.524-1.874-.2-.345c-.717-1.2-1.323-2.842-1.323-4.5 0-.94.203-1.875.676-2.735-.012.02-.033.04-.04.07l.066-.147c-.018.022-.02.05-.027.078.674-1.505 2.047-2.262 3.158-2.867l.963-.56c1.492-1.537 3.357-1.397 4.742-1.258.8.08 1.563.15 2.074-.032 1.05-.463 2.04-.282 2.766-.15l.62.082c.007-.114.054-.214.054-.336 0-.386-.06-.813-.117-1.272l-.125-1.6c0-.44.066-.894.185-1.355a6.69 6.69 0 0 1-.179-1.478l.033-1.013.02-.908c0-.606-.094-1.014-.292-1.32l-.136-.015c-.6-.074-.915-.096-1.05.023l-.48.427-.642-.063c-.766-.08-1.56.005-2.393.095-1.134.125-2.42.2-3.76-.086l-2.713.325c-3.022.284-5.878.558-7.642 2.744l-.27.333-.408.14c-1.646.56-2.8 2.285-3.904 3.957l-.3.442-.193.15c-2.177 1.652-2.285 4.172-2.413 7.092l-.23 2.886a14.39 14.39 0 0 1 1.133 4.457c.525 1.98 1.742 3.866 3.262 5.04l.405.306.122.5c.195.77.984 1.25 2.264 1.94.703.4 1.43.78 2.068 1.316l.16.135.117.178c.24.354.8.412 1.907.45a9.45 9.45 0 0 1 2.16.317c1.2-.483 2.388-.228 3.283 0 .55.146 1.063.278 1.418.2l.233-.05.23.024c.383.042.887-.08 1.423-.22 1.004-.247 2.33-.5 3.647.184l.957-.082c.78-.04 1.468-.117 1.918-.355.12-.418.17-.9.17-1.446l-.004-.595-.008-.662a9.52 9.52 0 0 1 .258-2.193c-.232-.556-.363-1.12-.363-1.66zM17.46 49.582c1.105-1.37 2.17-2.87 3.92-3.3 2.042.262 3.323 1.806 4.596 3.3.512 2.954.427 6.046-.723 8.652-.8 1.063-1.958 2.298-3.365 2.252-2.045.53-3.15-1.146-4.086-2.563-.255-2.115-.857-4.145-.342-6.225v-2.116zm105.627 6.313c1.214.557 2.426-.482 3.438.483 1.28 1.474.94 3.7.334 5.386-.334.77-1.073 1.74-1.95 1.815-.8-.278-2.1-.278-2.3-1.465-.808-2.093.062-4.262.47-6.22zm.456-12.278c1.57-.223 3.354-.15 4.065 1.63.072 2.138-1.072 4.3-3.063 5.172-.712-.22-1.572-.367-1.86-1.255-.277-1.844-1.277-4.36.858-5.546zm36.224 7.682c.842.08 2.53-.318 2.907.956.464 1.35.692 2.944.617 4.535-1.3.792-2.452 2.47-3.914.953-1.6-.638-.765-2.308-.7-3.58 1.384-.474.848-1.907 1.08-2.863M6.084 26.285c0-.125.453-.43 1.008-.677l1.9-.904 1.756-.805 1.657-.704 2.212-.905 2.665-1.005 2.3-.8 2-.606 2.613-.754 2.816-.753 2.36-.4 2.358-.253 1.7-.197 1.005-.153c.248-.026 1.364-.206 5.5-.402l8.342-.448 1.707-.204 2.915-.203 3-.102 1.96.054 1.8.15 1.605.25c.405.08.8.334.854.55a4.29 4.29 0 0 0 .254.706l.302.546c.08.145.24.367.35.506s.427.413.702.605l1.154.753c.364.22.8.333.954.25a2.56 2.56 0 0 1 .655-.199l.758-.096a5.65 5.65 0 0 0 .805-.208l1.556-.654 1.807-.8a7.64 7.64 0 0 1 1.407-.454c.416-.086 1.047.324 1.405.902.363.584.8 1.125.958 1.213.164.077.458.193.655.245l1.2.353 1.7.452 1.255.348.704.307c.165.08.46.035.652-.106a7.02 7.02 0 0 1 .753-.45 4.5 4.5 0 0 1 .855-.3c.248-.055.6-.057.802 0s.353-.038.353-.203.046-.46.1-.648l.202-.708a3.01 3.01 0 0 1 .3-.656l.353-.5c.086-.108.266-.267.402-.353a10.93 10.93 0 0 1 .804-.399 11.85 11.85 0 0 1 1.207-.455l1.407-.4 2.2-.552 2.064-.603 1.104-.505c.277-.14.958-.973 1.507-1.858s1.275-1.54 1.608-1.453l1.155.296a14.01 14.01 0 0 1 1.507.556l1.8.854 1.706.8a12.43 12.43 0 0 0 1.512.505l1.2.253 1.108.197a6.85 6.85 0 0 1 1.055.297c.274.117.73.07 1.002-.096l.954-.552c.247-.135.635-.385.855-.55l.706-.55a7.34 7.34 0 0 0 .6-.606 7.81 7.81 0 0 0 .555-.755 9.24 9.24 0 0 0 .45-.856c.1-.248.267-.698.353-1.005a1.11 1.11 0 0 1 .706-.7c.302-.082.82-.196 1.15-.25l1.907-.254 2.716-.253 2.915-.1 3.063.05 3.014.206 2.815.247 2.6.302c.694.114 2.118.473 3.164.8 1.05.335 2.342 1.198 2.866 1.9.524.72 2.263.153 3.867-1.255s4.454-2.563 6.333-2.563 5.1-1 7.186-2.2c2.07-1.217 5.164-1.983 6.883-1.708l6.88.854c2.076.196 4.695.74 5.826 1.207 1.14.47 3.373 1.85 4.978 3.066s4.16 1.054 5.678-.356 4.23-2.178 6.03-1.708 4.418 2.007 5.83 3.417 3.056 2.655 3.67 2.764l1.457.203a4.41 4.41 0 0 1 .8.102l.75.2.352.1c.03 0 .345.065.705.152a10.91 10.91 0 0 0 1.308.2 4.4 4.4 0 0 1 1.207.302 6.84 6.84 0 0 1 1.006.58c.245.182.655.518.903.754a6.73 6.73 0 0 0 .927.704c.267.15 1.235.577 2.165.95l3.033 1.355 1.813.805c.25.07.678.146.953.18a3.3 3.3 0 0 0 .98-.077l.754-.154a1.67 1.67 0 0 1 .5.05c.13.04.72.313 1.308.6l2.187.934a15.59 15.59 0 0 0 2.412.6l1.36.206a11.27 11.27 0 0 1 .754.2c.385.105.792.293.906.402s.72.22 1.35.25 1.68.163 2.313.305c.634.133.4.427.994.652.6.22 1.386.307 1.764.2a7.75 7.75 0 0 1 1.326-.25 7.98 7.98 0 0 1 1.385.052 7.12 7.12 0 0 1 1.359.347 4.83 4.83 0 0 1 1.129.704c.275.248.55.586.617.755l.142.403c.02.057-.015.2-.075.306l-.08.1-.1.097c-.114.103-.554.2-.974.193h-1.54c-.38 0-.77-.185-1.137-.193l-.367-.008c-.393.085-.848.142-1.006.128l-.166-.008-.5-.005c-.17 0-.33-.146-.468-.13l-.128.015c-1.037.114-1.47.213-2.466.215l-1.806-.002c-1.804 0-3.627-.01-5.453-.014l-5.508-.028c-1.838-.005-3.677.162-5.5.147l-4.907-.196-5.043.014a472.28 472.28 0 0 1-4.998-.005l-1.642-.003-4.43-.1c-.73-.032-1.922-.022-2.645.022l-2.642.092-2.644.028a102.81 102.81 0 0 1-2.705-.017l-.686-.006-2.023-.005-2.047.014c-.688.006-1.4-.128-2.106-.128l-5.2.182a616.42 616.42 0 0 1-5.104-.028l-5.086-.048c-1.695-.01-3.4-.407-5.127-.405-1.467.022-2.938.418-4.42.424l-4.435.002-4.415-.008c-1.466-.005-2.928.006-4.382.014l-.905-.02c-.576-.42-1.77-.44-2.658-.046l-2.4-.025L132 27.2h-.973l-2.04.015-.4.02-.408.025-1.722.008-3.174.07h-3.17l-3.175-.06c-.868 0-1.538-.108-1.486-.246s.077-.313.05-.395-.2.022-.385.23-.375.395-.427.418-.617.01-1.247-.018l-.603.013-1.836.028c-.612.008-1.22-.077-1.8-.074l-.586.01c-.607.05-2.338-.065-3.852-.277l-1.4-.022c-1.404-.022-2.835.27-4.256.26l-4.27-.014h-1.423H90.548a.3.3 0 0 1-.071-.009c-.017 0-.052-.002-.068-.002s-.05-.006-.072-.006c-.017-.002-.14-.13-.267-.285l-.245.008c-.236.005-.726.312-.97.3s-.495-.01-.75-.015a17.92 17.92 0 0 0-.766.005c-1.54.04-3.12-.082-4.712-.077l-4.77.123c-1.575-.01-1.785.62-3.288.62l-7.394.075h-3.07c-1.024-.008-3.4-.657-4.423-.668l-1.03-.015-2.086-.047c-.014-.007-.035-.01-.05-.015s-.034-.01-.046-.01-.04-.008-.053-.008a8.04 8.04 0 0 0-.62.2l-.3.006c-1.236.018-1.538-.17-.894-.174H52.7c-1.934.046-3.85-.107-5.76-.085-1.92.022-2.904.698-4.832.7-1.92.003-2.295-.48-4.247-.48l-1.956.003-4.07-.185a1.42 1.42 0 0 0-.163-.029l-.158-.03-.16-.026a.38.38 0 0 0-.12-.008c-.02.005-.077.008-.123.014l-.12.013c-.02.008-.182.025-.364.05l-.2.013-.592.028c-.207.002-.413-.125-.612-.13h-.202c-.2.065-1.504.205-2.9.307H24.9c-1.247 0-2.483-.008-3.708-.014s-2.442.13-3.66.133-2.438-.122-3.66-.105c-.65-.01-1.34.002-2.045.01-.702.015-1.418-.16-2.106-.156s-1.36.176-1.973.14l-.613-.025c-.566-.08-1.033-.2-1.042-.27a2.76 2.76 0 0 1-.021-.348v-.442"/></g></svg>