<svg xmlns="http://www.w3.org/2000/svg" width="800" height="818" viewBox="0 0.001 392 400.999"><g fill="#221e1f"><path d="M58.75 195.435s-30.96 35.13-45.722 109.76c0 0-2.46 18.453 4.58 19.273 6.97.82 11.208-9.705 13.67-16.13 1.025-2.733 46.542-107.982 38.272-113.724 0 0 28.43-1.572 31.507 17.77 3.144 19.272-26.8 34.24-35.54 36.017-8.815 1.7-8.6 5.263-8.063 5.74s2.46 3.008 13.806 1.3c11.345-1.777 37.452-9.637 48.797-33.762 0 0 10.936-22.827-9.43-39.57-20.435-16.812-50.37-8.338-61.578-1.025-11.276 7.313-7.244 15.3-6.15 16.402 1.16 1.162 3.758 2.597 15.855-2.05m97.7-20.852s.34-4.17 3.35-4.58c3.075-.4 5.194.4 5.8 9.296.684 8.953-3.7 21.938-10.798 34.445-3.212 5.74-9.294 19.82-9.158 21.254 0 0 2.12 5.878-4.715 5.8s-11.072-10.935-9.978-19.546 3.62-17.906 25.5-46.68m57.984 5.093s-18.385 3.827-28.43 2.802c0 0-15.24-1.982-11.072-10.73 0 0 1.777-3.622 6.014-3.35s9.636.958 17.086-.272c7.45-1.162 29.73-1.777 32.668-1.435s7.244 3.35 5.33 9.5c-1.98 6.15-17.428 23.1-17.428 23.1l-24.603 23.305s16.402-3.28 35.95.068 30.002 4.238 34.65 3.7c4.578-.546 12.574-2.255 14.693-3.144s3.965-.205 4.716 1.094c.82 1.3.48 3.213-2.733 5.194s-14.353 9.227-35.334 8.475-33.215-.615-33.215-.615-23.58-.342-36.496 3.417c0 0-10.183 5.4-14.557.4s-1.025-11.48 1.23-15.104c3.282-5.194 20.095-20.708 51.533-46.405M241.4 162.5s-1.913-4.853 1.025-7.586c.82-.82 2.665-1.708 4.032-1.777 1.367 0 2.324.547 4.374.82 1.845.342 35.812-4.58 35.812-4.58s10.525-1.64 16.266 4.307c4.854 5.126-3.963 14.557-3.963 14.557l-30.414 30.48 10.594 1.163c2.324.273 15.65 2.528 20.23 1.845l6.15-.956c.615-.205 3.485-1.025 4.237 1.366.82 2.46-2.118 6.083-10.32 9.705-8.27 3.623-20.366 3.964-25.5 3.76-5.06-.34-19.342-.956-24.535-.546-5.264.4-10.8 1.845-11.414 1.845-.752.068-6.014-.273-3.008-8.475s11.482-14.284 11.482-14.284l33.898-27.68s-28.773 3.623-33.488 1.64c-2.187-.887-4.852-3.28-5.467-5.603M83.995 308.36c7.107-1.298 19.136-2.802 19.136-2.802s24.467-55.837 34.65-56.18-9.978 50.985-9.978 50.985l29.935-6.355s6.97-24.4 13.6-35.47c6.56-11.07 8.748-11.48 9.842-11.48s5.467.205 4.647 5.33l-6.083 35.607 8.27-3.075s1.914-.957 3.007.82c1.093 1.845-1.914 4.17-1.914 4.17l-11.687 7.586s-8.064 35.13-11.208 39.845-6.97 7.45-10.73 7.176c-3.7-.273-7.38-3.964-7.04-12.507.273-8.543 3.76-20.708 3.964-21.665 0 0-27.2 10.866-31.37 11.276 0 0-9.1 36.563-11.823 41.28-2.666 4.715-8.406 7.8-12.985 7.244-6.22-.752-7.108-9.363-7.176-14.5s3.896-21.87 7.04-31.505c0 0-14-1.504-16.402-4.853 0 0-2.05-2.393-1.504-6.22.615-3.894 5.8-4.714 5.8-4.714"/></g><path d="M260.137 328.234s40.87-12.576 65.54-15.378c24.673-2.87 35.95-3.622 35.95-3.622s2.46-.547 3.007 2.188c.48 2.528-3.35 3.075-3.35 3.075-75.45 22.622-128.7 45.38-134.978 48.046-5.946 2.392-82.627 36.085-82.627 36.085s-9.432 3.417-17.086 2.05c-7.723-1.366-9.227-4.92-9.842-8.406 0 0-2.255-7.86 8.885-11.618 10.25-3.485 37.726-15.787 37.726-15.787l72.24-28.636 24.535-7.997z" fill="#fcc607"/><path d="M356.563 172.43c-.615 1.64-.82 4.102-.82 4.102s-9.637 5.536-14 7.245c-4.512 1.777-10.047 1.435-10.047 1.435 5.535-18.794 29.114-22.485 29.114-22.485l-4.237 9.704m35.197 11.823c-.342-1.367-7.79-2.255-10.525-2.53-2.734-.204-5.125-1.57-6.287-4.714-1.094-3.007 2.87-12.507 4.646-19.205 1.846-6.698-1.846-9.1-3.963-9.295-2.05-.205-4.648 1.71-4.648 1.71-27.405-5.74-58.434 23.236-60.21 36.085-1.298 9.363 1.367 15.993 9.158 17.633 7.723 1.64 14.763-1.162 20.846-3.554 6.014-2.255 18.043-11.55 18.043-11.55 1.16 2.94 7.654 5.877 13.6 6.083 5.945.273 16.266-4.51 18.043-5.74 1.776-1.162 1.708-3.554 1.298-4.92" fill="#221e1f"/><path d="M182.32 122.068s3.144-1.572 4.442-.205.547 3.417-.48 5.262-15.445 24.125-20.297 28.43c-3.076 2.667-7.45 3.145-10.867 1.094-3.485-1.982-3.007-8.68-1.777-11.48s5.33-10.662 13.805-15.924c8.408-5.194 15.174-7.176 15.174-7.176" fill="#009867"/><path d="M369.985 92.62l-6.082-4.237c-17.223-13.464-87.07-41.143-87.07-41.143s-4.92-11.07-7.723-16.47c-7.86-15.172-19.682-27.132-20.23-27.542-.614-.342-1.16-.342-1.16-.342l-.547.137-20.504 5.467-47.02 13.6-33.762 10.663c-1.503.615-2.597 1.64-2.597 1.64L131.397 55.51c-.957 2.187-13.6 26.654-13.6 26.654L86.36 96.993c-2.87 1.572-2.87 1.436-24.604 14.558l-26.312 18.384L8.447 150.7c-2.05 1.845-4.374 5.877-2.188 9.363 2.12 3.485 7.518 2.87 7.518 2.87l25.22-6.63 50.643-12.848 60.28-12.575 8.27-1.435c1.777-1.64 3.827-3.28 6.15-4.715 8.065-5 14.695-7.176 16.198-7.655 3.144-1.435 7.244-1.777 10.046 1.093 1.162 1.162 2.187 3.007 2.12 5.536l3.417-.615h.136l64.448-8.338s41.144-4.17 54.95-4.58c33.352-1.024 49.412-6.013 49.412-6.013 1.367-.615 5.877-2.187 6.766-5.877s-1.844-5.673-1.844-5.673" fill="#ee1c23"/><path d="M281.8 269.48s-17.563.068-17.974-6.493 7.04-7.996 10.39-6.288c0 0 1.914.4 3.76.137s11.003-1.913 11.003-1.913 13.806-22.35 16.334-24.672c0 0 2.733-3.7 7.108-.752 4.373 3.007 1.23 9.91 1.23 9.91l-5.74 11.62 41.348-7.723s2.53-.615 3.008 1.436c.4 1.708-3.965 3.62-3.965 3.62s-42.577 17.087-47.088 17.84l-11.756 31.78-9.636 28.567s-1.16 2.323-3.554 2.187c-2.393-.068-3.555-4.236-3.623-5.262-.137-1.025-1.024-16.06.752-26.176s8.406-27.6 8.406-27.6m-84.49 11.904s-1.367-3.143-4.238-4.578c-2.87-1.504-3.35-2.94-1.982-4.442 1.23-1.436 6.972-3.007 12.712-1.846 5.81 1.094 9.773 8.064 10.252 12.85s-.137 12.644-3.35 20.913c0 0 25.56-15.924 30.755-24.604 0 0 6.356-12.985 9.295-15.3 0 0 5.946-4.5 8.475 2.256 0 0 .205 5.33-1.708 16.06s-2.05 31.508-1.7 32.123c.343.684 2.803 4.1-1.093 6.355 0 0-2.734.89-6.63-2.255s-10.66-9.02-10.32-20.845c0 0-12.232 17.633-22.552 22.28s-14.764 5.126-21.255.273c-6.493-4.783-1.982-19.614-1.982-19.614l5.195-15.787c.067-.4.75-2.528.136-3.827m-79.23-205.61c-.068.273-.615.342-1.094.137-.547-.205-1.162-.82-.615-2.255.48-1.504 12.507-26.244 20.367-39.503 0 0 .75-2.255 3.827-3.212 3.007-.957 79.825-22.963 79.825-22.963l19.888-5.126s3.76-.615 5.126 3.28c1.3 3.897-2.46 5.537-3.28 5.8-.752.34-46.952 14.83-46.952 14.83L143.23 39.2c-.001-.001-25.014 36.563-25.15 36.768M258.012 1s-.273-.683.34-.956 1.095.615 1.095.615 5.263 9.637 5.946 11.755 11.96 33.283 11.96 33.283l40.255 11.687c2.05.546 43.534 15.104 64.653 26.04l2.188 1.093c.206.136 2.46 2.324 1.366 5.058-1.024 2.666-3.76 3.144-4.647 3.076s-5.672-1.914-5.672-1.914-76.066-27.338-95.818-32.053c0 0-9.9-3.28-11.346-6.424-1.366-3.144-3.895-19.75-3.895-19.75L258.012 1zM348.7 96.084c-1.436-7.45-14.01-7.86-15.855-7.654-1.846.136-127.324 16.676-135.662 18.042-45.38 7.45-123.292 26.996-123.292 26.996l-47.772 14.08c.89-1.777 39.093-28.773 41.348-30.48S114 88.156 114 88.156s3.554-1.366 2.392-3.553c-.957-1.98-2.802-1.367-2.802-1.367l-10.662 4.5c-15.377 6.562-40.05 21.393-40.05 21.393C43.4 119.937 2.53 153.084 2.53 153.084s-4.032 2.734-1.914 7.654c2.05 4.99 7.586 4.374 7.586 4.374l59.322-15.992c4.374-1.982 81.807-17.77 81.807-17.77l8.406-1.503c1.914-1.777 4.032-3.554 6.63-5.125 7.996-5 14.625-7.176 16.13-7.655 3.144-1.367 7.313-1.777 10.047 1.094 1.23 1.23 2.323 3.144 2.187 5.81l3.417-.547.068-.068c44.082-7.586 141.13-14 141.13-14 3.556-.55 13.192-3.76 11.347-13.26m13.88 232.586h.89c1.024 0 1.98-.4 1.98-1.366 0-.684-.546-1.367-1.98-1.367-.4 0-.684 0-.9.068v2.666zm0 4.374h-1.23v-7.86c.615-.136 1.23-.204 2.188-.204 1.23 0 1.98.205 2.46.547a1.98 1.98 0 0 1 .752 1.64c0 1.095-.684 1.7-1.572 1.915v.068c.684.137 1.162.75 1.367 1.98.137 1.23.342 1.7.48 1.914h-1.3c-.204-.204-.4-.956-.546-1.98-.204-1.025-.683-1.436-1.707-1.436h-.9v3.417zm1.298-10.114c-3.075 0-5.673 2.665-5.673 6.014s2.598 6.015 5.74 6.015 5.674-2.666 5.674-6.015-2.53-6.014-5.673-6.014h-.068zm.07-1.094c3.896 0 6.972 3.144 6.972 7.107 0 4.032-3.076 7.108-7.04 7.108-3.827 0-6.972-3.076-6.972-7.108 0-3.964 3.145-7.107 6.972-7.107h.068z" fill="#221e1f"/></svg>