<svg xmlns="http://www.w3.org/2000/svg" xmlns:xlink="http://www.w3.org/1999/xlink" width="800" height="367" viewBox="0 0 605 275" fill="none"><style><![CDATA[.E{fill:#000}.F{fill:#E03A3E}.G{fill-rule:evenodd}.H{stroke:#000}.I{stroke-width:2.961}.J{stroke-miterlimit:2.613}]]></style><path d="M426.7 136c-35.4-28.1-86.3-45.2-135.4-45.2S189.7 107.9 154.2 136h272.5z" fill="#BFD0DF" class="G"/><path d="M426.7 136c-35.4-28.1-86.3-45.2-135.4-45.2S189.7 107.9 154.2 136h272.5z" class="H I J"/><use xlink:href="#A" fill="#005D7E" class="G"/><use xlink:href="#A" class="H I J"/><g class="G"><path d="M432.7 156c-38.9-32-86.7-53.3-140.5-53.3-54.2 0-105.5 21.3-144.3 53.3h284.8z" class="E"/><use xlink:href="#B" fill="#BFD0DF"/></g><use xlink:href="#B" class="H I J"/><use xlink:href="#C" fill="#005D7E" class="G"/><use xlink:href="#C" class="H I J"/><g class="G"><g class="E"><path d="M75.3 168.8c2.1 3 3.4 7.3 3.4 13.2 0 3.8-.9 7.2-2.1 9.8-1.3 2.6-2.6 4.3-4.7 5.5-2.1.9-3.4 1.3-7.7 1.3h-2.6v-34.1h5.1c4.7 0 6 1.3 8.6 4.3zm8.5 69.5h19.6v-2.1c-1.7 0-3-.9-4.3-2.1-.9-.9-2.1-2.6-4.3-6L80 201.6c3.8-1.3 6.8-3 9-5.5 3-3.8 4.7-8.5 4.7-14.1 0-4.7-.9-9-3.4-12.4-2.1-3.8-5.1-6-8.5-7.3s-6.8-2.1-14.1-2.1H38.1v2.1c3 0 5.1.4 6 .9 1.3.9 1.7 1.7 2.1 3 .4.9.9 3.4.9 7.7v50.7c0 4.3-.4 6.8-.9 8.1-.4.8-.8 1.7-2.1 2.6-.9.4-3 .9-6 .9v2.1h32.5v-2.1c-3 0-5.1-.4-6-.9-1.3-.8-1.7-1.7-2.1-2.6-.4-1.3-.8-3.8-.8-8.1v-21.7H66l17.8 35.4zm31.6-34.6c0-6 .9-10.7 3-14.1.9-2.1 2.1-3 3.8-3 .9 0 1.7.4 2.6.8 1.3 1.3 2.1 3 2.6 5.5.4 2.1.9 6.4.9 12.4h-12.8v-1.6h-.1zm18.8-14c-3-4.7-6.8-6.8-11.1-6.8-5.6 0-9.8 2.6-14.1 8.1-3.8 5.1-5.5 12.4-5.5 21.3 0 7.2 1.3 13.6 3.8 18.3 3.4 6.4 8.1 9.4 14.5 9.4 3.8 0 7.3-1.3 9.8-3.8 3-2.6 5.6-6.8 7.7-12.4l-1.3-1.3c-1.7 3-3.4 5.5-5.1 6.8-1.3 1.3-3 1.7-4.7 1.7-3 0-5.5-1.3-7.7-4.7-3-4.3-4.3-9.8-4.7-17.1h23.5c0-8.4-1.7-15.3-5.1-19.5zm34.6 43.4c-1.3 0-2.6-.4-3-1.3-1.3-1.3-2.6-3.8-3.4-6.8-.9-3.4-1.3-8.5-1.3-15.3 0-6 .4-10.7 1.3-13.6.8-3 1.7-5.1 2.6-6.4.8-.8 1.7-.8 3-.8 3.4 0 6 2.6 8.5 8.1v28c-2.6 5.2-5.2 8.1-7.7 8.1zm1.3-70.3c2.1 0 3.4 0 4.3.9.8.4 1.3 1.3 1.7 2.6 0 .4.4 3 .4 7.2v16.2c-2.1-2.6-3.8-4.3-5.1-5.1-1.7-1.3-3.4-1.7-5.6-1.7-3.4 0-6.4 1.3-9 3.4-3 2.6-5.1 6-6.8 10.7-1.7 4.3-2.1 9.8-2.1 15.3 0 7.2 1.3 13.6 3.8 18.3 3 6.4 7.3 9.4 12.8 9.4 2.1 0 4.3-.8 6-1.7 1.7-1.3 3.8-3.4 6-6.8v8.5l17.9-4.7v-1.7c-1.7 0-2.6-.4-3.4-1.3-.9-.4-1.3-1.3-1.3-2.6-.4-.9-.4-3.4-.4-7.7v-61.8h-19.2v2.6zm105 48.2h2.1l-2.6 27.3h-53.4v-2.1h2.1c1.7 0 3.4-.4 4.3-1.3.8-.4 1.7-1.3 2.1-2.6 0-.8.4-3.4.4-7.2v-51.6c0-3.8-.4-6.4-.4-7.3-.4-.8-1.3-1.7-2.1-2.6-1.3-.8-2.6-1.3-4.3-1.3h-2.1v-2.1h33.3v2.1h-2.6c-1.7 0-3.4.4-4.3 1.3-.9.4-1.7 1.3-2.1 2.6 0 1.3-.4 3.4-.4 7.3v49.9c0 3.8.4 6.4.4 7.7.4.8 1.3 1.7 2.6 2.6.4 0 2.6.4 5.5.4h5.1c3.4 0 3.8-.9 6-2.1 2.1-1.7 4.3-3.8 5.6-6.8 1.8-3.6 3.5-8.2 4.8-14.2zm31.2-22.6c1.3 1.3 2.1 3 3 5.1.4 2.6.8 6.8.8 13.2 0 11.1-.4 18.3-.8 21.7-.4 2.6-1.3 4.3-2.6 5.5-1.3.8-2.1 1.3-3.8 1.3-1.3 0-2.6-.4-3.8-2.1-1.3-1.3-1.7-3.4-2.1-6-.4-3.4-.9-7.2-.9-11.5 0-7.2.4-13.2.4-17.5.4-4.7 1.3-7.3 2.6-9 1.3-1.3 2.6-2.1 4.3-2.1 1.2.1 2 .5 2.9 1.4zm-18.8 3.4c-3.8 5.5-5.6 11.9-5.6 19.6s1.7 14.1 5.6 19.6c3.4 5.5 9 8.5 15.8 8.5s12-3.4 16.2-9.4c3-5.1 4.7-11.5 4.7-18.8 0-5.5-.9-10.2-2.6-14.5s-4.3-7.7-7.7-10.2c-3.4-2.1-7.3-3.4-11.1-3.4-6.3.1-11.4 2.6-15.3 8.6zm68.8-2.1c2.1 0 3.8.9 4.7 3 1.7 3.4 2.6 8.9 2.6 17.1 0 8.5-.4 14.5-.8 17.9-.9 3.4-1.7 5.5-3 6.4-1.3 1.3-2.6 1.7-3.8 1.7-2.1 0-3.4-.4-4.7-2.1-1.3-1.3-1.7-3-2.1-5.1-.4-1.7-.4-4.7-.4-9.4v-23.9c2.3-3.9 4.9-5.6 7.5-5.6zm-25.7-27.3c1.7 0 2.6.4 3.4.9.9.4 1.3 1.3 1.3 2.6.4.8.4 2.6.4 5.5V240h1.7l7.3-6c1.7 2.1 3.4 3.4 5.1 4.7 1.7.9 3.8 1.3 6.4 1.3 3.8 0 7.7-1.3 10.7-3.8 3-2.6 5.6-6 7.7-11.1 1.7-4.7 2.6-9.8 2.6-15.8 0-5.1-.4-9.8-2.1-14.1-1.3-3.8-3.4-6.8-6-8.9s-5.6-3.4-8.5-3.4c-4.3 0-8.1 2.6-12 7.2v-29.8h-17.9v2.1h-.1zm82.9 20.9h1.7l.9 17.9h-1.7c-2.1-5.1-3.8-8.9-6-10.7-2.1-2.1-4.3-3-6.4-3-1.3 0-2.6.4-3.4 1.3-.9 1.3-1.3 2.6-1.3 3.8 0 .8 0 2.1.9 3 .9 1.3 3.8 4.3 8.5 7.7 4.7 3.8 8.1 7.2 9.4 9.8 1.7 2.6 2.1 5.5 2.1 8.9 0 2.6-.4 5.5-1.7 8.5s-3 5.1-5.6 6.4c-2.1 1.7-4.7 2.6-7.3 2.6-2.1 0-5.1-.8-8.5-2.6-1.3-.4-1.7-.8-2.1-.8-1.3 0-2.1 1.3-2.6 3h-1.7l-.9-19.2h1.7c1.3 5.1 3.4 8.9 6 11.5s4.7 3.8 7.3 3.8c1.3 0 2.6-.9 3.8-1.7.9-1.3 1.3-2.6 1.3-4.3s-.4-3.4-1.3-4.7c-1.3-1.3-3.4-3.4-6.4-6-5.1-3.8-8.1-7.2-9.8-9.4-2.1-3-3-6.4-3-10.2s.9-7.7 3.4-11.1c2.6-3 6-4.7 10.3-4.7 2.6 0 5.1.4 7.3 2.1.8.4 1.7.9 2.1.9s.9-.4 1.3-.4c.4-.3.8-1.2 1.7-2.4zm29.5-17.9h1.7v19.2h10.7v6h-10.7V223c0 3.4 0 5.1.4 6 0 .9.4 1.7 1.3 2.1.4.9.9.9 1.7.9 1.7 0 3.8-1.7 5.6-5.5l1.7 1.3c-2.6 7.3-6.8 11.1-12.8 11.1-3 0-5.1-1.3-7.3-3-2.1-1.7-3-3.8-3.8-6.4-.4-1.3-.4-4.7-.4-10.2v-28.6h-6v-2.1c4.3-3.4 7.7-6.8 10.7-10.7 2.5-4 5-7.8 7.2-12.5zm31.1 38.3c0-6 .9-10.7 2.6-14.1.9-2.1 2.1-3 3.8-3 1.3 0 2.1.4 2.6.8 1.3 1.3 2.1 3 2.6 5.5.4 2.1.9 6.4.9 12.4h-12.4v-1.6h-.1zm18.4-14c-3-4.7-6.8-6.8-11.1-6.8-5.6 0-9.8 2.6-13.7 8.1-4.3 5.1-6 12.4-6 21.3 0 7.2 1.3 13.6 3.8 18.3 3.4 6.4 8.1 9.4 14.5 9.4 3.8 0 7.3-1.3 9.8-3.8 3-2.6 5.6-6.8 8.1-12.4l-1.7-1.3c-1.7 3-3.4 5.5-4.7 6.8-1.7 1.3-3.4 1.7-5.1 1.7-3 0-5.5-1.3-7.7-4.7-3-4.3-4.3-9.8-4.7-17.1h24c-.4-8.4-2.1-15.3-5.5-19.5zm12.4-5.1h18.4V197c3-5.5 6-9.4 8.1-11.1s4.3-2.6 6.4-2.6c1.7 0 3.4.4 4.3 1.7 1.3 1.3 1.7 3.4 1.7 5.5 0 2.6-.4 4.7-1.7 6-.9 1.3-2.1 2.1-3.8 2.1-1.3 0-3-.4-4.3-1.7-1.3-1.7-2.1-2.1-2.1-2.6h-1.3c-.8 0-1.7.4-2.6 1.3-1.3 1.3-2.1 3-3 5.1-.8 3.8-1.7 8.1-1.7 12.4v12.4l.4 3v4.3c.4.8 1.3 1.7 1.7 2.1a8.97 8.97 0 0 0 3.8.8v2.1h-24.3v-2.1c2.1 0 3.4-.8 4.3-1.7.4-1.3.8-4.3.8-8.5v-29.4c0-3 0-5.1-.4-6s-.8-1.7-1.3-2.1c-.9-.4-1.7-.8-3.4-1.3v-2.1z"/></g><g fill="#fff"><path d="M72.7 163.7c2.6 2.6 3.4 7.2 3.4 13.2 0 3.8-.4 7.3-1.7 9.8-1.3 2.6-3 4.3-5.1 5.5-2.1.8-3 1.3-7.3 1.3h-2.6v-34.1h5.1c4.8 0 6.1 1.3 8.2 4.3zm9 69.4h19.6V231c-1.7 0-3-.9-4.3-2.1-.9-.8-2.6-3-4.3-6.4l-15.4-26.4c3.8-.8 6.8-3 9-5.1 3.4-3.8 5.1-8.5 5.1-14.5 0-4.7-1.3-8.5-3.4-11.9-2.1-3.8-5.1-6-8.5-7.3s-6.8-2.1-14.5-2.1H36v2.1c3 0 4.7.4 6 .9.9.9 1.7 1.7 2.1 2.6.4 1.3.8 3.8.8 8.1v50.7c0 4.3-.4 6.8-.8 7.7-.4 1.3-1.3 2.1-2.1 3-.9.4-3 .9-6 .9v2.1h32V231c-2.6 0-4.7-.4-5.6-.9-1.3-.9-2.1-1.7-2.6-3-.4-.8-.4-3.4-.4-7.7v-21.7h4.3l18 35.4zm31.6-34.5c0-6 .9-10.7 3-14.1.9-2.1 2.1-3 3.8-3 .8 0 1.7.4 2.6.9.9 1.3 1.7 3 2.6 5.1.4 2.6.9 6.8.9 12.8h-12.8v-1.7h-.1zm18.8-14c-3-4.7-6.8-6.8-11.5-6.8-5.1 0-9.8 2.6-13.7 8.1-3.8 5.1-5.5 12.4-5.5 21.3 0 7.2 1.3 13.6 3.8 18.3 3.4 6 8.1 9.4 14.5 9.4 3.8 0 6.8-1.3 9.8-3.8 3-2.6 5.6-6.8 7.7-12.8l-1.3-1.3c-1.7 3.4-3.4 6-5.1 7.3-1.3 1.3-3 1.7-5.1 1.7-3 0-5.6-1.7-7.7-4.7-2.6-4.3-4.3-9.8-4.3-17.1h23.5c0-8.6-1.7-15.4-5.1-19.6zm34.1 43c-.9 0-2.1 0-2.6-.9-1.7-1.3-2.6-3.8-3.4-7.2-.9-3-1.3-8.1-1.3-14.9 0-6 .4-10.7 1.3-13.6.4-3 1.7-5.1 2.6-6.4.8-.8 1.7-1.3 3-1.3 3.4 0 6 3 8.1 8.5v28.1c-2.1 5.2-4.7 8.1-7.7 7.7zm1.7-69.9c2.1 0 3.4 0 4.3.9.4.4 1.3 1.3 1.3 2.1.4.8.4 3.4.4 7.7v16.2c-1.7-2.6-3.4-4.3-5.1-5.1-1.3-1.3-3.4-1.7-5.1-1.7-3.4 0-6.4 1.3-9.4 3.4-2.6 2.6-4.7 6-6.4 10.7-1.7 4.3-2.6 9.8-2.6 15.3 0 7.2 1.3 13.2 3.8 18.3 3.4 6 7.7 9.4 13.2 9.4 2.1 0 4.3-.8 6-1.7 1.7-1.3 3.4-3.8 5.6-6.8v8.5l18.4-4.7v-1.7c-1.7-.4-3-.4-3.4-1.3-.9-.4-1.3-1.3-1.7-2.6v-69.5H168v2.6h-.1zM273 205.9h2.1l-2.6 27.3h-53.4V231h2.1c1.7 0 3-.4 4.3-1.3.9-.4 1.3-1.3 1.7-2.6s.9-3.4.9-7.2v-51.6c0-3.8-.4-6.4-.9-7.2 0-1.3-.8-2.1-1.7-2.6-1.3-.8-2.6-1.3-4.3-1.3h-2.1v-2.1h33.3v2.1h-2.6c-1.7 0-3.4.4-4.3 1.3-.8.4-1.7 1.3-2.1 2.6-.4.8-.4 3.4-.4 7.2v49.9c0 3.8 0 6.4.4 7.7.4.8 1.3 1.7 2.1 2.1.9.4 2.6.9 5.6.9h5.6c3 0 3.8-.9 6-2.1 2.1-1.7 3.8-3.8 5.6-7.2 1.7-3.1 3.4-7.8 4.7-13.7zm31.2-22.6c1.3.9 2.1 2.6 3 5.1.4 2.6.9 6.8.9 13.2 0 11.1-.4 18.3-1.3 21.7-.4 2.6-1.3 4.3-2.1 5.5-1.3.8-2.6 1.3-3.8 1.3-1.3 0-2.6-.4-3.8-2.1-1.3-1.3-2.1-3.4-2.6-6-.4-3.4-.4-7.2-.4-11.5 0-7.7 0-13.6.4-17.9s1.3-6.8 2.6-8.5c.9-1.3 2.6-2.1 4.3-2.1 1.1 0 1.9.4 2.8 1.3zm-18.8 3c-3.8 6-5.6 12.4-5.6 20 0 7.2 1.7 14.1 5.6 19.6 3.4 5.5 9 8.1 15.4 8.1 7.3 0 12.4-3 16.2-8.9 3.4-5.1 5.1-11.5 5.1-18.8 0-5.5-.9-10.2-2.6-14.5-1.7-4.7-4.3-7.7-7.7-10.2-3.4-2.6-7.3-3.4-11.1-3.4-6.4 0-11.5 2.5-15.3 8.1zm68.7-2.2c2.1 0 3.4 1.3 4.7 3.4 1.7 3 2.6 9 2.6 17.1 0 8.5-.4 14.5-1.3 17.9-.4 3.4-1.7 5.5-2.6 6.4-1.3 1.3-2.6 1.7-4.3 1.7s-3-.4-4.3-2.1c-1.3-1.3-2.1-3-2.1-5.5-.4-1.3-.4-4.3-.4-9v-24.3c2.6-3.4 5.2-5.6 7.7-5.6zm-25.6-26.8c1.7 0 2.6.4 3.4.9.4.4.9 1.3 1.3 2.6.4.4.4 2.6.4 5.5v68.6h1.7l6.8-6c2.1 2.1 3.8 3.4 5.6 4.3 1.7 1.3 3.8 1.7 6.4 1.7 3.8 0 7.3-1.3 10.7-3.8 3-2.6 5.6-6.4 7.7-11.1 1.7-4.7 2.6-10.2 2.6-15.8s-.9-9.8-2.1-14.1c-1.7-3.8-3.4-6.8-6-8.9-3-2.1-5.6-3.4-8.5-3.4-4.3 0-8.5 2.6-12 6.8v-29.4h-17.9v2.1h-.1zm82.8 20.9h1.7l.9 17.9h-1.7c-2.1-5.1-4.3-8.9-6.4-11.1-1.7-1.7-3.8-2.6-6-2.6-1.3 0-2.6.4-3.4 1.3-.9 1.3-1.3 2.1-1.3 3.8 0 .8 0 1.7.9 3s3.8 3.8 8.5 7.7c4.7 3.8 7.7 7.2 9.4 9.8 1.3 2.6 2.1 5.5 2.1 8.5s-.4 6-1.7 9c-1.3 2.6-3 5.1-5.6 6.4-2.1 1.7-4.7 2.1-7.3 2.1s-5.1-.4-9-2.1c-.9-.4-1.3-.8-1.7-.8-1.3 0-2.1 1.3-3 3h-1.3l-.8-19.2h1.7c1.3 5.1 3.4 8.9 6 11.5 2.6 2.1 4.7 3.4 7.3 3.4 1.3 0 2.6-.4 3.4-1.7 1.3-.9 1.7-2.1 1.7-3.8s-.4-3.4-1.7-4.7c-.9-1.3-3-3.4-6.4-6-4.7-4.3-8.1-7.2-9.4-9.4-2.1-3-3.4-6.4-3.4-10.2s1.3-7.7 3.8-11.1c2.6-3.4 6-4.7 10.3-4.7 2.6 0 4.7.4 7.3 2.1.9.4 1.7.4 2.1.4h1.3c.5-.4.9-1.3 1.7-2.5zm29.5-17.9h1.7v19.2h10.7v5.5h-10.7v38.8c.4.9.9 1.7 1.3 2.1.8.4 1.3.8 1.7.8 2.1 0 4.3-1.7 6-5.5l1.7 1.3c-3 7.2-6.8 10.7-12.8 10.7-3 0-5.1-.8-7.3-2.6-2.1-2.1-3.4-3.8-3.8-6.4-.4-1.3-.4-4.7-.4-10.2v-29h-6v-1.7c4.3-3.4 7.7-6.8 10.2-10.7 3-3.8 5.6-7.7 7.7-12.3zm30.8 38.3c0-6 .9-10.7 3-14.1.9-2.1 2.1-3 3.8-3 .9 0 1.7.4 2.6.9 1.3 1.3 2.1 3 2.6 5.1.4 2.6.9 6.8.9 12.8h-12.8v-1.7h-.1zm18.8-14c-3-4.7-6.8-6.8-11.1-6.8-5.6 0-9.8 2.6-14.1 8.1-3.8 5.1-5.5 12.4-5.5 21.3 0 7.2 1.3 13.6 3.8 18.3 3.4 6 8.1 9.4 14.5 9.4 3.8 0 7.3-1.3 9.8-3.8 3-2.6 5.6-6.8 7.7-12.8l-1.3-1.3c-1.7 3.4-3.4 6-5.1 7.3-1.3 1.3-3 1.7-4.7 1.7-3 0-5.5-1.7-7.7-4.7-3-4.3-4.7-9.8-4.7-17.1h23.5c0-8.6-1.7-15.4-5.1-19.6zm12.3-5.2h18.4v11.9c3-5.1 5.6-9 8.1-10.7 2.1-1.7 4.3-2.6 6.4-2.6 1.7 0 3.4.4 4.3 1.7 1.3 1.3 1.7 3.4 1.7 5.5 0 2.6-.4 4.7-1.7 6-.9 1.3-2.1 2.1-3.8 2.1s-3-.9-4.3-2.1c-1.3-1.3-2.1-1.7-2.1-2.1h-1.3c-.8 0-1.7 0-2.6.8-1.3 1.3-2.6 3.4-3 5.5-1.3 3.8-1.7 7.7-1.7 12.4v15.3c0 2.1.4 3.4.4 4.3.4.8.9 1.7 1.7 2.1a8.98 8.98 0 0 0 3.8.8v2.1h-24.3v-2.1c2.1-.4 3.4-.8 3.8-2.1.9-.8 1.3-3.8 1.3-8.5v-29c0-3 0-5.1-.4-6s-.9-1.7-1.3-2.1c-.9-.9-1.7-.9-3.4-1.3v-1.9z"/></g><path d="M596.7 250.6c2.1 2.1 3.4 4.7 3.4 7.3 0 3-1.3 5.5-3.4 7.7-1.7 2.1-4.3 3-7.3 3s-5.6-.9-7.7-3c-1.7-2.1-3-4.7-3-7.7 0-2.6 1.3-5.1 3-7.3 2.1-2.1 4.7-3 7.7-3s5.6.9 7.3 3zm1.7-1.7c-2.6-2.6-5.6-3.8-9-3.8s-6.4 1.3-9 3.8c-2.6 2.1-3.8 5.5-3.8 9 0 3.8 1.3 6.8 3.8 9.4 2.1 2.6 5.6 3.4 9 3.4s6.4-.9 9-3.4c2.6-2.6 3.8-5.5 3.8-9.4 0-3.4-1.2-6.4-3.8-9zm-7.3 8.1c-.4.4-1.3.4-2.1.4h-1.3v-3.8h3c.4.4.9.9.9 1.7 0 .9 0 1.3-.5 1.7zm-3.4 3h1.2c.9.4 1.3.4 1.3.4.4 0 .9.4 1.3.8v2.1c0 .8 0 1.3.4 1.7h3.4v-.8c-.4 0-.4 0-.4-.4v-1.3c0-1.3-.4-2.6-.9-3-.9-.4-1.3-.8-2.1-.8.8 0 1.7-.4 2.6-.8.4-.9.9-1.7.9-2.6 0-1.7-.9-3-2.1-3.4-.4-.4-1.3-.9-2.6-.9h-6.8v14.1h3.8V260z" class="E"/><g class="F"><path d="M211.9 66.5h4.7l7.7-2.2 2.6-.8 4.7-.4-.9-3-3-12.8-1.3 3-1.2 4.6v4.3l-3.9 1.7-7.7 1.7-4.2-1.7.4 6 2.1-.4zm-24.3 2.1l3 1.3-.5 5.1 1.3 6.8-3.4 1.3-.9 3.8-.4 9.4-3.8 6.4-1.7 4.7-3-2.1-3-8.6-1.7-5.1-2.6-1.7 2.2-4.3 4.2-8 3-1.8 5.6-6.4 1.7-.8z"/></g><path d="M446.4 118.9c-8.5-1.3-.4-9-3.8-13.6-2.1.4-3.8 2.1-5.6 3.4-8.5-6.8-18.4-9.8-29-11.5-11.1-6.4-22.2-13.2-32.9-20.5-13.2-9.8-28.2-15.3-42.7-21.3.4-6 7.3-3 10.7-5.5-1.3-2.6-4.7-3.4-6.4-5.5 3-.4 6.4.9 10.2 0 5.1 3.4 8.1 8.5 12.4 12.4 3.4 5.1 10.7 2.1 13.2 8.5 8.1 12.4 21.4 16.2 32 23.9 8.1 2.6 19.2 6.4 27.3 1.3l-3.4-2.1c-6.4-.4-9.8-8.5-14.9-11.1-8.1 1.3-6.8-9.8-14.5-10.2-1.7-1.7-1.3-4.3-2.6-6-5.6-2.6-5.6-9.8-12-10.7-2.1-1.3-6-.8-6.4-3.8.8-1.3 2.1-.8 3-1.3l.9 1.3c4.7 2.6 9.4 5.1 14.1 8.5 1.7.4 4.3 0 4.7 3 3-.4 6.4 1.3 8.1 4.7 4.7.9 4.3 7.2 9.8 7.2 2.6 5.1 7.7 7.7 11.1 11.5 3 5.5 6.4 11.1 6.8 17.5 1.7-.4 3-2.1 4.3-3.4 10.3-14.9 4.7-36.7-4.3-50.3l2.6-1.3c-2.1-3-5.6-3-8.5-4.7-18.4-25.6-47.8-30.3-77.3-28.6-.4-1.7-.4-3.8-1.7-4.7-2.1-1.3-4.3 0-6 0 .4-1.3-.4-1.7-.4-2.6-1.3-1.7-3.4-1.7-5.6-1.7-3 3-4.3-1.3-6.8-1.7-4.7.4-8.5 3-12.4 6-1.3-.4-.4-2.1-1.3-2.6-9-.4-17.1 3.4-25.6 5.6-6.4 10.7-18.4 1.7-27.3 1.7-9.8.4-20.5-5.1-29.5.4-.4-.8-1.3-1.3-2.1-1.7-5.1-.8-13.2-2.6-16.7 3-.8-.9-2.6-.9-3.8-1.3-5.6.9-13.7-.8-16.2 5.5-5.1-1.3-10.2-.4-14.1 2.6-5.6 0-3.4 7.7-8.5 7.2-5.5 6-14.5 11.5-12.4 21.3l-1.7.9c-1.3 6-5.6 12.4-2.1 18.8-.4 6.8.9 12.8 5.5 17.5 0 3.4 0 7.3 3.8 9.4 1.3 11.5.4 24.7 1.7 36.7l3-3c3.8-3 6-7.7 8.1-11.9 0-3 1.7-6.4 0-8.5-1.3-.9-.9-3.4-1.3-3.4-.4.4-.4.9-.8.4-1.7-4.7-3.8-9.4-4.7-14.5-.9 0-1.7 0-2.1-.9 0-.8 0-1.7.8-2.1.4.4.4.9.4 1.3h.9c1.3-3.4 3.4-6.4 4.3-9.8 5.6.4 6.4-5.5 9.4-8.5 2.1 1.7.4 5.5 1.3 8.1 0 1.3 1.7 3 .4 3.8-1.3-2.1-1.7-5.5-2.6-7.7-1.3 3 .9 6 .4 8.9-.9-2.1-1.7-5.1-3.8-5.1.4 3 3 5.1 2.1 8.1-1.7-2.1-1.7-5.1-3.8-6.4.4 5.1 3.8 9.4 3.8 14.5-2.1-4.3-4.3-9.4-5.5-14.1-1.3-.4-1.3.8-1.3 1.7 3 5.1 4.3 11.1 5.1 16.2-2.1-4.7-3.4-9.8-6-14.1-.9 6.4 4.7 11.5 4.3 17.9-2.1-4.7-3.4-9.4-5.6-14.1h-.4c1.3 6 4.3 11.5 5.5 17.5 6.4-3 7.3-11.9 6.4-17.9-2.6-4.3 4.3-2.6 5.5-5.1 1.3-7.3 5.1.8 9-2.1 5.1-2.1 7.3-7.2 8.5-12.4l6-2.6c-1.7.4-4.7 1.3-6 0 4.3-.4 8.5-3 12.8-.8-3.8 4.7-9.4 8.5-8.5 15.3 5.1 11.5 4.7 24.7 12.4 35 1.3.8 3.4.4 4.3-.9.4-4.7-2.6-9.4-5.1-13.6.9-9.8-4.7-17.5-2.1-27.3.9-3 6.8-6 3.8-8.5-4.3-.4-.9-5.5-3-7.7 1.7-1.7-.4-3.8 1.3-4.7 1.7 6 1.7 13.2 7.7 16.6 2.1 3 6-.4 7.3 2.6l-.9.9c-1.3-1.3-3.4-.9-5.1 0 0 2.1-.4 5.1.4 7.2 9.8 9.8 6.4 24.7 12.4 36.2 1.7 2.1 1.7 6.8 5.6 6.8 2.6-2.1 1.3-5.1 1.3-7.7.4-8.5-3.4-16.2-4.3-23.4.4-7.2-9.8-8.9-7.7-16.6-.9-2.6-3.4-5.5-2.1-8.1 2.1.8 1.3 3.4 2.1 4.7 3 3.8 9 1.7 13.2 3.4 1.3 2.6 3.4.8 4.7-.9 1.3-.8 3 0 3.8 1.3l15.8.4c-.4.4-.9.4-1.3.9-.9 7.7 3 14.1 9.4 18.8l.4 14.1c3.8 8.5 12.8 14.9 18.8 22.6 15.8 9.4 32 18.3 50.8 20 29.5.4 60.2-4.3 80.3-29.8 2.6-.8 5.1 1.7 6.8-.8-.3-1 .5-1.9-.3-2.3zM323.8 88.6c-4.7-8.1-19.2-6.4-18.4-18.3 1.7 0 4.3 1.7 6 2.6l12 .4c2.6 2.1 4.7 6.4 8.1 6.4 4.3-.9 9-.9 12.4-3.4-1.7-3.8-6.4-3.8-9.4-6.4-.9-1.7-3-1.7-3-3.8l59.8 29.8c-7.7-2.6-17.9 0-25.2-3.8-13.3-3.9-27.8-5.6-42.3-3.5zm53 26.9c2.1 0 4.3-.8 6 .9 1.7-.9 5.5.9 6.8-1.7 2.1.8 4.3 2.6 6.8 3.4-7.3.4-14.1-.1-19.6-2.6zm24.7 3c-3-.9-5.1-3.8-8.1-4.3 6 0 12 0 18.4-1.3 3.8.4 7.7-.4 11.5.8-5.1 5.2-15.4 1.4-21.8 4.8z" class="E"/><g class="F"><path d="M335.8 5.5c2.1 0 4.7-3.4 6.8-.4-.4 5.1 4.3 1.3 7.3 3 1.7 3.8-3.4 6.8-3.8 10.2-1.3-2.6 1.3-6 .9-8.5-3 3.4-3.4 8.1-4.3 12.8-1.3-4.3.4-9.4.4-13.2-.8.4-1.7 2.1-2.1 3 .4 4.3-1.7 7.7-.9 11.1h-.8c0-5.1 0-8.9.4-14.1-.4-.4-.4-.9-1.3-.9-1.7 3.8-1.7 9.8-.9 14.9l-.8.4c-2.1-5.6-.4-11.9-1.7-17.1-1.3 3-1.3 6-1.7 9l.8 8.5c-1.3-.4-1.3-2.1-1.7-3-.4-3.8 0-7.2-.9-11.1-3 0-.4 3-1.7 4.7 0 3.4 1.3 7.2 1.7 11.1h-.9c-2.1-6-2.6-12.8-3-18.8-3 3.4-.4 8.5-1.3 13.2 1.3 2.1 1.3 4.7 1.3 6.4-3.8-3.8-3-10.7-3.4-16.6-.9-.4-.9.4-1.3.8-.9 6-.9 12.4 1.7 17.9-3.8-4.3-3.8-11.1-4.3-17.5-1.3.4-1.3 2.6-1.7 3.8-.4 4.7.9 8.1 2.1 11.9-3.8-3.4-3.8-9.4-3-14.9.8-.9.8-3 2.6-3.4l.4.4c3-3 6.8-4.7 9.8-6.8 3.6-1.1 2.7 2.8 5.3 3.2zm-18.8 0c-3 4.7-4.3 11.9-2.1 17.9-2.1.9-2.1-3-2.6-4.3-.9-3 .9-6 0-7.7-2.6 3-2.6 8.1-1.7 11.5-3-3.4-1.3-9.8-1.3-13.6-3 3-2.1 6.8-2.6 11.5-.8 0-.8-1.3-1.3-1.7-.9-3.4 1.3-6.8-.9-8.9-1.3 3-2.1 5.5-1.7 8.9-1.3 0-1.3-1.3-1.7-1.7-.4-2.6 1.3-4.3 0-6.4-2.6 1.3-1.7 4.7-2.6 7.2-2.1-.8-.4-4.3-1.3-5.1-1.7.4-1.3 3-2.6 3.8l-1.3-2.6a2.45 2.45 0 0 1-2.1 1.3c-1.3-2.1 2.1-3 3.4-4.3 6.8-2.6 14.5-3.8 20.9-6.4l1.5.6zm-83.7 6.4c.9 4.3-3.4 7.2-4.3 11.5-4.7 9.4-2.1 20.9-3.8 31.5-2.6-8.9-.9-17.5 0-26.4-2.6 1.3-2.1 5.1-3 7.7-.8 6.8-.4 15.8 1.3 22.6l-.4 1.7c-2.6-4.7-1.3-11.1-2.6-16.2 0-4.7.4-9.4.9-14.1.4 0 .8-.4.8-.4 0-.4.4-1.3-.4-1.7-6 9.4-1.7 19.6-2.1 30.3 0 .9.9 1.7.9 2.6l-.4.4c-3-7.7-3.4-18.3-2.6-27.3-.4-2.1 3-4.3 0-5.6-1.7 3-2.1 6.4-2.6 9.8 0 7.3 0 15.8 1.7 22.6-6.4-15.3-2.6-35 4.7-48.6 3.3-3 8-.4 11.9-.4zm81.1 15.8c4.3 4.7 9.4 9.8 14.5 13.2 0 .9-1.3 1.3-.8 2.1l.8.9 1.7-2.1c.9.9-1.3 2.1.9 2.6l1.3-1.3c.9.9-1.3 1.3 0 2.1.9 0 1.3-.9 1.7-.9 0 1.7 3.4 2.6 4.7 4.3-12.8-2.6-23.5-8.1-37.2-4.7l-1.7 1.3c-1.7-6 2.6-11.5 5.1-16.6v-.4c-11.1 8.9-6.8 25.6-4.3 37.1-4.7-6.8-4.3-17.9-4.7-26-3 3-1.3 8.5-1.7 11.9 1.3 5.5.8 11.1 3.4 15.3-4.7-7.2-5.6-14.9-6-24.3l-1.3 1.7c-1.3 8.1 1.3 16.2 3.8 23.4h-.9c-3.4-7.3-4.3-14.5-5.6-22.2-.4-.4-.9.4-1.3.9 0 6 1.3 10.2 2.1 16.2l2.6 6c-1.3 0-1.7-1.7-2.6-3-3.8-5.1-1.7-13.2-5.1-18.3-1.7 8.1 2.1 15.3 4.3 22.6-1.7-1.3-3-3.8-3.8-6-2.6-5.6-2.1-10.7-3.4-16.2-3 3.4.4 9.4 0 13.6 1.3 3.4 3.4 6.8 3.4 10.2-.9-.4-1.3-1.7-1.7-2.6-2.6-6-4.3-12.4-4.7-19.2-.9-.4-.4-1.3-1.3-1.3-1.3 8.5 1.7 16.6 4.3 23.9-4.7-7.2-6-15.8-7.3-24.3l-1.3 1.3c1.3 7.7 2.1 16.2 6 23-2.1.9-2.6-3.4-3.8-5.1-1.7-6-3.4-11.9-4.3-18.3h-.9c-.9 8.1 2.6 16.6 5.1 23.9-4.7-7.2-6-17.1-8.1-25.2-.4 0-.4.4-.9.9-.9 9.4 3.8 16.2 6 23.9-4.3-5.5-5.1-13.2-7.3-20 .4-1.3-1.3-3.8-1.7-5.1-1.7 2.1 0 5.1 0 7.2 1.3 6.4 3.8 11.9 5.6 17.9-1.3-.4-2.6-2.6-3-4.3-1.7-7.2-5.1-14.9-5.1-22.6-1.7-.4-1.3 1.3-1.7 1.7 0 5.5 2.6 11.1 2.6 17.1 1.7 2.6 2.6 6 4.7 8.5-3.8-.9-3.8-5.5-5.5-8.5-2.1-6.4-3.4-13.6-3.4-20-.9-.4-1.3-1.3-2.1 0-.9 9.8 2.6 19.2 6.4 28.1-3-.8-2.1-3.8-3.8-5.5-1.7-8.5-5.1-16.6-4.7-25.2-.8 0-1.3.9-1.7 1.3 0 10.7 2.6 20 6.8 29.4h-.9c-5.1-9.8-7.7-20.5-9.4-31.5h-.4c-1.3 11.9 3.4 20.9 7.3 30.7l-.9.8c-6.4-8.9-7.3-20.9-9.4-32-2.1 9.8 1.7 19.2 4.3 28.1.4.9 1.3 1.3.9 2.1-5.6-8.5-7.3-19.6-8.1-30.3-1.7 1.7-1.3 5.1-.8 7.2 1.7 7.7 2.1 16.2 6 23-6.4-7.2-6-17.5-8.5-26 0-1.3 1.3-3 .4-4.7-3 3.8-.9 9.4-.9 14.1 1.7 4.3 1.7 8.9 3 13.2-1.3-1.3-1.3-3.4-2.1-5.1-2.1-7.3-3-14.9-3.8-22.6-1.7.4-.4 3-1.7 4.3.4 7.7 2.6 15.3 4.7 23-4.7-9.4-6-21.3-4.7-32.4-.4-.4-.9-.9-1.3-.9-.9 2.1-.9 4.3-.9 6.4-.4 8.1 0 16.6 3 23.9-7.3-14.5-5.6-36.2 5.1-50.3 1.7-2.6 4.7-1.3 7.3-2.1 23.9 2.7 47.4 6.5 68.7 16.8zM402 20c9 4.7 17.5 9.8 24.3 18.3-3 .4-6.8-.9-10.7-.4 0-.9-.9-.9-.9-1.3-1.3 2.1-3.8.9-6 1.3.4-.9 3-1.7 1.7-3-2.6.8-3.8 3.4-6.8 2.6-.4-2.1 6-3.4 1.3-4.3-2.1 2.1-4.7 5.1-8.1 3.8l5.1-5.5c-.9-.4-.9-1.3-1.7-.8-3.4 2.1-5.1 7.7-9.8 6.4 3-2.6 4.7-6 6.4-8.5 0-.4-.4-.4-.9-.4-4.3 3.4-6.8 8.5-11.5 9.4V37c3.8-3 4.7-7.2 8.1-10.7l-.9-.4c-5.1 2.6-6.8 9.4-12.8 11.5l-.4-.4c4.3-3.8 6-8.5 9.8-12.4h-1.7c-3.8 3.8-7.3 8.9-12 12.4 1.7-5.1 6.8-8.5 9-13.6 0-.4-.9-.4-.9-.4l-12.4 13.6c0-4.3 6-7.7 7.3-11.9 0-.9 3-1.7 1.3-3.4-6 3.8-9 11.1-14.1 15.3.9-3 3-5.1 4.7-7.7.9-3.4 4.3-5.5 6-8.9-3.8.9-7.3 6-9.8 9.4-.4 2.6-3.8 4.3-4.7 6.8 3-6.4 5.5-12.4 10.2-17.9 0-.9-.8-.4-.8-.4-5.6 5.5-9.8 11.5-13.7 17.9l-.4-.4c1.7-4.3 3.4-8.5 6.4-12.4.9-2.1 2.1-3.4 3.4-5.1l-.9-.8c-5.1 5.1-9.4 11.5-12.8 17.5.4-4.3 4.3-8.1 6-12.8.4-1.3 2.1-2.6 2.6-4.3-3.4 0-6 5.1-7.7 8.5-2.6 1.7-3 4.7-4.3 7.2-.8-6 4.7-11.1 7.3-16.2l-.4-.4c-4.3 3-6.8 8.1-9 12.4-.4-5.1 3.8-9.8 6-14.5 17.6-3 34.6-2.2 49.2 5.5zm-186.7-4.7c-4.3 12.4-8.5 29.8-2.6 43.5v.8h-.4c-3.8-8.5-4.7-19.2-4.3-28.6-1.7 2.6-2.6 6.4-2.1 10.2.4 6.8 1.7 13.2 3.4 19.6-3.4-4.3-2.1-9.8-4.7-14.5l-.4-14.5c-1.7 1.7 0 3.4-1.3 6-.8 8.1 1.7 17.1 4.3 25.2h-.9c-4.7-9.4-5.1-19.6-5.1-29.8-.9 0-.9.4-1.3.9-1.7 11.5.4 20.9 4.3 30.3-2.6-1.7-3-5.1-3.8-7.7-3.4-11.5-2.6-24.7-.9-35.8.9-2.1.9-5.1 3.8-6.4 3.8 0 6.8-.8 10.7-.8l1.3 1.6zM195.7 20c-2.1 14.5-2.6 29.8 3.4 43.5h-.9c-3.4-7.7-4.7-16.2-6.8-24.3l-1.3.9c.9 8.9 4.3 17.9 6.4 26-1.7-4.3-3-8.5-4.7-12.8-2.1-6.8-4.3-14.5-3.4-21.7-1.7-.8-.9 2.6-1.7 3.8-.4 5.5 2.1 9 1.3 14.1 1.3 6.4 6 11.9 6 18.8-1.3-1.3-1.3-3.4-1.7-5.1-3.8-10.2-9-20.9-8.1-32-1.7 0 0 1.7-1.3 2.6-1.7 12.8 6 23.4 8.5 35.4h-.4c-6-14.5-13.2-29-9-45.6 3.4-3 7.7-5.1 12.4-5.1l1.3 1.5z"/></g><path d="M344.3 32.8c-2.6 1.3-5.6 0-8.1-.4l-.4-2.1-6.4.4c.4 0 5.1-3.4 8.1-3.4 2.6.9 4.3-1.7 5.6 1.3-1.4 1.6.3 2.9 1.2 4.2z" fill="#fff"/><path d="M179.9 48.6c1.7 6.4 4.3 11.1 6.8 17.5l-.4.4c-4.3-8.9-10.2-17.5-10.2-28.1l-.9-.4c-2.1 11.9 6 21.3 9.8 32-3.8-6.8-8.5-14.1-11.1-21.7l-1.3 1.3c2.1 8.1 7.3 14.9 10.2 22.6-4.3-6.8-9-14.9-12.8-22.2-.4.4-.4 1.3-.4 2.1 1.3 3 2.6 6.4 4.3 9.4 2.6 4.3 6 8.1 7.3 12.8v.4c-6-9-13.7-17.5-14.9-28.6-2.6-8.1 6.4-12.4 10.7-17.5.8 6.3-.5 14.4 2.9 20z" class="F"/><g class="E"><path d="M307.6 30.7c-3 3.4-4.7 8.1-5.6 11.9h-1.3c.9-4.7 3-9 6.9-11.9zm3 1.2c-3.8 3-3.8 8.5-6.4 10.2.4-3.8 2.6-7.2 6-10.2h.4zm3 .5c-.9 3.4-4.3 6-5.1 9.4-1.7-1.3 1.7-3.4 1.7-5.1 1.2-1.4 2.1-3.5 3.4-4.3z"/></g><path d="M331.5 34.1c-.9 1.7.4 3.4.9 5.1-1.3-1.7-5.1-2.6-7.3-4.7 1.7-.4 4.7-1.3 6.4-.4z" class="F"/><path d="M317.4 34.5c-1.7 2.1-4.3 4.3-5.1 6.8h-.9c.4-3 3-6 6-6.8z" class="E"/><path d="M415.6 40c6.8 1.3 13.2.4 20.1 2.6-15.8-.9-36.7-2.1-52.9-.4-.9.8-.4 1.7-.4 2.1l-1.7-1.3c-14.5-.8-30.3.4-44-3-1.3-.9-3-2.1-2.1-4.3 26.8 4.8 54.1 4.8 81 4.3z" class="F"/><g class="E"><path d="M318.7 37c-.9 1.7-2.6 2.6-3 4.7-.4-1.7.9-3.8 2.6-5.1l.4.4zm0 5.2c-.4-.9.9-2.6 2.1-3.8.9 1.2-.8 2.9-2.1 3.8zm3.4.8c-.4-.4.4-2.1 1.7-3 .4 1.3-1.3 2.2-1.7 3zm3.8-.8c.4.9-.4.9-.9 1.3v-1.3h.9z"/></g><g class="F"><path d="M387.4 44.3c-1.3.9-1.3 3-3 2.6.5-1.3 1.3-3 3-2.6zm5.2 0c-1.3 1.3-1.7 3-3.8 3.8-.1-1.7 2.1-3 3.8-3.8zm5.9 0l-6.4 6c.5-3 3.5-6.4 6.4-6zm5.6 0c-3 3-5.6 5.1-7.7 8.5l-.8-.8c2.5-3 4.2-7.7 8.5-7.7zm4.7 0c-3 2.6-4.3 6.8-8.1 8.9h-.9c1.7-3.4 4.3-6.8 7.7-8.9h1.3zm6 0c-4.3 3.4-7.3 7.7-11.1 11.1 1.7-3.9 5.9-10.3 11.1-11.1zm5.5 0c-4.3 4.3-8.5 7.2-12 12.4H407c3-4.7 6.4-8.5 10.7-12.4h2.6zm-10.7 13.6c6.4-4.3 8.5-11.9 15.8-13.6l-15.8 15.3v-1.7zM322.5 46c-1.3.8-4.3.8-6 1.3-1.3 2.6-2.6 5.5-6 6-2.6 0-6.4.9-7.7-2.1-.9-2.1-.4-5.1 1.7-6 5.6-.9 12 .4 18 .8zm30.3-.9s0 .9-.4.9c-.4.4-.4 0-.8 0 0-.9.8-.9 1.2-.9zm4.7 0l-1.7 2.6c-.9-.4 0-2.1.8-2.6.1-.4.5 0 .9 0zm82 10.7c.9 2.6 1.3 5.5 3 8.5a116.28 116.28 0 0 0-16.7 10.2c1.3-3 5.1-5.1 7.7-7.7 2.1-1.7 5.1-3 6.8-5.1-6.4.4-11.5 6-17.1 10.2l.9-2.6c4.7-3.8 9.4-8.5 14.5-11.1l-1.3-1.3c-6 3-11.5 7.2-16.7 11.9l-.4-.4c4.7-6 10.7-9.8 16.2-14.9-.4-.8-1.3 0-1.7-.4-6.4 2.6-11.5 9-17.5 13.2 3.8-6.8 11.1-11.1 16.7-15.8-2.6-1.3-5.1 2.1-7.7 3l-10.7 10.7V63c5.1-5.5 9.4-11.1 14.9-15.8-.4-.4-.9-.4-1.7-.4-5.6 4.3-10.7 9-15.8 14.9 3.4-6 8.1-11.9 14.5-16.6 6.6-1.2 9.6 6.4 12.1 10.7zM361.4 46c-1.3 1.3-1.7 3.4-3 5.1-.4-2.1.4-5.1 3-5.1z"/></g><path d="M312.3 48.6c-.4 1.3-1.3 3.4-3 3.4s-3-.9-3.8-2.1c0-1.7.9-2.6 1.7-3.4 2.1-.9 4.2.4 5.1 2.1z" class="E"/><g class="F"><path d="M366.1 46c-.9 3-4.3 4.7-4.7 7.7-.9-2.6 1.3-6.9 4.7-7.7zm-1.7 9.8c0-3.4 3-7.2 6-9.8-.5 3.4-4.3 6.4-6 9.8zm3 2.1c1.7-4.3 4.3-8.5 8.5-11.9-.8 4.3-5.5 8.5-8.5 11.9zM322.5 52c.4-.4 1.7-2.6 2.6-2.6 0 .4.4 1.7-.4 1.7 1.7 2.6 3-1.7 4.7-1.7-.4.9-.4 3.8-2.1 4.7-3-.9-7.3-1.3-9.8-1.3.4-.4.9-1.7.4-1.7h.4c0 .4.9.9.9.9 1.7 0 1.3-1.7 2.6-2.6-.1.9-.6 2.1.7 2.6zM176 72c.4 1.3 1.7 2.6 2.6 3.8-2.1-.9-3.4-3.8-5.6-5.5-3-3-5.6-6.8-7.7-9.8-.9 4.7 4.7 7.7 6 11.9 2.1 2.1 5.6 3.8 4.7 7.2-3.4-5.5-8.5-9.8-12.4-15.3v2.1c3 6 9 10.7 10.7 16.6-2.6-5.5-8.5-11.1-13.2-16.2-2.1-6.4.9-11.5 2.6-16.6 2.1 7.7 6.4 15.4 12.3 21.8zm204.6-21.3c-.4 2.1-2.6 2.6-3.8 3.8l-4.7 6.4c-.4-4.7 3.8-8.5 7.3-10.7.3.1 1.2-.4 1.2.5zm4.7 1.7c-3 4.3-8.1 7.7-10.3 11.9 0-4.7 4.3-10.2 9.4-12.4l.9.5zm-84.1 4.7l-.4-3.4c1.7.8-.1 2.1.4 3.4zm87.5-2.2c-3 3.8-8.5 7.7-10.7 12.4h-.4c1.3-5.1 6-9.8 10.2-12.8l.9.4zm-70.9 7.7c.9-2.1-.4-4.7.9-6.8.4 1.3-.4 4.7.8 6 3 0 1.3-4.3 3-5.5 1.7.4-1.7 4.3 1.3 5.5 2.1-.8.9-3.8 2.1-5.1 3.8 7.7-5.5 4.3-9 6.8-2.1 0-2.1-2.6-3-3.8l.9-4.3c.9 2.5-.4 5.9 3 7.2zm-13.2-6.8c-.4 2.6 1.7 4.7 1.7 7.7-1.7-2.6-2.6-5.1-2.6-7.7h.9zm7.7 0c-.9 2.6-.9 5.5.9 8.1-.9.8-3.4 1.3-4.7 1.3h.4c.4-3-2.6-6.4-.4-8.9 0 2.6 0 6.4 2.1 7.7 1.7-2.7-1.3-6.5 1.7-8.2zM302 59.6l-.4-1.7.4.5v1.2zm89.3-1.2c-3.4 3.4-8.5 7.2-10.3 11.9.4-5.1 4.7-10.7 9.8-11.9h.5zM349.9 66c32.5 14.9 60.6 39.7 93.5 53.3-13.7-4.3-27.3-12.4-40.6-20-10.7-6-21.4-13.2-32.5-20-12.8-6.8-26.1-14.1-40.6-17.9-.9-.8 0-1.7.4-3 6.5 3.4 13.3 3.4 19.8 7.6zm43.9-5.1c-3.4 4.3-7.7 7.7-10.3 11.9 1.4-4.2 4.8-10.6 10.3-11.9zm-67 3.4l-5.1 2.6c.4-2.1 3.4-2.6 5.1-2.6zm69.2 0c-3.4 3.8-6 7.7-9 11.1.4-4.7 4.3-10.2 9-11.1zm-168.7.9h-1.7c0-1.3 1.7-.9 1.7 0zm-23.5 11.9h-.4l-.9-6c-3 .4-.4 4.7-2.1 6.8-.9-2.6-.9-6-.9-9.4-3.8 1.7-1.7 5.1-1.7 8.5-2.1-.9.4-7.7-3.4-5.1V77c-1.7-.4.4-4.3-2.6-3.8-1.3 2.1 0 4.3.4 6.4-1.7-1.3-.9-4.3-1.7-6.4 3.4-1.3 6.8-3.8 9.4-6.8 1.3.4 1.7 3 3.4 1.7l3.8-2.1c.5 3.4.5 9-3.3 11.1zm114.9-6.8c-.4-.9 0-3 .4-4.3.4 1.3 1.7 4.3-.4 4.3zm-3 .8c-.4-1.3 0-3.4 1.3-4.7-.9 1.3 0 3.5-1.3 4.7zm8.5-1.7c-.9-.9 1.3-2.6 2.1-3h.4l-2.5 3zM226 67.7h-2.6c0-1.7 1.8-.4 2.6 0zm86.7 2.6c-.9-.9 0-3 .9-3.4.8 1.3-.9 2.1-.9 3.4zm130.3-3v.8c-3.8 3-8.5 4.3-12.4 7.7l-2.1.4c4.3-3.8 9-7.2 14.1-9.4l.4.5zm-132.9 1.3c-.9 0-1.3 0-1.3-.8h1.3v.8zm88-.9c-3 3.4-5.6 6.4-7.7 10.2.4-4.2 3.9-8.5 7.7-10.2zm-93.5.9c-1.7-.8-2.1 1.3-3.8.9.8-.5 2.5-1.3 3.8-.9zm32 6.4c-.4 0-.9-.9-1.3-1.3 0 1.3-1.3 1.7-2.1 2.6l-.4-.4 1.7-2.1c-.4-.4-.8-.9-1.7-.9-.4 1.3-1.3 2.1-2.6 2.6.4-.4 1.7-2.1 2.1-3.4l-.8-.9c-1.3.9-2.6 1.7-3.8 2.1.4-.4 2.1-1.3 2.1-3-1.3-.9-2.6.4-3.8.8l2.1-2.6 8.5 5.5v1zm-112.7-4.7h-2.6v-.4c.9 0 2.1-.5 2.6.4zm75.6-.4c-.4.4-.9 0-1.3.4 0-.9.8-.4 1.3-.4zm102.5 0c-2.1 3.4-5.6 6.4-8.1 9.4 1.6-3.5 3.4-8.6 8.1-9.4zm-106.8 1.2l.4-.8 1.3.8h-1.7zm6.8.9c-4.7.4-10.7 2.6-15.4 6-1.3 2.1-3.4 2.1-5.1 3.8.9-3.4 4.7-4.3 6.8-6.4 2.1-.8 3.8-2.1 6-3.4l-1.7-.9c3.4 2.6 6-1.2 9.4.9zm141.8 0c-3.4 3.8-8.1 4.7-12 6.8 3-3.8 7.3-5.5 11.1-7.7l.9.9zm-272 12.8c-2.1-2.1-4.3-5.1-7.3-7.7-.9.4 0 1.3-.4 1.7 2.1 2.6 6.4 5.1 6 8.9-1.3 0-.4-1.7-1.3-2.1-3.4-3.8-7.7-7.7-7.7-13.6 3.8 3.8 9 8.1 10.7 12.8zm49.9-11.9c-.4 0-1.3 0-1.3.4l-.4-.4c.5 0 1.3-1.3 1.7 0zm70.1-.9c-.4.9-1.3.4-1.7.4 0-.4.8 0 1.7-.4zM241 73.3c0 .8-2.1 0-2.6.8.4-.8 1.7-1.7 2.6-.8zm47.8-.4c-1.7 0-2.6 2.1-4.3 1.3 1.3-.5 2.6-1.3 4.3-1.3zm114.9 0c-2.1 3-4.3 6.4-6.8 8.9 1.2-3.4 3.3-7.2 6.8-8.9zm-100.8 1.2v.4c-6.8 2.1-13.2 5.1-18.4 10.2 1.7-3.8 7.3-7.3 11.5-9.4 2.2-1.2 4.7-1.2 6.9-1.2z"/></g></g><path d="M224.7 73.3h-.4v.8h.4v-.8z" class="F"/><g class="G"><g class="F"><path d="M283.7 74.6c-.4.9-1.3.4-1.7.4.4-.9 1.2-.4 1.7-.4zm-41.9 1.2v.9c-1.3-.9-2.6 0-3.8.4.8-1.3 2.5-2.5 3.8-1.3zm158.9 7.7c-.9-3 2.1-6 4.7-8.1 0 2.6-3 5.1-4.7 8.1zm43.1-7.7c0 3.4-3.8 2.6-5.6 4.7-1.7.4-3.8 2.6-5.6 2.1 3.1-2.9 7.4-4.6 11.2-6.8z"/></g><path d="M259.3 77.1c1.3-1.7 4.3-.9 6-.4-1.3 10.7 11.5 15.4 10.3 26 4.7 5.1 8.5 10.7 9 17.9-.9 1.3-3 .8-3.8.4-5.1-5.5-6.8-12.8-12.4-18.3-1.7-2.1 0-5.1-1.3-7.2-5.1-6-9-11.9-10.7-19.2 1.2.4 2.1 1.7 2.9.8z" class="E"/><g class="F"><path d="M303.7 77.1c-6 2.6-12 5.5-17.1 11.1.4-1.7 2.1-4.3 4.3-5.1 3.9-3.4 7.7-5.6 12.8-6zm-79.4 13.2c0 2.6 0 5.5 1.3 7.7-3 .4-2.1-3-3-5.5-2.6-4.3-3-9.4-3.8-14.5 1.3-.4 2.1-.8 2.6.9.3 4.2.8 8 2.9 11.4zm179.4-5.1c0-2.6 3-5.5 5.1-8.1-.9 3-3.4 5.6-5.1 8.1zm-161-6.8c-.4 2.1-2.1-.4-2.6 1.7l-.9-.8c.9-.5 2.2-2.6 3.5-.9zm20.9 0l-3.4.9c0-2.2 2.1-1.3 3.4-.9zm143.9 8.1c-.4-2.1 2.1-6 4.7-7.2l-4.7 7.2zm-98.2-4.3c-6.4 2.1-13.2 6-17.9 11.5 3-5.1 9-8.5 14.1-11.5 0-.9-.4-1.3-.8-1.3-3 .4-5.1 2.1-7.3 3.4l-6.8 6.8-.4-.8c4.6-5.1 11.4-13.6 19.1-8.1zm-44.4-.4c0 1.3 0 2.6 1.3 3-1.3.4-2.6 1.3-4.3 1.3 0-2.1 5.1-1.3 2.1-3.8l-3.4.4c.4-1.3 1.3-1.3 2.1-1.7.9 0 1.3 0 2.2.8zm178.9-.8c-2.1 3-6 3.8-9.4 5.1v-.9c3-1.3 6-3.4 9.4-4.2zm-33.3 7.2c.9-2.6 2.1-5.1 4.3-6.8-.9 1.7-2.2 5.1-4.3 6.8zm3.8.4c-.9-1.7 2.1-4.3 3-5.5-.4 1.7-1.7 4.3-3 5.5zm-166.1-1.2c2.6 5.1 1.7 10.7 4.3 15.3-1.7 0-2.6-.4-4.3.4l1.7-2.1-3-.4c1.3-.4 2.6-.4 2.6-2.1-.9-.8-1.7.9-3-.4 0-1.3 2.6-.9 2.1-2.6l-3-.4c.9-.9 2.1-1.3 2.1-3l-2.1-.4c.4-.9 2.1-.4 1.3-1.7-.4-.9-1.3-.4-2.1-.4l1.7-2.1c-.9-.9-2.1-.4-3-.4l1.7-2.1c-.9-1.7-1.7.4-3-.4 2.6-3.2 4.7.6 6 2.8zm65.4-3c0 .9.4.9.9 1.3.8-.8 1.7-.8 3 0-9.8 3.8-20.1 10.7-26 19.6 3-7.7 9.8-13.6 17.5-16.6.8-2.1 3.4-.9 3.4-3.4-8.1 1.3-14.5 7.7-20.9 13.2 4.5-7.7 13.1-14.6 22.1-14.1zm129.8.8c-1.7 2.6-4.7 4.3-7.7 4.3 2.6-1.7 5.1-3 7.7-4.3zm-23.5.4c-.4 1.7-2.1 3.4-3.4 4.7.4-1.7.8-4.2 3.4-4.7zM267 87.8c0 .9-1.7.9-2.6 1.3l-.4-.4 2.1-2.1.9 1.2zm-98.6 3.4c-.4-1.3-2.1-2.1-1.3-3.8.8.8 1.3 2.5 1.3 3.8zm254.1-3.8c.4 1.3-1.3 2.6-2.1 3.8h-.4c.3-1.7 1.2-3 2.5-3.8zm-102.5.8c-1.3 2.1-5.1 2.6-7.7 4.3-6.8 3.8-13.7 9.8-18.4 16.2h.4v.4h-.4c-.4-4.3 4.7-7.2 6.8-10.7 5.1-4.3 10.7-7.7 16.7-10.7l2.6.5zm104.2 3h-.9l1.7-2.6c.4.5-.4 1.7-.8 2.6zm-155.9-.9c-.9 0-1.3 1.7-2.1.9 0-.9 1.2-1.7 2.1-.9zm159.7-.4c0 .4-.4.4-.4.4v-.4h.4zm-100.8 7.3c3-1.7 5.5-5.1 9-6.8h.4c-.9 2.1-6 3.8-4.3 6.8 2.1-2.1 5.1-5.1 8.1-6.8-1.3 2.6-5.1 4.7-4.3 7.7l8.1-7.7.4.8c-1.3 2.1-5.1 4.3-4.3 7.2 3-1.3 4.7-5.5 8.1-7.2-.9 3-5.1 5.1-4.3 8.1 2.6-1.7 4.3-4.3 6.4-6.4.4-.8 1.3-.8 2.1-.8-1.3 3-3.8 5.1-5.5 8.1l.9.9c2.6-2.6 4.7-6 8.1-8.5-.8 3.8-5.6 6-4.7 9.8 2.1-1.3 3.4-4.3 5.1-6.4.9-.9 2.1-2.6 3.4-2.6-1.7 3-4.3 6.8-4.7 9.8 2.1 0 3-3 3.4-4.7 1.7-1.3 2.6-3.8 4.7-4.3-1.7 3.8-5.1 7.7-5.1 11.5h.8c2.1-3.4 3.4-7.2 6.4-10.2 1.7 3.4-2.1 6.4-3 9.8-.8 3.8-3.4 8.1.9 11.1 6.4 2.1 12.4 1.3 18.4 3.8 8.1.9 18.8 1.7 26.1-.9 5.1.4 10.7-.4 15.4-2.1 2.6 4.3 2.6 11.1.9 15.3-.9-3.8-1.3-8.5-2.6-12.8h-.8c-.9 4.3.4 11.1-.4 15.8h-.9c.9-6-.8-10.7-3-14.9-.4 5.1.4 11.9-.8 16.6l-.9-.8c.4-4.7-.9-10.2-2.1-14.5h-.4c-.4 6 1.3 11.9-1.3 17.5-.8-5.1-1.3-11.5-2.1-16.2h-.4c-1.7 5.5 1.3 13.2-2.1 17.9-1.3-5.5-.9-8.9-.9-14.9.9-.9.4-1.7.4-3 0 0-.4-.4-.9 0-1.3 1.7-1.7 4.7-1.3 6.8-1.7 4.7.9 9.4-2.1 12.4-1.7-6 1.3-13.2-.8-18.3-2.1.9-.4 3.8-2.1 5.1-1.3 4.3 1.3 11.5-2.1 14.9 0-5.6.9-13.6.9-19.6-.4 0-.9.4-1.3.8-1.3 6.4-.8 13.2-3.4 19.2h-.8c.4-5.5 1.3-13.2 2.1-19.2-.4-.4-.4-.8-1.3-.8-2.1 3.8-2.6 8.5-3 12.8-1.3 2.6 0 7.2-2.6 9 .4-4.7.9-11.5 1.7-16.2l-.8-.9c-3.4 5.1-3.4 11.9-5.1 17.9l-.4-.8c-.4-7.7 2.1-14.9 2.1-21.3-.4 0-.9.4-.9.8-1.3 6.8-4.3 12.4-4.7 19.2-.4 1.3-.4 2.6-1.3 3.4-.4-8.5 2.6-14.9 2.6-23-4.3 4.7-3.4 11.5-5.6 17.1-1.7 1.7-.4 5.6-3 6 1.3-8.5 4.7-15.8 5.1-23.9-3.8 3.8-4.3 9.8-6.4 14.5-1.3 3-1.3 7.7-4.3 9.4l6.4-23.9c-3-.4-2.1 4.3-3.8 6 .4 2.1-1.7 2.6-1.7 4.3-2.1 4.3-2.1 10.2-6 13.2 1.3-8.5 6.4-16.2 6.8-24.7-.4 1.3-2.1 1.7-2.6 3.4-3 7.2-4.7 14.5-9 21.3-.4-5.1 2.6-9.8 3.4-14.9 1.7-3.4 3-7.2 3-10.7-3.4 6-6.8 13.2-9 20-1.7 1.3 0 4.3-3 4.3 2.1-7.7 5.1-14.9 7.7-22.2.4-.9 3-1.7 1.3-3-5.6 7.2-8.5 15.8-12.8 23.9.9-8.1 4.7-16.2 8.5-23.4l-.4-.4c-5.6 6.8-9 14.9-12 23 .4-8.1 4.7-15.8 7.7-23.4v-.9h-.9c-4.3 7.2-8.1 14.5-11.5 22.2 0-8.9 6-16.2 9-23.9 0 0-.4-.4-.8-.4-5.1 7.2-9 14.5-12.4 22.2-.4 0-.9-.4-1.3-.9 3.4-7.7 6-15.8 10.7-22.2h-.8c-5.1 6.4-9.8 14.1-14.1 20.9 1.3-6.8 6-12.8 9-19.6.8-.8 2.1-2.1 1.7-3.4l-.4-.4c-5.1 6.4-11.1 12.8-13.7 20.9l-.4.4c1.7-8.1 6-15.8 10.7-23-2.6 0-3.8 4.3-5.5 6-3.8 4.7-6.8 9.8-9.4 14.9h-.9c2.6-8.5 7.7-15.3 12-23l-.9-.4c-6 6-10.3 14.5-14.5 21.7 1.3-8.1 7.7-15.8 12-23l-.4-.4c-6.8 6-11.1 13.6-15 21.3h-.4c3-8.5 7.7-15.8 12.4-23.4l-.4-.9c-6 6.4-10.3 13.6-14.5 20.5 1.7-7.2 7.7-14.9 12.8-22.2-.4-.4-1.3 0-1.7 0a95.08 95.08 0 0 0-14.5 20.5c2.1-8.5 8.1-15.8 13.7-23-.8-1.3-1.3.4-1.7.4-5.6 6-9.8 12.8-14.1 19.6-.9-3.8 4.3-6.4 4.3-10.7 6-6.8 11.5-14.1 17.9-19.6-.9 1.7-3 3.8-2.6 6 3-1.7 4.3-6 7.7-6.8-.6.9-4.9 3.9-4.5 6.5zm111.1-3l-.9-.9c.4-1.3 2.6-1.3 3.4-2.1.9.4-1.3 2.1-2.5 3zm-137.6 24.3c1.3-2.1 1.7-4.3 2.6-6.8 3-4.7 7.3-8.5 10.7-13.2h-1.7c-5.1 5.5-11.5 9.4-13.7 16.2h-.9c2.6-7.7 9.4-16.2 17.1-17.5l7.3-5.5c-7.7 8.9-15.4 17.4-21.4 26.8zm-25.6-12.8l-.4.4-1.3-1.3.4-.4c-.4-1.3-1.3-.4-2.1-1.3 0-.4.9-1.3.9-1.7-2.6-.4.9-3-2.1-3l.8-1.3-1.7-.9c.4-.9 1.3-.9.9-1.7-.4-.9-1.3-.4-1.7-.4.4-.9 3-2.1 3.4 0-.5 4.8 2.1 7.7 2.9 11.6zm-99.9-4.7c1.7 4.7 4.3 9.8 2.6 14.9-1.7-7.3-3-15.4-5.1-22.6 1.2 2.2 1.6 5.1 2.5 7.7zm221.6-1.7c3 2.6-.4 6.4 0 9.4-.4.9-.4 1.7-1.3 2.1-1.3-2.6 0-6.4.4-9.4-.8-.4-.8-1.3-1.7-.9-2.1 3.4-.9 8.5-3.8 10.7 0-3 .4-7.7.9-10.7-2.1.9-2.6 3.8-2.6 6-1.7 1.7 0 6-3.4 6 .9-3.4 1.7-8.5 2.6-12.4-2.1.8-3 3.4-3.4 5.1-.4 3-1.3 6-3.4 7.2.4-3.8 2.6-8.5 2.6-12.4-3 1.3-3 5.5-4.3 8.1-.4 1.7-1.3 3.4-2.6 5.1-.9-4.3 3-9.4 2.1-14.1-3.4 3.8-3.8 9.4-6.4 14.1h-.9c.4-4.7 2.6-9.4 4.7-14.1-3-.4-3 3.4-4.7 5.1 0 3.4-2.6 6-3.4 9-.4-5.6 3.8-9.8 3.4-14.9-3.4 3.4-4.3 9-6.8 13.2-1.3-.9.4-4.7 1.3-6.8.9-2.6 3-5.5 4.3-7.7 8.1-.7 17.5 1.4 26.4 2.3zm-221.6 22.2c-.9-8.1-2.6-15.8-4.3-23.4 1.7 7.6 5.6 14.4 4.3 23.4zm246.4-15.8c-3-.4-1.3-2.1-2.6-3.4l-2.1 1.7c.4-4.7-3.8-1.3-5.1-4.3 3 2.1 10.7.4 9.8 6zm-193.5 2.5l2.1 3c-2.6-1.3-5.1-6.4-5.1-9.8 2.2 1.3 2.2 4.3 3 6.8zm172.6 2.6c-.4.4-.9 1.3-1.3.9-.4-3 .9-6.4 1.3-9.8 3.4 1.7 0 5.9 0 8.9zm25.6-3.4c-.9.9-1.7 0-2.6-.9l-.4-3.4c2.1.4 2.6 2.6 3 4.3zm-20.1-2.1c-.9 2.1 0 5.1-2.1 6-.9-2.1.9-5.5.9-7.2l1.2 1.2zm-234.9 4.2l-1.2-4.2 1.2 3.8v.4zm258.4-1.7v1.3c-1.7.9-1.3-2.1-1.7-3.4.9.4 1.7.8 1.7 2.1zm-176.4 4.7c-.9 1.7-.4 3.8 0 5.5-2.6-1.7-2.6-8.1-3.4-11.5 3 0 2.2 3.9 3.4 6zm156.3-2.1c-.4 0-.9.9-1.3.4l.4-4.3c2.2 0 .9 2.6.9 3.9zm24.4-1.3c-.9.4-1.3.9-2.1.9l-.4-2.6 2.5 1.7zm-20.5.4c0 .4-.4.9-.9.9l-.4-1.7c.4-.5.9.4 1.3.8zm-132 8.1c-1.7-3-4.7-6-5.1-8.5 3 2.5 4.3 5.1 5.1 8.5zm158-7.7c.9.9.4 2.6.4 3.8h-1.7c.9-1.6-1.7-3.8 1.3-3.8zm-23 .9l-.9-.4h.9v.4zm20 .4c0 .9-.9.9-.9 1.3-.9 0-.9 0-.9-.4.6-.4 1-1.3 1.8-.9zM172.2 124l-.9-.8v-9.8c.9 2.9 1.8 7.2.9 10.6zm256.7-6.8c0 4.3.9 9.4-.9 12.8-.8-3.8 0-9.4-2.6-12.8.9-1.7 2.6-.9 3.5 0zm3 9.4l-.4.4-1.3-9.8c3.8 1.7 1.7 6.8 1.7 9.4zm5.1-5.6l-2.1 3-.4-4.3c.8.5 2 .1 2.5 1.3z"/></g><path d="M389.6 126.6c-1.7.4-.4 2.1-1.3 2.6l.4-4.3c.9 0 .4 1.2.9 1.7z" class="E"/></g><defs><path id="A" d="M132.9 156c40.6-39.6 96.1-64.4 157.2-64.4 61.5 0 117 24.7 157.6 64.4h47.4c-47.4-60.5-121.7-99.8-205-99.8-82.9 0-157.2 39.2-204.6 99.8h47.4z"/><path id="B" d="M26.2 269.4c-6.4 0-12.4-2.6-17.1-6.8-4.3-4.7-6.8-10.7-6.8-17V150c0-6 2.6-11.9 6.8-16.6 4.7-4.3 10.7-6.8 17.1-6.8h522.7c6 0 12 2.6 16.7 6.8 4.3 4.7 6.8 10.7 6.8 16.6v95.5c0 13.2-10.7 23.9-23.5 23.9H26.2z"/><path id="C" d="M548.9 259.2c7.3 0 13.2-6 13.2-13.6V150c0-7.3-6-13.2-13.2-13.2H26.1c-7.3 0-13.7 6-13.7 13.2v95.5c0 7.7 6.4 13.6 13.7 13.6l522.8.1z"/></defs></svg>