<svg xmlns="http://www.w3.org/2000/svg" width="800" height="398" viewBox="0 0 211 105"><path d="M156.42 35.082L21.562 9.272C8.48 6.77 1.103 10.7 11.215 19.725l20.1 20.066c1.212 2.746 7.092 7.014 3.532 13.115L18.31 73.635c-4 6.405-1.195 10.67 7.784 8.67l119.978-42.444c11.03-3.267 21.138-3.614 10.346-4.78z" fill="#97a8d3" fill-rule="evenodd"/><path d="M155.48 37.53l-134.67-25.8C10.254 9.85 2.426 10.388 12.6 21.7l18.725 19.78c1.212 2.746 11.25 5.48 7.69 11.583L20.31 71.222c-4.167 3.907-4.278 10.896 5.22 8.514L141.196 39.26c10.092-2.325 24.326-.187 14.285-1.73z" fill="none" stroke="#fcdd2a" stroke-width="1.804"/><path d="M26.306 39.364L183.624 9.388c13.557-2.583 22.08.884 10.284 11.378l-21.66 24.068c-1.414 3.19-3.934 5.604.22 12.7l14.44 25.6c4.668 7.44 2.16 13.916-8.314 11.596L24.337 63.213c-12.867-3.794-10.62-22.495 1.97-23.85z" fill="#fcdd2a" fill-rule="evenodd"/><path d="M27.4 42.208l157.1-29.976c11.72-2.093 18.466-1.457 8.314 10.064L172.247 45.27c-1.414 3.19-3.934 5.604.22 12.69l13.128 23.63c3.367 6.345 4.194 13.037-6.345 11.16L26.963 61.244C15.2 58.544 15.686 44 27.4 42.208z" fill="none" stroke="#0a68b0" stroke-width="2.1"/><path d="M21.365 66.1l4.63-7.46c3.34 3.604 13.275 4.798 13.246.853-.018-2.437-.404-2.092-2.48-3.166s-8.993-2.506-9.808-9.45c-.902-4.77 1.852-9.663 6.292-11.543 5.806-2.46 13.443-1.907 18.036 1.6l-4.247 6.39c-3.445-1.72-9.728-4.55-10.726.91-.607 3.323 6.963 3.255 10.513 7.77 2.658 3.382 3.063 8.67-.02 12.863-5.934 8.07-19.04 5.334-25.435 1.233zM73.17 34.138c11.103-1.068 18.672 5.07 18.754 17.4.08 11.913-8.757 18.426-20 18.926-11.342.505-19.12-6.297-19.183-17.383-.066-11.985 12.644-18.934 20.42-18.953zm-10.55 18.85c-.6 7.23 4.294 9.09 8.096 9.09 5.465 0 10.52-5.344 10.52-9.976 0-5.456-2.426-9.507-8.337-9.507-3.564 0-9.68 3.165-10.28 10.394zm31.358 16.328l5.28-34.02h9.254l12.176 20.626 2.475-20.626h9.81l-5.246 33.883h-9.484l-11.598-20.375-3.488 20.51h-9.18zm45.47-34.154h9.706l-5.385 34.02h-9.595l5.275-34.02zm36.475 33.44c-1.352.83-3.346 1.67-8.168 1.874-9.41.4-17.164-4.903-16.4-17.383.727-11.9 8.688-18.958 20.756-18.953 2.726.001 5.704.317 8.935.952l-1.3 11.116c-6.9-3.713-16.482-4.43-17.81 7.375-.754 10.717 11.026 7.447 15.355 5.38l-1.366 9.64z" fill="#0a68b0"/><path d="M23.772 65.007l4.616-7.46c3.33 3.604 12.802 4.36 12.773.416-.018-2.437-.403-2.092-2.474-3.166s-8.968-2.507-9.78-9.45c-.9-4.77 1.847-9.662 6.275-11.543 5.8-2.46 13.406-1.908 17.987 1.6l-4.235 6.39c-3.435-1.72-9.702-4.55-10.696.91-.605 3.323 6.944 3.255 10.484 7.77 2.65 3.38 3.055 8.67-.02 12.863-5.918 8.07-18.55 5.772-24.928 1.67zm51.226-32.4c11.073-1.07 18.62 5.07 18.702 17.41.08 11.914-8.733 18.426-19.935 18.927-11.31.505-19.07-6.298-19.13-17.384-.066-11.985 12.61-18.934 20.363-18.952zm-10.52 18.85c-.6 7.23 4.282 9.09 8.074 9.09 5.45 0 10.492-5.343 10.492-9.975 0-5.456-2.42-9.507-8.314-9.507-3.555 0-9.653 3.165-10.253 10.393zM95.75 67.784l5.266-34.02h9.228l12.142 20.626 3.123-20.626h9.13l-5.232 33.883h-9.458l-11.566-20.375-3.48 20.51H95.75zm45.345-34.154h9.68l-5.37 34.018h-9.57l5.26-34.018zm36.375 33.44c-1.35.83-3.337 1.67-8.145 1.874-9.383.398-16.68-4.903-15.92-17.384.725-11.9 8.228-18.958 20.263-18.952 2.718.001 5.69.317 8.91.952l-1.297 10.46c-6.87-3.713-16.437-3.773-17.762 8.032-.752 10.716 10.995 7.447 15.312 5.38l-1.363 9.64z" fill="#ef3b44"/></svg>