<svg xmlns="http://www.w3.org/2000/svg" viewBox="0 0 189.565 39.072" width="800" height="168"><path d="M22.635 4.85c-6.485-.032-6.86.01-9.008 1.042-.484.232-1.05.544-1.257.692-.62.442-1.76 1.56-1.76 1.73 0 .086-.034.156-.075.156-.2 0-1.095 1.682-1.097 2.058-.001.14-.034.29-.073.335-.264.292-.348 2.84-.13 3.935l.21 1.047c.078.394.42 1.106.81 1.692l.312.478c.207.334 1.595 1.614 2.182 2.012l2.064 1.255c.107.04.534.26.95.484l1.13.566 1.55.72c3.45 1.655 3.745 1.825 4.038 2.325.302.515.31 1.053.025 1.473-.115.17-.273.307-.35.307s-.17.045-.202.1c-.062.1-7.172.054-10.696-.07l-1.57-.055V25.3c0-1.57-.018-1.83-.126-1.83-.07 0-.125.038-.125.084s-.043.084-.096.084c-.104 0-.993.725-1.103.9-.037.06-.18.166-.32.238s-.47.33-.73.57a9.71 9.71 0 0 1-.865.705c-.215.147-.402.298-.418.334-.042.098-.867.774-.944.774-.037 0-.186.126-.33.278s-.66.597-1.143.985a23.53 23.53 0 0 0-1.046.874c-.092.092-.305.26-.475.377s-.52.412-.78.658l-.473.45.528.49c.3.27.555.493.588.494s.353.266.712.59.697.587.752.587.15.065.2.147.317.317.57.524l.628.514.705.587a26.2 26.2 0 0 0 .894.716 7.25 7.25 0 0 1 .647.558 4.56 4.56 0 0 0 .615.501c.18.116.55.42.827.675s.547.467.602.468.186.112.293.248c.38.48.4.398.424-1.65l.022-1.906.377.01c.207.005 2.385.017 4.84.027 3.107.013 4.462.046 4.462.108 0 .103 2.608.033 3.938-.105 1.044-.108 2.358-.366 2.556-.5.046-.03.3-.146.587-.254s.522-.22.545-.248a2.75 2.75 0 0 1 .783-.421c.057 0 .235-.122.396-.272a11.34 11.34 0 0 1 .612-.525c.363-.285 1.273-1.422 1.54-1.927.272-.512.684-1.808.82-2.578.272-1.543.097-3.58-.413-4.83-.12-.296-.22-.57-.22-.6 0-.086-.414-.747-.542-.864-.05-.046-.27-.32-.49-.607s-.477-.564-.57-.614c-.165-.088-.308-.205-.843-.68-.14-.124-.39-.3-.56-.368s-.435-.252-.596-.383-.322-.238-.36-.238-.264-.132-.504-.293-.487-.294-.55-.294c-.135 0-.796-.347-.837-.44-.015-.035-.08-.063-.146-.063s-.118-.038-.118-.084-.062-.084-.137-.084-.348-.107-.607-.237c-1.372-.7-2.07-1.025-2.134-1.023-.04.002-.174-.07-.3-.16a1.66 1.66 0 0 0-.474-.221c-.135-.033-.633-.27-1.105-.53l-1.215-.652a2.67 2.67 0 0 1-.603-.442c-.227-.238-.248-.3-.248-.857 0-.573.01-.607.276-.828.152-.126.396-.248.54-.27s2.753-.02 5.795.004l5.53.044-.032-7.022-.99-.058c-.545-.032-3.29-.07-6.102-.084zm10.26.017l.028 11.375.16 11.794c.25.78.5 1.417.75 1.823.13.223.24.442.24.487 0 .293 2.19 2.59 2.47 2.59.03 0 .214.104.407.23.943.618 1.306.795 2.33 1.137 1.125.376 2.153.624 3.17.766 1.1.152 3.776.154 4.776.003 1.467-.22 2.546-.495 3.322-.844.145-.065.328-.12.405-.12.167 0 1.52-.71 1.76-.922a2.81 2.81 0 0 1 .475-.305c.4-.205 1.808-1.5 1.975-1.832.072-.138.21-.333.31-.433.24-.244.816-1.302.942-1.734l.313-1.1.212-.755.006-22.163h-8.8v10.594l-.08 10.805c-.104.273-.66.9-.804.9-.06 0-.16.05-.223.112-.292.292-1.005.432-2.203.432H43.67l-.665-.323c-.7-.338-.89-.52-1.202-1.135l-.188-.372V4.867h-8.72zm26.817.001V34.53H67.61c8.03-.002 8.793-.027 9.782-.327a2.23 2.23 0 0 1 .521-.088c.222 0 1.012-.32 1.7-.687l.794-.424c.393-.2.872-.612 1.63-1.368.228-.228.74-.942 1-1.394.224-.39.73-1.844.9-2.58.143-.623.22-2.246.14-3.017-.06-.59-.418-1.95-.562-2.136-.035-.046-.113-.235-.17-.42-.16-.504-1.16-1.713-1.873-2.265-.178-.137-.412-.33-.52-.43s-.348-.248-.535-.33-.34-.173-.34-.202c0-.05.465-.42.53-.42s1.397-1.318 1.397-1.38c0-.033.07-.16.157-.283.248-.35.73-1.292.848-1.653a1.88 1.88 0 0 1 .2-.446c.062-.08.09-.654.087-1.718-.006-1.5-.02-1.648-.228-2.297-.255-.8-.84-2.025-1.148-2.396-.54-.652-1.177-1.275-1.654-1.616-.663-.475-1.827-1.042-2.702-1.32-1.35-.425-2.26-.465-10.4-.465h-7.45zm8.63 6.44l2.367.027c2.568.03 2.55.026 3.156.537.652.548.907 1.813.63 3.135-.096.462-.664 1.23-1.067 1.445-.338.18-.45.19-2.72.215l-2.367.027V11.31zm.063 11.056c.035-.015 1.273-.008 2.75.016l2.688.042.353.233c.194.13.493.45.663.713l.3.48.001 1.22c.001 1.12-.015 1.258-.2 1.654-.112.24-.254.434-.316.434s-.135.054-.16.12c-.072.19-.626.514-1.055.62-.253.063-1.23.098-2.744.098h-2.35v-2.802c0-1.54.028-2.814.063-2.828z" fill="#ffcb08"/><path d="M179.444 1.09c-.06.033-.065.41-.066 1.744l-.002 1.864-3.372.002c-3.245.001-3.677.025-5.11.282-1.186.212-2.49.996-3.278 1.972-.643.796-1.036 1.687-1.353 3.065-.032.138-.082 1.797-.112 3.686-.06 3.784-.034 3.6-.62 4.33-.475.59-1.633.99-2.87.99-.605 0-1.66-.244-2.02-.466-.457-.283-.967-.795-1.066-1.07-.067-.186-.11-2.11-.14-6.425l-.043-6.158-4.295-.02-4.294-.022.001 6.557.078 7.088c.092.64.444 1.828.712 2.403.505 1.086 1.7 2.443 2.78 3.183l.66.485c.09.082.26.17.377.198s.365.136.553.243c.392.224 1.483.67 2.067.846l.398.12v8.54h8.715v-8.508l.69-.24c1.008-.35 2.965-1.326 3.492-1.743.667-.53 1.74-1.64 2.05-2.12a11.01 11.01 0 0 0 1.085-2.472c.228-.912.304-2.028.307-4.524l.053-2.576c.082-.306.517-.362 2.602-.338l1.912.022.023 1.823.104 1.822c.045 0 .082-.038.082-.084s.047-.084.104-.084.394-.264.747-.587.674-.586.714-.586.298-.213.572-.473.632-.558.794-.663.52-.4.797-.658.53-.466.565-.467.263-.18.508-.4l2.607-2.166c.188-.143.55-.455.803-.694l.46-.436-.575-.54c-.316-.298-.625-.542-.686-.542s-.18-.086-.263-.2-.38-.368-.655-.586l-.67-.553c-.092-.086-.57-.484-1.065-.884l-1.145-.975c-.136-.136-.28-.248-.322-.248s-.36-.263-.71-.586-.675-.586-.715-.586-.3-.2-.573-.466-.646-.563-.83-.68a2.47 2.47 0 0 1-.48-.392c-.035-.043-.06-.07-.08-.06zm-42.503 2.89a16.54 16.54 0 0 0-1.539.046c-1.646.128-3.28.465-4.227.872-.17.074-.375.135-.454.135-.18 0-1.377.612-1.816.93-.183.133-.38.242-.435.242s-.228.122-.385.273l-.8.725c-.288.25-.523.488-.523.532s-.145.255-.322.47c-.54.652-.745 1.02-1.093 1.98-.626 1.727-.596 1.04-.596 13.332v11h8.63v-8.547h6.62v8.547h8.63V23.575l-.13-11.697c-.2-1.143-.89-2.918-1.287-3.316-.085-.085-.308-.38-.494-.654s-.428-.557-.537-.63-.402-.323-.65-.558-.525-.45-.617-.48-.34-.177-.55-.327a7.68 7.68 0 0 0-1.84-.924l-1.095-.333c-1.34-.416-2.92-.65-4.475-.675zm-14.875.883l-4.34.022-4.34.02-.084 21.284-.226.383c-.28.477-.327.514-.947.746-1 .37-2.618.19-3.21-.353-.114-.105-.276-.34-.36-.526-.148-.32-.154-.806-.156-10.824L108.352 5c-.045-.12-.504-.133-4.315-.133H99.77v10.496l-.082 10.78c-.214.748-.892 1.22-1.935 1.354-.628.08-1.46-.014-1.85-.208-.146-.073-.31-.132-.363-.132-.153 0-.42-.34-.596-.755-.153-.363-.16-.77-.18-10.85l-.02-10.578c0-.083-.92-.105-4.315-.105h-4.315V15.75c0 11.968-.016 11.54.518 13.166.46 1.4 1.05 2.336 2.133 3.383.363.35.686.638.718.64s.3.168.598.37c.723.496.873.567 1.922.92 1.06.358 1.767.532 2.743.68 1.02.153 3.32.152 4.194-.001 1.05-.183 2.837-.754 3.422-1.093.156-.1.457-.284.67-.43.77-.53.994-.627 1.203-.51.104.058.208.13.23.157.103.125 1.656 1.006 1.844 1.047a2.83 2.83 0 0 1 .419.134c.453.19 1.417.48 2.095.625 1 .218 3.982.22 5.07.003.8-.16 1.762-.424 2.18-.598.138-.058.403-.152.587-.2a3.18 3.18 0 0 0 .628-.293l.877-.556a8.97 8.97 0 0 0 1.186-.956c.673-.655 1.54-1.76 1.542-1.963 0-.073.095-.298.21-.5.245-.428.56-1.314.765-2.147.13-.536.146-1.542.173-11.67l.03-11.083zm14.223 6.552a9.59 9.59 0 0 1 .728.003c.827.03.987.063 1.55.317.826.372.952.496 1.208 1.187l.216.583v5.604h-6.625l.048-5.907.225-.464c.268-.552.38-.658 1.013-.952.505-.234.98-.347 1.638-.372z" stroke="#009743" stroke-width=".084" fill="#009743"/></svg>