<svg xmlns="http://www.w3.org/2000/svg" width="800" height="308" viewBox="-48.5 305.9 474.7 182.7"><g fill="#d9003d"><path d="M-48.562 488.55h73.1l-73.1-73.1v73.1zm474.885-182.642h-73.1l73.1 73.1v-73.1zM53.713 444.74l43.8 43.8h73l-43.8-43.8h-73zM-48.562 305.908v36.5l43.8 43.8v-36.5h36.5l-43.8-43.8h-36.5zm474.885 146.135l-43.8-43.8v36.5h-36.5l43.8 43.8h36.5v-36.5zM324.048 349.718l-43.8-43.8h-73.1l43.8 43.8h73.1zm-146.165 0l-43.8-43.8h-73.1l43.8 43.8h73.1zm21.895 95.022l43.8 43.8h73.1l-43.8-43.8h-73.1z"/></g><g fill="#fff"><path d="M129.203 382.44c-1.5-1.3-3.6-2-6.2-2h-7.7v15.9h7.7c2.7 0 4.7-.7 6.2-2.1s2.2-3.3 2.2-5.8v-.2c.1-2.6-.6-4.5-2.2-5.8m117.967 21.742h11.3l-5.7-17.8-5.6 17.8z"/><path d="M331.8 426.4c-4.2-1.4-8.1-3.7-11.7-6.8l8.3-11.4c2.5 2 5.1 3.7 7.9 5a20.27 20.27 0 0 0 8.6 1.9c2.1 0 3.7-.4 4.7-1.2 1.1-.8 1.6-1.9 1.6-3.2v-.1a3.53 3.53 0 0 0-.4-1.7c-.3-.5-.7-1-1.4-1.5s-1.6-1-2.7-1.5c-1.2-.5-2.6-1.1-4.4-1.7-2.9-1-5.5-2-7.9-3.1s-4.4-2.3-6.2-3.8c-1.7-1.5-3.1-3.2-4-5.1-1-2-1.4-4.3-1.4-7.1v-.3c0-2.8.5-5.3 1.5-7.6s2.5-4.3 4.3-5.9c1.9-1.7 4.2-2.9 6.9-3.9 2.7-.9 5.7-1.4 9-1.4 4.1 0 8 .6 11.6 1.7a30.51 30.51 0 0 1 10.2 5.7l-7.9 11.7c-2.1-1.6-4.3-3-6.8-4-2.4-1-4.9-1.6-7.4-1.6-1.8 0-3.2.4-4.1 1.1-1 .8-1.4 1.7-1.4 2.9v.1c0 .7.1 1.3.4 1.8s.8 1 1.5 1.6c.7.5 1.7 1.1 3 1.7 1.2.6 2.8 1.2 4.7 1.9 2.9.9 5.5 1.9 7.8 3s4.3 2.4 5.9 3.9 2.9 3.2 3.7 5.1c.9 1.9 1.3 4.2 1.3 6.8v.2c0 3-.6 5.6-1.7 8s-2.6 4.4-4.6 6c-1.9 1.7-4.3 2.9-7 3.8s-5.7 1.3-9 1.3c-4.3-.1-8.7-.9-12.9-2.3m-26.4-21.7v23h-15.7v-22.8l-19.6-38.1h17.3l10.2 22 10.3-22h17l-19.5 37.9zm-39.5 23l-3.6-11h-19.1l-3.5 11h-16.1l21.4-61.2h15.8l21.5 61.2c.1 0-16.4 0-16.4 0zm-57-2.2c-3.9 1.4-8.2 2.2-13.2 2.2H176v-60.9h20c4.9 0 9.2.7 13 2.1s7 3.4 9.7 6c2.6 2.6 4.6 5.7 6 9.4s2 7.7 2 12.2v1c0 4.5-.7 8.6-2 12.3-1.4 3.7-3.4 6.9-6 9.5a26.07 26.07 0 0 1-9.8 6.2m-40.5 2.2h-15.7v-60.9h15.7v60.9zm-37.1 0L121 408.8h-5.6v18.9H99.8v-60.9h23.9c8.2 0 14.3 2.1 18.3 6.2 1.7 1.7 3 3.7 3.9 6 .9 2.4 1.4 5.1 1.4 8.2v.4c0 4.5-1 8.2-3 11.1s-4.6 5.2-7.9 6.8l12.5 22.1h-17.6v.1zm-36.2-46.8H69.4v10.8h23.1v13.5H69.4v22.5H53.7v-60.9h41.4v14.1zm-67.2 24.5h-.6c-9.1 0-15.5-6.3-15.5-14.7 0-4.4 1.3-7.5 3.7-10.5l6 4.4c-1.4 1.6-2.5 3.4-2.5 6 0 3.9 3.4 6.8 8.4 6.8h.4c5.6 0 8.7-3 8.7-6.9 0-1.5-.3-2.7-.9-3.5h-4.5v4.8H25v-12.2h14.5c2.1 2.9 3.8 6.6 3.8 11.2 0 8.3-5.9 14.6-15.4 14.6M42.8 421H19.4v7.5h-7.1v-22.9h7.1v7.5h23.4v7.9zm-30.5-54.2h30.5v7.8H12.3v-7.8zm370.1 77.9v-36.5l43.8 43.8v-73.1l-73-73h-73.1l43.8 43.8H251l-43.8-43.8h-73l43.8 43.8h-73.1l-43.8-43.8H-12l43.8 43.8H-4.7v36.5l-43.8-43.8v73.1l73.1 73.1h73.1l-43.8-43.8H127l43.8 43.8h73.1l-43.8-43.8h73.1l43.8 43.8h73.1l-44.2-43.9h36.5zm-186.27-63.9h-4.5v32.9h4.5c4.3 0 7.9-1.3 10.5-3.9 2.7-2.6 4-6.6 4-12.1v-.8c0-5.5-1.3-9.6-4-12.2-2.6-2.6-6.1-3.9-10.5-3.9"/></g><path d="M53.705 427.638h15.7v-22.5h23.1v-13.5h-23.1v-10.8h25.7v-14.1h-41.4v60.9zm77.86-39.135c0 2.4-.7 4.4-2.2 5.8s-3.6 2.1-6.2 2.1h-7.7v-15.9h7.7c2.6 0 4.7.7 6.2 2s2.3 3.3 2.3 5.9v.1zm12.7 10.3c2-2.9 3-6.6 3-11.1v-.4c0-3.1-.5-5.9-1.4-8.2-.9-2.4-2.2-4.4-3.9-6-4-4.1-10.1-6.2-18.3-6.2h-23.9v60.9h15.6v-18.9h5.6l10.3 18.9h17.7l-12.5-22.1c3.2-1.7 5.8-4 7.8-6.9m8.473 28.85h15.7v-60.9h-15.7v60.9zm57.962-29.997c0 5.5-1.3 9.5-4 12.1s-6.2 3.9-10.5 3.9h-4.5v-32.9h4.5c4.3 0 7.9 1.3 10.5 3.9 2.7 2.6 4 6.7 4 12.2v.8zm16-.1v-1c0-4.5-.7-8.5-2-12.2-1.4-3.7-3.3-6.8-6-9.4-2.6-2.6-5.8-4.6-9.7-6-3.8-1.4-8.2-2.1-13-2.1h-20v60.9h19.7c4.9 0 9.3-.7 13.2-2.2 3.9-1.4 7.1-3.5 9.7-6.1s4.6-5.8 6-9.5c1.4-3.8 2.1-7.9 2.1-12.4m20.47 6.626l5.7-17.8 5.7 17.8h-11.4zm-2.1-37.7l-21.4 61.2h16.1l3.5-11h19.1l3.6 11h16.4l-21.5-61.2h-15.8zm62.848.34l-10.3 22-10.2-22h-17.3l19.6 38.1v22.8h15.7v-23l19.6-37.9h-17.1z"/><path d="M360.843 423.45c1.9-1.7 3.5-3.7 4.6-6s1.7-5 1.7-8v-.2c0-2.6-.4-4.9-1.3-6.8s-2.1-3.6-3.7-5.1-3.6-2.8-5.9-3.9-4.9-2.1-7.8-3l-4.7-1.9c-1.2-.6-2.2-1.1-3-1.7-.7-.5-1.2-1-1.5-1.6-.3-.5-.4-1.1-.4-1.8v-.1c0-1.2.5-2.1 1.4-2.9 1-.8 2.3-1.1 4.1-1.1a17.63 17.63 0 0 1 7.4 1.6c2.4 1 4.7 2.4 6.8 4l7.8-11.6c-3.2-2.6-6.6-4.5-10.2-5.7s-7.4-1.7-11.6-1.7c-3.3 0-6.3.5-9 1.4s-5 2.2-6.9 3.9-3.3 3.6-4.3 5.9-1.5 4.8-1.5 7.6v.3c0 2.8.5 5.2 1.4 7.1 1 2 2.3 3.7 4 5.1s3.8 2.7 6.2 3.8 5 2.1 7.9 3.1c1.8.6 3.3 1.2 4.4 1.7 1.2.5 2.1 1 2.7 1.5.7.5 1.1 1 1.4 1.5s.4 1.1.4 1.7v.1c0 1.3-.5 2.4-1.6 3.2s-2.7 1.2-4.7 1.2a19.94 19.94 0 0 1-8.6-1.9c-2.8-1.3-5.4-2.9-7.9-5l-8.3 11.4c3.6 3.1 7.5 5.4 11.7 6.8s8.6 2.1 13.1 2.1c3.2 0 6.2-.4 9-1.3 2.7-.8 5-2 6.9-3.7M19.35 405.666h-7.1v22.9h7.1v-7.5h23.4v-7.8h-23.4v-7.6zm5.613-26.11v12.2h6.1v-4.8h4.5c.6.9.9 2 .9 3.5 0 3.9-3.1 6.9-8.7 6.9h-.4c-5.1 0-8.4-3-8.4-6.8 0-2.6 1.1-4.4 2.5-6l-6-4.4c-2.4 3-3.7 6.1-3.7 10.5 0 8.4 6.4 14.7 15.5 14.7h.6c9.5 0 15.4-6.3 15.4-14.6 0-4.6-1.7-8.3-3.8-11.2h-14.5zm17.875-12.702h-30.5v7.8h30.5v-7.8z"/></svg>