<svg xmlns="http://www.w3.org/2000/svg" width="800" height="672" viewBox="0 0 990 832"><defs><clipPath id="A"><path d="M15.75 694h81.833v90H15.75v-90z"/></clipPath><clipPath id="B"><path d="M15.75 694h81.833v90H15.75v-90z"/></clipPath></defs><g transform="matrix(15.434589 0 0 -15.434589 -431.762207 11821.59375)"><g transform="translate(-.032 -.032)"><g clip-path="url(#A)"><path d="M68.727 726.257c-.345-.72-.74-1.36-1.17-1.904s-.873-.976-1.32-1.29c-.388-.275-.712-.486-.978-.44-.172.043-.15.346-.128.54.06.558.24 1.122.53 1.678a7.77 7.77 0 0 0 1.088 1.575c.432.475.902.872 1.398 1.18.4.242.776.4 1.153.5a6.9 6.9 0 0 0-.574-1.842m4.65 12.63c-1.114.176-1.92-.672-2.272-1.508-.125-.293-.16-.444-.28-.822-.12-.372-.167-.653-.26-1.037l-.208-.895-.183-.928-.23-1.332-.16-.994c-.8-.188-1.62-.51-2.433-.95-.88-.476-1.698-1.102-2.435-1.86s-1.38-1.648-1.9-2.65c-.526-1.014-.86-2.148-.992-3.37l-.033-.478a1.57 1.57 0 0 0-.286.31c-.156.233-.27.5-.345.827a4.73 4.73 0 0 0-.117 1.037l.04.8.21 1.402c.16.977.23 1.632.133 2.3-.064.442-.42 1.29-1.315 1.32a1.66 1.66 0 0 1-.22-.008c-.602-.057-1.306-.387-1.737-.686-.574-.4-1.112-.897-1.6-1.48-.207-.247-.37-.47-.506-.68.086.263.2.526.3.78l.22.528c.146.37.298.753.332 1.06.03.277-.014.503-.13.67a.93.93 0 0 1-.358.311c-.14.062-.28.093-.418.093-.098.003-.184.001-.243-.004-.345-.03-.654-.137-.916-.31a3.35 3.35 0 0 1-.605-.496c-.178-.205-.334-.418-.456-.628-.2-.306-.368-.724-.542-1.278l-.462-1.703-.388-1.83-.246-1.592-.126-1.58c-.028-.52-.018-.996.028-1.408.05-.44.156-.797.317-1.064.202-.332.532-.486.96-.443.008 0 .015.002.02.002.08.01.358.05.617.14.24.083.604.343.912.827.178.276.36 1.006.577 1.93l.136.562c.853 3.33 2.092 4.03 2.704 4.157l-.127-1.127-.076-1.442c.014-.977.11-1.535.23-2.02.135-.553.386-1.22.7-1.57.358-.4.703-.68 1.326-.642.286.04.423.062.714.184a2.19 2.19 0 0 1 .691.493c.184.177.295.35.372.52a2.08 2.08 0 0 1 .431-.548c.274-.245.667-.36 1.168-.344l.035.002c.055.003.175.016.562.068.354.047.783.187 1.28.41.485.22 1.038.564 1.646 1.02.426.32.866.74 1.31 1.245-.043-.71-.078-1.385.232-2.313.127-.382.293-.695.55-1.048.288-.388.727-.586 1.31-.59h.004l.068.005c.277.046.506.118.7.22s.385.256.555.45c.205.235.327.537.367.902.01.1.006.235-.02.386-.024.146-.098.26-.175.377l-.098.152c-.193.337-.315.616-.37.852-.146.617-.183 1.135-.155 2.132l.088 1.495.15 1.513.113 1.03.037.322.07-.001c.256-.003.524.085.79.268.314.22.505.617.567 1.183.052.483-.067.876-.355 1.168-.177.175-.375.325-.587.448l.085.513.098.526.063.307.05.26 1.055 4.085a5.51 5.51 0 0 1 .193.953c.04.373-.05 1-.753 1.11m10.04-8.572c.056-.227.067-.506.034-.85-.03-.322-.093-.682-.183-1.073l-.702-2.914-.375-2.05-.375-3.16c-.192-2-.237-2.475-.786-4.015-.56-1.575-1.844-2.62-2.443-2.954-1.085-.606-2.306-.92-3.633-.948-.014 0-.018.001-.02.002l-.2.017-.464.05c-1.394.25-2.2 1.135-2.05 2.28.08.6.547.964 1.15.874.565-.094 1.087-.14 1.558-.135 1.447.016 2.44.495 3.034 1.49.62 1.037.694 1.72.8 2.663l.042.38.15 1.412c-.234-.3-.462-.57-.683-.782-.447-.425-.857-.75-1.222-.967-.437-.256-.864-.406-1.27-.446h-.027c-.666.014-1.18.27-1.528.763-.307.426-.543.964-.7 1.598-.152.618-.232 1.28-.237 1.97l.072 1.87c.17 1.77.535 3.18 1.084 4.186.608 1.12 1.382 1.688 2.298 1.667.05 0 .12-.008.25-.022.165-.023.31-.078.436-.164.14-.1.253-.223.346-.407.095-.19.127-.428.1-.72-.03-.298-.14-.625-.343-1-.182-.346-.353-.738-.51-1.163-.132-.364-.266-.802-.4-1.3a9.18 9.18 0 0 1-.279-1.553l-.04-.583a5.33 5.33 0 0 1 .007-.786 1.96 1.96 0 0 1 .138-.618c.04-.098.168-.165.208-.173a.81.81 0 0 1 .186-.024c.128 0 .26.042.39.124.1.064.344.273.63.66.2.272.587.84.905 1.596.15.352.34.928.54 1.54l.854 2.6a5.99 5.99 0 0 0 .497.97 2.54 2.54 0 0 0 .662.675c.322.213.68.324 1.08.304a1.71 1.71 0 0 0 .315-.059c.17-.044.32-.136.442-.27.12-.127.208-.308.27-.553m.7.3a1.15 1.15 0 0 0 .01.63l.213.662c.078.347.11.693.025 1.016-.074.284-.092.696-.013.932a.92.92 0 0 0 .688.59c.357.06.713.037 1.014-.11a1.45 1.45 0 0 0 .68-.838c.15-.6.082-1.078.012-1.46-.082-.457-.272-.873-.476-1.214-.145-.243-.388-.453-.596-.603-.256-.183-.676-.252-1.117-.092a.87.87 0 0 0-.44.488m7.345-8.465c-.106-.766-.418-1.403-.925-1.895a5.39 5.39 0 0 0-1.635-1.087c-.603-.255-1.223-.424-1.843-.502-.56-.068-1.05-.083-1.454-.043l-.11.012c-.976.125-1.64.435-2.03.958s-.542 1.062-.466 1.608c.1.648.43.963.698 1.11.326.183.61.26.864.24.01-.001.02-.002.03-.005.255-.03.55-.16.9-.398.235-.163.55-.27.934-.322.52-.067.913-.04 1.167.087.183.087.29.184.3.273.006.04.017.122-.123.255-.17.163-.405.322-.695.47l-1.032.492a6.35 6.35 0 0 0-1.099.623c-.358.252-.648.55-.863.883-.245.385-.332.84-.26 1.353.08.587.34 1.192.767 1.797a7.11 7.11 0 0 0 1.501 1.548 7.2 7.2 0 0 0 1.946 1.053c.728.256 1.45.337 2.147.233.67-.1 1.187-.404 1.534-.902.346-.504.46-1.198.34-2.06-.06-.417-.21-.797-.45-1.134-.202-.28-.6-.602-1.3-.49-.483.072-.677.333-.754.54-.068.17-.123.356-.163.548-.028.127-.035.292-.118.378-.05.044-.147.077-.268.068 0 0-.1.006-.35-.063-.21-.065-.422-.157-.624-.274a2.44 2.44 0 0 1-.566-.45.87.87 0 0 1-.236-.439c-.012-.073-.02-.198.136-.347a4.3 4.3 0 0 1 .738-.545c.3-.183.645-.367 1.054-.562.43-.205.82-.44 1.154-.696.357-.27.65-.587.874-.934.255-.4.35-.864.276-1.38m-42.058 3.206c-.332-.514-.664-.915-1.017-1.223-.394-.345-.688-.53-1.064-.738-.164-.1-.3-.14-.413-.172.056.308.16.72.304 1.064a8.55 8.55 0 0 0 .81 1.492c.384.567.695.94 1.012 1.205.22.186.413.297.558.32.323.056.34-.362.338-.445-.002-.503-.286-1.124-.528-1.504m2.14 4.224a1.77 1.77 0 0 1-.869.306 4.05 4.05 0 0 1-.845-.036c-.543-.09-1.093-.276-1.482-.492a5.95 5.95 0 0 1-1.157-.832c-.31-.284-.67-.628-.975-1.037-.2-.265-.58-.8-.888-1.396-.416-.802-.778-1.735-1.106-2.848-.205 0-.653.09-.858.13l-.226.04-.087.002 2.095 7.733.788 2.268c.206.428.33 1.014.31 1.285-.054.792-.6 1.592-1.572 1.377-1.03-.228-1.638-1.54-2.458-4.434l-1.644-6.618-.834-4.137c-.082-.374-.125-.48-.257-.51-.066-.015-.15.03-.187.184-.086.335-.158 1.03-.21 1.92l-.162 6.862c.043 1.536.04 1.783-.06 2.176-.194.76-1.137 1.213-2.164.953s-1.33-1.415-1.923-2.99l-1.6-4.8-1.23-4.236-.124-.484-.123-.484c-.147-.394-.198-.472-.296-.5s-.156.054-.186.174c-.062.24-.052 1.767-.033 2.573l.35 5.02.472 4.315.07.96c.02.733-.03 1.087-.35 1.45-.5.44-1.112.407-1.817.247-1.135-.258-1.985-.96-1.884-1.347.016-.058.075-.114.133-.2.172-.25.262-.39.33-.64.082-.297.12-.708.12-1.37l-.075-1.783-.417-7.237c-.05-1.91.014-3.234.164-5.122.076-.95.277-1.724.385-2.14.192-.746.57-1.575 1.227-1.74.487-.123.863-.094 1.504.074.59.153 1.48.716 1.678 1.603l.753 2.964 1.163 4.546.747 2.605c.104.283.155.36.22.377s.107-.005.122-.066c.008-.03.017-.076.02-.18l.007-.2.014-.608c.05-1.984.43-5.398.786-6.795.233-.913.3-2.04 1.707-2.248.65-.098 1.19.086 1.19.086 1.038.316 1.307.914 1.54 1.935l.878 3.572.23 1.01c.2-.06 1.055-.196 1.416-.227.004-.11.01-.166.02-.236l.026-.183.042-.256.075-.345c.15-.6.384-1.11.693-1.52.3-.4.61-.67 1.038-.905.407-.222 1.104-.32 1.765-.25a1.72 1.72 0 0 1 .27.027.3.3 0 0 1 .052.01l.135.026.31.084c1.038.298 2.374 1.22 2.855 2.57.188.532.083.865-.038 1.05-.132.202-.35.325-.57.32a1.55 1.55 0 0 1-.219-.021c-.452-.072-.794-.328-1.095-.554-.272-.204-.53-.397-.85-.46-.365-.07-.614-.06-.825.043a.68.68 0 0 0-.41.442c-.057.143-.088.306-.115.52.59.15 1.27.45 1.82.807a8.12 8.12 0 0 1 1.699 1.479c.497.574.913 1.21 1.237 1.89a6.76 6.76 0 0 1 .587 2.257c.042.568-.02 1.038-.178 1.398-.164.354-.38.623-.638.797" fill="#dd1438"/></g><g clip-path="url(#B)"><path d="M45.204 744.573c.267-.14.568-.182.486-.234-.148-.092-.668.001-.914.155-.107.067-.147-.088-.05-.213.036-.057.08-.108.17-.19.947-.828 2.168-1.076 3.27-.886a13.82 13.82 0 0 1 2.011-2.457 13.77 13.77 0 0 1 9.635-3.904c3.776 0 7.303 1.492 9.93 4.2a14 14 0 0 1 1.726 2.174c1.117-.21 2.365.033 3.33.876a.96.96 0 0 1 .17.192c.097.125.057.28-.05.212-.246-.154-.766-.247-.913-.155-.082.052.218.095.485.234 1.44.725 1.18 3.01.753 2.534-.308-.386-.71-.793-1.482-.768.7.813.768 1.957.526 1.754-.226-.234-.53-.723-1.14-1.135.35 1.262.522 2.582.5 3.928a13.74 13.74 0 0 1-4.201 9.722 13.95 13.95 0 0 1-2.951 2.189c-.58 1.058-1.312 1.825-2.624 2.123-.615.085-.925.076-1.43-.144-.057.206-.144.345-.233.437-.553.547-1.555.612-2.046.696-.578.056-1.588.072-2.55-.172-2.1-.532-3.53-1.55-4.568-2.982-1.15-.648-2.217-1.466-3.166-2.444-3.53-3.64-4.654-8.736-3.404-13.306-.563.4-.85.86-1.066 1.084-.242.203-.173-.94.526-1.754-.77-.025-1.175.38-1.483.768-.426.478-.685-1.81.753-2.534" fill="#fff"/></g></g><path d="M59.78 763.392a12.64 12.64 0 0 1-9.147-3.871c-4.892-5.043-4.77-13.126.275-18.02 2.392-2.32 5.543-3.596 8.874-3.596 3.477 0 6.725 1.374 9.145 3.87a12.66 12.66 0 0 1 3.594 9.068c-.05 3.404-1.425 6.583-3.87 8.952-2.39 2.32-5.542 3.598-8.872 3.598m.002-26.58a13.77 13.77 0 0 0-9.636 3.905c-5.477 5.314-5.61 14.092-.298 19.567 2.63 2.7 6.156 4.203 9.932 4.203 3.616 0 7.037-1.387 9.634-3.906a13.74 13.74 0 0 0 .298-19.568 13.72 13.72 0 0 0-9.93-4.201" fill="#2f1e18"/><path d="M74.885 744.466c-.245-.154-.765-.247-.913-.155-.082.052.218.095.486.234 1.438.726 1.18 3.01.753 2.534-.308-.386-.712-.793-1.483-.768.7.814.768 1.957.526 1.754-.502-.52-1.38-2.303-5.214-1.686a4.07 4.07 0 0 0 .345.389c-.196.117-.393.303-.594.6-.586.925-1.086 1.082-1.386 1.165.5.47.82.968 1.116 1.53.993 2.122.878 4.43.77 5.038-.115.94-.355 2.407-1.093 3.778-.836 1.56-1.653 4.406-4.465 5.362-.572.03-.873-.001-1.375-.22-.05.1-.524.5-.575.58-.298.27-1.174.51-1.566.64-.807.014-1.518.215-2.41-.026-3.77-1.02-5.453-2.903-6.568-6.367a10.27 10.27 0 0 1-.237-1.508c.034.097-1.226-3.726-.39-5.822.154-.176.168-.512.325-.686.396-.927 1.03-1.497 1.412-2.347-1.237-.05-1.67-1.94-1.707-2.1-3.88-.642-4.763 1.155-5.268 1.678-.24.203-.173-.94.526-1.754-.77-.025-1.175.382-1.482.768-.427.478-.686-1.81.752-2.534.268-.138.568-.182.486-.233-.148-.093-.668 0-.913.154-.115.072-.155-.1-.03-.24 3.703-2.46 5.408.246 5.972.324 2.042-.587 5.662.855 4.056 2.1-.437.683-1.096 1.855-1.12 3.206-.1.76-.002.994-.836.924.296.922.6 1.73.293 3.13-.055-.02-.112-.07-.154-.1 1.645 1.606 4.9 1.797 6.665 3.552.23.4 1.14.533 1.357.95-.202-1.443-.845-2.713-2.182-3.988 0 0 .94-.003 1.687.53 1.274.91 1.87 2.014 2.75 2.968.005.047.247.263.237.322.145-.073.425-.305.518-.45 1.04-1.606.195-1.213 1.344-2.673.067-.077.19-.4.256-.49.25-.47.37-.76.688-1.195.413-.284.33-.765.573-1.584-.072-1.017-.28-1.8-.958-2.262-.037-.886-.785-2.942-.785-2.942.067-.203-.785-1.563 1.227-1.973.528-.107 1.326-.001 2.004.12a3.33 3.33 0 0 0 .421 1.236c-.016-.124-.028-.25-.028-.377a2.86 2.86 0 0 1 .183-1.003l.06.016c.564-.078 2.27-2.783 5.972-.324.125.13.085.31-.03.24" fill="#dd1438" fill-rule="evenodd"/><g fill="#24ace9"><path d="M64.337 741.55c-.154.356-.257.596-.25.9-.02.05-.076.096-.15.13l.006-.366-.647.265c-.062-.087-.096-.213-.075-.4.2-1.245.795-1.887.945-2.044a.54.54 0 0 1 .414-.188c.17-.014.285.038.4.152.233.344-.35.88-.632 1.53m-6.686-.4l-.35.405c-.242-1.496-.795-1.892-.62-2.272.055-.12.182-.22.182-.22a.49.49 0 0 1 .245-.082c.122.001.25.03.345.14.4.504.697 1.346.787 1.9a1.22 1.22 0 0 1 .007.346l-.595-.2z"/><path d="M56.45 741.853l-.573.136-.07.35a.8.8 0 0 1-.115-.169c-.06-.228-.108-.438-.333-.935-.25-.553-.98-1.134-.235-1.354a.48.48 0 0 1 .48.123c.448.404.857 1.324 1.038 1.88a1.93 1.93 0 0 1 .069.314l-.262-.344zm5.832-.735l-.678.36c.204-1.188.634-2.027.874-2.33a.62.62 0 0 1 .368-.205c.096-.004.164.008.247.05 0 0 .18.083.225.206.138.385-.505 1.023-.67 2.47l-.366-.55zm-2.706-2.318c.712-.18 1.347.37 1.36.556.01.147-.36.74-.497.87a.77.77 0 0 1-.773.152c-.217-.073-.64-.505-.632-.907.005-.33.542-.67.542-.67"/></g><g fill-rule="evenodd"><path d="M54.71 756.644c2.02.605 2.86 2.202 4.758 3.52-.315-.042-.703-.22-.968-.37l-2.852-1.83c-.75-.518-1.72-1.135-2.42-1.38 0 0 .5-.274 1.482.058m9.128 8.248c-.615.085-.926.076-1.43-.144-.057.206-.144.345-.233.437-.554.548-1.555.613-2.046.696-.58.056-1.588.072-2.55-.172-3.66-.928-5.293-3.332-6.336-6.832-.21-.708-.416-1.726-.54-2.686-.453-1.04-1.313-3.736.452-6.348.317-.47 1.364-1.775 1.636-2.5.378-1.725-1.795-.694-3.32-2.242 0 0-1.256-1.63-3.69-1.298-.415.07-.79.193-1.087.437.037-.058.082-.11.17-.192 1.545-1.35 3.82-1.158 5.113-.04.284.244.292.4 1.26.4 1.687.002 3.204.124 4.085 1.41-.685.894-.994 1.208-1.26 1.76 0 .28-.086.64-.305 1.108-.14 1.742-.323 1.97-.294 2.843-.07 1.116-.018 2.402 1.138 2.88 1.163.48 1.473.33 3.453 1.358 3.656 1.896 3.745 4.22 3.368 4.512 0 0-.85-1.49-1.934-2.43-1.62-1.405-3.678-1.93-5.854-2.752-2.186-.826-2.45-1.662-2.45-1.662-.55 3.135 1.31 4.95 1.31 4.95-.187.064-1.125-1.06-1.542-1.704.466 2.04.98 3.28 1.5 4.3.136.25.445.722.722 1.075.582.655.835.927 1.707 1.5.547.366 1.15.71 1.897.906 1.628.43 4.067.396 5.036-.42.263-.224.383-.58.383-.58s.468.272.8.372c.472.142 1.027.002 1.377-.14 1.92-.852 2.37-3.016 3.82-4.833-1.433 2.93-1.728 5.416-4.36 6.013m2.68-6.793c.828-1.086 2.853-2.983 2.653-5.972 0 0 .258.757.226 1.745-.13 4.408-2.6 4.578-4.492 8.2 0 0-.283-1.492 1.613-3.983m8.417-13.845c-.038-.058-.082-.11-.17-.192-1.544-1.352-3.82-1.158-5.113-.04-.216.185-.273.32-.715.373-.154.356-.24.74-.24 1.142a2.68 2.68 0 0 0 .029.381 3.38 3.38 0 0 1-.378-.984c-.053-.003-.106-.085-.162-.1-1.846-.715-2.963-.235-3.693 1.214l.502.69c.148.324.6 1.297.722 2.616l.265 2.6c.097.838.094 1.053-.085 1.65-.157.493-.287.663-.58 1.222l-1.355 2.185c-.248.483-.323.717-.4.993 0 0-.67-1.63-2.048-2.652-1.18-.875-2.085-1.157-2.75-1.034 1.02.576 2.07 1.207 2.844 2.474 1.085 1.774 1.29 3.562 1.29 3.562s.07.005.29-.117c.165-.093.47-.405.62-.96.057-.21.288-.978.568-1.612.506-1.142.986-1.688 2.01-2.634.998-.922 1.97-2.228 1.604-4.15-.213-1.118-.714-1.813-1.267-2.755-.18-.36-.24-.63-.195-1.022.153-1.028 1.172-.47 2.454-.785a3.62 3.62 0 0 1-.244-.369c.475-.145.973-.377 1.417-.827 0 0 1.257-1.63 3.692-1.3.415.07.79.195 1.087.438" fill="#9c0b2b"/><path d="M66.45 753.327c-.226.052-.32-.064-.424-.282-.022.165-.063.333-.13.55-.156.493-.287.663-.58 1.222-.732 1.06-1.01 1.51-1.356 2.185-.248.483-.323.717-.4.993 0 0-.668-1.63-2.048-2.652-1.18-.875-2.084-1.157-2.75-1.034 1.268 1.2 1.91 2.415 2.147 3.767-.522-.732-1.41-1.55-2.856-2.3-1.98-1.028-2.3-.88-3.452-1.358-.824-.34-1.086-1.1-1.144-1.896l-.037.338c-.022.46-.148.452-.148.452s-.732-.01-.78-1.093c-.014-.668.104-.857.202-1.085.1-.256.236-.58.4-.66.28-.133.402-.042.447.014l.016-.093.015-.098.023-.147c.23-1.463.445-2.344.82-2.902l.095-.223.232-.38c.244-.19.367-.383.393-.573l.046-.06.143-.184c-.005-.006-.01-.012-.013-.018l.113-.1a3.95 3.95 0 0 1 .446-.42l-.087-2.837.094-.465.572-.136.275.36.928-1.074.805.282s.195-.08.36-.224 1.178-.594 1.178-.594l.47.183.595.446.24.407.982-.52.934 1.406.728-.3-.05 3.212.263.292.85 1.027.03.066.037.08.016.038.025.057.024.057.023.054.028.07.022.054.03.083.02.054.034.095.02.054.036.106.02.056.035.113.02.06.035.123.018.062.034.128.017.068.03.132.017.073.028.138.016.077.025.146.014.08.023.164.01.07.026.24.126 1.136c.078-.052.26-.12.502.13.3.245.554.967.543 1.554-.01.515-.136 1.08-.438 1.15" fill="#fcd3d7"/></g><path d="M51.193 746.92a2.35 2.35 0 0 1-.088.617l-.304 1.29c-.182.784-.685.81-.87.798-.145-.01-.893-.207-1.395-.625-.524-.4-.532-.7-.466-.897.052-.164.305-.623.5-.87.557-.683 1.39-.855 1.044-1.098-.1-.1-.074-.298.045-.723.096-.263.19-.495.283-.644.09-.125.173-.373.53-.406.09-.01.197-.002.173-.06a.84.84 0 0 1-.068-.352c.006-.146.206-.6.295-.826.102-.26.346-1.423.89-1.413.247.003.492.065.704.134.504.15 1.135.567 1.213.898.113.47-.19.666-.344.886l-1.145 1.154c-.044.047-.1.093-.165.158-.184.183-.09.235-.008.355.1.206-.193.787-.267.902-.122.186-.325.402-.507.405-.38.062-.05.092-.047.318" fill="#24ace9"/><g fill="#2f1e18"><path d="M50.934 744.667c.505.207.5.214.677.363.058.047.206-.03.07-.26-.058-.093-.148-.05-.13-.256.025-.266.6-.67.2-.747-.345-.07-.543.57-.57.662s-.18-.008-.257-.001c-.163.016-.296.117 0 .24m-1.1 2.622c.048-.36.332-.77.567-.544.15.144-.136.183-.336 1.02-.13.543-.268-.196-.23-.475"/></g><path d="M50.662 746.465c-.23-.024-.508-.043-.63-.197s-.137-.194-.053-.343.125-.026.26.095a.84.84 0 0 0 .407.205c.122.018.27.082.314.215.032.103-.08.047-.298.025" fill="#fff" fill-rule="evenodd"/><path d="M69.136 744.662c.194.001.464.284.586.467.076.115.413.698.217.885-.106.106-.133.138.03.293l.17.157 1.237 1.33c.107.145.453.417.303.804-.115.263-.94.7-1.376.867-.244.102-.517.2-.707.204-.43.05-.774-1.204-.872-1.46-.085-.22-.203-.734-.2-.88 0-.108.036-.24.09-.342.032-.056-.086-.05-.183-.06-.386-.036-.577-.29-.65-.382-.093-.086-.217-.33-.306-.59-.106-.417-.073-.588.04-.694.393-.235-.443-.336-1.036-1.123-.214-.242-.51-.68-.56-.843-.063-.202-.114-.433.523-.865.478-.376 1.392-.588 1.552-.598.202-.012.628-.123.786.647l.237 1.13c.06.348.095.623.064.726-.017.187-.336.306.057.327" fill="#24ace9"/><g fill="#2f1e18"><path d="M68.603 744.752c-.573.037-.555.1-.746.22-.062.04-.3-.084-.133-.243.06-.053.195-.2.144-.403-.068-.25-.433-.723-.076-.676.406.05.5.625.545.7a.27.27 0 0 0 .204.132c.17.02.353.243.062.26m1.167 2.406c-.114-.248-.2-.583-.53-.407-.416.22.104.554.422.9.3.314.197-.3.108-.484"/></g><g fill-rule="evenodd"><g fill="#fff"><path d="M69.314 746.395c-.196.167-.394.346-.595.34s-.28-.038-.32-.204.08-.117.267-.143.392-.16.5-.236c.106-.086.3-.15.363-.058s-.02.143-.204.3m-11.257.196s-.282.695-.572.676l1.684-.064c.08.004.24.07.32.076.787.08 1.715-.144 2.44.072-.248-.235-.4-.8-.756-.98-.383-.192-1.27-.247-1.822-.215s-.902.228-1.293.434"/></g></g><g fill="#dd1438"><path d="M54.794 750.316c0 .085.056.148.158.148.083-.002.195-.064.193-.15.004-.1-.112-.18-.198-.178-.1 0-.155.07-.153.18m.78-.526c0 .1.086.183.18.18a.2.2 0 0 0 .195-.181c-.001-.078-.103-.147-.2-.147-.088-.007-.176.07-.175.148m.662.973c0 .07.108.16.2.158.066-.002.17-.086.17-.163-.036-.127-.1-.18-.17-.18-.134.002-.212.055-.2.185m.8-.68c.002.092.046.173.157.172.1-.001.16-.08.16-.168 0-.096-.072-.188-.164-.177-.1 0-.153.086-.153.173m.78.833a.15.15 0 0 0 .165.163c.105 0 .17-.072.167-.16s-.063-.165-.172-.164c-.104-.001-.16.077-.16.16m3.685-.045c.016.097.066.15.17.132s.146-.094.14-.195c-.018-.087-.102-.12-.2-.1a.13.13 0 0 0-.11.163m1.054-.193c.015.077.08.144.154.13.092-.016.145-.102.128-.185-.016-.1-.093-.152-.184-.134-.078.015-.115.098-.098.2m1.4.13c.02.094.093.14.22.117.1-.018.14-.087.12-.182-.02-.102-.082-.182-.184-.163-.13.023-.177.127-.158.228m-.813-.773c.02.108.1.156.23.138.092-.02.15-.1.13-.205-.018-.088-.105-.157-.2-.14-.125.022-.186.118-.17.206m1.098-.076c.02.105.108.15.213.128.098-.013.17-.093.147-.192-.018-.093-.116-.158-.206-.14-.107.02-.174.1-.154.205"/></g><g fill="#fff"><path d="M56.55 753.016a1.64 1.64 0 0 1-1.061-.943c-.001-.115.287-.236.296-.28.14-.04.615.043.782.04.565-.006 1.208.255 1.046.578 0 0-.544.75-1.063.604m7.33-.972c.143.23-.492 1.082-.897 1.042s-.7-.194-1.03-.7c-.018-.03.008-.16-.01-.192.152-.254.584-.438 1.094-.436a1.89 1.89 0 0 1 .462.056c.008.16.24-.01.38.22"/></g><path d="M59.724 738.916c.432-.1.836.127.903.434a.82.82 0 0 1-.096.562.76.76 0 0 1-.305.311c-.157.11-.4.09-.476.064l-.068-.03c-.428-.167-.682-1.155.042-1.34m-3.77 5.897l-.03-2.076c.067-.11.154-.24.274-.406.205-.286.5.678.857.476.382-.216.363-.89.77-1.21.243-.2.694.9.932.3.257-.64.718-.786 1.216-1.04.223.196.55.223.822.545.256.302.41.6.598.67.292.09.464-.63.78-.515.514.19.424 1.137.9 1.265.242.065.28-.35.567-.394s.557.955.704 1.37c.074.205.18.264.338.204.225-.085.24-.388.26-.9.032-.733.37-1.436.778-1.926s-.63-.218-1.038.843c-.254.66-.183.665-.372.325 0 0-.35-.606-.576-.666-.29-.078-.564.346-.564.346s-.34-1.178-.92-1.18c-.545-.002-.728.58-.856.354-.097-.167-.217-.416-.706-.595.262-.2.488-.407.587-.77.187-.862-.452-1.406-1.205-1.462-.543-.037-1.2.192-1.375.702-.19.65.21 1.242.6 1.52-.36.095-.648.34-.86.65 0 0-.306-.422-.758-.342-.288.05-.674.618-.812 1.102-.007.022-.32-.425-.686-.365-.49.08-.485.44-.723.794-.053.078-.228.333-.264.114a2.37 2.37 0 0 0-.224-.695c-.25-.502-.973-1.06-1.3-.848.283.114.755.675.9 1.176.162.56.202 1.085.142 1.632-.047.436.384.195.67-.104l.014.282.023 1c.001.148-.067.425-.24.624-.178.213-.452.657-.608.883l-.3.507c-.106.2-.205.428-.35.833-.118.335-.244.836-.313 1.46l-.08 1.202.256-1.237c.212-.93.387-1.36.714-1.923.326-.586.74-1.053 1.135-1.466.23-.242.707-.636 1-.88l1.044-.76c.405-.255 1.15-.773 2.172-.76.96.01 1.483.388 1.796.568.672.39 1.02.695 1.488 1.132l1.137 1.134c.423.494.812 1.022 1.164 2.266.192.68.316 1.475.395 1.92.01-.158.035-.337-.014-.95l-.19-1.26c-.14-.593-.27-.99-.505-1.423-.243-.445-.308-.484-.716-1.096-.285-.404-.296-.42-.308-.726-.01-1.285-.295-3.05-.517-.262-1.413-1.2-2.628-1.956-3.78-1.97-1.13-.013-2.312.735-3.87 2.02m6.847 8.59c-.237-.077-.607-.413-.736-.608-.16-.242-.262-.677-.47-.684-.08.028-.003.208-.124.195-.156-.035-.25-.17-.21-.332a.24.24 0 0 1 .211-.155c.37-.048.426.293.567.49.12.163.364.414.495.488.12.07.298.123.45.004.09-.076.001-.242-.065-.276-.17-.014-.33.048-.41.03s-.2-.235-.22-.505c.178-.072.22.063.396.066.282.004.56-.18.703-.04s.14.405.14.518c.24-.01.35-.35.248-.524-.08-.092-.274-.074-.273-.245.82-.165.896.176.96.36.045.15.028.27-.04.475-.24.608-.97.955-1.624.74m-7.578-1.553c.145-.076.453-.225.697-.154.03.094-.05.14-.103.14-.154.006-.263.143-.26.207.018.21.234.547.488.68.232.165.41.076.48-.052-.005-.1-.04-.176-.127-.195-.133-.03-.23.085-.328.042a.4.4 0 0 1-.047-.513c.067-.08.146-.112.174-.086.125.16.426.156.73.13.13.09.136.31.172.5.216.245.324-.248.467-.444.094-.128.196-.28.324-.294.22-.022.504.154.395.476-.063.083-.236-.084-.305-.03-.262.25-.026.757-.57 1.03-.582.292-1.485.19-1.846-.263-.14-.176-.293-.37-.407-.67-.055-.198-.107-.403.067-.506m5.557-2.207c-.357.107-.44-.275-.803-.274-.51 0-.615.326-.885.298-.222-.025-.337-.362-.488-.385-.12.024-.096-.18.057-.22.306-.077.24.18.44.108.12-.046.144-.25.487-.407s.68.03.987.307c.194.188.56.175.467.29-.082.04-.14.245-.263.28m.742 4.652c.024-.1.374-.001.538.062.126.05.232.104.392.137a2.22 2.22 0 0 0 .377.04c.248.001.408-.002.622-.037.338-.056.975-.39 1.027-.243.058.274-.182.494-.364.593-.45.243-1.14.37-1.754.12-.206-.098-.276-.18-.47-.313-.135-.09-.383-.238-.368-.36m-2.433-7.17l.468.04c.786.073 1.506-.13 2.232.078-.25-.232-.454-.595-.813-.77-.384-.188-1.086-.19-1.638-.15-.558.038-1.014.342-1.404.552-.105-.315.064-.436.306-.65.274-.245.7-.58 1.345-.596.933-.024 1.668.066 2.136.837.143.253.53.772.93.964.225.107.74.348.655.48-.153.196-.457.16-.675.112-.166-.034-.216-.338-.493-.36-.656-.085-1.293.145-2.102.12-.582-.017-1.04-.152-1.663-.2-.6-.048-.808.27-1.37.338-.256.033-.303-.115-.11-.36.182-.187.498-.365.75-.36.5-.001.94-.107 1.446-.073m-1.622 7.29c-.14.036-.222.09-.4.112-.11.013-.27.023-.38.017-.246-.014-.37-.012-.62-.076-.332-.085-.948-.45-1.01-.306-.053.192.047.365.172.5l1.368.448a1.72 1.72 0 0 0 .531-.095c.183-.075.32-.178.5-.283.137-.085.405-.218.388-.336-.035-.1-.37-.016-.54.03" fill="#2f1e18" fill-rule="evenodd"/></g></svg>